solid OpenSCAD_Model
  facet normal 1 0 0
    outer loop
      vertex -21.15 15.55 7.95
      vertex -21.15 11.9343 7.95
      vertex -21.15 15.55 6.7
    endloop
  endfacet
  facet normal 1 -0 0
    outer loop
      vertex -21.15 15.55 6.7
      vertex -21.15 17.25 -5.3
      vertex -21.15 17.25 6.7
    endloop
  endfacet
  facet normal 1 0 0
    outer loop
      vertex -21.15 11.9343 -5.3
      vertex -21.15 15.55 6.7
      vertex -21.15 11.9343 7.95
    endloop
  endfacet
  facet normal 1 0 0
    outer loop
      vertex -21.15 15.55 6.7
      vertex -21.15 11.9343 -5.3
      vertex -21.15 17.25 -5.3
    endloop
  endfacet
  facet normal 1 0 0
    outer loop
      vertex -21.15 -15.55 6.7
      vertex -21.15 -11.9343 7.95
      vertex -21.15 -15.55 7.95
    endloop
  endfacet
  facet normal 1 0 0
    outer loop
      vertex -21.15 -11.9343 7.95
      vertex -21.15 -15.55 6.7
      vertex -21.15 -11.9343 -5.3
    endloop
  endfacet
  facet normal 1 0 0
    outer loop
      vertex -21.15 -17.25 -5.3
      vertex -21.15 -15.55 6.7
      vertex -21.15 -17.25 6.7
    endloop
  endfacet
  facet normal 1 0 0
    outer loop
      vertex -21.15 -15.55 6.7
      vertex -21.15 -17.25 -5.3
      vertex -21.15 -11.9343 -5.3
    endloop
  endfacet
  facet normal -1 0 0
    outer loop
      vertex 21.15 17.25 -5.3
      vertex 21.15 15.55 6.7
      vertex 21.15 17.25 6.7
    endloop
  endfacet
  facet normal -1 0 0
    outer loop
      vertex 21.15 11.9343 -5.3
      vertex 21.15 15.55 6.7
      vertex 21.15 17.25 -5.3
    endloop
  endfacet
  facet normal -1 0 0
    outer loop
      vertex 21.15 11.9343 7.95
      vertex 21.15 15.55 6.7
      vertex 21.15 11.9343 -5.3
    endloop
  endfacet
  facet normal -1 0 0
    outer loop
      vertex 21.15 15.55 6.7
      vertex 21.15 11.9343 7.95
      vertex 21.15 15.55 7.95
    endloop
  endfacet
  facet normal -1 0 0
    outer loop
      vertex 21.15 -11.9343 -5.3
      vertex 21.15 -15.55 6.7
      vertex 21.15 -11.9343 7.95
    endloop
  endfacet
  facet normal -1 0 0
    outer loop
      vertex 21.15 -17.25 -5.3
      vertex 21.15 -15.55 6.7
      vertex 21.15 -11.9343 -5.3
    endloop
  endfacet
  facet normal -1 -0 0
    outer loop
      vertex 21.15 -15.55 6.7
      vertex 21.15 -17.25 -5.3
      vertex 21.15 -17.25 6.7
    endloop
  endfacet
  facet normal -1 -0 0
    outer loop
      vertex 21.15 -11.9343 7.95
      vertex 21.15 -15.55 6.7
      vertex 21.15 -15.55 7.95
    endloop
  endfacet
  facet normal 0 -1 0
    outer loop
      vertex 12 21.15 7.95
      vertex 15.55 21.15 6.7
      vertex 15.55 21.15 7.95
    endloop
  endfacet
  facet normal 0 -1 0
    outer loop
      vertex 12 21.15 -5.3
      vertex 15.55 21.15 6.7
      vertex 12 21.15 7.95
    endloop
  endfacet
  facet normal 0 -1 0
    outer loop
      vertex 17.25 21.15 -5.3
      vertex 15.55 21.15 6.7
      vertex 12 21.15 -5.3
    endloop
  endfacet
  facet normal 0 -1 0
    outer loop
      vertex 15.55 21.15 6.7
      vertex 17.25 21.15 -5.3
      vertex 17.25 21.15 6.7
    endloop
  endfacet
  facet normal 0 -1 0
    outer loop
      vertex -17.25 21.15 6.7
      vertex -17.25 21.15 -5.3
      vertex -15.55 21.15 6.7
    endloop
  endfacet
  facet normal 0 -1 0
    outer loop
      vertex -15.55 21.15 6.7
      vertex -12 21.15 7.95
      vertex -15.55 21.15 7.95
    endloop
  endfacet
  facet normal 0 -1 0
    outer loop
      vertex -12 21.15 -5.3
      vertex -15.55 21.15 6.7
      vertex -17.25 21.15 -5.3
    endloop
  endfacet
  facet normal 0 -1 0
    outer loop
      vertex -15.55 21.15 6.7
      vertex -12 21.15 -5.3
      vertex -12 21.15 7.95
    endloop
  endfacet
  facet normal 0 0 1
    outer loop
      vertex 21.15 17.25 -5.3
      vertex 19.8957 11.9343 -5.3
      vertex 21.15 11.9343 -5.3
    endloop
  endfacet
  facet normal 0 0 1
    outer loop
      vertex 21.15 17.25 -5.3
      vertex 17.4418 11.4127 -5.3
      vertex 19.8957 11.9343 -5.3
    endloop
  endfacet
  facet normal 0 0 1
    outer loop
      vertex 17.25 21.15 -5.3
      vertex 17.4418 11.4127 -5.3
      vertex 21.15 17.25 -5.3
    endloop
  endfacet
  facet normal -0 0 1
    outer loop
      vertex 11.7378 18.6551 -5.3
      vertex 17.4418 11.4127 -5.3
      vertex 17.25 21.15 -5.3
    endloop
  endfacet
  facet normal 0 0 1
    outer loop
      vertex 17.4418 11.4127 -5.3
      vertex 10.9625 16.2692 -5.3
      vertex 15.15 10.3923 -5.3
    endloop
  endfacet
  facet normal 0 0 1
    outer loop
      vertex 11.7378 18.6551 -5.3
      vertex 17.25 21.15 -5.3
      vertex 12 21.15 -5.3
    endloop
  endfacet
  facet normal 0 0 1
    outer loop
      vertex 17.4418 11.4127 -5.3
      vertex 11.7378 18.6551 -5.3
      vertex 10.9625 16.2692 -5.3
    endloop
  endfacet
  facet normal -0 0 1
    outer loop
      vertex 9.7082 14.0966 -5.3
      vertex 15.15 10.3923 -5.3
      vertex 10.9625 16.2692 -5.3
    endloop
  endfacet
  facet normal 0 0 1
    outer loop
      vertex 15.15 10.3923 -5.3
      vertex 9.7082 14.0966 -5.3
      vertex 13.1204 8.91774 -5.3
    endloop
  endfacet
  facet normal -0 0 1
    outer loop
      vertex 8.02957 12.2323 -5.3
      vertex 13.1204 8.91774 -5.3
      vertex 9.7082 14.0966 -5.3
    endloop
  endfacet
  facet normal 0 0 1
    outer loop
      vertex 13.1204 8.91774 -5.3
      vertex 8.02957 12.2323 -5.3
      vertex 11.4418 7.05342 -5.3
    endloop
  endfacet
  facet normal -0 0 1
    outer loop
      vertex 6 10.7577 -5.3
      vertex 11.4418 7.05342 -5.3
      vertex 8.02957 12.2323 -5.3
    endloop
  endfacet
  facet normal 0 0 1
    outer loop
      vertex 11.4418 7.05342 -5.3
      vertex 6 10.7577 -5.3
      vertex 10.1875 4.88084 -5.3
    endloop
  endfacet
  facet normal -0 0 1
    outer loop
      vertex 3.7082 9.73732 -5.3
      vertex 10.1875 4.88084 -5.3
      vertex 6 10.7577 -5.3
    endloop
  endfacet
  facet normal -0 0 1
    outer loop
      vertex 19.8957 -11.9343 -5.3
      vertex 21.15 -17.25 -5.3
      vertex 21.15 -11.9343 -5.3
    endloop
  endfacet
  facet normal 0 0 1
    outer loop
      vertex 17.4418 -11.4127 -5.3
      vertex 21.15 -17.25 -5.3
      vertex 19.8957 -11.9343 -5.3
    endloop
  endfacet
  facet normal 0 0 1
    outer loop
      vertex 17.4418 -11.4127 -5.3
      vertex 17.25 -21.15 -5.3
      vertex 21.15 -17.25 -5.3
    endloop
  endfacet
  facet normal 0 0 1
    outer loop
      vertex 10.9625 -16.2692 -5.3
      vertex 17.4418 -11.4127 -5.3
      vertex 15.15 -10.3923 -5.3
    endloop
  endfacet
  facet normal 0 0 1
    outer loop
      vertex 9.7082 -14.0966 -5.3
      vertex 15.15 -10.3923 -5.3
      vertex 13.1204 -8.91774 -5.3
    endloop
  endfacet
  facet normal 0 -0 1
    outer loop
      vertex 11.7378 -18.6551 -5.3
      vertex 17.4418 -11.4127 -5.3
      vertex 10.9625 -16.2692 -5.3
    endloop
  endfacet
  facet normal 0 0 1
    outer loop
      vertex 17.25 -21.15 -5.3
      vertex 11.7378 -18.6551 -5.3
      vertex 12 -21.15 -5.3
    endloop
  endfacet
  facet normal 0 0 1
    outer loop
      vertex 8.02957 -12.2323 -5.3
      vertex 13.1204 -8.91774 -5.3
      vertex 11.4418 -7.05342 -5.3
    endloop
  endfacet
  facet normal 0 0 1
    outer loop
      vertex 17.4418 -11.4127 -5.3
      vertex 11.7378 -18.6551 -5.3
      vertex 17.25 -21.15 -5.3
    endloop
  endfacet
  facet normal 0 0 1
    outer loop
      vertex 6 -10.7577 -5.3
      vertex 11.4418 -7.05342 -5.3
      vertex 10.1875 -4.88084 -5.3
    endloop
  endfacet
  facet normal 0 0 1
    outer loop
      vertex 15.15 -10.3923 -5.3
      vertex 9.7082 -14.0966 -5.3
      vertex 10.9625 -16.2692 -5.3
    endloop
  endfacet
  facet normal 0 0 1
    outer loop
      vertex 3.65914 -1.5 -5.3
      vertex 10.1875 -4.88084 -5.3
      vertex 9.41223 -2.49494 -5.3
    endloop
  endfacet
  facet normal -0 0 1
    outer loop
      vertex 3.65914 -1.5 -5.3
      vertex 9.41223 -2.49494 -5.3
      vertex 9.15 0 -5.3
    endloop
  endfacet
  facet normal 0 0 1
    outer loop
      vertex 3.65914 1.5 -5.3
      vertex 10.1875 4.88084 -5.3
      vertex 3.7082 9.73732 -5.3
    endloop
  endfacet
  facet normal 0 0 1
    outer loop
      vertex 13.1204 -8.91774 -5.3
      vertex 8.02957 -12.2323 -5.3
      vertex 9.7082 -14.0966 -5.3
    endloop
  endfacet
  facet normal 0 0 1
    outer loop
      vertex 9.41223 2.49494 -5.3
      vertex 3.65914 1.5 -5.3
      vertex 9.15 0 -5.3
    endloop
  endfacet
  facet normal 0 0 1
    outer loop
      vertex 3.65914 -1.5 -5.3
      vertex 9.15 0 -5.3
      vertex 3.65914 1.5 -5.3
    endloop
  endfacet
  facet normal 0 0 1
    outer loop
      vertex 10.1875 4.88084 -5.3
      vertex 3.65914 1.5 -5.3
      vertex 9.41223 2.49494 -5.3
    endloop
  endfacet
  facet normal 0 0 1
    outer loop
      vertex 10.1875 -4.88084 -5.3
      vertex 3.65914 -1.5 -5.3
      vertex 3.7082 -9.73732 -5.3
    endloop
  endfacet
  facet normal 0 0 1
    outer loop
      vertex 11.4418 -7.05342 -5.3
      vertex 6 -10.7577 -5.3
      vertex 8.02957 -12.2323 -5.3
    endloop
  endfacet
  facet normal -0 0 1
    outer loop
      vertex 1.25434 9.21574 -5.3
      vertex 3.65914 1.5 -5.3
      vertex 3.7082 9.73732 -5.3
    endloop
  endfacet
  facet normal -0 0 1
    outer loop
      vertex -1.25434 9.21574 -5.3
      vertex 3.65914 1.5 -5.3
      vertex 1.25434 9.21574 -5.3
    endloop
  endfacet
  facet normal 0 0 1
    outer loop
      vertex -1.25434 9.21574 -5.3
      vertex -3.65914 1.5 -5.3
      vertex 3.65914 1.5 -5.3
    endloop
  endfacet
  facet normal -0 0 1
    outer loop
      vertex -10.1875 4.88084 -5.3
      vertex -3.65914 1.5 -5.3
      vertex -3.7082 9.73732 -5.3
    endloop
  endfacet
  facet normal 0 0 1
    outer loop
      vertex -3.7082 9.73732 -5.3
      vertex -3.65914 1.5 -5.3
      vertex -1.25434 9.21574 -5.3
    endloop
  endfacet
  facet normal 0 0 1
    outer loop
      vertex -3.7082 -9.73732 -5.3
      vertex -10.1875 -4.88084 -5.3
      vertex -6 -10.7577 -5.3
    endloop
  endfacet
  facet normal -0 0 1
    outer loop
      vertex -11.4418 -7.05342 -5.3
      vertex -6 -10.7577 -5.3
      vertex -10.1875 -4.88084 -5.3
    endloop
  endfacet
  facet normal 0 0 1
    outer loop
      vertex -6 -10.7577 -5.3
      vertex -11.4418 -7.05342 -5.3
      vertex -8.02957 -12.2323 -5.3
    endloop
  endfacet
  facet normal -0 0 1
    outer loop
      vertex -13.1204 -8.91774 -5.3
      vertex -8.02957 -12.2323 -5.3
      vertex -11.4418 -7.05342 -5.3
    endloop
  endfacet
  facet normal 0 0 1
    outer loop
      vertex -8.02957 -12.2323 -5.3
      vertex -13.1204 -8.91774 -5.3
      vertex -9.7082 -14.0966 -5.3
    endloop
  endfacet
  facet normal -0 0 1
    outer loop
      vertex -15.15 -10.3923 -5.3
      vertex -9.7082 -14.0966 -5.3
      vertex -13.1204 -8.91774 -5.3
    endloop
  endfacet
  facet normal 0 0 1
    outer loop
      vertex -9.7082 -14.0966 -5.3
      vertex -15.15 -10.3923 -5.3
      vertex -10.9625 -16.2692 -5.3
    endloop
  endfacet
  facet normal -0 0 1
    outer loop
      vertex -17.4418 -11.4127 -5.3
      vertex -10.9625 -16.2692 -5.3
      vertex -15.15 -10.3923 -5.3
    endloop
  endfacet
  facet normal 0 0 1
    outer loop
      vertex -10.9625 -16.2692 -5.3
      vertex -17.4418 -11.4127 -5.3
      vertex -11.7378 -18.6551 -5.3
    endloop
  endfacet
  facet normal 0 -0 1
    outer loop
      vertex -17.25 -21.15 -5.3
      vertex -11.7378 -18.6551 -5.3
      vertex -17.4418 -11.4127 -5.3
    endloop
  endfacet
  facet normal 0 0 1
    outer loop
      vertex -11.7378 -18.6551 -5.3
      vertex -17.25 -21.15 -5.3
      vertex -12 -21.15 -5.3
    endloop
  endfacet
  facet normal 0 0 1
    outer loop
      vertex -21.15 -17.25 -5.3
      vertex -17.4418 -11.4127 -5.3
      vertex -19.8957 -11.9343 -5.3
    endloop
  endfacet
  facet normal 0 0 1
    outer loop
      vertex -21.15 -17.25 -5.3
      vertex -19.8957 -11.9343 -5.3
      vertex -21.15 -11.9343 -5.3
    endloop
  endfacet
  facet normal 0 0 1
    outer loop
      vertex -17.4418 -11.4127 -5.3
      vertex -21.15 -17.25 -5.3
      vertex -17.25 -21.15 -5.3
    endloop
  endfacet
  facet normal 0 0 1
    outer loop
      vertex 10.1875 -4.88084 -5.3
      vertex 3.7082 -9.73732 -5.3
      vertex 6 -10.7577 -5.3
    endloop
  endfacet
  facet normal -0 0 1
    outer loop
      vertex 3.52093 -1.5 -5.3
      vertex 3.7082 -9.73732 -5.3
      vertex 3.65914 -1.5 -5.3
    endloop
  endfacet
  facet normal 0 0 1
    outer loop
      vertex 1.25434 -9.21574 -5.3
      vertex 3.52093 -1.5 -5.3
      vertex 2.27043 -1.5 -5.3
    endloop
  endfacet
  facet normal 0 0 1
    outer loop
      vertex 3.52093 -1.5 -5.3
      vertex 1.25434 -9.21574 -5.3
      vertex 3.7082 -9.73732 -5.3
    endloop
  endfacet
  facet normal -0 0 1
    outer loop
      vertex 0.799999 -1.5 -5.3
      vertex 1.25434 -9.21574 -5.3
      vertex 2.27043 -1.5 -5.3
    endloop
  endfacet
  facet normal -0 0 1
    outer loop
      vertex -0.799999 -1.5 -5.3
      vertex 1.25434 -9.21574 -5.3
      vertex 0.799999 -1.5 -5.3
    endloop
  endfacet
  facet normal 0 0 1
    outer loop
      vertex -0.799999 -1.5 -5.3
      vertex -1.25434 -9.21574 -5.3
      vertex 1.25434 -9.21574 -5.3
    endloop
  endfacet
  facet normal -0 0 1
    outer loop
      vertex -2.27043 -1.5 -5.3
      vertex -1.25434 -9.21574 -5.3
      vertex -0.799999 -1.5 -5.3
    endloop
  endfacet
  facet normal 0 0 1
    outer loop
      vertex -3.52093 -1.5 -5.3
      vertex -1.25434 -9.21574 -5.3
      vertex -2.27043 -1.5 -5.3
    endloop
  endfacet
  facet normal 0 0 1
    outer loop
      vertex -3.7082 -9.73732 -5.3
      vertex -3.52093 -1.5 -5.3
      vertex -3.65914 -1.5 -5.3
    endloop
  endfacet
  facet normal 0 0 1
    outer loop
      vertex -3.52093 -1.5 -5.3
      vertex -3.7082 -9.73732 -5.3
      vertex -1.25434 -9.21574 -5.3
    endloop
  endfacet
  facet normal 0 -0 1
    outer loop
      vertex -9.15 0 -5.3
      vertex -3.65914 1.5 -5.3
      vertex -9.41223 2.49494 -5.3
    endloop
  endfacet
  facet normal 0 0 1
    outer loop
      vertex -9.41223 -2.49494 -5.3
      vertex -3.65914 -1.5 -5.3
      vertex -9.15 0 -5.3
    endloop
  endfacet
  facet normal 0 0 1
    outer loop
      vertex -10.1875 4.88084 -5.3
      vertex -3.7082 9.73732 -5.3
      vertex -6 10.7577 -5.3
    endloop
  endfacet
  facet normal 0 0 1
    outer loop
      vertex -11.4418 7.05342 -5.3
      vertex -6 10.7577 -5.3
      vertex -8.02957 12.2323 -5.3
    endloop
  endfacet
  facet normal 0 0 1
    outer loop
      vertex -10.1875 -4.88084 -5.3
      vertex -3.65914 -1.5 -5.3
      vertex -9.41223 -2.49494 -5.3
    endloop
  endfacet
  facet normal 0 0 1
    outer loop
      vertex -3.65914 -1.5 -5.3
      vertex -10.1875 -4.88084 -5.3
      vertex -3.7082 -9.73732 -5.3
    endloop
  endfacet
  facet normal 0 0 1
    outer loop
      vertex -3.65914 1.5 -5.3
      vertex -9.15 0 -5.3
      vertex -3.65914 -1.5 -5.3
    endloop
  endfacet
  facet normal 0 0 1
    outer loop
      vertex -13.1204 8.91774 -5.3
      vertex -8.02957 12.2323 -5.3
      vertex -9.7082 14.0966 -5.3
    endloop
  endfacet
  facet normal 0 0 1
    outer loop
      vertex -3.65914 1.5 -5.3
      vertex -10.1875 4.88084 -5.3
      vertex -9.41223 2.49494 -5.3
    endloop
  endfacet
  facet normal 0 0 1
    outer loop
      vertex -15.15 10.3923 -5.3
      vertex -9.7082 14.0966 -5.3
      vertex -10.9625 16.2692 -5.3
    endloop
  endfacet
  facet normal 0 0 1
    outer loop
      vertex -6 10.7577 -5.3
      vertex -11.4418 7.05342 -5.3
      vertex -10.1875 4.88084 -5.3
    endloop
  endfacet
  facet normal 0 0 1
    outer loop
      vertex -17.4418 11.4127 -5.3
      vertex -10.9625 16.2692 -5.3
      vertex -11.7378 18.6551 -5.3
    endloop
  endfacet
  facet normal -0 0 1
    outer loop
      vertex -17.25 21.15 -5.3
      vertex -11.7378 18.6551 -5.3
      vertex -12 21.15 -5.3
    endloop
  endfacet
  facet normal 0 0 1
    outer loop
      vertex -8.02957 12.2323 -5.3
      vertex -13.1204 8.91774 -5.3
      vertex -11.4418 7.05342 -5.3
    endloop
  endfacet
  facet normal 0 0 1
    outer loop
      vertex -9.7082 14.0966 -5.3
      vertex -15.15 10.3923 -5.3
      vertex -13.1204 8.91774 -5.3
    endloop
  endfacet
  facet normal 0 0 1
    outer loop
      vertex -11.7378 18.6551 -5.3
      vertex -17.25 21.15 -5.3
      vertex -17.4418 11.4127 -5.3
    endloop
  endfacet
  facet normal 0 0 1
    outer loop
      vertex -10.9625 16.2692 -5.3
      vertex -17.4418 11.4127 -5.3
      vertex -15.15 10.3923 -5.3
    endloop
  endfacet
  facet normal -0 0 1
    outer loop
      vertex -21.15 17.25 -5.3
      vertex -17.4418 11.4127 -5.3
      vertex -17.25 21.15 -5.3
    endloop
  endfacet
  facet normal 0 0 1
    outer loop
      vertex -17.4418 11.4127 -5.3
      vertex -21.15 17.25 -5.3
      vertex -19.8957 11.9343 -5.3
    endloop
  endfacet
  facet normal 0 0 1
    outer loop
      vertex -19.8957 11.9343 -5.3
      vertex -21.15 17.25 -5.3
      vertex -21.15 11.9343 -5.3
    endloop
  endfacet
  facet normal 0 1 0
    outer loop
      vertex 17.25 -21.15 6.7
      vertex 17.25 -21.15 -5.3
      vertex 15.55 -21.15 6.7
    endloop
  endfacet
  facet normal 0 1 -0
    outer loop
      vertex 15.55 -21.15 6.7
      vertex 12 -21.15 7.95
      vertex 15.55 -21.15 7.95
    endloop
  endfacet
  facet normal 0 1 0
    outer loop
      vertex 12 -21.15 -5.3
      vertex 15.55 -21.15 6.7
      vertex 17.25 -21.15 -5.3
    endloop
  endfacet
  facet normal 0 1 0
    outer loop
      vertex 15.55 -21.15 6.7
      vertex 12 -21.15 -5.3
      vertex 12 -21.15 7.95
    endloop
  endfacet
  facet normal 0 1 0
    outer loop
      vertex -12 -21.15 7.95
      vertex -15.55 -21.15 6.7
      vertex -15.55 -21.15 7.95
    endloop
  endfacet
  facet normal 0 1 -0
    outer loop
      vertex -12 -21.15 -5.3
      vertex -15.55 -21.15 6.7
      vertex -12 -21.15 7.95
    endloop
  endfacet
  facet normal 0 1 0
    outer loop
      vertex -17.25 -21.15 -5.3
      vertex -15.55 -21.15 6.7
      vertex -12 -21.15 -5.3
    endloop
  endfacet
  facet normal 0 1 0
    outer loop
      vertex -15.55 -21.15 6.7
      vertex -17.25 -21.15 -5.3
      vertex -17.25 -21.15 6.7
    endloop
  endfacet
  facet normal -0.707107 -0.707107 0
    outer loop
      vertex 21.15 17.25 -5.3
      vertex 17.25 21.15 6.7
      vertex 17.25 21.15 -5.3
    endloop
  endfacet
  facet normal -0.707107 -0.707107 0
    outer loop
      vertex 17.25 21.15 6.7
      vertex 21.15 17.25 -5.3
      vertex 21.15 17.25 6.7
    endloop
  endfacet
  facet normal 0.707107 -0.707107 0
    outer loop
      vertex -21.15 17.25 6.7
      vertex -17.25 21.15 -5.3
      vertex -17.25 21.15 6.7
    endloop
  endfacet
  facet normal 0.707107 -0.707107 0
    outer loop
      vertex -17.25 21.15 -5.3
      vertex -21.15 17.25 6.7
      vertex -21.15 17.25 -5.3
    endloop
  endfacet
  facet normal -0.707107 0.707107 0
    outer loop
      vertex 17.25 -21.15 -5.3
      vertex 21.15 -17.25 6.7
      vertex 21.15 -17.25 -5.3
    endloop
  endfacet
  facet normal -0.707107 0.707107 0
    outer loop
      vertex 21.15 -17.25 6.7
      vertex 17.25 -21.15 -5.3
      vertex 17.25 -21.15 6.7
    endloop
  endfacet
  facet normal 0.707107 0.707107 0
    outer loop
      vertex -17.25 -21.15 6.7
      vertex -21.15 -17.25 -5.3
      vertex -21.15 -17.25 6.7
    endloop
  endfacet
  facet normal 0.707107 0.707107 0
    outer loop
      vertex -21.15 -17.25 -5.3
      vertex -17.25 -21.15 6.7
      vertex -17.25 -21.15 -5.3
    endloop
  endfacet
  facet normal 0 0 -1
    outer loop
      vertex 21.15 15.55 6.7
      vertex 17.25 21.15 6.7
      vertex 21.15 17.25 6.7
    endloop
  endfacet
  facet normal -0 -0 -1
    outer loop
      vertex 17.25 21.15 6.7
      vertex 21.15 15.55 6.7
      vertex 15.55 21.15 6.7
    endloop
  endfacet
  facet normal -0.707107 -0.707107 0
    outer loop
      vertex 21.15 15.55 6.7
      vertex 15.55 21.15 7.95
      vertex 15.55 21.15 6.7
    endloop
  endfacet
  facet normal -0.707107 -0.707107 0
    outer loop
      vertex 15.55 21.15 7.95
      vertex 21.15 15.55 6.7
      vertex 21.15 15.55 7.95
    endloop
  endfacet
  facet normal 0.707107 -0.707107 0
    outer loop
      vertex -21.15 15.55 7.95
      vertex -15.55 21.15 6.7
      vertex -15.55 21.15 7.95
    endloop
  endfacet
  facet normal 0.707107 -0.707107 0
    outer loop
      vertex -15.55 21.15 6.7
      vertex -21.15 15.55 7.95
      vertex -21.15 15.55 6.7
    endloop
  endfacet
  facet normal 0 0 -1
    outer loop
      vertex -21.15 15.55 6.7
      vertex -17.25 21.15 6.7
      vertex -15.55 21.15 6.7
    endloop
  endfacet
  facet normal 0 0 -1
    outer loop
      vertex -17.25 21.15 6.7
      vertex -21.15 15.55 6.7
      vertex -21.15 17.25 6.7
    endloop
  endfacet
  facet normal -0.707107 0.707107 0
    outer loop
      vertex 15.55 -21.15 6.7
      vertex 21.15 -15.55 7.95
      vertex 21.15 -15.55 6.7
    endloop
  endfacet
  facet normal -0.707107 0.707107 0
    outer loop
      vertex 21.15 -15.55 7.95
      vertex 15.55 -21.15 6.7
      vertex 15.55 -21.15 7.95
    endloop
  endfacet
  facet normal 0 0 -1
    outer loop
      vertex 17.25 -21.15 6.7
      vertex 21.15 -15.55 6.7
      vertex 21.15 -17.25 6.7
    endloop
  endfacet
  facet normal 0 0 -1
    outer loop
      vertex 21.15 -15.55 6.7
      vertex 17.25 -21.15 6.7
      vertex 15.55 -21.15 6.7
    endloop
  endfacet
  facet normal 0.707107 0.707107 0
    outer loop
      vertex -15.55 -21.15 7.95
      vertex -21.15 -15.55 6.7
      vertex -21.15 -15.55 7.95
    endloop
  endfacet
  facet normal 0.707107 0.707107 0
    outer loop
      vertex -21.15 -15.55 6.7
      vertex -15.55 -21.15 7.95
      vertex -15.55 -21.15 6.7
    endloop
  endfacet
  facet normal 0 0 -1
    outer loop
      vertex -21.15 -17.25 6.7
      vertex -15.55 -21.15 6.7
      vertex -17.25 -21.15 6.7
    endloop
  endfacet
  facet normal 0 0 -1
    outer loop
      vertex -15.55 -21.15 6.7
      vertex -21.15 -17.25 6.7
      vertex -21.15 -15.55 6.7
    endloop
  endfacet
  facet normal 0 -1 0
    outer loop
      vertex -3.88899 1.5 -7.67971
      vertex -3.65914 1.5 -5.3
      vertex -5.00013 1.5 -6.01677
    endloop
  endfacet
  facet normal 0 -1 0
    outer loop
      vertex -3.65914 1.5 -5.3
      vertex 0 1.5 -6.5
      vertex 3.65914 1.5 -5.3
    endloop
  endfacet
  facet normal 0 -1 0
    outer loop
      vertex 1.36563 1.5 -6.6345
      vertex 3.65914 1.5 -5.3
      vertex 0 1.5 -6.5
    endloop
  endfacet
  facet normal 0 -1 0
    outer loop
      vertex -3.65914 1.5 -5.3
      vertex -1.36563 1.5 -6.6345
      vertex 0 1.5 -6.5
    endloop
  endfacet
  facet normal 0 -1 0
    outer loop
      vertex -3.65914 1.5 -5.3
      vertex -2.67878 1.5 -7.03284
      vertex -1.36563 1.5 -6.6345
    endloop
  endfacet
  facet normal 0 -1 0
    outer loop
      vertex -4.21834 1.5 -7.95
      vertex -5.00013 1.5 -6.01677
      vertex -6.36396 1.5 -7.13604
    endloop
  endfacet
  facet normal 0 -1 -0
    outer loop
      vertex -3.65914 1.5 -5.3
      vertex -3.88899 1.5 -7.67971
      vertex -2.67878 1.5 -7.03284
    endloop
  endfacet
  facet normal 0 -1 0
    outer loop
      vertex -4.21834 1.5 -7.95
      vertex -6.36396 1.5 -7.13604
      vertex -7.03196 1.5 -7.95
    endloop
  endfacet
  facet normal 0 -1 0
    outer loop
      vertex -5.00013 1.5 -6.01677
      vertex -4.21834 1.5 -7.95
      vertex -3.88899 1.5 -7.67971
    endloop
  endfacet
  facet normal 0 -1 0
    outer loop
      vertex 2.67878 1.5 -7.03284
      vertex 3.65914 1.5 -5.3
      vertex 1.36563 1.5 -6.6345
    endloop
  endfacet
  facet normal 0 -1 0
    outer loop
      vertex 3.88899 1.5 -7.67971
      vertex 3.65914 1.5 -5.3
      vertex 2.67878 1.5 -7.03284
    endloop
  endfacet
  facet normal 0 -1 0
    outer loop
      vertex 3.65914 1.5 -5.3
      vertex 3.88899 1.5 -7.67971
      vertex 5.00013 1.5 -6.01677
    endloop
  endfacet
  facet normal 0 -1 0
    outer loop
      vertex 4.21834 1.5 -7.95
      vertex 5.00013 1.5 -6.01677
      vertex 3.88899 1.5 -7.67971
    endloop
  endfacet
  facet normal 0 -1 -0
    outer loop
      vertex 5.00013 1.5 -6.01677
      vertex 4.21834 1.5 -7.95
      vertex 6.36396 1.5 -7.13604
    endloop
  endfacet
  facet normal 0 -1 -0
    outer loop
      vertex 6.36396 1.5 -7.13604
      vertex 4.21834 1.5 -7.95
      vertex 7.03196 1.5 -7.95
    endloop
  endfacet
  facet normal 0 1 -7.14129e-008
    outer loop
      vertex -2.4693 -1.5 -6.9693
      vertex -2.27043 -1.5 -5.3
      vertex -0.799999 -1.5 -5.3
    endloop
  endfacet
  facet normal 2.2475e-008 1 -7.40903e-008
    outer loop
      vertex -2.67878 -1.5 -7.03284
      vertex -2.27043 -1.5 -5.3
      vertex -2.4693 -1.5 -6.9693
    endloop
  endfacet
  facet normal -7.06283e-008 1 -5.21502e-008
    outer loop
      vertex -3.88899 -1.5 -7.67971
      vertex -2.27043 -1.5 -5.3
      vertex -2.67878 -1.5 -7.03284
    endloop
  endfacet
  facet normal 0 1 0
    outer loop
      vertex -4.44523 -1.5 -7.95
      vertex -3.88899 -1.5 -7.67971
      vertex -4.21834 -1.5 -7.95
    endloop
  endfacet
  facet normal 7.27148e-008 1 -1.49645e-007
    outer loop
      vertex -3.88899 -1.5 -7.67971
      vertex -4.44523 -1.5 -7.95
      vertex -2.27043 -1.5 -5.3
    endloop
  endfacet
  facet normal 0 1 -9.9341e-008
    outer loop
      vertex 0.799999 -1.5 -5.3
      vertex 0 -1.5 -6.5
      vertex -0.799999 -1.5 -5.3
    endloop
  endfacet
  facet normal -9.1814e-009 1 -9.32201e-008
    outer loop
      vertex 0.799999 -1.5 -5.3
      vertex 1.36563 -1.5 -6.6345
      vertex 0 -1.5 -6.5
    endloop
  endfacet
  facet normal -3.10956e-008 1 -1.02508e-007
    outer loop
      vertex 1.36563 -1.5 -6.6345
      vertex 0.799999 -1.5 -5.3
      vertex 2.4693 -1.5 -6.9693
    endloop
  endfacet
  facet normal 9.1814e-009 1 -9.32201e-008
    outer loop
      vertex -1.36563 -1.5 -6.6345
      vertex -0.799999 -1.5 -5.3
      vertex 0 -1.5 -6.5
    endloop
  endfacet
  facet normal 3.10956e-008 1 -1.02508e-007
    outer loop
      vertex -0.799999 -1.5 -5.3
      vertex -1.36563 -1.5 -6.6345
      vertex -2.4693 -1.5 -6.9693
    endloop
  endfacet
  facet normal -0.634393 0 -0.77301
    outer loop
      vertex 5.00013 -1.5 -6.01677
      vertex 6.36396 1.5 -7.13604
      vertex 6.36396 -1.5 -7.13604
    endloop
  endfacet
  facet normal -0.634393 0 -0.77301
    outer loop
      vertex 6.36396 1.5 -7.13604
      vertex 5.00013 -1.5 -6.01677
      vertex 5.00013 1.5 -6.01677
    endloop
  endfacet
  facet normal 0 1 0
    outer loop
      vertex 5.00013 -1.5 -6.01677
      vertex 3.52093 -1.5 -5.3
      vertex 3.65914 -1.5 -5.3
    endloop
  endfacet
  facet normal -1.60691e-007 1 -2.09218e-007
    outer loop
      vertex 5.29161 -1.5 -7.95
      vertex 5.00013 -1.5 -6.01677
      vertex 6.03346 -1.5 -7.95
    endloop
  endfacet
  facet normal -9.6706e-008 1 -1.99571e-007
    outer loop
      vertex 5.00013 -1.5 -6.01677
      vertex 5.29161 -1.5 -7.95
      vertex 3.52093 -1.5 -5.3
    endloop
  endfacet
  facet normal 0.634393 0 -0.77301
    outer loop
      vertex -6.36396 -1.5 -7.13604
      vertex -5.00013 1.5 -6.01677
      vertex -5.00013 -1.5 -6.01677
    endloop
  endfacet
  facet normal 0.634393 0 -0.77301
    outer loop
      vertex -5.00013 1.5 -6.01677
      vertex -6.36396 -1.5 -7.13604
      vertex -6.36396 1.5 -7.13604
    endloop
  endfacet
  facet normal 3.60316e-007 1 -2.95704e-007
    outer loop
      vertex -6.36396 -1.5 -7.13604
      vertex -6.70111 -1.5 -7.95
      vertex -7.03196 -1.5 -7.95
    endloop
  endfacet
  facet normal -3.60316e-007 1 -2.95704e-007
    outer loop
      vertex 7.03196 -1.5 -7.95
      vertex 6.70111 -1.5 -7.95
      vertex 6.36396 -1.5 -7.13604
    endloop
  endfacet
  facet normal -0.77301 0 -0.634393
    outer loop
      vertex 7.03196 -1.5 -7.95
      vertex 6.36396 1.5 -7.13604
      vertex 7.03196 1.5 -7.95
    endloop
  endfacet
  facet normal -0.77301 -0 -0.634393
    outer loop
      vertex 6.36396 1.5 -7.13604
      vertex 7.03196 -1.5 -7.95
      vertex 6.36396 -1.5 -7.13604
    endloop
  endfacet
  facet normal -0.471397 0 -0.881921
    outer loop
      vertex 3.65914 -1.5 -5.3
      vertex 5.00013 1.5 -6.01677
      vertex 5.00013 -1.5 -6.01677
    endloop
  endfacet
  facet normal -0.471397 0 -0.881921
    outer loop
      vertex 5.00013 1.5 -6.01677
      vertex 3.65914 -1.5 -5.3
      vertex 3.65914 1.5 -5.3
    endloop
  endfacet
  facet normal 0 1 -1.34954e-007
    outer loop
      vertex 4.44523 -1.5 -7.95
      vertex 3.52093 -1.5 -5.3
      vertex 5.29161 -1.5 -7.95
    endloop
  endfacet
  facet normal -9.53292e-008 1 -1.68204e-007
    outer loop
      vertex 3.52093 -1.5 -5.3
      vertex 4.44523 -1.5 -7.95
      vertex 2.27043 -1.5 -5.3
    endloop
  endfacet
  facet normal 0 1 0
    outer loop
      vertex -3.52093 -1.5 -5.3
      vertex -5.00013 -1.5 -6.01677
      vertex -3.65914 -1.5 -5.3
    endloop
  endfacet
  facet normal 9.6706e-008 1 -1.99571e-007
    outer loop
      vertex -5.29161 -1.5 -7.95
      vertex -5.00013 -1.5 -6.01677
      vertex -3.52093 -1.5 -5.3
    endloop
  endfacet
  facet normal 1.60691e-007 1 -2.09218e-007
    outer loop
      vertex -5.00013 -1.5 -6.01677
      vertex -5.29161 -1.5 -7.95
      vertex -6.03346 -1.5 -7.95
    endloop
  endfacet
  facet normal 0.471397 0 -0.881921
    outer loop
      vertex -5.00013 -1.5 -6.01677
      vertex -3.65914 1.5 -5.3
      vertex -3.65914 -1.5 -5.3
    endloop
  endfacet
  facet normal 0.471397 0 -0.881921
    outer loop
      vertex -3.65914 1.5 -5.3
      vertex -5.00013 -1.5 -6.01677
      vertex -5.00013 1.5 -6.01677
    endloop
  endfacet
  facet normal 0.77301 0 -0.634393
    outer loop
      vertex -6.36396 -1.5 -7.13604
      vertex -7.03196 1.5 -7.95
      vertex -6.36396 1.5 -7.13604
    endloop
  endfacet
  facet normal 0.77301 0 -0.634393
    outer loop
      vertex -7.03196 1.5 -7.95
      vertex -6.36396 -1.5 -7.13604
      vertex -7.03196 -1.5 -7.95
    endloop
  endfacet
  facet normal -1.7855e-007 1 -2.20414e-007
    outer loop
      vertex 6.03346 -1.5 -7.95
      vertex 6.36396 -1.5 -7.13604
      vertex 6.70111 -1.5 -7.95
    endloop
  endfacet
  facet normal -1.80305e-007 1 -2.19702e-007
    outer loop
      vertex 6.36396 -1.5 -7.13604
      vertex 6.03346 -1.5 -7.95
      vertex 5.00013 -1.5 -6.01677
    endloop
  endfacet
  facet normal 0 1 -7.14129e-008
    outer loop
      vertex 2.27043 -1.5 -5.3
      vertex 2.4693 -1.5 -6.9693
      vertex 0.799999 -1.5 -5.3
    endloop
  endfacet
  facet normal -2.2475e-008 1 -7.40903e-008
    outer loop
      vertex 2.27043 -1.5 -5.3
      vertex 2.67878 -1.5 -7.03284
      vertex 2.4693 -1.5 -6.9693
    endloop
  endfacet
  facet normal 7.06283e-008 1 -5.21502e-008
    outer loop
      vertex 2.27043 -1.5 -5.3
      vertex 3.88899 -1.5 -7.67971
      vertex 2.67878 -1.5 -7.03284
    endloop
  endfacet
  facet normal -7.27148e-008 1 -1.49645e-007
    outer loop
      vertex 4.44523 -1.5 -7.95
      vertex 3.88899 -1.5 -7.67971
      vertex 2.27043 -1.5 -5.3
    endloop
  endfacet
  facet normal 0 1 0
    outer loop
      vertex 3.88899 -1.5 -7.67971
      vertex 4.44523 -1.5 -7.95
      vertex 4.21834 -1.5 -7.95
    endloop
  endfacet
  facet normal 9.53292e-008 1 -1.68204e-007
    outer loop
      vertex -4.44523 -1.5 -7.95
      vertex -3.52093 -1.5 -5.3
      vertex -2.27043 -1.5 -5.3
    endloop
  endfacet
  facet normal 0 1 -1.34954e-007
    outer loop
      vertex -3.52093 -1.5 -5.3
      vertex -4.44523 -1.5 -7.95
      vertex -5.29161 -1.5 -7.95
    endloop
  endfacet
  facet normal 1.80305e-007 1 -2.19702e-007
    outer loop
      vertex -6.03346 -1.5 -7.95
      vertex -6.36396 -1.5 -7.13604
      vertex -5.00013 -1.5 -6.01677
    endloop
  endfacet
  facet normal 1.7855e-007 1 -2.20414e-007
    outer loop
      vertex -6.36396 -1.5 -7.13604
      vertex -6.03346 -1.5 -7.95
      vertex -6.70111 -1.5 -7.95
    endloop
  endfacet
  facet normal 0.0980174 0 0.995185
    outer loop
      vertex 0 1.5 -6.5
      vertex 1.36563 -1.5 -6.6345
      vertex 1.36563 1.5 -6.6345
    endloop
  endfacet
  facet normal 0.0980174 0 0.995185
    outer loop
      vertex 1.36563 -1.5 -6.6345
      vertex 0 1.5 -6.5
      vertex 0 -1.5 -6.5
    endloop
  endfacet
  facet normal -0.634393 0 0.773011
    outer loop
      vertex -4.21834 1.5 -7.95
      vertex -3.88899 -1.5 -7.67971
      vertex -3.88899 1.5 -7.67971
    endloop
  endfacet
  facet normal -0.634393 0 0.773011
    outer loop
      vertex -3.88899 -1.5 -7.67971
      vertex -4.21834 1.5 -7.95
      vertex -4.21834 -1.5 -7.95
    endloop
  endfacet
  facet normal -0.290285 0 0.95694
    outer loop
      vertex -1.36563 1.5 -6.6345
      vertex -2.4693 -1.5 -6.9693
      vertex -1.36563 -1.5 -6.6345
    endloop
  endfacet
  facet normal -0.290285 -1.88106e-008 0.95694
    outer loop
      vertex -2.67878 1.5 -7.03284
      vertex -2.4693 -1.5 -6.9693
      vertex -1.36563 1.5 -6.6345
    endloop
  endfacet
  facet normal -0.290285 0 0.95694
    outer loop
      vertex -2.4693 -1.5 -6.9693
      vertex -2.67878 1.5 -7.03284
      vertex -2.67878 -1.5 -7.03284
    endloop
  endfacet
  facet normal 0.471397 0 0.881921
    outer loop
      vertex 2.67878 1.5 -7.03284
      vertex 3.88899 -1.5 -7.67971
      vertex 3.88899 1.5 -7.67971
    endloop
  endfacet
  facet normal 0.471397 0 0.881921
    outer loop
      vertex 3.88899 -1.5 -7.67971
      vertex 2.67878 1.5 -7.03284
      vertex 2.67878 -1.5 -7.03284
    endloop
  endfacet
  facet normal 0.290285 0 0.95694
    outer loop
      vertex 2.67878 1.5 -7.03284
      vertex 2.4693 -1.5 -6.9693
      vertex 2.67878 -1.5 -7.03284
    endloop
  endfacet
  facet normal 0.290285 -1.88106e-008 0.95694
    outer loop
      vertex 1.36563 1.5 -6.6345
      vertex 2.4693 -1.5 -6.9693
      vertex 2.67878 1.5 -7.03284
    endloop
  endfacet
  facet normal 0.290285 0 0.95694
    outer loop
      vertex 2.4693 -1.5 -6.9693
      vertex 1.36563 1.5 -6.6345
      vertex 1.36563 -1.5 -6.6345
    endloop
  endfacet
  facet normal 0.634393 0 0.773011
    outer loop
      vertex 3.88899 1.5 -7.67971
      vertex 4.21834 -1.5 -7.95
      vertex 4.21834 1.5 -7.95
    endloop
  endfacet
  facet normal 0.634393 0 0.773011
    outer loop
      vertex 4.21834 -1.5 -7.95
      vertex 3.88899 1.5 -7.67971
      vertex 3.88899 -1.5 -7.67971
    endloop
  endfacet
  facet normal -0.471397 0 0.881921
    outer loop
      vertex -3.88899 1.5 -7.67971
      vertex -2.67878 -1.5 -7.03284
      vertex -2.67878 1.5 -7.03284
    endloop
  endfacet
  facet normal -0.471397 0 0.881921
    outer loop
      vertex -2.67878 -1.5 -7.03284
      vertex -3.88899 1.5 -7.67971
      vertex -3.88899 -1.5 -7.67971
    endloop
  endfacet
  facet normal -0.0980174 0 0.995185
    outer loop
      vertex -1.36563 1.5 -6.6345
      vertex 0 -1.5 -6.5
      vertex 0 1.5 -6.5
    endloop
  endfacet
  facet normal -0.0980174 0 0.995185
    outer loop
      vertex 0 -1.5 -6.5
      vertex -1.36563 1.5 -6.6345
      vertex -1.36563 -1.5 -6.6345
    endloop
  endfacet
  facet normal 0.707107 0.707107 0
    outer loop
      vertex 23.15 18.75 7.95
      vertex 18.75 23.15 -7.95
      vertex 18.75 23.15 7.95
    endloop
  endfacet
  facet normal 0.707107 0.707107 0
    outer loop
      vertex 18.75 23.15 -7.95
      vertex 23.15 18.75 7.95
      vertex 23.15 18.75 -7.95
    endloop
  endfacet
  facet normal -0.707107 0.707107 0
    outer loop
      vertex -23.15 18.75 -7.95
      vertex -18.75 23.15 7.95
      vertex -18.75 23.15 -7.95
    endloop
  endfacet
  facet normal -0.707107 0.707107 0
    outer loop
      vertex -18.75 23.15 7.95
      vertex -23.15 18.75 -7.95
      vertex -23.15 18.75 7.95
    endloop
  endfacet
  facet normal 0.707107 -0.707107 0
    outer loop
      vertex 18.75 -23.15 7.95
      vertex 23.15 -18.75 -7.95
      vertex 23.15 -18.75 7.95
    endloop
  endfacet
  facet normal 0.707107 -0.707107 0
    outer loop
      vertex 23.15 -18.75 -7.95
      vertex 18.75 -23.15 7.95
      vertex 18.75 -23.15 -7.95
    endloop
  endfacet
  facet normal -0.707107 -0.707107 0
    outer loop
      vertex -18.75 -23.15 -7.95
      vertex -23.15 -18.75 7.95
      vertex -23.15 -18.75 -7.95
    endloop
  endfacet
  facet normal -0.707107 -0.707107 0
    outer loop
      vertex -23.15 -18.75 7.95
      vertex -18.75 -23.15 -7.95
      vertex -18.75 -23.15 7.95
    endloop
  endfacet
  facet normal 0.994522 -0.104529 0
    outer loop
      vertex 9.15 0 -5.3
      vertex 9.41223 2.49494 -7.95
      vertex 9.41223 2.49494 -5.3
    endloop
  endfacet
  facet normal 0.994522 -0.104529 0
    outer loop
      vertex 9.41223 2.49494 -7.95
      vertex 9.15 0 -5.3
      vertex 9.15 0 -7.95
    endloop
  endfacet
  facet normal 0 -1 0
    outer loop
      vertex 19.8957 11.9343 -5.3
      vertex 19.8957 11.9343 -7.95
      vertex 21.15 11.9343 -5.3
    endloop
  endfacet
  facet normal 0 -1 0
    outer loop
      vertex 21.15 11.9343 -5.3
      vertex 22.4043 11.9343 7.95
      vertex 21.15 11.9343 7.95
    endloop
  endfacet
  facet normal 0 -1 0
    outer loop
      vertex 21.15 11.9343 -5.3
      vertex 22.4043 11.9343 -7.95
      vertex 22.4043 11.9343 7.95
    endloop
  endfacet
  facet normal 0 -1 0
    outer loop
      vertex 22.4043 11.9343 -7.95
      vertex 21.15 11.9343 -5.3
      vertex 19.8957 11.9343 -7.95
    endloop
  endfacet
  facet normal 0 1 0
    outer loop
      vertex 22.4043 -11.9343 7.95
      vertex 21.15 -11.9343 -5.3
      vertex 21.15 -11.9343 7.95
    endloop
  endfacet
  facet normal 0 1 -0
    outer loop
      vertex 22.4043 -11.9343 -7.95
      vertex 21.15 -11.9343 -5.3
      vertex 22.4043 -11.9343 7.95
    endloop
  endfacet
  facet normal 0 1 0
    outer loop
      vertex 19.8957 -11.9343 -7.95
      vertex 21.15 -11.9343 -5.3
      vertex 22.4043 -11.9343 -7.95
    endloop
  endfacet
  facet normal 0 1 0
    outer loop
      vertex 21.15 -11.9343 -5.3
      vertex 19.8957 -11.9343 -7.95
      vertex 19.8957 -11.9343 -5.3
    endloop
  endfacet
  facet normal 0.743145 -0.669131 0
    outer loop
      vertex 11.4418 7.05342 -5.3
      vertex 13.1204 8.91774 -7.95
      vertex 13.1204 8.91774 -5.3
    endloop
  endfacet
  facet normal 0.743145 -0.669131 0
    outer loop
      vertex 13.1204 8.91774 -7.95
      vertex 11.4418 7.05342 -5.3
      vertex 11.4418 7.05342 -7.95
    endloop
  endfacet
  facet normal 0.866026 -0.5 0
    outer loop
      vertex 10.1875 4.88084 -5.3
      vertex 11.4418 7.05342 -7.95
      vertex 11.4418 7.05342 -5.3
    endloop
  endfacet
  facet normal 0.866026 -0.5 0
    outer loop
      vertex 11.4418 7.05342 -7.95
      vertex 10.1875 4.88084 -5.3
      vertex 10.1875 4.88084 -7.95
    endloop
  endfacet
  facet normal 0.406737 -0.913545 0
    outer loop
      vertex 15.15 10.3923 -7.95
      vertex 17.4418 11.4127 -5.3
      vertex 15.15 10.3923 -5.3
    endloop
  endfacet
  facet normal 0.406737 -0.913545 0
    outer loop
      vertex 17.4418 11.4127 -5.3
      vertex 15.15 10.3923 -7.95
      vertex 17.4418 11.4127 -7.95
    endloop
  endfacet
  facet normal -0.207912 -0.978148 0
    outer loop
      vertex 22.4043 11.9343 -7.95
      vertex 23.15 11.7758 7.95
      vertex 22.4043 11.9343 7.95
    endloop
  endfacet
  facet normal -0.207912 -0.978148 -0
    outer loop
      vertex 23.15 11.7758 7.95
      vertex 22.4043 11.9343 -7.95
      vertex 23.15 11.7758 -7.95
    endloop
  endfacet
  facet normal 0.951057 -0.309017 0
    outer loop
      vertex 9.41223 2.49494 -5.3
      vertex 10.1875 4.88084 -7.95
      vertex 10.1875 4.88084 -5.3
    endloop
  endfacet
  facet normal 0.951057 -0.309017 0
    outer loop
      vertex 10.1875 4.88084 -7.95
      vertex 9.41223 2.49494 -5.3
      vertex 9.41223 2.49494 -7.95
    endloop
  endfacet
  facet normal 0.587785 -0.809017 0
    outer loop
      vertex 13.1204 8.91774 -7.95
      vertex 15.15 10.3923 -5.3
      vertex 13.1204 8.91774 -5.3
    endloop
  endfacet
  facet normal 0.587785 -0.809017 0
    outer loop
      vertex 15.15 10.3923 -5.3
      vertex 13.1204 8.91774 -7.95
      vertex 15.15 10.3923 -7.95
    endloop
  endfacet
  facet normal 0.207912 -0.978148 0
    outer loop
      vertex 17.4418 11.4127 -7.95
      vertex 19.8957 11.9343 -5.3
      vertex 17.4418 11.4127 -5.3
    endloop
  endfacet
  facet normal 0.207912 -0.978148 0
    outer loop
      vertex 19.8957 11.9343 -5.3
      vertex 17.4418 11.4127 -7.95
      vertex 19.8957 11.9343 -7.95
    endloop
  endfacet
  facet normal -0.207912 0.978148 0
    outer loop
      vertex 23.15 -11.7758 -7.95
      vertex 22.4043 -11.9343 7.95
      vertex 23.15 -11.7758 7.95
    endloop
  endfacet
  facet normal -0.207912 0.978148 0
    outer loop
      vertex 22.4043 -11.9343 7.95
      vertex 23.15 -11.7758 -7.95
      vertex 22.4043 -11.9343 -7.95
    endloop
  endfacet
  facet normal 0.866026 0.5 0
    outer loop
      vertex 11.4418 -7.05342 -5.3
      vertex 10.1875 -4.88084 -7.95
      vertex 10.1875 -4.88084 -5.3
    endloop
  endfacet
  facet normal 0.866026 0.5 0
    outer loop
      vertex 10.1875 -4.88084 -7.95
      vertex 11.4418 -7.05342 -5.3
      vertex 11.4418 -7.05342 -7.95
    endloop
  endfacet
  facet normal 0.994522 0.104529 0
    outer loop
      vertex 9.41223 -2.49494 -5.3
      vertex 9.15 0 -7.95
      vertex 9.15 0 -5.3
    endloop
  endfacet
  facet normal 0.994522 0.104529 0
    outer loop
      vertex 9.15 0 -7.95
      vertex 9.41223 -2.49494 -5.3
      vertex 9.41223 -2.49494 -7.95
    endloop
  endfacet
  facet normal 0.406737 0.913545 -0
    outer loop
      vertex 17.4418 -11.4127 -7.95
      vertex 15.15 -10.3923 -5.3
      vertex 17.4418 -11.4127 -5.3
    endloop
  endfacet
  facet normal 0.406737 0.913545 0
    outer loop
      vertex 15.15 -10.3923 -5.3
      vertex 17.4418 -11.4127 -7.95
      vertex 15.15 -10.3923 -7.95
    endloop
  endfacet
  facet normal 0.743145 0.669131 0
    outer loop
      vertex 13.1204 -8.91774 -5.3
      vertex 11.4418 -7.05342 -7.95
      vertex 11.4418 -7.05342 -5.3
    endloop
  endfacet
  facet normal 0.743145 0.669131 0
    outer loop
      vertex 11.4418 -7.05342 -7.95
      vertex 13.1204 -8.91774 -5.3
      vertex 13.1204 -8.91774 -7.95
    endloop
  endfacet
  facet normal 0.951057 0.309017 0
    outer loop
      vertex 10.1875 -4.88084 -5.3
      vertex 9.41223 -2.49494 -7.95
      vertex 9.41223 -2.49494 -5.3
    endloop
  endfacet
  facet normal 0.951057 0.309017 0
    outer loop
      vertex 9.41223 -2.49494 -7.95
      vertex 10.1875 -4.88084 -5.3
      vertex 10.1875 -4.88084 -7.95
    endloop
  endfacet
  facet normal 0.587785 0.809017 -0
    outer loop
      vertex 15.15 -10.3923 -7.95
      vertex 13.1204 -8.91774 -5.3
      vertex 15.15 -10.3923 -5.3
    endloop
  endfacet
  facet normal 0.587785 0.809017 0
    outer loop
      vertex 13.1204 -8.91774 -5.3
      vertex 15.15 -10.3923 -7.95
      vertex 13.1204 -8.91774 -7.95
    endloop
  endfacet
  facet normal 0.207912 0.978148 -0
    outer loop
      vertex 19.8957 -11.9343 -7.95
      vertex 17.4418 -11.4127 -5.3
      vertex 19.8957 -11.9343 -5.3
    endloop
  endfacet
  facet normal 0.207912 0.978148 0
    outer loop
      vertex 17.4418 -11.4127 -5.3
      vertex 19.8957 -11.9343 -7.95
      vertex 17.4418 -11.4127 -7.95
    endloop
  endfacet
  facet normal -0.994522 -0.104529 -0
    outer loop
      vertex 12 21.15 -5.3
      vertex 11.7898 23.15 -7.95
      vertex 12 21.15 -7.95
    endloop
  endfacet
  facet normal -0.994522 -0.104529 0
    outer loop
      vertex 11.7898 23.15 -7.95
      vertex 12 21.15 -5.3
      vertex 11.7898 23.15 7.95
    endloop
  endfacet
  facet normal -0.994522 -0.104529 0
    outer loop
      vertex 11.7898 23.15 7.95
      vertex 12 21.15 -5.3
      vertex 12 21.15 7.95
    endloop
  endfacet
  facet normal -0.207912 0.978148 0
    outer loop
      vertex 3.7082 9.73732 -7.95
      vertex 1.25434 9.21574 -5.3
      vertex 3.7082 9.73732 -5.3
    endloop
  endfacet
  facet normal -0.207912 0.978148 0
    outer loop
      vertex 1.25434 9.21574 -5.3
      vertex 3.7082 9.73732 -7.95
      vertex 1.25434 9.21574 -7.95
    endloop
  endfacet
  facet normal -0.866025 0.5 0
    outer loop
      vertex 9.7082 14.0966 -7.95
      vertex 10.9625 16.2692 -5.3
      vertex 10.9625 16.2692 -7.95
    endloop
  endfacet
  facet normal -0.866025 0.5 0
    outer loop
      vertex 10.9625 16.2692 -5.3
      vertex 9.7082 14.0966 -7.95
      vertex 9.7082 14.0966 -5.3
    endloop
  endfacet
  facet normal 0.994522 -0.104529 0
    outer loop
      vertex -12 21.15 -5.3
      vertex -11.7898 23.15 7.95
      vertex -12 21.15 7.95
    endloop
  endfacet
  facet normal 0.994522 -0.104529 0
    outer loop
      vertex -11.7898 23.15 7.95
      vertex -12 21.15 -5.3
      vertex -11.7898 23.15 -7.95
    endloop
  endfacet
  facet normal 0.994522 -0.104529 0
    outer loop
      vertex -11.7898 23.15 -7.95
      vertex -12 21.15 -5.3
      vertex -12 21.15 -7.95
    endloop
  endfacet
  facet normal 0.994522 0.104529 0
    outer loop
      vertex -11.7378 18.6551 -5.3
      vertex -12 21.15 -7.95
      vertex -12 21.15 -5.3
    endloop
  endfacet
  facet normal 0.994522 0.104529 0
    outer loop
      vertex -12 21.15 -7.95
      vertex -11.7378 18.6551 -5.3
      vertex -11.7378 18.6551 -7.95
    endloop
  endfacet
  facet normal -0.994522 0.104529 0
    outer loop
      vertex 11.7378 18.6551 -7.95
      vertex 12 21.15 -5.3
      vertex 12 21.15 -7.95
    endloop
  endfacet
  facet normal -0.994522 0.104529 0
    outer loop
      vertex 12 21.15 -5.3
      vertex 11.7378 18.6551 -7.95
      vertex 11.7378 18.6551 -5.3
    endloop
  endfacet
  facet normal -0.406737 0.913545 0
    outer loop
      vertex 6 10.7577 -7.95
      vertex 3.7082 9.73732 -5.3
      vertex 6 10.7577 -5.3
    endloop
  endfacet
  facet normal -0.406737 0.913545 0
    outer loop
      vertex 3.7082 9.73732 -5.3
      vertex 6 10.7577 -7.95
      vertex 3.7082 9.73732 -7.95
    endloop
  endfacet
  facet normal -0.951056 0.309017 0
    outer loop
      vertex 10.9625 16.2692 -7.95
      vertex 11.7378 18.6551 -5.3
      vertex 11.7378 18.6551 -7.95
    endloop
  endfacet
  facet normal -0.951056 0.309017 0
    outer loop
      vertex 11.7378 18.6551 -5.3
      vertex 10.9625 16.2692 -7.95
      vertex 10.9625 16.2692 -5.3
    endloop
  endfacet
  facet normal 0.406737 0.913545 -0
    outer loop
      vertex -3.7082 9.73732 -7.95
      vertex -6 10.7577 -5.3
      vertex -3.7082 9.73732 -5.3
    endloop
  endfacet
  facet normal 0.406737 0.913545 0
    outer loop
      vertex -6 10.7577 -5.3
      vertex -3.7082 9.73732 -7.95
      vertex -6 10.7577 -7.95
    endloop
  endfacet
  facet normal 0.743145 0.669131 0
    outer loop
      vertex -8.02957 12.2323 -5.3
      vertex -9.7082 14.0966 -7.95
      vertex -9.7082 14.0966 -5.3
    endloop
  endfacet
  facet normal 0.743145 0.669131 0
    outer loop
      vertex -9.7082 14.0966 -7.95
      vertex -8.02957 12.2323 -5.3
      vertex -8.02957 12.2323 -7.95
    endloop
  endfacet
  facet normal -0.743145 0.669131 0
    outer loop
      vertex 8.02957 12.2323 -7.95
      vertex 9.7082 14.0966 -5.3
      vertex 9.7082 14.0966 -7.95
    endloop
  endfacet
  facet normal -0.743145 0.669131 0
    outer loop
      vertex 9.7082 14.0966 -5.3
      vertex 8.02957 12.2323 -7.95
      vertex 8.02957 12.2323 -5.3
    endloop
  endfacet
  facet normal -0.587785 0.809017 0
    outer loop
      vertex 8.02957 12.2323 -7.95
      vertex 6 10.7577 -5.3
      vertex 8.02957 12.2323 -5.3
    endloop
  endfacet
  facet normal -0.587785 0.809017 0
    outer loop
      vertex 6 10.7577 -5.3
      vertex 8.02957 12.2323 -7.95
      vertex 6 10.7577 -7.95
    endloop
  endfacet
  facet normal 0 1 -0
    outer loop
      vertex 1.25434 9.21574 -7.95
      vertex -1.25434 9.21574 -5.3
      vertex 1.25434 9.21574 -5.3
    endloop
  endfacet
  facet normal 0 1 0
    outer loop
      vertex -1.25434 9.21574 -5.3
      vertex 1.25434 9.21574 -7.95
      vertex -1.25434 9.21574 -7.95
    endloop
  endfacet
  facet normal 0.207912 0.978148 -0
    outer loop
      vertex -1.25434 9.21574 -7.95
      vertex -3.7082 9.73732 -5.3
      vertex -1.25434 9.21574 -5.3
    endloop
  endfacet
  facet normal 0.207912 0.978148 0
    outer loop
      vertex -3.7082 9.73732 -5.3
      vertex -1.25434 9.21574 -7.95
      vertex -3.7082 9.73732 -7.95
    endloop
  endfacet
  facet normal 0.587785 0.809017 -0
    outer loop
      vertex -6 10.7577 -7.95
      vertex -8.02957 12.2323 -5.3
      vertex -6 10.7577 -5.3
    endloop
  endfacet
  facet normal 0.587785 0.809017 0
    outer loop
      vertex -8.02957 12.2323 -5.3
      vertex -6 10.7577 -7.95
      vertex -8.02957 12.2323 -7.95
    endloop
  endfacet
  facet normal 0.866025 0.5 0
    outer loop
      vertex -9.7082 14.0966 -5.3
      vertex -10.9625 16.2692 -7.95
      vertex -10.9625 16.2692 -5.3
    endloop
  endfacet
  facet normal 0.866025 0.5 0
    outer loop
      vertex -10.9625 16.2692 -7.95
      vertex -9.7082 14.0966 -5.3
      vertex -9.7082 14.0966 -7.95
    endloop
  endfacet
  facet normal 0.951056 0.309017 0
    outer loop
      vertex -10.9625 16.2692 -5.3
      vertex -11.7378 18.6551 -7.95
      vertex -11.7378 18.6551 -5.3
    endloop
  endfacet
  facet normal 0.951056 0.309017 0
    outer loop
      vertex -11.7378 18.6551 -7.95
      vertex -10.9625 16.2692 -5.3
      vertex -10.9625 16.2692 -7.95
    endloop
  endfacet
  facet normal -0.994522 -0.104529 0
    outer loop
      vertex 12 -21.15 -7.95
      vertex 11.7378 -18.6551 -5.3
      vertex 11.7378 -18.6551 -7.95
    endloop
  endfacet
  facet normal -0.994522 -0.104529 0
    outer loop
      vertex 11.7378 -18.6551 -5.3
      vertex 12 -21.15 -7.95
      vertex 12 -21.15 -5.3
    endloop
  endfacet
  facet normal 0.994522 -0.104529 0
    outer loop
      vertex -12 -21.15 -5.3
      vertex -11.7378 -18.6551 -7.95
      vertex -11.7378 -18.6551 -5.3
    endloop
  endfacet
  facet normal 0.994522 -0.104529 0
    outer loop
      vertex -11.7378 -18.6551 -7.95
      vertex -12 -21.15 -5.3
      vertex -12 -21.15 -7.95
    endloop
  endfacet
  facet normal 0 -1 0
    outer loop
      vertex -1.25434 -9.21574 -7.95
      vertex 1.25434 -9.21574 -5.3
      vertex -1.25434 -9.21574 -5.3
    endloop
  endfacet
  facet normal 0 -1 -0
    outer loop
      vertex 1.25434 -9.21574 -5.3
      vertex -1.25434 -9.21574 -7.95
      vertex 1.25434 -9.21574 -7.95
    endloop
  endfacet
  facet normal -0.587785 -0.809017 0
    outer loop
      vertex 6 -10.7577 -7.95
      vertex 8.02957 -12.2323 -5.3
      vertex 6 -10.7577 -5.3
    endloop
  endfacet
  facet normal -0.587785 -0.809017 -0
    outer loop
      vertex 8.02957 -12.2323 -5.3
      vertex 6 -10.7577 -7.95
      vertex 8.02957 -12.2323 -7.95
    endloop
  endfacet
  facet normal -0.406737 -0.913545 0
    outer loop
      vertex 3.7082 -9.73732 -7.95
      vertex 6 -10.7577 -5.3
      vertex 3.7082 -9.73732 -5.3
    endloop
  endfacet
  facet normal -0.406737 -0.913545 -0
    outer loop
      vertex 6 -10.7577 -5.3
      vertex 3.7082 -9.73732 -7.95
      vertex 6 -10.7577 -7.95
    endloop
  endfacet
  facet normal 0.587785 -0.809017 0
    outer loop
      vertex -8.02957 -12.2323 -7.95
      vertex -6 -10.7577 -5.3
      vertex -8.02957 -12.2323 -5.3
    endloop
  endfacet
  facet normal 0.587785 -0.809017 0
    outer loop
      vertex -6 -10.7577 -5.3
      vertex -8.02957 -12.2323 -7.95
      vertex -6 -10.7577 -7.95
    endloop
  endfacet
  facet normal 0.406737 -0.913545 0
    outer loop
      vertex -6 -10.7577 -7.95
      vertex -3.7082 -9.73732 -5.3
      vertex -6 -10.7577 -5.3
    endloop
  endfacet
  facet normal 0.406737 -0.913545 0
    outer loop
      vertex -3.7082 -9.73732 -5.3
      vertex -6 -10.7577 -7.95
      vertex -3.7082 -9.73732 -7.95
    endloop
  endfacet
  facet normal -0.866025 -0.5 0
    outer loop
      vertex 10.9625 -16.2692 -7.95
      vertex 9.7082 -14.0966 -5.3
      vertex 9.7082 -14.0966 -7.95
    endloop
  endfacet
  facet normal -0.866025 -0.5 0
    outer loop
      vertex 9.7082 -14.0966 -5.3
      vertex 10.9625 -16.2692 -7.95
      vertex 10.9625 -16.2692 -5.3
    endloop
  endfacet
  facet normal -0.951056 -0.309017 0
    outer loop
      vertex 11.7378 -18.6551 -7.95
      vertex 10.9625 -16.2692 -5.3
      vertex 10.9625 -16.2692 -7.95
    endloop
  endfacet
  facet normal -0.951056 -0.309017 0
    outer loop
      vertex 10.9625 -16.2692 -5.3
      vertex 11.7378 -18.6551 -7.95
      vertex 11.7378 -18.6551 -5.3
    endloop
  endfacet
  facet normal -0.743145 -0.669131 0
    outer loop
      vertex 9.7082 -14.0966 -7.95
      vertex 8.02957 -12.2323 -5.3
      vertex 8.02957 -12.2323 -7.95
    endloop
  endfacet
  facet normal -0.743145 -0.669131 0
    outer loop
      vertex 8.02957 -12.2323 -5.3
      vertex 9.7082 -14.0966 -7.95
      vertex 9.7082 -14.0966 -5.3
    endloop
  endfacet
  facet normal -0.207912 -0.978148 0
    outer loop
      vertex 1.25434 -9.21574 -7.95
      vertex 3.7082 -9.73732 -5.3
      vertex 1.25434 -9.21574 -5.3
    endloop
  endfacet
  facet normal -0.207912 -0.978148 -0
    outer loop
      vertex 3.7082 -9.73732 -5.3
      vertex 1.25434 -9.21574 -7.95
      vertex 3.7082 -9.73732 -7.95
    endloop
  endfacet
  facet normal 0.866025 -0.5 0
    outer loop
      vertex -10.9625 -16.2692 -5.3
      vertex -9.7082 -14.0966 -7.95
      vertex -9.7082 -14.0966 -5.3
    endloop
  endfacet
  facet normal 0.866025 -0.5 0
    outer loop
      vertex -9.7082 -14.0966 -7.95
      vertex -10.9625 -16.2692 -5.3
      vertex -10.9625 -16.2692 -7.95
    endloop
  endfacet
  facet normal 0.743145 -0.669131 0
    outer loop
      vertex -9.7082 -14.0966 -5.3
      vertex -8.02957 -12.2323 -7.95
      vertex -8.02957 -12.2323 -5.3
    endloop
  endfacet
  facet normal 0.743145 -0.669131 0
    outer loop
      vertex -8.02957 -12.2323 -7.95
      vertex -9.7082 -14.0966 -5.3
      vertex -9.7082 -14.0966 -7.95
    endloop
  endfacet
  facet normal 0.951056 -0.309017 0
    outer loop
      vertex -11.7378 -18.6551 -5.3
      vertex -10.9625 -16.2692 -7.95
      vertex -10.9625 -16.2692 -5.3
    endloop
  endfacet
  facet normal 0.951056 -0.309017 0
    outer loop
      vertex -10.9625 -16.2692 -7.95
      vertex -11.7378 -18.6551 -5.3
      vertex -11.7378 -18.6551 -7.95
    endloop
  endfacet
  facet normal 0.207912 -0.978148 0
    outer loop
      vertex -3.7082 -9.73732 -7.95
      vertex -1.25434 -9.21574 -5.3
      vertex -3.7082 -9.73732 -5.3
    endloop
  endfacet
  facet normal 0.207912 -0.978148 0
    outer loop
      vertex -1.25434 -9.21574 -5.3
      vertex -3.7082 -9.73732 -7.95
      vertex -1.25434 -9.21574 -7.95
    endloop
  endfacet
  facet normal -0.994522 0.104529 0
    outer loop
      vertex 11.7898 -23.15 -7.95
      vertex 12 -21.15 -5.3
      vertex 12 -21.15 -7.95
    endloop
  endfacet
  facet normal -0.994522 0.104529 0
    outer loop
      vertex 11.7898 -23.15 7.95
      vertex 12 -21.15 -5.3
      vertex 11.7898 -23.15 -7.95
    endloop
  endfacet
  facet normal -0.994522 0.104529 0
    outer loop
      vertex 12 -21.15 -5.3
      vertex 11.7898 -23.15 7.95
      vertex 12 -21.15 7.95
    endloop
  endfacet
  facet normal 0.994522 0.104529 0
    outer loop
      vertex -11.7898 -23.15 7.95
      vertex -12 -21.15 -5.3
      vertex -12 -21.15 7.95
    endloop
  endfacet
  facet normal 0.994522 0.104529 -0
    outer loop
      vertex -11.7898 -23.15 -7.95
      vertex -12 -21.15 -5.3
      vertex -11.7898 -23.15 7.95
    endloop
  endfacet
  facet normal 0.994522 0.104529 0
    outer loop
      vertex -12 -21.15 -5.3
      vertex -11.7898 -23.15 -7.95
      vertex -12 -21.15 -7.95
    endloop
  endfacet
  facet normal -0.994522 -0.104529 0
    outer loop
      vertex -9.15 0 -7.95
      vertex -9.41223 2.49494 -5.3
      vertex -9.41223 2.49494 -7.95
    endloop
  endfacet
  facet normal -0.994522 -0.104529 0
    outer loop
      vertex -9.41223 2.49494 -5.3
      vertex -9.15 0 -7.95
      vertex -9.15 0 -5.3
    endloop
  endfacet
  facet normal 0 -1 0
    outer loop
      vertex -22.4043 11.9343 7.95
      vertex -21.15 11.9343 -5.3
      vertex -21.15 11.9343 7.95
    endloop
  endfacet
  facet normal 0 -1 0
    outer loop
      vertex -22.4043 11.9343 -7.95
      vertex -21.15 11.9343 -5.3
      vertex -22.4043 11.9343 7.95
    endloop
  endfacet
  facet normal 0 -1 0
    outer loop
      vertex -19.8957 11.9343 -7.95
      vertex -21.15 11.9343 -5.3
      vertex -22.4043 11.9343 -7.95
    endloop
  endfacet
  facet normal 0 -1 0
    outer loop
      vertex -21.15 11.9343 -5.3
      vertex -19.8957 11.9343 -7.95
      vertex -19.8957 11.9343 -5.3
    endloop
  endfacet
  facet normal 0 1 0
    outer loop
      vertex -19.8957 -11.9343 -5.3
      vertex -19.8957 -11.9343 -7.95
      vertex -21.15 -11.9343 -5.3
    endloop
  endfacet
  facet normal 0 1 -0
    outer loop
      vertex -21.15 -11.9343 -5.3
      vertex -22.4043 -11.9343 7.95
      vertex -21.15 -11.9343 7.95
    endloop
  endfacet
  facet normal 0 1 0
    outer loop
      vertex -21.15 -11.9343 -5.3
      vertex -22.4043 -11.9343 -7.95
      vertex -22.4043 -11.9343 7.95
    endloop
  endfacet
  facet normal 0 1 0
    outer loop
      vertex -22.4043 -11.9343 -7.95
      vertex -21.15 -11.9343 -5.3
      vertex -19.8957 -11.9343 -7.95
    endloop
  endfacet
  facet normal -0.587785 -0.809017 0
    outer loop
      vertex -15.15 10.3923 -7.95
      vertex -13.1204 8.91774 -5.3
      vertex -15.15 10.3923 -5.3
    endloop
  endfacet
  facet normal -0.587785 -0.809017 -0
    outer loop
      vertex -13.1204 8.91774 -5.3
      vertex -15.15 10.3923 -7.95
      vertex -13.1204 8.91774 -7.95
    endloop
  endfacet
  facet normal -0.406737 -0.913545 0
    outer loop
      vertex -17.4418 11.4127 -7.95
      vertex -15.15 10.3923 -5.3
      vertex -17.4418 11.4127 -5.3
    endloop
  endfacet
  facet normal -0.406737 -0.913545 -0
    outer loop
      vertex -15.15 10.3923 -5.3
      vertex -17.4418 11.4127 -7.95
      vertex -15.15 10.3923 -7.95
    endloop
  endfacet
  facet normal -0.866026 -0.5 0
    outer loop
      vertex -10.1875 4.88084 -7.95
      vertex -11.4418 7.05342 -5.3
      vertex -11.4418 7.05342 -7.95
    endloop
  endfacet
  facet normal -0.866026 -0.5 0
    outer loop
      vertex -11.4418 7.05342 -5.3
      vertex -10.1875 4.88084 -7.95
      vertex -10.1875 4.88084 -5.3
    endloop
  endfacet
  facet normal -0.951057 -0.309017 0
    outer loop
      vertex -9.41223 2.49494 -7.95
      vertex -10.1875 4.88084 -5.3
      vertex -10.1875 4.88084 -7.95
    endloop
  endfacet
  facet normal -0.951057 -0.309017 0
    outer loop
      vertex -10.1875 4.88084 -5.3
      vertex -9.41223 2.49494 -7.95
      vertex -9.41223 2.49494 -5.3
    endloop
  endfacet
  facet normal -0.743145 -0.669131 0
    outer loop
      vertex -11.4418 7.05342 -7.95
      vertex -13.1204 8.91774 -5.3
      vertex -13.1204 8.91774 -7.95
    endloop
  endfacet
  facet normal -0.743145 -0.669131 0
    outer loop
      vertex -13.1204 8.91774 -5.3
      vertex -11.4418 7.05342 -7.95
      vertex -11.4418 7.05342 -5.3
    endloop
  endfacet
  facet normal -0.207912 -0.978148 0
    outer loop
      vertex -19.8957 11.9343 -7.95
      vertex -17.4418 11.4127 -5.3
      vertex -19.8957 11.9343 -5.3
    endloop
  endfacet
  facet normal -0.207912 -0.978148 -0
    outer loop
      vertex -17.4418 11.4127 -5.3
      vertex -19.8957 11.9343 -7.95
      vertex -17.4418 11.4127 -7.95
    endloop
  endfacet
  facet normal 0.207912 -0.978148 0
    outer loop
      vertex -23.15 11.7758 -7.95
      vertex -22.4043 11.9343 7.95
      vertex -23.15 11.7758 7.95
    endloop
  endfacet
  facet normal 0.207912 -0.978148 0
    outer loop
      vertex -22.4043 11.9343 7.95
      vertex -23.15 11.7758 -7.95
      vertex -22.4043 11.9343 -7.95
    endloop
  endfacet
  facet normal -0.994522 0.104529 0
    outer loop
      vertex -9.41223 -2.49494 -7.95
      vertex -9.15 0 -5.3
      vertex -9.15 0 -7.95
    endloop
  endfacet
  facet normal -0.994522 0.104529 0
    outer loop
      vertex -9.15 0 -5.3
      vertex -9.41223 -2.49494 -7.95
      vertex -9.41223 -2.49494 -5.3
    endloop
  endfacet
  facet normal -0.207912 0.978148 0
    outer loop
      vertex -17.4418 -11.4127 -7.95
      vertex -19.8957 -11.9343 -5.3
      vertex -17.4418 -11.4127 -5.3
    endloop
  endfacet
  facet normal -0.207912 0.978148 0
    outer loop
      vertex -19.8957 -11.9343 -5.3
      vertex -17.4418 -11.4127 -7.95
      vertex -19.8957 -11.9343 -7.95
    endloop
  endfacet
  facet normal -0.866026 0.5 0
    outer loop
      vertex -11.4418 -7.05342 -7.95
      vertex -10.1875 -4.88084 -5.3
      vertex -10.1875 -4.88084 -7.95
    endloop
  endfacet
  facet normal -0.866026 0.5 0
    outer loop
      vertex -10.1875 -4.88084 -5.3
      vertex -11.4418 -7.05342 -7.95
      vertex -11.4418 -7.05342 -5.3
    endloop
  endfacet
  facet normal -0.587785 0.809017 0
    outer loop
      vertex -13.1204 -8.91774 -7.95
      vertex -15.15 -10.3923 -5.3
      vertex -13.1204 -8.91774 -5.3
    endloop
  endfacet
  facet normal -0.587785 0.809017 0
    outer loop
      vertex -15.15 -10.3923 -5.3
      vertex -13.1204 -8.91774 -7.95
      vertex -15.15 -10.3923 -7.95
    endloop
  endfacet
  facet normal -0.406737 0.913545 0
    outer loop
      vertex -15.15 -10.3923 -7.95
      vertex -17.4418 -11.4127 -5.3
      vertex -15.15 -10.3923 -5.3
    endloop
  endfacet
  facet normal -0.406737 0.913545 0
    outer loop
      vertex -17.4418 -11.4127 -5.3
      vertex -15.15 -10.3923 -7.95
      vertex -17.4418 -11.4127 -7.95
    endloop
  endfacet
  facet normal -0.951057 0.309017 0
    outer loop
      vertex -10.1875 -4.88084 -7.95
      vertex -9.41223 -2.49494 -5.3
      vertex -9.41223 -2.49494 -7.95
    endloop
  endfacet
  facet normal -0.951057 0.309017 0
    outer loop
      vertex -9.41223 -2.49494 -5.3
      vertex -10.1875 -4.88084 -7.95
      vertex -10.1875 -4.88084 -5.3
    endloop
  endfacet
  facet normal 0.207912 0.978148 -0
    outer loop
      vertex -22.4043 -11.9343 -7.95
      vertex -23.15 -11.7758 7.95
      vertex -22.4043 -11.9343 7.95
    endloop
  endfacet
  facet normal 0.207912 0.978148 0
    outer loop
      vertex -23.15 -11.7758 7.95
      vertex -22.4043 -11.9343 -7.95
      vertex -23.15 -11.7758 -7.95
    endloop
  endfacet
  facet normal -0.743145 0.669131 0
    outer loop
      vertex -13.1204 -8.91774 -7.95
      vertex -11.4418 -7.05342 -5.3
      vertex -11.4418 -7.05342 -7.95
    endloop
  endfacet
  facet normal -0.743145 0.669131 0
    outer loop
      vertex -11.4418 -7.05342 -5.3
      vertex -13.1204 -8.91774 -7.95
      vertex -13.1204 -8.91774 -5.3
    endloop
  endfacet
  facet normal -1 0 0
    outer loop
      vertex -23.15 11.7758 -7.95
      vertex -23.15 18.75 7.95
      vertex -23.15 18.75 -7.95
    endloop
  endfacet
  facet normal -1 -0 0
    outer loop
      vertex -23.15 18.75 7.95
      vertex -23.15 11.7758 -7.95
      vertex -23.15 11.7758 7.95
    endloop
  endfacet
  facet normal -1 0 0
    outer loop
      vertex -23.15 -18.75 -7.95
      vertex -23.15 -11.7758 7.95
      vertex -23.15 -11.7758 -7.95
    endloop
  endfacet
  facet normal -1 -0 0
    outer loop
      vertex -23.15 -11.7758 7.95
      vertex -23.15 -18.75 -7.95
      vertex -23.15 -18.75 7.95
    endloop
  endfacet
  facet normal 0 0 1
    outer loop
      vertex -21.15 -11.9343 7.95
      vertex -22.4043 -11.9343 7.95
      vertex -21.15 -15.55 7.95
    endloop
  endfacet
  facet normal -0 0 1
    outer loop
      vertex -15.55 -21.15 7.95
      vertex -11.7898 -23.15 7.95
      vertex -12 -21.15 7.95
    endloop
  endfacet
  facet normal 0 0 1
    outer loop
      vertex -15.55 -21.15 7.95
      vertex -18.75 -23.15 7.95
      vertex -11.7898 -23.15 7.95
    endloop
  endfacet
  facet normal 0 0 1
    outer loop
      vertex -21.15 -15.55 7.95
      vertex -18.75 -23.15 7.95
      vertex -15.55 -21.15 7.95
    endloop
  endfacet
  facet normal 0 0 1
    outer loop
      vertex -23.15 -11.7758 7.95
      vertex -21.15 -15.55 7.95
      vertex -22.4043 -11.9343 7.95
    endloop
  endfacet
  facet normal 0 0 1
    outer loop
      vertex -21.15 -15.55 7.95
      vertex -23.15 -11.7758 7.95
      vertex -23.15 -18.75 7.95
    endloop
  endfacet
  facet normal 0 0 1
    outer loop
      vertex -21.15 -15.55 7.95
      vertex -23.15 -18.75 7.95
      vertex -18.75 -23.15 7.95
    endloop
  endfacet
  facet normal 0 0 1
    outer loop
      vertex 21.15 -15.55 7.95
      vertex 23.15 -11.7758 7.95
      vertex 22.4043 -11.9343 7.95
    endloop
  endfacet
  facet normal 0 0 1
    outer loop
      vertex 21.15 -15.55 7.95
      vertex 22.4043 -11.9343 7.95
      vertex 21.15 -11.9343 7.95
    endloop
  endfacet
  facet normal 0 0 1
    outer loop
      vertex 23.15 -11.7758 7.95
      vertex 21.15 -15.55 7.95
      vertex 23.15 -18.75 7.95
    endloop
  endfacet
  facet normal 0 0 1
    outer loop
      vertex 21.15 -15.55 7.95
      vertex 18.75 -23.15 7.95
      vertex 23.15 -18.75 7.95
    endloop
  endfacet
  facet normal -0 0 1
    outer loop
      vertex 15.55 -21.15 7.95
      vertex 18.75 -23.15 7.95
      vertex 21.15 -15.55 7.95
    endloop
  endfacet
  facet normal 0 0 1
    outer loop
      vertex 11.7898 -23.15 7.95
      vertex 15.55 -21.15 7.95
      vertex 12 -21.15 7.95
    endloop
  endfacet
  facet normal 0 0 1
    outer loop
      vertex 15.55 -21.15 7.95
      vertex 11.7898 -23.15 7.95
      vertex 18.75 -23.15 7.95
    endloop
  endfacet
  facet normal 0 0 1
    outer loop
      vertex -11.7898 23.15 7.95
      vertex -15.55 21.15 7.95
      vertex -12 21.15 7.95
    endloop
  endfacet
  facet normal -0 0 1
    outer loop
      vertex -18.75 23.15 7.95
      vertex -15.55 21.15 7.95
      vertex -11.7898 23.15 7.95
    endloop
  endfacet
  facet normal 0 0 1
    outer loop
      vertex -18.75 23.15 7.95
      vertex -21.15 15.55 7.95
      vertex -15.55 21.15 7.95
    endloop
  endfacet
  facet normal 0 0 1
    outer loop
      vertex -21.15 15.55 7.95
      vertex -22.4043 11.9343 7.95
      vertex -21.15 11.9343 7.95
    endloop
  endfacet
  facet normal -0 0 1
    outer loop
      vertex -23.15 18.75 7.95
      vertex -21.15 15.55 7.95
      vertex -18.75 23.15 7.95
    endloop
  endfacet
  facet normal 0 0 1
    outer loop
      vertex -23.15 11.7758 7.95
      vertex -21.15 15.55 7.95
      vertex -23.15 18.75 7.95
    endloop
  endfacet
  facet normal 0 0 1
    outer loop
      vertex -21.15 15.55 7.95
      vertex -23.15 11.7758 7.95
      vertex -22.4043 11.9343 7.95
    endloop
  endfacet
  facet normal -0 0 1
    outer loop
      vertex 21.15 15.55 7.95
      vertex 23.15 11.7758 7.95
      vertex 23.15 18.75 7.95
    endloop
  endfacet
  facet normal 0 0 1
    outer loop
      vertex 23.15 11.7758 7.95
      vertex 21.15 15.55 7.95
      vertex 22.4043 11.9343 7.95
    endloop
  endfacet
  facet normal 0 0 1
    outer loop
      vertex 18.75 23.15 7.95
      vertex 21.15 15.55 7.95
      vertex 23.15 18.75 7.95
    endloop
  endfacet
  facet normal 0 0 1
    outer loop
      vertex 18.75 23.15 7.95
      vertex 15.55 21.15 7.95
      vertex 21.15 15.55 7.95
    endloop
  endfacet
  facet normal -0 0 1
    outer loop
      vertex 11.7898 23.15 7.95
      vertex 15.55 21.15 7.95
      vertex 18.75 23.15 7.95
    endloop
  endfacet
  facet normal 0 0 1
    outer loop
      vertex 15.55 21.15 7.95
      vertex 11.7898 23.15 7.95
      vertex 12 21.15 7.95
    endloop
  endfacet
  facet normal 0 0 1
    outer loop
      vertex 22.4043 11.9343 7.95
      vertex 21.15 15.55 7.95
      vertex 21.15 11.9343 7.95
    endloop
  endfacet
  facet normal 1 -0 0
    outer loop
      vertex 23.15 11.7758 7.95
      vertex 23.15 18.75 -7.95
      vertex 23.15 18.75 7.95
    endloop
  endfacet
  facet normal 1 0 0
    outer loop
      vertex 23.15 18.75 -7.95
      vertex 23.15 11.7758 7.95
      vertex 23.15 11.7758 -7.95
    endloop
  endfacet
  facet normal 1 -0 0
    outer loop
      vertex 23.15 -18.75 7.95
      vertex 23.15 -11.7758 -7.95
      vertex 23.15 -11.7758 7.95
    endloop
  endfacet
  facet normal 1 0 0
    outer loop
      vertex 23.15 -11.7758 -7.95
      vertex 23.15 -18.75 7.95
      vertex 23.15 -18.75 -7.95
    endloop
  endfacet
  facet normal 0 1 -0
    outer loop
      vertex -11.7898 23.15 -7.95
      vertex -18.75 23.15 7.95
      vertex -11.7898 23.15 7.95
    endloop
  endfacet
  facet normal 0 1 0
    outer loop
      vertex -18.75 23.15 7.95
      vertex -11.7898 23.15 -7.95
      vertex -18.75 23.15 -7.95
    endloop
  endfacet
  facet normal 0 1 -0
    outer loop
      vertex 18.75 23.15 -7.95
      vertex 11.7898 23.15 7.95
      vertex 18.75 23.15 7.95
    endloop
  endfacet
  facet normal 0 1 0
    outer loop
      vertex 11.7898 23.15 7.95
      vertex 18.75 23.15 -7.95
      vertex 11.7898 23.15 -7.95
    endloop
  endfacet
  facet normal 0 0 -1
    outer loop
      vertex -9.7082 -14.0966 -7.95
      vertex -15.15 -10.3923 -7.95
      vertex -13.1204 -8.91774 -7.95
    endloop
  endfacet
  facet normal 0 0 -1
    outer loop
      vertex -18.75 -23.15 -7.95
      vertex -12 -21.15 -7.95
      vertex -11.7898 -23.15 -7.95
    endloop
  endfacet
  facet normal 0 0 -1
    outer loop
      vertex -11.7378 -18.6551 -7.95
      vertex -17.4418 -11.4127 -7.95
      vertex -15.15 -10.3923 -7.95
    endloop
  endfacet
  facet normal 0 0 -1
    outer loop
      vertex -23.15 -18.75 -7.95
      vertex -11.7378 -18.6551 -7.95
      vertex -18.75 -23.15 -7.95
    endloop
  endfacet
  facet normal -0 0 -1
    outer loop
      vertex -11.7378 -18.6551 -7.95
      vertex -23.15 -18.75 -7.95
      vertex -17.4418 -11.4127 -7.95
    endloop
  endfacet
  facet normal 0 0 -1
    outer loop
      vertex -17.4418 -11.4127 -7.95
      vertex -23.15 -18.75 -7.95
      vertex -19.8957 -11.9343 -7.95
    endloop
  endfacet
  facet normal -0 0 -1
    outer loop
      vertex -19.8957 -11.9343 -7.95
      vertex -23.15 -18.75 -7.95
      vertex -22.4043 -11.9343 -7.95
    endloop
  endfacet
  facet normal -0 0 -1
    outer loop
      vertex -22.4043 -11.9343 -7.95
      vertex -23.15 -18.75 -7.95
      vertex -23.15 -11.7758 -7.95
    endloop
  endfacet
  facet normal -0 0 -1
    outer loop
      vertex -3.7082 9.73732 -7.95
      vertex -10.1875 4.88084 -7.95
      vertex -6 10.7577 -7.95
    endloop
  endfacet
  facet normal 0 0 -1
    outer loop
      vertex -11.4418 7.05342 -7.95
      vertex -6 10.7577 -7.95
      vertex -10.1875 4.88084 -7.95
    endloop
  endfacet
  facet normal -0 0 -1
    outer loop
      vertex -6 10.7577 -7.95
      vertex -11.4418 7.05342 -7.95
      vertex -8.02957 12.2323 -7.95
    endloop
  endfacet
  facet normal 0 0 -1
    outer loop
      vertex -13.1204 8.91774 -7.95
      vertex -8.02957 12.2323 -7.95
      vertex -11.4418 7.05342 -7.95
    endloop
  endfacet
  facet normal -0 0 -1
    outer loop
      vertex -8.02957 12.2323 -7.95
      vertex -13.1204 8.91774 -7.95
      vertex -9.7082 14.0966 -7.95
    endloop
  endfacet
  facet normal 0 0 -1
    outer loop
      vertex -15.15 10.3923 -7.95
      vertex -9.7082 14.0966 -7.95
      vertex -13.1204 8.91774 -7.95
    endloop
  endfacet
  facet normal -0 0 -1
    outer loop
      vertex -9.7082 14.0966 -7.95
      vertex -15.15 10.3923 -7.95
      vertex -10.9625 16.2692 -7.95
    endloop
  endfacet
  facet normal 0 0 -1
    outer loop
      vertex -17.4418 11.4127 -7.95
      vertex -10.9625 16.2692 -7.95
      vertex -15.15 10.3923 -7.95
    endloop
  endfacet
  facet normal 0 0 -1
    outer loop
      vertex 23.15 -18.75 -7.95
      vertex 22.4043 -11.9343 -7.95
      vertex 23.15 -11.7758 -7.95
    endloop
  endfacet
  facet normal 0 0 -1
    outer loop
      vertex 23.15 -18.75 -7.95
      vertex 19.8957 -11.9343 -7.95
      vertex 22.4043 -11.9343 -7.95
    endloop
  endfacet
  facet normal 0 0 -1
    outer loop
      vertex 11.7378 -18.6551 -7.95
      vertex 23.15 -18.75 -7.95
      vertex 18.75 -23.15 -7.95
    endloop
  endfacet
  facet normal 0 0 -1
    outer loop
      vertex 23.15 -18.75 -7.95
      vertex 11.7378 -18.6551 -7.95
      vertex 19.8957 -11.9343 -7.95
    endloop
  endfacet
  facet normal -0 0 -1
    outer loop
      vertex 19.8957 -11.9343 -7.95
      vertex 11.7378 -18.6551 -7.95
      vertex 17.4418 -11.4127 -7.95
    endloop
  endfacet
  facet normal 0 0 -1
    outer loop
      vertex 10.9625 -16.2692 -7.95
      vertex 17.4418 -11.4127 -7.95
      vertex 11.7378 -18.6551 -7.95
    endloop
  endfacet
  facet normal 0 0 -1
    outer loop
      vertex 11.7378 -18.6551 -7.95
      vertex 18.75 -23.15 -7.95
      vertex 12 -21.15 -7.95
    endloop
  endfacet
  facet normal 0 -0 -1
    outer loop
      vertex 12 -21.15 -7.95
      vertex 18.75 -23.15 -7.95
      vertex 11.7898 -23.15 -7.95
    endloop
  endfacet
  facet normal -0 0 -1
    outer loop
      vertex 17.4418 -11.4127 -7.95
      vertex 10.9625 -16.2692 -7.95
      vertex 15.15 -10.3923 -7.95
    endloop
  endfacet
  facet normal 0 0 -1
    outer loop
      vertex 9.7082 -14.0966 -7.95
      vertex 15.15 -10.3923 -7.95
      vertex 10.9625 -16.2692 -7.95
    endloop
  endfacet
  facet normal -0 0 -1
    outer loop
      vertex 15.15 -10.3923 -7.95
      vertex 9.7082 -14.0966 -7.95
      vertex 13.1204 -8.91774 -7.95
    endloop
  endfacet
  facet normal 0 0 -1
    outer loop
      vertex 8.02957 -12.2323 -7.95
      vertex 13.1204 -8.91774 -7.95
      vertex 9.7082 -14.0966 -7.95
    endloop
  endfacet
  facet normal -0 0 -1
    outer loop
      vertex 13.1204 -8.91774 -7.95
      vertex 8.02957 -12.2323 -7.95
      vertex 11.4418 -7.05342 -7.95
    endloop
  endfacet
  facet normal 0 0 -1
    outer loop
      vertex 6 -10.7577 -7.95
      vertex 11.4418 -7.05342 -7.95
      vertex 8.02957 -12.2323 -7.95
    endloop
  endfacet
  facet normal -0 0 -1
    outer loop
      vertex 11.4418 -7.05342 -7.95
      vertex 6 -10.7577 -7.95
      vertex 10.1875 -4.88084 -7.95
    endloop
  endfacet
  facet normal 0 0 -1
    outer loop
      vertex 3.7082 -9.73732 -7.95
      vertex 10.1875 -4.88084 -7.95
      vertex 6 -10.7577 -7.95
    endloop
  endfacet
  facet normal 0 0 -1
    outer loop
      vertex 18.75 23.15 -7.95
      vertex 11.7378 18.6551 -7.95
      vertex 12 21.15 -7.95
    endloop
  endfacet
  facet normal 0 0 -1
    outer loop
      vertex 8.02957 12.2323 -7.95
      vertex 13.1204 8.91774 -7.95
      vertex 11.4418 7.05342 -7.95
    endloop
  endfacet
  facet normal 0 0 -1
    outer loop
      vertex 15.15 10.3923 -7.95
      vertex 10.9625 16.2692 -7.95
      vertex 11.7378 18.6551 -7.95
    endloop
  endfacet
  facet normal 0 0 -1
    outer loop
      vertex 6 10.7577 -7.95
      vertex 11.4418 7.05342 -7.95
      vertex 10.1875 4.88084 -7.95
    endloop
  endfacet
  facet normal 0 0 -1
    outer loop
      vertex 15.15 10.3923 -7.95
      vertex 9.7082 14.0966 -7.95
      vertex 10.9625 16.2692 -7.95
    endloop
  endfacet
  facet normal 0 0 -1
    outer loop
      vertex 7.03196 1.5 -7.95
      vertex 10.1875 4.88084 -7.95
      vertex 9.41223 2.49494 -7.95
    endloop
  endfacet
  facet normal 0 0 -1
    outer loop
      vertex 7.03196 1.5 -7.95
      vertex 9.41223 2.49494 -7.95
      vertex 9.15 0 -7.95
    endloop
  endfacet
  facet normal 0 0 -1
    outer loop
      vertex 9.41223 -2.49494 -7.95
      vertex 7.03196 -1.5 -7.95
      vertex 9.15 0 -7.95
    endloop
  endfacet
  facet normal 0 0 -1
    outer loop
      vertex 7.03196 1.5 -7.95
      vertex 9.15 0 -7.95
      vertex 7.03196 -1.5 -7.95
    endloop
  endfacet
  facet normal -0 0 -1
    outer loop
      vertex 10.1875 4.88084 -7.95
      vertex 7.03196 1.5 -7.95
      vertex 3.7082 9.73732 -7.95
    endloop
  endfacet
  facet normal 0 -0 -1
    outer loop
      vertex 6.03346 -1.5 -7.95
      vertex 10.1875 -4.88084 -7.95
      vertex 3.7082 -9.73732 -7.95
    endloop
  endfacet
  facet normal 0 0 -1
    outer loop
      vertex 10.1875 -4.88084 -7.95
      vertex 7.03196 -1.5 -7.95
      vertex 9.41223 -2.49494 -7.95
    endloop
  endfacet
  facet normal 0 -0 -1
    outer loop
      vertex 7.03196 -1.5 -7.95
      vertex 10.1875 -4.88084 -7.95
      vertex 6.70111 -1.5 -7.95
    endloop
  endfacet
  facet normal 0 0 -1
    outer loop
      vertex 10.1875 -4.88084 -7.95
      vertex 6.03346 -1.5 -7.95
      vertex 6.70111 -1.5 -7.95
    endloop
  endfacet
  facet normal 0 0 -1
    outer loop
      vertex 6.03346 -1.5 -7.95
      vertex 3.7082 -9.73732 -7.95
      vertex 5.29161 -1.5 -7.95
    endloop
  endfacet
  facet normal -0 0 -1
    outer loop
      vertex 5.29161 -1.5 -7.95
      vertex 3.7082 -9.73732 -7.95
      vertex 4.44523 -1.5 -7.95
    endloop
  endfacet
  facet normal 0 0 -1
    outer loop
      vertex 1.25434 -9.21574 -7.95
      vertex 4.21834 -1.5 -7.95
      vertex 3.7082 -9.73732 -7.95
    endloop
  endfacet
  facet normal -0 0 -1
    outer loop
      vertex 4.44523 -1.5 -7.95
      vertex 3.7082 -9.73732 -7.95
      vertex 4.21834 -1.5 -7.95
    endloop
  endfacet
  facet normal 0 0 -1
    outer loop
      vertex 22.4043 11.9343 -7.95
      vertex 23.15 18.75 -7.95
      vertex 23.15 11.7758 -7.95
    endloop
  endfacet
  facet normal 0 0 -1
    outer loop
      vertex 19.8957 11.9343 -7.95
      vertex 23.15 18.75 -7.95
      vertex 22.4043 11.9343 -7.95
    endloop
  endfacet
  facet normal 0 0 -1
    outer loop
      vertex 17.4418 11.4127 -7.95
      vertex 23.15 18.75 -7.95
      vertex 19.8957 11.9343 -7.95
    endloop
  endfacet
  facet normal 0 0 -1
    outer loop
      vertex 11.7378 18.6551 -7.95
      vertex 23.15 18.75 -7.95
      vertex 17.4418 11.4127 -7.95
    endloop
  endfacet
  facet normal 0 0 -1
    outer loop
      vertex 11.7378 18.6551 -7.95
      vertex 17.4418 11.4127 -7.95
      vertex 15.15 10.3923 -7.95
    endloop
  endfacet
  facet normal 0 0 -1
    outer loop
      vertex 9.7082 14.0966 -7.95
      vertex 15.15 10.3923 -7.95
      vertex 13.1204 8.91774 -7.95
    endloop
  endfacet
  facet normal -0 0 -1
    outer loop
      vertex 23.15 18.75 -7.95
      vertex 11.7378 18.6551 -7.95
      vertex 18.75 23.15 -7.95
    endloop
  endfacet
  facet normal -0 0 -1
    outer loop
      vertex 18.75 23.15 -7.95
      vertex 12 21.15 -7.95
      vertex 11.7898 23.15 -7.95
    endloop
  endfacet
  facet normal -0 0 -1
    outer loop
      vertex -10.9625 16.2692 -7.95
      vertex -17.4418 11.4127 -7.95
      vertex -11.7378 18.6551 -7.95
    endloop
  endfacet
  facet normal 0 0 -1
    outer loop
      vertex -23.15 18.75 -7.95
      vertex -11.7378 18.6551 -7.95
      vertex -17.4418 11.4127 -7.95
    endloop
  endfacet
  facet normal 0 0 -1
    outer loop
      vertex -11.7378 18.6551 -7.95
      vertex -18.75 23.15 -7.95
      vertex -12 21.15 -7.95
    endloop
  endfacet
  facet normal 0 0 -1
    outer loop
      vertex -12 21.15 -7.95
      vertex -18.75 23.15 -7.95
      vertex -11.7898 23.15 -7.95
    endloop
  endfacet
  facet normal 0 0 -1
    outer loop
      vertex -23.15 18.75 -7.95
      vertex -17.4418 11.4127 -7.95
      vertex -19.8957 11.9343 -7.95
    endloop
  endfacet
  facet normal 0 0 -1
    outer loop
      vertex -23.15 18.75 -7.95
      vertex -19.8957 11.9343 -7.95
      vertex -22.4043 11.9343 -7.95
    endloop
  endfacet
  facet normal 0 0 -1
    outer loop
      vertex -23.15 18.75 -7.95
      vertex -22.4043 11.9343 -7.95
      vertex -23.15 11.7758 -7.95
    endloop
  endfacet
  facet normal 0 0 -1
    outer loop
      vertex -11.7378 18.6551 -7.95
      vertex -23.15 18.75 -7.95
      vertex -18.75 23.15 -7.95
    endloop
  endfacet
  facet normal -0 0 -1
    outer loop
      vertex -1.25434 9.21574 -7.95
      vertex -4.21834 1.5 -7.95
      vertex -3.7082 9.73732 -7.95
    endloop
  endfacet
  facet normal 0 0 -1
    outer loop
      vertex -7.03196 1.5 -7.95
      vertex -3.7082 9.73732 -7.95
      vertex -4.21834 1.5 -7.95
    endloop
  endfacet
  facet normal 0 0 -1
    outer loop
      vertex -10.1875 4.88084 -7.95
      vertex -7.03196 1.5 -7.95
      vertex -9.41223 2.49494 -7.95
    endloop
  endfacet
  facet normal 0 0 -1
    outer loop
      vertex -7.03196 1.5 -7.95
      vertex -10.1875 4.88084 -7.95
      vertex -3.7082 9.73732 -7.95
    endloop
  endfacet
  facet normal 0 -0 -1
    outer loop
      vertex -9.15 0 -7.95
      vertex -7.03196 -1.5 -7.95
      vertex -9.41223 -2.49494 -7.95
    endloop
  endfacet
  facet normal 0 0 -1
    outer loop
      vertex -9.41223 2.49494 -7.95
      vertex -7.03196 1.5 -7.95
      vertex -9.15 0 -7.95
    endloop
  endfacet
  facet normal 0 0 -1
    outer loop
      vertex -7.03196 -1.5 -7.95
      vertex -9.15 0 -7.95
      vertex -7.03196 1.5 -7.95
    endloop
  endfacet
  facet normal 0 0 -1
    outer loop
      vertex -13.1204 -8.91774 -7.95
      vertex -8.02957 -12.2323 -7.95
      vertex -9.7082 -14.0966 -7.95
    endloop
  endfacet
  facet normal 0 0 -1
    outer loop
      vertex -8.02957 -12.2323 -7.95
      vertex -10.1875 -4.88084 -7.95
      vertex -9.41223 -2.49494 -7.95
    endloop
  endfacet
  facet normal 0 0 -1
    outer loop
      vertex -15.15 -10.3923 -7.95
      vertex -9.7082 -14.0966 -7.95
      vertex -10.9625 -16.2692 -7.95
    endloop
  endfacet
  facet normal 0 0 -1
    outer loop
      vertex -8.02957 -12.2323 -7.95
      vertex -11.4418 -7.05342 -7.95
      vertex -10.1875 -4.88084 -7.95
    endloop
  endfacet
  facet normal 0 0 -1
    outer loop
      vertex -15.15 -10.3923 -7.95
      vertex -10.9625 -16.2692 -7.95
      vertex -11.7378 -18.6551 -7.95
    endloop
  endfacet
  facet normal 0 0 -1
    outer loop
      vertex -18.75 -23.15 -7.95
      vertex -11.7378 -18.6551 -7.95
      vertex -12 -21.15 -7.95
    endloop
  endfacet
  facet normal 0 0 -1
    outer loop
      vertex -8.02957 -12.2323 -7.95
      vertex -13.1204 -8.91774 -7.95
      vertex -11.4418 -7.05342 -7.95
    endloop
  endfacet
  facet normal 0 0 -1
    outer loop
      vertex 13.1204 8.91774 -7.95
      vertex 8.02957 12.2323 -7.95
      vertex 9.7082 14.0966 -7.95
    endloop
  endfacet
  facet normal 0 0 -1
    outer loop
      vertex 11.4418 7.05342 -7.95
      vertex 6 10.7577 -7.95
      vertex 8.02957 12.2323 -7.95
    endloop
  endfacet
  facet normal 0 0 -1
    outer loop
      vertex 3.7082 9.73732 -7.95
      vertex 7.03196 1.5 -7.95
      vertex 4.21834 1.5 -7.95
    endloop
  endfacet
  facet normal 0 0 -1
    outer loop
      vertex 10.1875 4.88084 -7.95
      vertex 3.7082 9.73732 -7.95
      vertex 6 10.7577 -7.95
    endloop
  endfacet
  facet normal 0 0 -1
    outer loop
      vertex -4.21834 -1.5 -7.95
      vertex 4.21834 -1.5 -7.95
      vertex 1.25434 -9.21574 -7.95
    endloop
  endfacet
  facet normal 0 0 -1
    outer loop
      vertex 4.21834 -1.5 -7.95
      vertex -4.21834 -1.5 -7.95
      vertex 4.21834 1.5 -7.95
    endloop
  endfacet
  facet normal 0 0 -1
    outer loop
      vertex -4.21834 1.5 -7.95
      vertex 4.21834 1.5 -7.95
      vertex -4.21834 -1.5 -7.95
    endloop
  endfacet
  facet normal 0 0 -1
    outer loop
      vertex -4.21834 -1.5 -7.95
      vertex 1.25434 -9.21574 -7.95
      vertex -1.25434 -9.21574 -7.95
    endloop
  endfacet
  facet normal 0 0 -1
    outer loop
      vertex 4.21834 1.5 -7.95
      vertex 1.25434 9.21574 -7.95
      vertex 3.7082 9.73732 -7.95
    endloop
  endfacet
  facet normal 0 0 -1
    outer loop
      vertex -4.21834 -1.5 -7.95
      vertex -1.25434 -9.21574 -7.95
      vertex -3.7082 -9.73732 -7.95
    endloop
  endfacet
  facet normal 0 0 -1
    outer loop
      vertex 4.21834 1.5 -7.95
      vertex -1.25434 9.21574 -7.95
      vertex 1.25434 9.21574 -7.95
    endloop
  endfacet
  facet normal 0 0 -1
    outer loop
      vertex 4.21834 1.5 -7.95
      vertex -4.21834 1.5 -7.95
      vertex -1.25434 9.21574 -7.95
    endloop
  endfacet
  facet normal 0 0 -1
    outer loop
      vertex -3.7082 -9.73732 -7.95
      vertex -4.44523 -1.5 -7.95
      vertex -4.21834 -1.5 -7.95
    endloop
  endfacet
  facet normal 0 0 -1
    outer loop
      vertex -3.7082 -9.73732 -7.95
      vertex -5.29161 -1.5 -7.95
      vertex -4.44523 -1.5 -7.95
    endloop
  endfacet
  facet normal 0 0 -1
    outer loop
      vertex -9.41223 -2.49494 -7.95
      vertex -3.7082 -9.73732 -7.95
      vertex -6 -10.7577 -7.95
    endloop
  endfacet
  facet normal 0 0 -1
    outer loop
      vertex -3.7082 -9.73732 -7.95
      vertex -6.03346 -1.5 -7.95
      vertex -5.29161 -1.5 -7.95
    endloop
  endfacet
  facet normal 0 0 -1
    outer loop
      vertex -3.7082 -9.73732 -7.95
      vertex -6.70111 -1.5 -7.95
      vertex -6.03346 -1.5 -7.95
    endloop
  endfacet
  facet normal 0 0 -1
    outer loop
      vertex -3.7082 -9.73732 -7.95
      vertex -9.41223 -2.49494 -7.95
      vertex -6.70111 -1.5 -7.95
    endloop
  endfacet
  facet normal -0 0 -1
    outer loop
      vertex -6.70111 -1.5 -7.95
      vertex -9.41223 -2.49494 -7.95
      vertex -7.03196 -1.5 -7.95
    endloop
  endfacet
  facet normal 0 0 -1
    outer loop
      vertex -9.41223 -2.49494 -7.95
      vertex -6 -10.7577 -7.95
      vertex -8.02957 -12.2323 -7.95
    endloop
  endfacet
  facet normal 0 -1 0
    outer loop
      vertex -18.75 -23.15 -7.95
      vertex -11.7898 -23.15 7.95
      vertex -18.75 -23.15 7.95
    endloop
  endfacet
  facet normal 0 -1 -0
    outer loop
      vertex -11.7898 -23.15 7.95
      vertex -18.75 -23.15 -7.95
      vertex -11.7898 -23.15 -7.95
    endloop
  endfacet
  facet normal 0 -1 0
    outer loop
      vertex 11.7898 -23.15 -7.95
      vertex 18.75 -23.15 7.95
      vertex 11.7898 -23.15 7.95
    endloop
  endfacet
  facet normal 0 -1 -0
    outer loop
      vertex 18.75 -23.15 7.95
      vertex 11.7898 -23.15 -7.95
      vertex 18.75 -23.15 -7.95
    endloop
  endfacet
endsolid OpenSCAD_Model
