solid OpenSCAD_Model
  facet normal -1 0 0
    outer loop
      vertex 0 0 0
      vertex 0 0 7
      vertex 0 1.32 0
    endloop
  endfacet
  facet normal -1 0 0
    outer loop
      vertex 0 1.32 0
      vertex 0 0 7
      vertex 0 1.32 7
    endloop
  endfacet
  facet normal 0 -1 0
    outer loop
      vertex 0 0 7
      vertex 0 0 0
      vertex 13 0 0
    endloop
  endfacet
  facet normal 0 -1 0
    outer loop
      vertex 13 0 7
      vertex 0 0 7
      vertex 13 0 0
    endloop
  endfacet
  facet normal 0 0 -1
    outer loop
      vertex 0 0 0
      vertex 0 1.32 0
      vertex 13 0 0
    endloop
  endfacet
  facet normal 0 0 -1
    outer loop
      vertex 13 0 0
      vertex 0 1.32 0
      vertex 13 1.32 0
    endloop
  endfacet
  facet normal 0 1 0
    outer loop
      vertex 0 1.32 0
      vertex 0 1.32 7
      vertex 13 1.32 0
    endloop
  endfacet
  facet normal 0 1 0
    outer loop
      vertex 13 1.32 0
      vertex 0 1.32 7
      vertex 13 1.32 7
    endloop
  endfacet
  facet normal 0 0 1
    outer loop
      vertex 0 1.32 7
      vertex 0 0 7
      vertex 13 0 7
    endloop
  endfacet
  facet normal 0 0 1
    outer loop
      vertex 13 1.32 7
      vertex 0 1.32 7
      vertex 13 0 7
    endloop
  endfacet
  facet normal 1 0 0
    outer loop
      vertex 13 0 7
      vertex 13 0 0
      vertex 13 1.32 0
    endloop
  endfacet
  facet normal 1 0 0
    outer loop
      vertex 13 1.32 7
      vertex 13 0 7
      vertex 13 1.32 0
    endloop
  endfacet
  facet normal 1.22465e-16 -1 0
    outer loop
      vertex 1.55858 3.72 7
      vertex 1.55858 3.72 0
      vertex 2.5 3.72 0
    endloop
  endfacet
  facet normal 1.22465e-16 -1 0
    outer loop
      vertex 2.5 3.72 7
      vertex 1.55858 3.72 7
      vertex 2.5 3.72 0
    endloop
  endfacet
  facet normal 0 0 -1
    outer loop
      vertex 1.55858 3.72 0
      vertex 2.4158 5.04 0
      vertex 2.5 3.72 0
    endloop
  endfacet
  facet normal 0 0 -1
    outer loop
      vertex 2.5 3.72 0
      vertex 2.4158 5.04 0
      vertex 3.82 5.04 0
    endloop
  endfacet
  facet normal 0 0 -1
    outer loop
      vertex 2.5 3.72 0
      vertex 3.82 5.04 0
      vertex 3.82 3.72 0
    endloop
  endfacet
  facet normal 0 0 -1
    outer loop
      vertex 3.82 3.72 0
      vertex 3.82 1.32 0
      vertex 2.5 3.72 0
    endloop
  endfacet
  facet normal 0 0 -1
    outer loop
      vertex 2.5 3.72 0
      vertex 3.82 1.32 0
      vertex 2.5 1.32 0
    endloop
  endfacet
  facet normal -0.838671 0.544639 0
    outer loop
      vertex 2.4158 5.04 7
      vertex 2.4158 5.04 0
      vertex 1.55858 3.72 7
    endloop
  endfacet
  facet normal -0.838671 0.544639 0
    outer loop
      vertex 1.55858 3.72 7
      vertex 2.4158 5.04 0
      vertex 1.55858 3.72 0
    endloop
  endfacet
  facet normal 0 0 1
    outer loop
      vertex 2.4158 5.04 7
      vertex 1.55858 3.72 7
      vertex 2.5 3.72 7
    endloop
  endfacet
  facet normal 0 0 1
    outer loop
      vertex 3.82 1.32 7
      vertex 2.4158 5.04 7
      vertex 2.5 3.72 7
    endloop
  endfacet
  facet normal 0 0 1
    outer loop
      vertex 2.5 1.32 7
      vertex 3.82 1.32 7
      vertex 2.5 3.72 7
    endloop
  endfacet
  facet normal 0 0 1
    outer loop
      vertex 3.82 1.32 7
      vertex 3.82 3.72 7
      vertex 2.4158 5.04 7
    endloop
  endfacet
  facet normal 0 0 1
    outer loop
      vertex 3.82 3.72 7
      vertex 3.82 5.04 7
      vertex 2.4158 5.04 7
    endloop
  endfacet
  facet normal -1 0 0
    outer loop
      vertex 2.5 1.32 0
      vertex 2.5 1.32 7
      vertex 2.5 3.72 0
    endloop
  endfacet
  facet normal -1 0 0
    outer loop
      vertex 2.5 3.72 0
      vertex 2.5 1.32 7
      vertex 2.5 3.72 7
    endloop
  endfacet
  facet normal 0 -1 0
    outer loop
      vertex 2.5 1.32 7
      vertex 2.5 1.32 0
      vertex 3.82 1.32 0
    endloop
  endfacet
  facet normal 0 -1 0
    outer loop
      vertex 3.82 1.32 7
      vertex 2.5 1.32 7
      vertex 3.82 1.32 0
    endloop
  endfacet
  facet normal 1 0 0
    outer loop
      vertex 3.82 1.32 7
      vertex 3.82 1.32 0
      vertex 3.82 3.72 0
    endloop
  endfacet
  facet normal 1 0 0
    outer loop
      vertex 3.82 3.72 7
      vertex 3.82 1.32 7
      vertex 3.82 3.72 0
    endloop
  endfacet
  facet normal 1 1.22465e-16 0
    outer loop
      vertex 3.82 3.72 0
      vertex 3.82 5.04 0
      vertex 3.82 5.04 7
    endloop
  endfacet
  facet normal 1 1.22465e-16 0
    outer loop
      vertex 3.82 3.72 7
      vertex 3.82 3.72 0
      vertex 3.82 5.04 7
    endloop
  endfacet
  facet normal -1.22465e-16 1 0
    outer loop
      vertex 2.4158 5.04 0
      vertex 2.4158 5.04 7
      vertex 3.82 5.04 0
    endloop
  endfacet
  facet normal -1.22465e-16 1 0
    outer loop
      vertex 3.82 5.04 0
      vertex 2.4158 5.04 7
      vertex 3.82 5.04 7
    endloop
  endfacet
  facet normal -1 0 0
    outer loop
      vertex 9.18 1.32 0
      vertex 9.18 1.32 7
      vertex 9.18 5.04 0
    endloop
  endfacet
  facet normal -1 0 0
    outer loop
      vertex 9.18 5.04 0
      vertex 9.18 1.32 7
      vertex 9.18 5.04 7
    endloop
  endfacet
  facet normal 0 -1 0
    outer loop
      vertex 9.18 1.32 7
      vertex 9.18 1.32 0
      vertex 10.5 1.32 0
    endloop
  endfacet
  facet normal 0 -1 0
    outer loop
      vertex 10.5 1.32 7
      vertex 9.18 1.32 7
      vertex 10.5 1.32 0
    endloop
  endfacet
  facet normal 0 0 -1
    outer loop
      vertex 9.18 1.32 0
      vertex 9.18 5.04 0
      vertex 10.5 1.32 0
    endloop
  endfacet
  facet normal 0 0 -1
    outer loop
      vertex 10.5 3.72 0
      vertex 9.18 5.04 0
      vertex 10.5842 5.04 0
    endloop
  endfacet
  facet normal 0 0 -1
    outer loop
      vertex 10.5 1.32 0
      vertex 9.18 5.04 0
      vertex 10.5 3.72 0
    endloop
  endfacet
  facet normal 0 0 -1
    outer loop
      vertex 10.5 3.72 0
      vertex 10.5842 5.04 0
      vertex 11.4414 3.72 0
    endloop
  endfacet
  facet normal 0 1 0
    outer loop
      vertex 9.18 5.04 0
      vertex 9.18 5.04 7
      vertex 10.5842 5.04 0
    endloop
  endfacet
  facet normal 0 1 0
    outer loop
      vertex 10.5842 5.04 0
      vertex 9.18 5.04 7
      vertex 10.5842 5.04 7
    endloop
  endfacet
  facet normal 0 0 1
    outer loop
      vertex 9.18 5.04 7
      vertex 9.18 1.32 7
      vertex 10.5 1.32 7
    endloop
  endfacet
  facet normal 0 0 1
    outer loop
      vertex 11.4414 3.72 7
      vertex 9.18 5.04 7
      vertex 10.5 3.72 7
    endloop
  endfacet
  facet normal 0 0 1
    outer loop
      vertex 10.5 3.72 7
      vertex 9.18 5.04 7
      vertex 10.5 1.32 7
    endloop
  endfacet
  facet normal 0 0 1
    outer loop
      vertex 10.5842 5.04 7
      vertex 9.18 5.04 7
      vertex 11.4414 3.72 7
    endloop
  endfacet
  facet normal 1 0 0
    outer loop
      vertex 10.5 1.32 7
      vertex 10.5 1.32 0
      vertex 10.5 3.72 0
    endloop
  endfacet
  facet normal 1 0 0
    outer loop
      vertex 10.5 3.72 7
      vertex 10.5 1.32 7
      vertex 10.5 3.72 0
    endloop
  endfacet
  facet normal 0 -1 0
    outer loop
      vertex 10.5 3.72 7
      vertex 10.5 3.72 0
      vertex 11.4414 3.72 0
    endloop
  endfacet
  facet normal 0 -1 0
    outer loop
      vertex 11.4414 3.72 7
      vertex 10.5 3.72 7
      vertex 11.4414 3.72 0
    endloop
  endfacet
  facet normal 0.838671 0.544639 0
    outer loop
      vertex 10.5842 5.04 7
      vertex 11.4414 3.72 7
      vertex 11.4414 3.72 0
    endloop
  endfacet
  facet normal 0.838671 0.544639 0
    outer loop
      vertex 10.5842 5.04 0
      vertex 10.5842 5.04 7
      vertex 11.4414 3.72 0
    endloop
  endfacet
endsolid OpenSCAD_Model
