solid OpenSCAD_Model
  facet normal 0 0 -1
    outer loop
      vertex -7.5 0 -7.5
      vertex -7.45891 0.783963 -7.5
      vertex -7.45891 -0.783963 -7.5
    endloop
  endfacet
  facet normal 0 0 -1
    outer loop
      vertex -7.45891 -0.783963 -7.5
      vertex -7.45891 0.783963 -7.5
      vertex -7.33611 1.55934 -7.5
    endloop
  endfacet
  facet normal 0 0 -1
    outer loop
      vertex -7.45891 -0.783963 -7.5
      vertex -7.33611 1.55934 -7.5
      vertex -7.13292 2.31763 -7.5
    endloop
  endfacet
  facet normal 0 0 -1
    outer loop
      vertex -7.45891 -0.783963 -7.5
      vertex -7.13292 2.31763 -7.5
      vertex -6.85159 3.05052 -7.5
    endloop
  endfacet
  facet normal 0 0 -1
    outer loop
      vertex -7.45891 -0.783963 -7.5
      vertex -6.85159 3.05052 -7.5
      vertex -6.49519 3.75 -7.5
    endloop
  endfacet
  facet normal 0 0 -1
    outer loop
      vertex -7.45891 -0.783963 -7.5
      vertex -6.49519 3.75 -7.5
      vertex -6.06763 4.40839 -7.5
    endloop
  endfacet
  facet normal 0 0 -1
    outer loop
      vertex -7.45891 -0.783963 -7.5
      vertex -6.06763 4.40839 -7.5
      vertex -5.57359 5.01848 -7.5
    endloop
  endfacet
  facet normal 0 0 -1
    outer loop
      vertex -7.45891 -0.783963 -7.5
      vertex -5.57359 5.01848 -7.5
      vertex -5.01848 5.57359 -7.5
    endloop
  endfacet
  facet normal 0 0 -1
    outer loop
      vertex -7.45891 -0.783963 -7.5
      vertex -5.01848 5.57359 -7.5
      vertex -4.40839 6.06763 -7.5
    endloop
  endfacet
  facet normal 0 0 -1
    outer loop
      vertex -7.45891 -0.783963 -7.5
      vertex -4.40839 6.06763 -7.5
      vertex -3.75 6.49519 -7.5
    endloop
  endfacet
  facet normal 0 0 -1
    outer loop
      vertex -7.45891 -0.783963 -7.5
      vertex -3.75 6.49519 -7.5
      vertex -3.05052 6.85159 -7.5
    endloop
  endfacet
  facet normal 0 0 -1
    outer loop
      vertex -7.45891 -0.783963 -7.5
      vertex -3.05052 6.85159 -7.5
      vertex -2.31763 7.13292 -7.5
    endloop
  endfacet
  facet normal 0 0 -1
    outer loop
      vertex -7.45891 -0.783963 -7.5
      vertex -2.31763 7.13292 -7.5
      vertex -1.55934 7.33611 -7.5
    endloop
  endfacet
  facet normal 0 0 -1
    outer loop
      vertex -7.45891 -0.783963 -7.5
      vertex -1.55934 7.33611 -7.5
      vertex -0.783963 7.45891 -7.5
    endloop
  endfacet
  facet normal 0 0 -1
    outer loop
      vertex -7.45891 -0.783963 -7.5
      vertex -0.783963 7.45891 -7.5
      vertex 0 7.5 -7.5
    endloop
  endfacet
  facet normal 0 0 -1
    outer loop
      vertex -7.45891 -0.783963 -7.5
      vertex 0 7.5 -7.5
      vertex 0.783963 7.45891 -7.5
    endloop
  endfacet
  facet normal 0 0 -1
    outer loop
      vertex -7.45891 -0.783963 -7.5
      vertex 0.783963 7.45891 -7.5
      vertex 1.55934 7.33611 -7.5
    endloop
  endfacet
  facet normal 0 0 -1
    outer loop
      vertex -1.95216 3.83133 -7.5
      vertex 1.55934 7.33611 -7.5
      vertex 2.31763 7.13292 -7.5
    endloop
  endfacet
  facet normal 0 0 -1
    outer loop
      vertex -0.672668 4.24706 -7.5
      vertex 2.31763 7.13292 -7.5
      vertex 3.05052 6.85159 -7.5
    endloop
  endfacet
  facet normal 0 0 -1
    outer loop
      vertex 0 4.3 -7.5
      vertex 3.05052 6.85159 -7.5
      vertex 3.75 6.49519 -7.5
    endloop
  endfacet
  facet normal 0 0 -1
    outer loop
      vertex 0.672668 4.24706 -7.5
      vertex 3.75 6.49519 -7.5
      vertex 4.40839 6.06763 -7.5
    endloop
  endfacet
  facet normal 0 0 -1
    outer loop
      vertex 1.32877 4.08954 -7.5
      vertex 4.40839 6.06763 -7.5
      vertex 5.01848 5.57359 -7.5
    endloop
  endfacet
  facet normal 0 0 -1
    outer loop
      vertex 1.95216 3.83133 -7.5
      vertex 5.01848 5.57359 -7.5
      vertex 5.57359 5.01848 -7.5
    endloop
  endfacet
  facet normal 0 0 -1
    outer loop
      vertex 2.52748 3.47877 -7.5
      vertex 5.57359 5.01848 -7.5
      vertex 6.06763 4.40839 -7.5
    endloop
  endfacet
  facet normal 0 0 -1
    outer loop
      vertex 3.04056 3.04056 -7.5
      vertex 6.06763 4.40839 -7.5
      vertex 6.49519 3.75 -7.5
    endloop
  endfacet
  facet normal 0 0 -1
    outer loop
      vertex 3.47877 2.52748 -7.5
      vertex 6.49519 3.75 -7.5
      vertex 6.85159 3.05052 -7.5
    endloop
  endfacet
  facet normal 0 0 -1
    outer loop
      vertex 3.83133 1.95216 -7.5
      vertex 6.85159 3.05052 -7.5
      vertex 7.13292 2.31763 -7.5
    endloop
  endfacet
  facet normal 0 0 -1
    outer loop
      vertex 4.08954 1.32877 -7.5
      vertex 7.13292 2.31763 -7.5
      vertex 7.33611 1.55934 -7.5
    endloop
  endfacet
  facet normal 0 0 -1
    outer loop
      vertex 4.24706 0.672668 -7.5
      vertex 7.33611 1.55934 -7.5
      vertex 7.45891 0.783963 -7.5
    endloop
  endfacet
  facet normal 0 0 -1
    outer loop
      vertex 4.3 0 -7.5
      vertex 7.45891 0.783963 -7.5
      vertex 7.5 0 -7.5
    endloop
  endfacet
  facet normal 0 0 -1
    outer loop
      vertex 4.24706 -0.672668 -7.5
      vertex 7.5 0 -7.5
      vertex 7.45891 -0.783963 -7.5
    endloop
  endfacet
  facet normal 0 0 -1
    outer loop
      vertex 4.08954 -1.32877 -7.5
      vertex 7.45891 -0.783963 -7.5
      vertex 7.33611 -1.55934 -7.5
    endloop
  endfacet
  facet normal 0 0 -1
    outer loop
      vertex 3.83133 -1.95216 -7.5
      vertex 7.33611 -1.55934 -7.5
      vertex 7.13292 -2.31763 -7.5
    endloop
  endfacet
  facet normal 0 0 -1
    outer loop
      vertex 3.47877 -2.52748 -7.5
      vertex 6.85159 -3.05052 -7.5
      vertex 6.49519 -3.75 -7.5
    endloop
  endfacet
  facet normal 0 0 -1
    outer loop
      vertex 3.04056 -3.04056 -7.5
      vertex 6.49519 -3.75 -7.5
      vertex 6.06763 -4.40839 -7.5
    endloop
  endfacet
  facet normal 0 0 -1
    outer loop
      vertex 1.95216 -3.83133 -7.5
      vertex 6.06763 -4.40839 -7.5
      vertex 5.57359 -5.01848 -7.5
    endloop
  endfacet
  facet normal 0 0 -1
    outer loop
      vertex 1.32877 -4.08954 -7.5
      vertex 5.57359 -5.01848 -7.5
      vertex 5.01848 -5.57359 -7.5
    endloop
  endfacet
  facet normal 0 0 -1
    outer loop
      vertex 0.672668 -4.24706 -7.5
      vertex 5.01848 -5.57359 -7.5
      vertex 4.40839 -6.06763 -7.5
    endloop
  endfacet
  facet normal 0 0 -1
    outer loop
      vertex 0 -4.3 -7.5
      vertex 4.40839 -6.06763 -7.5
      vertex 3.75 -6.49519 -7.5
    endloop
  endfacet
  facet normal 0 0 -1
    outer loop
      vertex -1.32877 -4.08954 -7.5
      vertex 3.75 -6.49519 -7.5
      vertex 3.05052 -6.85159 -7.5
    endloop
  endfacet
  facet normal 0 0 -1
    outer loop
      vertex -7.45891 -0.783963 -7.5
      vertex 3.05052 -6.85159 -7.5
      vertex 2.31763 -7.13292 -7.5
    endloop
  endfacet
  facet normal 0 0 -1
    outer loop
      vertex -7.45891 -0.783963 -7.5
      vertex 2.31763 -7.13292 -7.5
      vertex 1.55934 -7.33611 -7.5
    endloop
  endfacet
  facet normal 0 0 -1
    outer loop
      vertex -7.45891 -0.783963 -7.5
      vertex 1.55934 -7.33611 -7.5
      vertex 0.783963 -7.45891 -7.5
    endloop
  endfacet
  facet normal 0 0 -1
    outer loop
      vertex -7.45891 -0.783963 -7.5
      vertex 0.783963 -7.45891 -7.5
      vertex 0 -7.5 -7.5
    endloop
  endfacet
  facet normal 0 0 -1
    outer loop
      vertex -7.45891 -0.783963 -7.5
      vertex 0 -7.5 -7.5
      vertex -0.783963 -7.45891 -7.5
    endloop
  endfacet
  facet normal 0 0 -1
    outer loop
      vertex -7.45891 -0.783963 -7.5
      vertex -0.783963 -7.45891 -7.5
      vertex -1.55934 -7.33611 -7.5
    endloop
  endfacet
  facet normal 0 0 -1
    outer loop
      vertex -7.45891 -0.783963 -7.5
      vertex -1.55934 -7.33611 -7.5
      vertex -2.31763 -7.13292 -7.5
    endloop
  endfacet
  facet normal 0 0 -1
    outer loop
      vertex -7.45891 -0.783963 -7.5
      vertex -2.31763 -7.13292 -7.5
      vertex -3.05052 -6.85159 -7.5
    endloop
  endfacet
  facet normal 0 0 -1
    outer loop
      vertex -7.45891 -0.783963 -7.5
      vertex -3.05052 -6.85159 -7.5
      vertex -3.75 -6.49519 -7.5
    endloop
  endfacet
  facet normal 0 0 -1
    outer loop
      vertex -7.45891 -0.783963 -7.5
      vertex -3.75 -6.49519 -7.5
      vertex -4.40839 -6.06763 -7.5
    endloop
  endfacet
  facet normal 0 0 -1
    outer loop
      vertex -7.45891 -0.783963 -7.5
      vertex -4.40839 -6.06763 -7.5
      vertex -5.01848 -5.57359 -7.5
    endloop
  endfacet
  facet normal 0 0 -1
    outer loop
      vertex -7.45891 -0.783963 -7.5
      vertex -5.01848 -5.57359 -7.5
      vertex -5.57359 -5.01848 -7.5
    endloop
  endfacet
  facet normal 0 0 -1
    outer loop
      vertex -7.45891 -0.783963 -7.5
      vertex -5.57359 -5.01848 -7.5
      vertex -6.06763 -4.40839 -7.5
    endloop
  endfacet
  facet normal 0 0 -1
    outer loop
      vertex -7.45891 -0.783963 -7.5
      vertex -6.06763 -4.40839 -7.5
      vertex -6.49519 -3.75 -7.5
    endloop
  endfacet
  facet normal 0 0 -1
    outer loop
      vertex -7.45891 -0.783963 -7.5
      vertex -6.49519 -3.75 -7.5
      vertex -6.85159 -3.05052 -7.5
    endloop
  endfacet
  facet normal 0 0 -1
    outer loop
      vertex -7.45891 -0.783963 -7.5
      vertex -6.85159 -3.05052 -7.5
      vertex -7.13292 -2.31763 -7.5
    endloop
  endfacet
  facet normal 0 0 -1
    outer loop
      vertex -7.45891 -0.783963 -7.5
      vertex -7.13292 -2.31763 -7.5
      vertex -7.33611 -1.55934 -7.5
    endloop
  endfacet
  facet normal 0 0 -1
    outer loop
      vertex -4.24706 -0.672668 -7.5
      vertex -7.45891 -0.783963 -7.5
      vertex -4.3 0 -7.5
    endloop
  endfacet
  facet normal 0 0 -1
    outer loop
      vertex -4.08954 -1.32877 -7.5
      vertex -7.45891 -0.783963 -7.5
      vertex -4.24706 -0.672668 -7.5
    endloop
  endfacet
  facet normal 0 0 -1
    outer loop
      vertex -3.83133 -1.95216 -7.5
      vertex -7.45891 -0.783963 -7.5
      vertex -4.08954 -1.32877 -7.5
    endloop
  endfacet
  facet normal 0 0 -1
    outer loop
      vertex 3.04056 -3.04056 -7.5
      vertex 6.06763 -4.40839 -7.5
      vertex 2.52748 -3.47877 -7.5
    endloop
  endfacet
  facet normal 0 0 -1
    outer loop
      vertex -3.04056 -3.04056 -7.5
      vertex -7.45891 -0.783963 -7.5
      vertex -3.47877 -2.52748 -7.5
    endloop
  endfacet
  facet normal 0 0 -1
    outer loop
      vertex -1.32877 -4.08954 -7.5
      vertex 3.05052 -6.85159 -7.5
      vertex -1.95216 -3.83133 -7.5
    endloop
  endfacet
  facet normal 0 0 -1
    outer loop
      vertex -7.45891 -0.783963 -7.5
      vertex -3.04056 -3.04056 -7.5
      vertex -2.52748 -3.47877 -7.5
    endloop
  endfacet
  facet normal 0 0 -1
    outer loop
      vertex -7.45891 -0.783963 -7.5
      vertex -2.52748 -3.47877 -7.5
      vertex -1.95216 -3.83133 -7.5
    endloop
  endfacet
  facet normal 0 0 -1
    outer loop
      vertex -7.45891 -0.783963 -7.5
      vertex -1.95216 -3.83133 -7.5
      vertex 3.05052 -6.85159 -7.5
    endloop
  endfacet
  facet normal 0 0 -1
    outer loop
      vertex -0.672668 -4.24706 -7.5
      vertex 3.75 -6.49519 -7.5
      vertex -1.32877 -4.08954 -7.5
    endloop
  endfacet
  facet normal 0 0 -1
    outer loop
      vertex 0 -4.3 -7.5
      vertex 3.75 -6.49519 -7.5
      vertex -0.672668 -4.24706 -7.5
    endloop
  endfacet
  facet normal 0 0 -1
    outer loop
      vertex 1.32877 -4.08954 -7.5
      vertex 5.01848 -5.57359 -7.5
      vertex 0.672668 -4.24706 -7.5
    endloop
  endfacet
  facet normal 0 0 -1
    outer loop
      vertex 0.672668 -4.24706 -7.5
      vertex 4.40839 -6.06763 -7.5
      vertex 0 -4.3 -7.5
    endloop
  endfacet
  facet normal 0 0 -1
    outer loop
      vertex 2.52748 -3.47877 -7.5
      vertex 6.06763 -4.40839 -7.5
      vertex 1.95216 -3.83133 -7.5
    endloop
  endfacet
  facet normal 0 0 -1
    outer loop
      vertex -3.47877 -2.52748 -7.5
      vertex -7.45891 -0.783963 -7.5
      vertex -3.83133 -1.95216 -7.5
    endloop
  endfacet
  facet normal 0 0 -1
    outer loop
      vertex 1.95216 -3.83133 -7.5
      vertex 5.57359 -5.01848 -7.5
      vertex 1.32877 -4.08954 -7.5
    endloop
  endfacet
  facet normal 0 0 -1
    outer loop
      vertex 3.83133 -1.95216 -7.5
      vertex 6.85159 -3.05052 -7.5
      vertex 3.47877 -2.52748 -7.5
    endloop
  endfacet
  facet normal 0 0 -1
    outer loop
      vertex 3.47877 -2.52748 -7.5
      vertex 6.49519 -3.75 -7.5
      vertex 3.04056 -3.04056 -7.5
    endloop
  endfacet
  facet normal 0 0 -1
    outer loop
      vertex 4.3 0 -7.5
      vertex 7.5 0 -7.5
      vertex 4.24706 -0.672668 -7.5
    endloop
  endfacet
  facet normal 0 0 -1
    outer loop
      vertex 4.08954 -1.32877 -7.5
      vertex 7.33611 -1.55934 -7.5
      vertex 3.83133 -1.95216 -7.5
    endloop
  endfacet
  facet normal 0 0 -1
    outer loop
      vertex 3.83133 -1.95216 -7.5
      vertex 7.13292 -2.31763 -7.5
      vertex 6.85159 -3.05052 -7.5
    endloop
  endfacet
  facet normal 0 0 -1
    outer loop
      vertex 4.24706 -0.672668 -7.5
      vertex 7.45891 -0.783963 -7.5
      vertex 4.08954 -1.32877 -7.5
    endloop
  endfacet
  facet normal 0 0 -1
    outer loop
      vertex 3.47877 2.52748 -7.5
      vertex 6.85159 3.05052 -7.5
      vertex 3.83133 1.95216 -7.5
    endloop
  endfacet
  facet normal 0 0 -1
    outer loop
      vertex 3.83133 1.95216 -7.5
      vertex 7.13292 2.31763 -7.5
      vertex 4.08954 1.32877 -7.5
    endloop
  endfacet
  facet normal 0 0 -1
    outer loop
      vertex 4.08954 1.32877 -7.5
      vertex 7.33611 1.55934 -7.5
      vertex 4.24706 0.672668 -7.5
    endloop
  endfacet
  facet normal 0 0 -1
    outer loop
      vertex 4.24706 0.672668 -7.5
      vertex 7.45891 0.783963 -7.5
      vertex 4.3 0 -7.5
    endloop
  endfacet
  facet normal 0 0 -1
    outer loop
      vertex 1.32877 4.08954 -7.5
      vertex 5.01848 5.57359 -7.5
      vertex 1.95216 3.83133 -7.5
    endloop
  endfacet
  facet normal 0 0 -1
    outer loop
      vertex -4.24706 0.672668 -7.5
      vertex -7.45891 -0.783963 -7.5
      vertex -4.08954 1.32877 -7.5
    endloop
  endfacet
  facet normal 0 0 -1
    outer loop
      vertex 0.672668 4.24706 -7.5
      vertex 4.40839 6.06763 -7.5
      vertex 1.32877 4.08954 -7.5
    endloop
  endfacet
  facet normal 0 0 -1
    outer loop
      vertex 0 4.3 -7.5
      vertex 3.75 6.49519 -7.5
      vertex 0.672668 4.24706 -7.5
    endloop
  endfacet
  facet normal 0 0 -1
    outer loop
      vertex -0.672668 4.24706 -7.5
      vertex 3.05052 6.85159 -7.5
      vertex 0 4.3 -7.5
    endloop
  endfacet
  facet normal 0 0 -1
    outer loop
      vertex -1.32877 4.08954 -7.5
      vertex 2.31763 7.13292 -7.5
      vertex -0.672668 4.24706 -7.5
    endloop
  endfacet
  facet normal 0 0 -1
    outer loop
      vertex -1.95216 3.83133 -7.5
      vertex 2.31763 7.13292 -7.5
      vertex -1.32877 4.08954 -7.5
    endloop
  endfacet
  facet normal 0 0 -1
    outer loop
      vertex -2.52748 3.47877 -7.5
      vertex 1.55934 7.33611 -7.5
      vertex -1.95216 3.83133 -7.5
    endloop
  endfacet
  facet normal 0 0 -1
    outer loop
      vertex -3.47877 2.52748 -7.5
      vertex -7.45891 -0.783963 -7.5
      vertex -3.04056 3.04056 -7.5
    endloop
  endfacet
  facet normal 0 0 -1
    outer loop
      vertex -3.04056 3.04056 -7.5
      vertex 1.55934 7.33611 -7.5
      vertex -2.52748 3.47877 -7.5
    endloop
  endfacet
  facet normal 0 0 -1
    outer loop
      vertex -7.45891 -0.783963 -7.5
      vertex 1.55934 7.33611 -7.5
      vertex -3.04056 3.04056 -7.5
    endloop
  endfacet
  facet normal 0 0 -1
    outer loop
      vertex -3.83133 1.95216 -7.5
      vertex -7.45891 -0.783963 -7.5
      vertex -3.47877 2.52748 -7.5
    endloop
  endfacet
  facet normal 0 0 -1
    outer loop
      vertex -4.08954 1.32877 -7.5
      vertex -7.45891 -0.783963 -7.5
      vertex -3.83133 1.95216 -7.5
    endloop
  endfacet
  facet normal 0 0 -1
    outer loop
      vertex -4.3 0 -7.5
      vertex -7.45891 -0.783963 -7.5
      vertex -4.24706 0.672668 -7.5
    endloop
  endfacet
  facet normal 0 0 -1
    outer loop
      vertex 1.95216 3.83133 -7.5
      vertex 5.57359 5.01848 -7.5
      vertex 2.52748 3.47877 -7.5
    endloop
  endfacet
  facet normal 0 0 -1
    outer loop
      vertex 2.52748 3.47877 -7.5
      vertex 6.06763 4.40839 -7.5
      vertex 3.04056 3.04056 -7.5
    endloop
  endfacet
  facet normal 0 0 -1
    outer loop
      vertex 3.04056 3.04056 -7.5
      vertex 6.49519 3.75 -7.5
      vertex 3.47877 2.52748 -7.5
    endloop
  endfacet
  facet normal -0.99863 0.0523363 0
    outer loop
      vertex -7.5 0 -7.5
      vertex -7.5 0 7.5
      vertex -7.45891 0.783963 -7.5
    endloop
  endfacet
  facet normal -0.99863 0.0523363 0
    outer loop
      vertex -7.45891 0.783963 -7.5
      vertex -7.5 0 7.5
      vertex -7.45891 0.783963 7.5
    endloop
  endfacet
  facet normal -0.99863 -0.0523363 0
    outer loop
      vertex -7.5 0 -7.5
      vertex -7.45891 -0.783963 -7.5
      vertex -7.5 0 7.5
    endloop
  endfacet
  facet normal -0.99863 -0.0523363 0
    outer loop
      vertex -7.5 0 7.5
      vertex -7.45891 -0.783963 -7.5
      vertex -7.45891 -0.783963 7.5
    endloop
  endfacet
  facet normal -0.987688 -0.156434 0
    outer loop
      vertex -7.45891 -0.783963 -7.5
      vertex -7.33611 -1.55934 -7.5
      vertex -7.45891 -0.783963 7.5
    endloop
  endfacet
  facet normal -0.987688 -0.156434 0
    outer loop
      vertex -7.45891 -0.783963 7.5
      vertex -7.33611 -1.55934 -7.5
      vertex -7.33611 -1.55934 7.5
    endloop
  endfacet
  facet normal -0.965926 -0.258819 0
    outer loop
      vertex -7.33611 -1.55934 -7.5
      vertex -7.13292 -2.31763 -7.5
      vertex -7.33611 -1.55934 7.5
    endloop
  endfacet
  facet normal -0.965926 -0.258819 0
    outer loop
      vertex -7.33611 -1.55934 7.5
      vertex -7.13292 -2.31763 -7.5
      vertex -7.13292 -2.31763 7.5
    endloop
  endfacet
  facet normal -0.933581 -0.358368 0
    outer loop
      vertex -7.13292 -2.31763 -7.5
      vertex -6.85159 -3.05052 -7.5
      vertex -7.13292 -2.31763 7.5
    endloop
  endfacet
  facet normal -0.933581 -0.358368 0
    outer loop
      vertex -7.13292 -2.31763 7.5
      vertex -6.85159 -3.05052 -7.5
      vertex -6.85159 -3.05052 7.5
    endloop
  endfacet
  facet normal -0.891007 -0.45399 0
    outer loop
      vertex -6.85159 -3.05052 -7.5
      vertex -6.49519 -3.75 -7.5
      vertex -6.85159 -3.05052 7.5
    endloop
  endfacet
  facet normal -0.891007 -0.45399 0
    outer loop
      vertex -6.85159 -3.05052 7.5
      vertex -6.49519 -3.75 -7.5
      vertex -6.49519 -3.75 7.5
    endloop
  endfacet
  facet normal -0.83867 -0.54464 0
    outer loop
      vertex -6.49519 -3.75 -7.5
      vertex -6.06763 -4.40839 -7.5
      vertex -6.49519 -3.75 7.5
    endloop
  endfacet
  facet normal -0.83867 -0.54464 0
    outer loop
      vertex -6.49519 -3.75 7.5
      vertex -6.06763 -4.40839 -7.5
      vertex -6.06763 -4.40839 7.5
    endloop
  endfacet
  facet normal -0.777147 -0.62932 0
    outer loop
      vertex -6.06763 -4.40839 -7.5
      vertex -5.57359 -5.01848 -7.5
      vertex -6.06763 -4.40839 7.5
    endloop
  endfacet
  facet normal -0.777147 -0.62932 0
    outer loop
      vertex -6.06763 -4.40839 7.5
      vertex -5.57359 -5.01848 -7.5
      vertex -5.57359 -5.01848 7.5
    endloop
  endfacet
  facet normal -0.707107 -0.707107 0
    outer loop
      vertex -5.57359 -5.01848 7.5
      vertex -5.57359 -5.01848 -7.5
      vertex -5.01848 -5.57359 -7.5
    endloop
  endfacet
  facet normal -0.707107 -0.707107 0
    outer loop
      vertex -5.01848 -5.57359 7.5
      vertex -5.57359 -5.01848 7.5
      vertex -5.01848 -5.57359 -7.5
    endloop
  endfacet
  facet normal -0.62932 -0.777147 0
    outer loop
      vertex -5.01848 -5.57359 7.5
      vertex -5.01848 -5.57359 -7.5
      vertex -4.40839 -6.06763 -7.5
    endloop
  endfacet
  facet normal -0.62932 -0.777147 0
    outer loop
      vertex -4.40839 -6.06763 7.5
      vertex -5.01848 -5.57359 7.5
      vertex -4.40839 -6.06763 -7.5
    endloop
  endfacet
  facet normal -0.54464 -0.83867 0
    outer loop
      vertex -4.40839 -6.06763 7.5
      vertex -4.40839 -6.06763 -7.5
      vertex -3.75 -6.49519 -7.5
    endloop
  endfacet
  facet normal -0.54464 -0.83867 0
    outer loop
      vertex -3.75 -6.49519 7.5
      vertex -4.40839 -6.06763 7.5
      vertex -3.75 -6.49519 -7.5
    endloop
  endfacet
  facet normal -0.45399 -0.891007 0
    outer loop
      vertex -3.75 -6.49519 7.5
      vertex -3.75 -6.49519 -7.5
      vertex -3.05052 -6.85159 -7.5
    endloop
  endfacet
  facet normal -0.45399 -0.891007 0
    outer loop
      vertex -3.05052 -6.85159 7.5
      vertex -3.75 -6.49519 7.5
      vertex -3.05052 -6.85159 -7.5
    endloop
  endfacet
  facet normal -0.358368 -0.933581 0
    outer loop
      vertex -3.05052 -6.85159 7.5
      vertex -3.05052 -6.85159 -7.5
      vertex -2.31763 -7.13292 -7.5
    endloop
  endfacet
  facet normal -0.358368 -0.933581 0
    outer loop
      vertex -2.31763 -7.13292 7.5
      vertex -3.05052 -6.85159 7.5
      vertex -2.31763 -7.13292 -7.5
    endloop
  endfacet
  facet normal -0.258819 -0.965926 0
    outer loop
      vertex -2.31763 -7.13292 7.5
      vertex -2.31763 -7.13292 -7.5
      vertex -1.55934 -7.33611 -7.5
    endloop
  endfacet
  facet normal -0.258819 -0.965926 0
    outer loop
      vertex -1.55934 -7.33611 7.5
      vertex -2.31763 -7.13292 7.5
      vertex -1.55934 -7.33611 -7.5
    endloop
  endfacet
  facet normal -0.156434 -0.987688 0
    outer loop
      vertex -1.55934 -7.33611 7.5
      vertex -1.55934 -7.33611 -7.5
      vertex -0.783963 -7.45891 -7.5
    endloop
  endfacet
  facet normal -0.156434 -0.987688 0
    outer loop
      vertex -0.783963 -7.45891 7.5
      vertex -1.55934 -7.33611 7.5
      vertex -0.783963 -7.45891 -7.5
    endloop
  endfacet
  facet normal -0.0523363 -0.99863 0
    outer loop
      vertex -0.783963 -7.45891 7.5
      vertex -0.783963 -7.45891 -7.5
      vertex 0 -7.5 -7.5
    endloop
  endfacet
  facet normal -0.0523363 -0.99863 0
    outer loop
      vertex 0 -7.5 7.5
      vertex -0.783963 -7.45891 7.5
      vertex 0 -7.5 -7.5
    endloop
  endfacet
  facet normal 0.0523363 -0.99863 0
    outer loop
      vertex 0 -7.5 7.5
      vertex 0 -7.5 -7.5
      vertex 0.783963 -7.45891 -7.5
    endloop
  endfacet
  facet normal 0.0523363 -0.99863 0
    outer loop
      vertex 0.783963 -7.45891 7.5
      vertex 0 -7.5 7.5
      vertex 0.783963 -7.45891 -7.5
    endloop
  endfacet
  facet normal 0.156434 -0.987688 0
    outer loop
      vertex 0.783963 -7.45891 7.5
      vertex 0.783963 -7.45891 -7.5
      vertex 1.55934 -7.33611 -7.5
    endloop
  endfacet
  facet normal 0.156434 -0.987688 0
    outer loop
      vertex 1.55934 -7.33611 7.5
      vertex 0.783963 -7.45891 7.5
      vertex 1.55934 -7.33611 -7.5
    endloop
  endfacet
  facet normal 0.258819 -0.965926 0
    outer loop
      vertex 1.55934 -7.33611 7.5
      vertex 1.55934 -7.33611 -7.5
      vertex 2.31763 -7.13292 -7.5
    endloop
  endfacet
  facet normal 0.258819 -0.965926 0
    outer loop
      vertex 2.31763 -7.13292 7.5
      vertex 1.55934 -7.33611 7.5
      vertex 2.31763 -7.13292 -7.5
    endloop
  endfacet
  facet normal 0.358368 -0.933581 0
    outer loop
      vertex 2.31763 -7.13292 7.5
      vertex 2.31763 -7.13292 -7.5
      vertex 3.05052 -6.85159 -7.5
    endloop
  endfacet
  facet normal 0.358368 -0.933581 0
    outer loop
      vertex 3.05052 -6.85159 7.5
      vertex 2.31763 -7.13292 7.5
      vertex 3.05052 -6.85159 -7.5
    endloop
  endfacet
  facet normal 0.45399 -0.891007 0
    outer loop
      vertex 3.05052 -6.85159 7.5
      vertex 3.05052 -6.85159 -7.5
      vertex 3.75 -6.49519 -7.5
    endloop
  endfacet
  facet normal 0.45399 -0.891007 0
    outer loop
      vertex 3.75 -6.49519 7.5
      vertex 3.05052 -6.85159 7.5
      vertex 3.75 -6.49519 -7.5
    endloop
  endfacet
  facet normal 0.54464 -0.83867 0
    outer loop
      vertex 3.75 -6.49519 7.5
      vertex 3.75 -6.49519 -7.5
      vertex 4.40839 -6.06763 -7.5
    endloop
  endfacet
  facet normal 0.54464 -0.83867 0
    outer loop
      vertex 4.40839 -6.06763 7.5
      vertex 3.75 -6.49519 7.5
      vertex 4.40839 -6.06763 -7.5
    endloop
  endfacet
  facet normal 0.62932 -0.777147 0
    outer loop
      vertex 4.40839 -6.06763 7.5
      vertex 4.40839 -6.06763 -7.5
      vertex 5.01848 -5.57359 -7.5
    endloop
  endfacet
  facet normal 0.62932 -0.777147 0
    outer loop
      vertex 5.01848 -5.57359 7.5
      vertex 4.40839 -6.06763 7.5
      vertex 5.01848 -5.57359 -7.5
    endloop
  endfacet
  facet normal 0.707107 -0.707107 0
    outer loop
      vertex 5.01848 -5.57359 7.5
      vertex 5.01848 -5.57359 -7.5
      vertex 5.57359 -5.01848 -7.5
    endloop
  endfacet
  facet normal 0.707107 -0.707107 0
    outer loop
      vertex 5.57359 -5.01848 7.5
      vertex 5.01848 -5.57359 7.5
      vertex 5.57359 -5.01848 -7.5
    endloop
  endfacet
  facet normal 0.777147 -0.62932 0
    outer loop
      vertex 5.57359 -5.01848 7.5
      vertex 5.57359 -5.01848 -7.5
      vertex 6.06763 -4.40839 -7.5
    endloop
  endfacet
  facet normal 0.777147 -0.62932 0
    outer loop
      vertex 6.06763 -4.40839 7.5
      vertex 5.57359 -5.01848 7.5
      vertex 6.06763 -4.40839 -7.5
    endloop
  endfacet
  facet normal 0.83867 -0.54464 0
    outer loop
      vertex 6.06763 -4.40839 7.5
      vertex 6.06763 -4.40839 -7.5
      vertex 6.49519 -3.75 -7.5
    endloop
  endfacet
  facet normal 0.83867 -0.54464 0
    outer loop
      vertex 6.49519 -3.75 7.5
      vertex 6.06763 -4.40839 7.5
      vertex 6.49519 -3.75 -7.5
    endloop
  endfacet
  facet normal 0.891007 -0.45399 0
    outer loop
      vertex 6.49519 -3.75 7.5
      vertex 6.49519 -3.75 -7.5
      vertex 6.85159 -3.05052 -7.5
    endloop
  endfacet
  facet normal 0.891007 -0.45399 0
    outer loop
      vertex 6.85159 -3.05052 7.5
      vertex 6.49519 -3.75 7.5
      vertex 6.85159 -3.05052 -7.5
    endloop
  endfacet
  facet normal 0.933581 -0.358368 0
    outer loop
      vertex 6.85159 -3.05052 7.5
      vertex 6.85159 -3.05052 -7.5
      vertex 7.13292 -2.31763 -7.5
    endloop
  endfacet
  facet normal 0.933581 -0.358368 0
    outer loop
      vertex 7.13292 -2.31763 7.5
      vertex 6.85159 -3.05052 7.5
      vertex 7.13292 -2.31763 -7.5
    endloop
  endfacet
  facet normal 0.965926 -0.258819 0
    outer loop
      vertex 7.13292 -2.31763 7.5
      vertex 7.13292 -2.31763 -7.5
      vertex 7.33611 -1.55934 -7.5
    endloop
  endfacet
  facet normal 0.965926 -0.258819 0
    outer loop
      vertex 7.33611 -1.55934 7.5
      vertex 7.13292 -2.31763 7.5
      vertex 7.33611 -1.55934 -7.5
    endloop
  endfacet
  facet normal 0.987688 -0.156434 0
    outer loop
      vertex 7.33611 -1.55934 7.5
      vertex 7.33611 -1.55934 -7.5
      vertex 7.45891 -0.783963 -7.5
    endloop
  endfacet
  facet normal 0.987688 -0.156434 0
    outer loop
      vertex 7.45891 -0.783963 7.5
      vertex 7.33611 -1.55934 7.5
      vertex 7.45891 -0.783963 -7.5
    endloop
  endfacet
  facet normal 0.99863 -0.0523363 0
    outer loop
      vertex 7.45891 -0.783963 7.5
      vertex 7.45891 -0.783963 -7.5
      vertex 7.5 0 -7.5
    endloop
  endfacet
  facet normal 0.99863 -0.0523363 0
    outer loop
      vertex 7.5 0 7.5
      vertex 7.45891 -0.783963 7.5
      vertex 7.5 0 -7.5
    endloop
  endfacet
  facet normal 0.99863 0.0523363 0
    outer loop
      vertex 7.5 0 -7.5
      vertex 7.45891 0.783963 -7.5
      vertex 7.45891 0.783963 7.5
    endloop
  endfacet
  facet normal 0.99863 0.0523363 0
    outer loop
      vertex 7.5 0 7.5
      vertex 7.5 0 -7.5
      vertex 7.45891 0.783963 7.5
    endloop
  endfacet
  facet normal 0.987688 0.156434 0
    outer loop
      vertex 7.45891 0.783963 -7.5
      vertex 7.33611 1.55934 -7.5
      vertex 7.33611 1.55934 7.5
    endloop
  endfacet
  facet normal 0.987688 0.156434 0
    outer loop
      vertex 7.45891 0.783963 7.5
      vertex 7.45891 0.783963 -7.5
      vertex 7.33611 1.55934 7.5
    endloop
  endfacet
  facet normal 0.965926 0.258819 0
    outer loop
      vertex 7.33611 1.55934 -7.5
      vertex 7.13292 2.31763 -7.5
      vertex 7.13292 2.31763 7.5
    endloop
  endfacet
  facet normal 0.965926 0.258819 0
    outer loop
      vertex 7.33611 1.55934 7.5
      vertex 7.33611 1.55934 -7.5
      vertex 7.13292 2.31763 7.5
    endloop
  endfacet
  facet normal 0.933581 0.358368 0
    outer loop
      vertex 7.13292 2.31763 -7.5
      vertex 6.85159 3.05052 -7.5
      vertex 6.85159 3.05052 7.5
    endloop
  endfacet
  facet normal 0.933581 0.358368 0
    outer loop
      vertex 7.13292 2.31763 7.5
      vertex 7.13292 2.31763 -7.5
      vertex 6.85159 3.05052 7.5
    endloop
  endfacet
  facet normal 0.891007 0.45399 0
    outer loop
      vertex 6.85159 3.05052 -7.5
      vertex 6.49519 3.75 -7.5
      vertex 6.49519 3.75 7.5
    endloop
  endfacet
  facet normal 0.891007 0.45399 0
    outer loop
      vertex 6.85159 3.05052 7.5
      vertex 6.85159 3.05052 -7.5
      vertex 6.49519 3.75 7.5
    endloop
  endfacet
  facet normal 0.83867 0.54464 0
    outer loop
      vertex 6.49519 3.75 -7.5
      vertex 6.06763 4.40839 -7.5
      vertex 6.06763 4.40839 7.5
    endloop
  endfacet
  facet normal 0.83867 0.54464 0
    outer loop
      vertex 6.49519 3.75 7.5
      vertex 6.49519 3.75 -7.5
      vertex 6.06763 4.40839 7.5
    endloop
  endfacet
  facet normal 0.777147 0.62932 0
    outer loop
      vertex 6.06763 4.40839 -7.5
      vertex 5.57359 5.01848 -7.5
      vertex 5.57359 5.01848 7.5
    endloop
  endfacet
  facet normal 0.777147 0.62932 0
    outer loop
      vertex 6.06763 4.40839 7.5
      vertex 6.06763 4.40839 -7.5
      vertex 5.57359 5.01848 7.5
    endloop
  endfacet
  facet normal 0.707107 0.707107 0
    outer loop
      vertex 5.01848 5.57359 -7.5
      vertex 5.01848 5.57359 7.5
      vertex 5.57359 5.01848 -7.5
    endloop
  endfacet
  facet normal 0.707107 0.707107 0
    outer loop
      vertex 5.57359 5.01848 -7.5
      vertex 5.01848 5.57359 7.5
      vertex 5.57359 5.01848 7.5
    endloop
  endfacet
  facet normal 0.62932 0.777147 0
    outer loop
      vertex 4.40839 6.06763 -7.5
      vertex 4.40839 6.06763 7.5
      vertex 5.01848 5.57359 -7.5
    endloop
  endfacet
  facet normal 0.62932 0.777147 0
    outer loop
      vertex 5.01848 5.57359 -7.5
      vertex 4.40839 6.06763 7.5
      vertex 5.01848 5.57359 7.5
    endloop
  endfacet
  facet normal 0.54464 0.83867 0
    outer loop
      vertex 3.75 6.49519 -7.5
      vertex 3.75 6.49519 7.5
      vertex 4.40839 6.06763 -7.5
    endloop
  endfacet
  facet normal 0.54464 0.83867 0
    outer loop
      vertex 4.40839 6.06763 -7.5
      vertex 3.75 6.49519 7.5
      vertex 4.40839 6.06763 7.5
    endloop
  endfacet
  facet normal 0.45399 0.891007 0
    outer loop
      vertex 3.05052 6.85159 -7.5
      vertex 3.05052 6.85159 7.5
      vertex 3.75 6.49519 -7.5
    endloop
  endfacet
  facet normal 0.45399 0.891007 0
    outer loop
      vertex 3.75 6.49519 -7.5
      vertex 3.05052 6.85159 7.5
      vertex 3.75 6.49519 7.5
    endloop
  endfacet
  facet normal 0.358368 0.933581 0
    outer loop
      vertex 2.31763 7.13292 -7.5
      vertex 2.31763 7.13292 7.5
      vertex 3.05052 6.85159 -7.5
    endloop
  endfacet
  facet normal 0.358368 0.933581 0
    outer loop
      vertex 3.05052 6.85159 -7.5
      vertex 2.31763 7.13292 7.5
      vertex 3.05052 6.85159 7.5
    endloop
  endfacet
  facet normal 0.258819 0.965926 0
    outer loop
      vertex 1.55934 7.33611 -7.5
      vertex 1.55934 7.33611 7.5
      vertex 2.31763 7.13292 -7.5
    endloop
  endfacet
  facet normal 0.258819 0.965926 0
    outer loop
      vertex 2.31763 7.13292 -7.5
      vertex 1.55934 7.33611 7.5
      vertex 2.31763 7.13292 7.5
    endloop
  endfacet
  facet normal 0.156434 0.987688 0
    outer loop
      vertex 0.783963 7.45891 -7.5
      vertex 0.783963 7.45891 7.5
      vertex 1.55934 7.33611 -7.5
    endloop
  endfacet
  facet normal 0.156434 0.987688 0
    outer loop
      vertex 1.55934 7.33611 -7.5
      vertex 0.783963 7.45891 7.5
      vertex 1.55934 7.33611 7.5
    endloop
  endfacet
  facet normal 0.0523363 0.99863 0
    outer loop
      vertex 0 7.5 -7.5
      vertex 0 7.5 7.5
      vertex 0.783963 7.45891 -7.5
    endloop
  endfacet
  facet normal 0.0523363 0.99863 0
    outer loop
      vertex 0.783963 7.45891 -7.5
      vertex 0 7.5 7.5
      vertex 0.783963 7.45891 7.5
    endloop
  endfacet
  facet normal -0.0523363 0.99863 0
    outer loop
      vertex -0.783963 7.45891 -7.5
      vertex -0.783963 7.45891 7.5
      vertex 0 7.5 -7.5
    endloop
  endfacet
  facet normal -0.0523363 0.99863 0
    outer loop
      vertex 0 7.5 -7.5
      vertex -0.783963 7.45891 7.5
      vertex 0 7.5 7.5
    endloop
  endfacet
  facet normal -0.156434 0.987688 0
    outer loop
      vertex -1.55934 7.33611 -7.5
      vertex -1.55934 7.33611 7.5
      vertex -0.783963 7.45891 -7.5
    endloop
  endfacet
  facet normal -0.156434 0.987688 0
    outer loop
      vertex -0.783963 7.45891 -7.5
      vertex -1.55934 7.33611 7.5
      vertex -0.783963 7.45891 7.5
    endloop
  endfacet
  facet normal -0.258819 0.965926 0
    outer loop
      vertex -2.31763 7.13292 -7.5
      vertex -2.31763 7.13292 7.5
      vertex -1.55934 7.33611 -7.5
    endloop
  endfacet
  facet normal -0.258819 0.965926 0
    outer loop
      vertex -1.55934 7.33611 -7.5
      vertex -2.31763 7.13292 7.5
      vertex -1.55934 7.33611 7.5
    endloop
  endfacet
  facet normal -0.358368 0.933581 0
    outer loop
      vertex -3.05052 6.85159 -7.5
      vertex -3.05052 6.85159 7.5
      vertex -2.31763 7.13292 -7.5
    endloop
  endfacet
  facet normal -0.358368 0.933581 0
    outer loop
      vertex -2.31763 7.13292 -7.5
      vertex -3.05052 6.85159 7.5
      vertex -2.31763 7.13292 7.5
    endloop
  endfacet
  facet normal -0.45399 0.891007 0
    outer loop
      vertex -3.75 6.49519 -7.5
      vertex -3.75 6.49519 7.5
      vertex -3.05052 6.85159 -7.5
    endloop
  endfacet
  facet normal -0.45399 0.891007 0
    outer loop
      vertex -3.05052 6.85159 -7.5
      vertex -3.75 6.49519 7.5
      vertex -3.05052 6.85159 7.5
    endloop
  endfacet
  facet normal -0.54464 0.83867 0
    outer loop
      vertex -4.40839 6.06763 -7.5
      vertex -4.40839 6.06763 7.5
      vertex -3.75 6.49519 -7.5
    endloop
  endfacet
  facet normal -0.54464 0.83867 0
    outer loop
      vertex -3.75 6.49519 -7.5
      vertex -4.40839 6.06763 7.5
      vertex -3.75 6.49519 7.5
    endloop
  endfacet
  facet normal -0.62932 0.777147 0
    outer loop
      vertex -5.01848 5.57359 -7.5
      vertex -5.01848 5.57359 7.5
      vertex -4.40839 6.06763 -7.5
    endloop
  endfacet
  facet normal -0.62932 0.777147 0
    outer loop
      vertex -4.40839 6.06763 -7.5
      vertex -5.01848 5.57359 7.5
      vertex -4.40839 6.06763 7.5
    endloop
  endfacet
  facet normal -0.707107 0.707107 0
    outer loop
      vertex -5.57359 5.01848 -7.5
      vertex -5.57359 5.01848 7.5
      vertex -5.01848 5.57359 -7.5
    endloop
  endfacet
  facet normal -0.707107 0.707107 0
    outer loop
      vertex -5.01848 5.57359 -7.5
      vertex -5.57359 5.01848 7.5
      vertex -5.01848 5.57359 7.5
    endloop
  endfacet
  facet normal -0.777147 0.62932 0
    outer loop
      vertex -6.06763 4.40839 -7.5
      vertex -6.06763 4.40839 7.5
      vertex -5.57359 5.01848 -7.5
    endloop
  endfacet
  facet normal -0.777147 0.62932 0
    outer loop
      vertex -5.57359 5.01848 -7.5
      vertex -6.06763 4.40839 7.5
      vertex -5.57359 5.01848 7.5
    endloop
  endfacet
  facet normal -0.83867 0.54464 0
    outer loop
      vertex -6.49519 3.75 -7.5
      vertex -6.49519 3.75 7.5
      vertex -6.06763 4.40839 -7.5
    endloop
  endfacet
  facet normal -0.83867 0.54464 0
    outer loop
      vertex -6.06763 4.40839 -7.5
      vertex -6.49519 3.75 7.5
      vertex -6.06763 4.40839 7.5
    endloop
  endfacet
  facet normal -0.891007 0.45399 0
    outer loop
      vertex -6.85159 3.05052 -7.5
      vertex -6.85159 3.05052 7.5
      vertex -6.49519 3.75 -7.5
    endloop
  endfacet
  facet normal -0.891007 0.45399 0
    outer loop
      vertex -6.49519 3.75 -7.5
      vertex -6.85159 3.05052 7.5
      vertex -6.49519 3.75 7.5
    endloop
  endfacet
  facet normal -0.933581 0.358368 0
    outer loop
      vertex -7.13292 2.31763 -7.5
      vertex -7.13292 2.31763 7.5
      vertex -6.85159 3.05052 -7.5
    endloop
  endfacet
  facet normal -0.933581 0.358368 0
    outer loop
      vertex -6.85159 3.05052 -7.5
      vertex -7.13292 2.31763 7.5
      vertex -6.85159 3.05052 7.5
    endloop
  endfacet
  facet normal -0.965926 0.258819 0
    outer loop
      vertex -7.33611 1.55934 -7.5
      vertex -7.33611 1.55934 7.5
      vertex -7.13292 2.31763 -7.5
    endloop
  endfacet
  facet normal -0.965926 0.258819 0
    outer loop
      vertex -7.13292 2.31763 -7.5
      vertex -7.33611 1.55934 7.5
      vertex -7.13292 2.31763 7.5
    endloop
  endfacet
  facet normal -0.987688 0.156434 0
    outer loop
      vertex -7.45891 0.783963 -7.5
      vertex -7.45891 0.783963 7.5
      vertex -7.33611 1.55934 -7.5
    endloop
  endfacet
  facet normal -0.987688 0.156434 0
    outer loop
      vertex -7.33611 1.55934 -7.5
      vertex -7.45891 0.783963 7.5
      vertex -7.33611 1.55934 7.5
    endloop
  endfacet
  facet normal 0.996917 0.0784589 0
    outer loop
      vertex -4.3 0 7.5
      vertex -4.24706 -0.672668 7.5
      vertex -4.24706 -0.672668 -7.5
    endloop
  endfacet
  facet normal 0.996917 0.0784589 0
    outer loop
      vertex -4.3 0 -7.5
      vertex -4.3 0 7.5
      vertex -4.24706 -0.672668 -7.5
    endloop
  endfacet
  facet normal 0.996917 -0.0784589 0
    outer loop
      vertex -4.24706 0.672668 -7.5
      vertex -4.24706 0.672668 7.5
      vertex -4.3 0 7.5
    endloop
  endfacet
  facet normal 0.996917 -0.0784589 0
    outer loop
      vertex -4.3 0 -7.5
      vertex -4.24706 0.672668 -7.5
      vertex -4.3 0 7.5
    endloop
  endfacet
  facet normal 0.97237 -0.233446 0
    outer loop
      vertex -4.08954 1.32877 -7.5
      vertex -4.08954 1.32877 7.5
      vertex -4.24706 0.672668 7.5
    endloop
  endfacet
  facet normal 0.97237 -0.233446 0
    outer loop
      vertex -4.24706 0.672668 -7.5
      vertex -4.08954 1.32877 -7.5
      vertex -4.24706 0.672668 7.5
    endloop
  endfacet
  facet normal 0.923879 -0.382684 0
    outer loop
      vertex -3.83133 1.95216 -7.5
      vertex -3.83133 1.95216 7.5
      vertex -4.08954 1.32877 7.5
    endloop
  endfacet
  facet normal 0.923879 -0.382684 0
    outer loop
      vertex -4.08954 1.32877 -7.5
      vertex -3.83133 1.95216 -7.5
      vertex -4.08954 1.32877 7.5
    endloop
  endfacet
  facet normal 0.85264 -0.522498 0
    outer loop
      vertex -3.47877 2.52748 -7.5
      vertex -3.47877 2.52748 7.5
      vertex -3.83133 1.95216 7.5
    endloop
  endfacet
  facet normal 0.85264 -0.522498 0
    outer loop
      vertex -3.83133 1.95216 -7.5
      vertex -3.47877 2.52748 -7.5
      vertex -3.83133 1.95216 7.5
    endloop
  endfacet
  facet normal 0.760406 -0.649449 0
    outer loop
      vertex -3.04056 3.04056 -7.5
      vertex -3.04056 3.04056 7.5
      vertex -3.47877 2.52748 7.5
    endloop
  endfacet
  facet normal 0.760406 -0.649449 0
    outer loop
      vertex -3.47877 2.52748 -7.5
      vertex -3.04056 3.04056 -7.5
      vertex -3.47877 2.52748 7.5
    endloop
  endfacet
  facet normal 0.649449 -0.760406 0
    outer loop
      vertex -2.52748 3.47877 -7.5
      vertex -2.52748 3.47877 7.5
      vertex -3.04056 3.04056 7.5
    endloop
  endfacet
  facet normal 0.649449 -0.760406 0
    outer loop
      vertex -3.04056 3.04056 -7.5
      vertex -2.52748 3.47877 -7.5
      vertex -3.04056 3.04056 7.5
    endloop
  endfacet
  facet normal 0.522498 -0.85264 0
    outer loop
      vertex -1.95216 3.83133 -7.5
      vertex -1.95216 3.83133 7.5
      vertex -2.52748 3.47877 7.5
    endloop
  endfacet
  facet normal 0.522498 -0.85264 0
    outer loop
      vertex -2.52748 3.47877 -7.5
      vertex -1.95216 3.83133 -7.5
      vertex -2.52748 3.47877 7.5
    endloop
  endfacet
  facet normal 0.382684 -0.923879 0
    outer loop
      vertex -1.32877 4.08954 -7.5
      vertex -1.32877 4.08954 7.5
      vertex -1.95216 3.83133 7.5
    endloop
  endfacet
  facet normal 0.382684 -0.923879 0
    outer loop
      vertex -1.95216 3.83133 -7.5
      vertex -1.32877 4.08954 -7.5
      vertex -1.95216 3.83133 7.5
    endloop
  endfacet
  facet normal 0.233446 -0.97237 0
    outer loop
      vertex -0.672668 4.24706 -7.5
      vertex -0.672668 4.24706 7.5
      vertex -1.32877 4.08954 7.5
    endloop
  endfacet
  facet normal 0.233446 -0.97237 0
    outer loop
      vertex -1.32877 4.08954 -7.5
      vertex -0.672668 4.24706 -7.5
      vertex -1.32877 4.08954 7.5
    endloop
  endfacet
  facet normal 0.0784589 -0.996917 0
    outer loop
      vertex 0 4.3 -7.5
      vertex 0 4.3 7.5
      vertex -0.672668 4.24706 7.5
    endloop
  endfacet
  facet normal 0.0784589 -0.996917 0
    outer loop
      vertex -0.672668 4.24706 -7.5
      vertex 0 4.3 -7.5
      vertex -0.672668 4.24706 7.5
    endloop
  endfacet
  facet normal -0.0784589 -0.996917 0
    outer loop
      vertex 0.672668 4.24706 -7.5
      vertex 0.672668 4.24706 7.5
      vertex 0 4.3 7.5
    endloop
  endfacet
  facet normal -0.0784589 -0.996917 0
    outer loop
      vertex 0 4.3 -7.5
      vertex 0.672668 4.24706 -7.5
      vertex 0 4.3 7.5
    endloop
  endfacet
  facet normal -0.233446 -0.97237 0
    outer loop
      vertex 1.32877 4.08954 -7.5
      vertex 1.32877 4.08954 7.5
      vertex 0.672668 4.24706 7.5
    endloop
  endfacet
  facet normal -0.233446 -0.97237 0
    outer loop
      vertex 0.672668 4.24706 -7.5
      vertex 1.32877 4.08954 -7.5
      vertex 0.672668 4.24706 7.5
    endloop
  endfacet
  facet normal -0.382684 -0.923879 0
    outer loop
      vertex 1.95216 3.83133 -7.5
      vertex 1.95216 3.83133 7.5
      vertex 1.32877 4.08954 7.5
    endloop
  endfacet
  facet normal -0.382684 -0.923879 0
    outer loop
      vertex 1.32877 4.08954 -7.5
      vertex 1.95216 3.83133 -7.5
      vertex 1.32877 4.08954 7.5
    endloop
  endfacet
  facet normal -0.522498 -0.85264 0
    outer loop
      vertex 2.52748 3.47877 -7.5
      vertex 2.52748 3.47877 7.5
      vertex 1.95216 3.83133 7.5
    endloop
  endfacet
  facet normal -0.522498 -0.85264 0
    outer loop
      vertex 1.95216 3.83133 -7.5
      vertex 2.52748 3.47877 -7.5
      vertex 1.95216 3.83133 7.5
    endloop
  endfacet
  facet normal -0.649449 -0.760406 0
    outer loop
      vertex 3.04056 3.04056 -7.5
      vertex 3.04056 3.04056 7.5
      vertex 2.52748 3.47877 7.5
    endloop
  endfacet
  facet normal -0.649449 -0.760406 0
    outer loop
      vertex 2.52748 3.47877 -7.5
      vertex 3.04056 3.04056 -7.5
      vertex 2.52748 3.47877 7.5
    endloop
  endfacet
  facet normal -0.760406 -0.649449 0
    outer loop
      vertex 3.47877 2.52748 7.5
      vertex 3.04056 3.04056 7.5
      vertex 3.47877 2.52748 -7.5
    endloop
  endfacet
  facet normal -0.760406 -0.649449 0
    outer loop
      vertex 3.47877 2.52748 -7.5
      vertex 3.04056 3.04056 7.5
      vertex 3.04056 3.04056 -7.5
    endloop
  endfacet
  facet normal -0.85264 -0.522498 0
    outer loop
      vertex 3.83133 1.95216 7.5
      vertex 3.47877 2.52748 7.5
      vertex 3.83133 1.95216 -7.5
    endloop
  endfacet
  facet normal -0.85264 -0.522498 0
    outer loop
      vertex 3.83133 1.95216 -7.5
      vertex 3.47877 2.52748 7.5
      vertex 3.47877 2.52748 -7.5
    endloop
  endfacet
  facet normal -0.923879 -0.382684 0
    outer loop
      vertex 4.08954 1.32877 7.5
      vertex 3.83133 1.95216 7.5
      vertex 4.08954 1.32877 -7.5
    endloop
  endfacet
  facet normal -0.923879 -0.382684 0
    outer loop
      vertex 4.08954 1.32877 -7.5
      vertex 3.83133 1.95216 7.5
      vertex 3.83133 1.95216 -7.5
    endloop
  endfacet
  facet normal -0.97237 -0.233446 0
    outer loop
      vertex 4.24706 0.672668 7.5
      vertex 4.08954 1.32877 7.5
      vertex 4.24706 0.672668 -7.5
    endloop
  endfacet
  facet normal -0.97237 -0.233446 0
    outer loop
      vertex 4.24706 0.672668 -7.5
      vertex 4.08954 1.32877 7.5
      vertex 4.08954 1.32877 -7.5
    endloop
  endfacet
  facet normal -0.996917 -0.0784589 0
    outer loop
      vertex 4.3 0 7.5
      vertex 4.24706 0.672668 7.5
      vertex 4.3 0 -7.5
    endloop
  endfacet
  facet normal -0.996917 -0.0784589 0
    outer loop
      vertex 4.3 0 -7.5
      vertex 4.24706 0.672668 7.5
      vertex 4.24706 0.672668 -7.5
    endloop
  endfacet
  facet normal -0.996917 0.0784589 0
    outer loop
      vertex 4.3 0 7.5
      vertex 4.3 0 -7.5
      vertex 4.24706 -0.672668 7.5
    endloop
  endfacet
  facet normal -0.996917 0.0784589 0
    outer loop
      vertex 4.24706 -0.672668 7.5
      vertex 4.3 0 -7.5
      vertex 4.24706 -0.672668 -7.5
    endloop
  endfacet
  facet normal -0.97237 0.233446 0
    outer loop
      vertex 4.24706 -0.672668 7.5
      vertex 4.24706 -0.672668 -7.5
      vertex 4.08954 -1.32877 7.5
    endloop
  endfacet
  facet normal -0.97237 0.233446 0
    outer loop
      vertex 4.08954 -1.32877 7.5
      vertex 4.24706 -0.672668 -7.5
      vertex 4.08954 -1.32877 -7.5
    endloop
  endfacet
  facet normal -0.923879 0.382684 0
    outer loop
      vertex 4.08954 -1.32877 7.5
      vertex 4.08954 -1.32877 -7.5
      vertex 3.83133 -1.95216 7.5
    endloop
  endfacet
  facet normal -0.923879 0.382684 0
    outer loop
      vertex 3.83133 -1.95216 7.5
      vertex 4.08954 -1.32877 -7.5
      vertex 3.83133 -1.95216 -7.5
    endloop
  endfacet
  facet normal -0.85264 0.522498 0
    outer loop
      vertex 3.83133 -1.95216 7.5
      vertex 3.83133 -1.95216 -7.5
      vertex 3.47877 -2.52748 7.5
    endloop
  endfacet
  facet normal -0.85264 0.522498 0
    outer loop
      vertex 3.47877 -2.52748 7.5
      vertex 3.83133 -1.95216 -7.5
      vertex 3.47877 -2.52748 -7.5
    endloop
  endfacet
  facet normal -0.760406 0.649449 0
    outer loop
      vertex 3.47877 -2.52748 7.5
      vertex 3.47877 -2.52748 -7.5
      vertex 3.04056 -3.04056 7.5
    endloop
  endfacet
  facet normal -0.760406 0.649449 0
    outer loop
      vertex 3.04056 -3.04056 7.5
      vertex 3.47877 -2.52748 -7.5
      vertex 3.04056 -3.04056 -7.5
    endloop
  endfacet
  facet normal -0.649449 0.760406 0
    outer loop
      vertex 3.04056 -3.04056 7.5
      vertex 3.04056 -3.04056 -7.5
      vertex 2.52748 -3.47877 7.5
    endloop
  endfacet
  facet normal -0.649449 0.760406 0
    outer loop
      vertex 2.52748 -3.47877 7.5
      vertex 3.04056 -3.04056 -7.5
      vertex 2.52748 -3.47877 -7.5
    endloop
  endfacet
  facet normal -0.522498 0.85264 0
    outer loop
      vertex 2.52748 -3.47877 7.5
      vertex 2.52748 -3.47877 -7.5
      vertex 1.95216 -3.83133 7.5
    endloop
  endfacet
  facet normal -0.522498 0.85264 0
    outer loop
      vertex 1.95216 -3.83133 7.5
      vertex 2.52748 -3.47877 -7.5
      vertex 1.95216 -3.83133 -7.5
    endloop
  endfacet
  facet normal -0.382684 0.923879 0
    outer loop
      vertex 1.95216 -3.83133 7.5
      vertex 1.95216 -3.83133 -7.5
      vertex 1.32877 -4.08954 7.5
    endloop
  endfacet
  facet normal -0.382684 0.923879 0
    outer loop
      vertex 1.32877 -4.08954 7.5
      vertex 1.95216 -3.83133 -7.5
      vertex 1.32877 -4.08954 -7.5
    endloop
  endfacet
  facet normal -0.233446 0.97237 0
    outer loop
      vertex 1.32877 -4.08954 7.5
      vertex 1.32877 -4.08954 -7.5
      vertex 0.672668 -4.24706 7.5
    endloop
  endfacet
  facet normal -0.233446 0.97237 0
    outer loop
      vertex 0.672668 -4.24706 7.5
      vertex 1.32877 -4.08954 -7.5
      vertex 0.672668 -4.24706 -7.5
    endloop
  endfacet
  facet normal -0.0784589 0.996917 0
    outer loop
      vertex 0.672668 -4.24706 7.5
      vertex 0.672668 -4.24706 -7.5
      vertex 0 -4.3 7.5
    endloop
  endfacet
  facet normal -0.0784589 0.996917 0
    outer loop
      vertex 0 -4.3 7.5
      vertex 0.672668 -4.24706 -7.5
      vertex 0 -4.3 -7.5
    endloop
  endfacet
  facet normal 0.0784589 0.996917 0
    outer loop
      vertex 0 -4.3 7.5
      vertex 0 -4.3 -7.5
      vertex -0.672668 -4.24706 7.5
    endloop
  endfacet
  facet normal 0.0784589 0.996917 0
    outer loop
      vertex -0.672668 -4.24706 7.5
      vertex 0 -4.3 -7.5
      vertex -0.672668 -4.24706 -7.5
    endloop
  endfacet
  facet normal 0.233446 0.97237 0
    outer loop
      vertex -0.672668 -4.24706 7.5
      vertex -0.672668 -4.24706 -7.5
      vertex -1.32877 -4.08954 7.5
    endloop
  endfacet
  facet normal 0.233446 0.97237 0
    outer loop
      vertex -1.32877 -4.08954 7.5
      vertex -0.672668 -4.24706 -7.5
      vertex -1.32877 -4.08954 -7.5
    endloop
  endfacet
  facet normal 0.382684 0.923879 0
    outer loop
      vertex -1.32877 -4.08954 7.5
      vertex -1.32877 -4.08954 -7.5
      vertex -1.95216 -3.83133 7.5
    endloop
  endfacet
  facet normal 0.382684 0.923879 0
    outer loop
      vertex -1.95216 -3.83133 7.5
      vertex -1.32877 -4.08954 -7.5
      vertex -1.95216 -3.83133 -7.5
    endloop
  endfacet
  facet normal 0.522498 0.85264 0
    outer loop
      vertex -1.95216 -3.83133 7.5
      vertex -1.95216 -3.83133 -7.5
      vertex -2.52748 -3.47877 7.5
    endloop
  endfacet
  facet normal 0.522498 0.85264 0
    outer loop
      vertex -2.52748 -3.47877 7.5
      vertex -1.95216 -3.83133 -7.5
      vertex -2.52748 -3.47877 -7.5
    endloop
  endfacet
  facet normal 0.649449 0.760406 0
    outer loop
      vertex -2.52748 -3.47877 7.5
      vertex -2.52748 -3.47877 -7.5
      vertex -3.04056 -3.04056 7.5
    endloop
  endfacet
  facet normal 0.649449 0.760406 0
    outer loop
      vertex -3.04056 -3.04056 7.5
      vertex -2.52748 -3.47877 -7.5
      vertex -3.04056 -3.04056 -7.5
    endloop
  endfacet
  facet normal 0.760406 0.649449 0
    outer loop
      vertex -3.47877 -2.52748 7.5
      vertex -3.04056 -3.04056 7.5
      vertex -3.04056 -3.04056 -7.5
    endloop
  endfacet
  facet normal 0.760406 0.649449 0
    outer loop
      vertex -3.47877 -2.52748 -7.5
      vertex -3.47877 -2.52748 7.5
      vertex -3.04056 -3.04056 -7.5
    endloop
  endfacet
  facet normal 0.85264 0.522498 0
    outer loop
      vertex -3.83133 -1.95216 7.5
      vertex -3.47877 -2.52748 7.5
      vertex -3.47877 -2.52748 -7.5
    endloop
  endfacet
  facet normal 0.85264 0.522498 0
    outer loop
      vertex -3.83133 -1.95216 -7.5
      vertex -3.83133 -1.95216 7.5
      vertex -3.47877 -2.52748 -7.5
    endloop
  endfacet
  facet normal 0.923879 0.382684 0
    outer loop
      vertex -4.08954 -1.32877 7.5
      vertex -3.83133 -1.95216 7.5
      vertex -3.83133 -1.95216 -7.5
    endloop
  endfacet
  facet normal 0.923879 0.382684 0
    outer loop
      vertex -4.08954 -1.32877 -7.5
      vertex -4.08954 -1.32877 7.5
      vertex -3.83133 -1.95216 -7.5
    endloop
  endfacet
  facet normal 0.97237 0.233446 0
    outer loop
      vertex -4.24706 -0.672668 7.5
      vertex -4.08954 -1.32877 7.5
      vertex -4.08954 -1.32877 -7.5
    endloop
  endfacet
  facet normal 0.97237 0.233446 0
    outer loop
      vertex -4.24706 -0.672668 -7.5
      vertex -4.24706 -0.672668 7.5
      vertex -4.08954 -1.32877 -7.5
    endloop
  endfacet
  facet normal 0 0 1
    outer loop
      vertex -7.45891 0.783963 7.5
      vertex -7.5 0 7.5
      vertex -7.45891 -0.783963 7.5
    endloop
  endfacet
  facet normal 0 0 1
    outer loop
      vertex -7.13292 -2.31763 7.5
      vertex -7.45891 0.783963 7.5
      vertex -7.33611 -1.55934 7.5
    endloop
  endfacet
  facet normal 0 0 1
    outer loop
      vertex -7.33611 -1.55934 7.5
      vertex -7.45891 0.783963 7.5
      vertex -7.45891 -0.783963 7.5
    endloop
  endfacet
  facet normal 0 0 1
    outer loop
      vertex -6.85159 -3.05052 7.5
      vertex -7.45891 0.783963 7.5
      vertex -7.13292 -2.31763 7.5
    endloop
  endfacet
  facet normal 0 0 1
    outer loop
      vertex -6.49519 -3.75 7.5
      vertex -7.45891 0.783963 7.5
      vertex -6.85159 -3.05052 7.5
    endloop
  endfacet
  facet normal 0 0 1
    outer loop
      vertex -6.06763 -4.40839 7.5
      vertex -7.45891 0.783963 7.5
      vertex -6.49519 -3.75 7.5
    endloop
  endfacet
  facet normal 0 0 1
    outer loop
      vertex -5.57359 -5.01848 7.5
      vertex -7.45891 0.783963 7.5
      vertex -6.06763 -4.40839 7.5
    endloop
  endfacet
  facet normal 0 0 1
    outer loop
      vertex -5.01848 -5.57359 7.5
      vertex -7.45891 0.783963 7.5
      vertex -5.57359 -5.01848 7.5
    endloop
  endfacet
  facet normal 0 0 1
    outer loop
      vertex -4.40839 -6.06763 7.5
      vertex -7.45891 0.783963 7.5
      vertex -5.01848 -5.57359 7.5
    endloop
  endfacet
  facet normal 0 0 1
    outer loop
      vertex -3.75 -6.49519 7.5
      vertex -7.45891 0.783963 7.5
      vertex -4.40839 -6.06763 7.5
    endloop
  endfacet
  facet normal 0 0 1
    outer loop
      vertex -3.05052 -6.85159 7.5
      vertex -7.45891 0.783963 7.5
      vertex -3.75 -6.49519 7.5
    endloop
  endfacet
  facet normal 0 0 1
    outer loop
      vertex -2.31763 -7.13292 7.5
      vertex -7.45891 0.783963 7.5
      vertex -3.05052 -6.85159 7.5
    endloop
  endfacet
  facet normal 0 0 1
    outer loop
      vertex -1.55934 -7.33611 7.5
      vertex -7.45891 0.783963 7.5
      vertex -2.31763 -7.13292 7.5
    endloop
  endfacet
  facet normal 0 0 1
    outer loop
      vertex -0.783963 -7.45891 7.5
      vertex -7.45891 0.783963 7.5
      vertex -1.55934 -7.33611 7.5
    endloop
  endfacet
  facet normal 0 0 1
    outer loop
      vertex 0 -7.5 7.5
      vertex -7.45891 0.783963 7.5
      vertex -0.783963 -7.45891 7.5
    endloop
  endfacet
  facet normal 0 0 1
    outer loop
      vertex 0.783963 -7.45891 7.5
      vertex -7.45891 0.783963 7.5
      vertex 0 -7.5 7.5
    endloop
  endfacet
  facet normal 0 0 1
    outer loop
      vertex 1.55934 -7.33611 7.5
      vertex -7.45891 0.783963 7.5
      vertex 0.783963 -7.45891 7.5
    endloop
  endfacet
  facet normal 0 0 1
    outer loop
      vertex -3.04056 -3.04056 7.5
      vertex -7.45891 0.783963 7.5
      vertex 1.55934 -7.33611 7.5
    endloop
  endfacet
  facet normal 0 0 1
    outer loop
      vertex -3.04056 -3.04056 7.5
      vertex -3.47877 -2.52748 7.5
      vertex -7.45891 0.783963 7.5
    endloop
  endfacet
  facet normal 0 0 1
    outer loop
      vertex 0 -4.3 7.5
      vertex -0.672668 -4.24706 7.5
      vertex 3.05052 -6.85159 7.5
    endloop
  endfacet
  facet normal 0 0 1
    outer loop
      vertex 3.83133 -1.95216 7.5
      vertex 3.47877 -2.52748 7.5
      vertex 6.85159 -3.05052 7.5
    endloop
  endfacet
  facet normal 0 0 1
    outer loop
      vertex -4.24706 0.672668 7.5
      vertex -4.08954 1.32877 7.5
      vertex -7.45891 0.783963 7.5
    endloop
  endfacet
  facet normal 0 0 1
    outer loop
      vertex 4.08954 -1.32877 7.5
      vertex 3.83133 -1.95216 7.5
      vertex 7.13292 -2.31763 7.5
    endloop
  endfacet
  facet normal 0 0 1
    outer loop
      vertex 3.83133 1.95216 7.5
      vertex 4.08954 1.32877 7.5
      vertex 7.33611 1.55934 7.5
    endloop
  endfacet
  facet normal 0 0 1
    outer loop
      vertex 2.52748 3.47877 7.5
      vertex 3.04056 3.04056 7.5
      vertex 6.06763 4.40839 7.5
    endloop
  endfacet
  facet normal 0 0 1
    outer loop
      vertex -3.83133 1.95216 7.5
      vertex -3.47877 2.52748 7.5
      vertex -7.45891 0.783963 7.5
    endloop
  endfacet
  facet normal 0 0 1
    outer loop
      vertex 3.47877 2.52748 7.5
      vertex 3.83133 1.95216 7.5
      vertex 7.13292 2.31763 7.5
    endloop
  endfacet
  facet normal 0 0 1
    outer loop
      vertex 0.672668 4.24706 7.5
      vertex 1.32877 4.08954 7.5
      vertex 5.01848 5.57359 7.5
    endloop
  endfacet
  facet normal 0 0 1
    outer loop
      vertex -1.95216 3.83133 7.5
      vertex -1.32877 4.08954 7.5
      vertex 3.05052 6.85159 7.5
    endloop
  endfacet
  facet normal 0 0 1
    outer loop
      vertex 2.31763 7.13292 7.5
      vertex -7.45891 0.783963 7.5
      vertex 3.05052 6.85159 7.5
    endloop
  endfacet
  facet normal 0 0 1
    outer loop
      vertex 1.55934 7.33611 7.5
      vertex -7.45891 0.783963 7.5
      vertex 2.31763 7.13292 7.5
    endloop
  endfacet
  facet normal 0 0 1
    outer loop
      vertex 0.783963 7.45891 7.5
      vertex -7.45891 0.783963 7.5
      vertex 1.55934 7.33611 7.5
    endloop
  endfacet
  facet normal 0 0 1
    outer loop
      vertex 0 7.5 7.5
      vertex -7.45891 0.783963 7.5
      vertex 0.783963 7.45891 7.5
    endloop
  endfacet
  facet normal 0 0 1
    outer loop
      vertex -0.783963 7.45891 7.5
      vertex -7.45891 0.783963 7.5
      vertex 0 7.5 7.5
    endloop
  endfacet
  facet normal 0 0 1
    outer loop
      vertex -1.55934 7.33611 7.5
      vertex -7.45891 0.783963 7.5
      vertex -0.783963 7.45891 7.5
    endloop
  endfacet
  facet normal 0 0 1
    outer loop
      vertex -2.31763 7.13292 7.5
      vertex -7.45891 0.783963 7.5
      vertex -1.55934 7.33611 7.5
    endloop
  endfacet
  facet normal 0 0 1
    outer loop
      vertex -3.05052 6.85159 7.5
      vertex -7.45891 0.783963 7.5
      vertex -2.31763 7.13292 7.5
    endloop
  endfacet
  facet normal 0 0 1
    outer loop
      vertex -3.75 6.49519 7.5
      vertex -7.45891 0.783963 7.5
      vertex -3.05052 6.85159 7.5
    endloop
  endfacet
  facet normal 0 0 1
    outer loop
      vertex -4.40839 6.06763 7.5
      vertex -7.45891 0.783963 7.5
      vertex -3.75 6.49519 7.5
    endloop
  endfacet
  facet normal 0 0 1
    outer loop
      vertex -5.01848 5.57359 7.5
      vertex -7.45891 0.783963 7.5
      vertex -4.40839 6.06763 7.5
    endloop
  endfacet
  facet normal 0 0 1
    outer loop
      vertex -5.57359 5.01848 7.5
      vertex -7.45891 0.783963 7.5
      vertex -5.01848 5.57359 7.5
    endloop
  endfacet
  facet normal 0 0 1
    outer loop
      vertex -6.06763 4.40839 7.5
      vertex -7.45891 0.783963 7.5
      vertex -5.57359 5.01848 7.5
    endloop
  endfacet
  facet normal 0 0 1
    outer loop
      vertex -6.49519 3.75 7.5
      vertex -7.45891 0.783963 7.5
      vertex -6.06763 4.40839 7.5
    endloop
  endfacet
  facet normal 0 0 1
    outer loop
      vertex -6.85159 3.05052 7.5
      vertex -7.45891 0.783963 7.5
      vertex -6.49519 3.75 7.5
    endloop
  endfacet
  facet normal 0 0 1
    outer loop
      vertex -7.13292 2.31763 7.5
      vertex -7.45891 0.783963 7.5
      vertex -6.85159 3.05052 7.5
    endloop
  endfacet
  facet normal 0 0 1
    outer loop
      vertex -7.33611 1.55934 7.5
      vertex -7.45891 0.783963 7.5
      vertex -7.13292 2.31763 7.5
    endloop
  endfacet
  facet normal 0 0 1
    outer loop
      vertex 1.32877 -4.08954 7.5
      vertex 0.672668 -4.24706 7.5
      vertex 4.40839 -6.06763 7.5
    endloop
  endfacet
  facet normal 0 0 1
    outer loop
      vertex -4.3 0 7.5
      vertex -4.24706 0.672668 7.5
      vertex -7.45891 0.783963 7.5
    endloop
  endfacet
  facet normal 0 0 1
    outer loop
      vertex 3.47877 -2.52748 7.5
      vertex 3.04056 -3.04056 7.5
      vertex 6.49519 -3.75 7.5
    endloop
  endfacet
  facet normal 0 0 1
    outer loop
      vertex 4.3 0 7.5
      vertex 4.24706 -0.672668 7.5
      vertex 7.45891 -0.783963 7.5
    endloop
  endfacet
  facet normal 0 0 1
    outer loop
      vertex 4.08954 1.32877 7.5
      vertex 4.24706 0.672668 7.5
      vertex 7.45891 0.783963 7.5
    endloop
  endfacet
  facet normal 0 0 1
    outer loop
      vertex 3.04056 3.04056 7.5
      vertex 3.47877 2.52748 7.5
      vertex 6.49519 3.75 7.5
    endloop
  endfacet
  facet normal 0 0 1
    outer loop
      vertex -3.47877 2.52748 7.5
      vertex -3.04056 3.04056 7.5
      vertex -7.45891 0.783963 7.5
    endloop
  endfacet
  facet normal 0 0 1
    outer loop
      vertex -2.52748 3.47877 7.5
      vertex -7.45891 0.783963 7.5
      vertex -3.04056 3.04056 7.5
    endloop
  endfacet
  facet normal 0 0 1
    outer loop
      vertex -0.672668 4.24706 7.5
      vertex 0 4.3 7.5
      vertex 3.75 6.49519 7.5
    endloop
  endfacet
  facet normal 0 0 1
    outer loop
      vertex -1.95216 3.83133 7.5
      vertex -7.45891 0.783963 7.5
      vertex -2.52748 3.47877 7.5
    endloop
  endfacet
  facet normal 0 0 1
    outer loop
      vertex 0 4.3 7.5
      vertex 0.672668 4.24706 7.5
      vertex 4.40839 6.06763 7.5
    endloop
  endfacet
  facet normal 0 0 1
    outer loop
      vertex 3.05052 6.85159 7.5
      vertex -7.45891 0.783963 7.5
      vertex -1.95216 3.83133 7.5
    endloop
  endfacet
  facet normal 0 0 1
    outer loop
      vertex 3.05052 6.85159 7.5
      vertex -1.32877 4.08954 7.5
      vertex 3.75 6.49519 7.5
    endloop
  endfacet
  facet normal 0 0 1
    outer loop
      vertex -1.32877 4.08954 7.5
      vertex -0.672668 4.24706 7.5
      vertex 3.75 6.49519 7.5
    endloop
  endfacet
  facet normal 0 0 1
    outer loop
      vertex 3.75 6.49519 7.5
      vertex 0 4.3 7.5
      vertex 4.40839 6.06763 7.5
    endloop
  endfacet
  facet normal 0 0 1
    outer loop
      vertex 4.40839 6.06763 7.5
      vertex 0.672668 4.24706 7.5
      vertex 5.01848 5.57359 7.5
    endloop
  endfacet
  facet normal 0 0 1
    outer loop
      vertex 5.01848 5.57359 7.5
      vertex 1.32877 4.08954 7.5
      vertex 5.57359 5.01848 7.5
    endloop
  endfacet
  facet normal 0 0 1
    outer loop
      vertex 1.32877 4.08954 7.5
      vertex 1.95216 3.83133 7.5
      vertex 5.57359 5.01848 7.5
    endloop
  endfacet
  facet normal 0 0 1
    outer loop
      vertex 5.57359 5.01848 7.5
      vertex 1.95216 3.83133 7.5
      vertex 6.06763 4.40839 7.5
    endloop
  endfacet
  facet normal 0 0 1
    outer loop
      vertex 6.06763 4.40839 7.5
      vertex 3.04056 3.04056 7.5
      vertex 6.49519 3.75 7.5
    endloop
  endfacet
  facet normal 0 0 1
    outer loop
      vertex 1.95216 3.83133 7.5
      vertex 2.52748 3.47877 7.5
      vertex 6.06763 4.40839 7.5
    endloop
  endfacet
  facet normal 0 0 1
    outer loop
      vertex 6.49519 3.75 7.5
      vertex 3.47877 2.52748 7.5
      vertex 6.85159 3.05052 7.5
    endloop
  endfacet
  facet normal 0 0 1
    outer loop
      vertex 7.13292 2.31763 7.5
      vertex 3.83133 1.95216 7.5
      vertex 7.33611 1.55934 7.5
    endloop
  endfacet
  facet normal 0 0 1
    outer loop
      vertex 3.47877 2.52748 7.5
      vertex 7.13292 2.31763 7.5
      vertex 6.85159 3.05052 7.5
    endloop
  endfacet
  facet normal 0 0 1
    outer loop
      vertex 7.33611 1.55934 7.5
      vertex 4.08954 1.32877 7.5
      vertex 7.45891 0.783963 7.5
    endloop
  endfacet
  facet normal 0 0 1
    outer loop
      vertex -4.08954 1.32877 7.5
      vertex -3.83133 1.95216 7.5
      vertex -7.45891 0.783963 7.5
    endloop
  endfacet
  facet normal 0 0 1
    outer loop
      vertex 7.45891 0.783963 7.5
      vertex 4.24706 0.672668 7.5
      vertex 7.5 0 7.5
    endloop
  endfacet
  facet normal 0 0 1
    outer loop
      vertex 7.5 0 7.5
      vertex 4.3 0 7.5
      vertex 7.45891 -0.783963 7.5
    endloop
  endfacet
  facet normal 0 0 1
    outer loop
      vertex 7.45891 -0.783963 7.5
      vertex 4.24706 -0.672668 7.5
      vertex 7.33611 -1.55934 7.5
    endloop
  endfacet
  facet normal 0 0 1
    outer loop
      vertex 7.33611 -1.55934 7.5
      vertex 4.08954 -1.32877 7.5
      vertex 7.13292 -2.31763 7.5
    endloop
  endfacet
  facet normal 0 0 1
    outer loop
      vertex 4.24706 0.672668 7.5
      vertex 4.3 0 7.5
      vertex 7.5 0 7.5
    endloop
  endfacet
  facet normal 0 0 1
    outer loop
      vertex 7.13292 -2.31763 7.5
      vertex 3.83133 -1.95216 7.5
      vertex 6.85159 -3.05052 7.5
    endloop
  endfacet
  facet normal 0 0 1
    outer loop
      vertex 6.85159 -3.05052 7.5
      vertex 3.47877 -2.52748 7.5
      vertex 6.49519 -3.75 7.5
    endloop
  endfacet
  facet normal 0 0 1
    outer loop
      vertex 4.24706 -0.672668 7.5
      vertex 4.08954 -1.32877 7.5
      vertex 7.33611 -1.55934 7.5
    endloop
  endfacet
  facet normal 0 0 1
    outer loop
      vertex 6.49519 -3.75 7.5
      vertex 3.04056 -3.04056 7.5
      vertex 6.06763 -4.40839 7.5
    endloop
  endfacet
  facet normal 0 0 1
    outer loop
      vertex 6.06763 -4.40839 7.5
      vertex 2.52748 -3.47877 7.5
      vertex 5.57359 -5.01848 7.5
    endloop
  endfacet
  facet normal 0 0 1
    outer loop
      vertex 0.672668 -4.24706 7.5
      vertex 0 -4.3 7.5
      vertex 3.75 -6.49519 7.5
    endloop
  endfacet
  facet normal 0 0 1
    outer loop
      vertex 5.57359 -5.01848 7.5
      vertex 1.95216 -3.83133 7.5
      vertex 5.01848 -5.57359 7.5
    endloop
  endfacet
  facet normal 0 0 1
    outer loop
      vertex 5.01848 -5.57359 7.5
      vertex 1.32877 -4.08954 7.5
      vertex 4.40839 -6.06763 7.5
    endloop
  endfacet
  facet normal 0 0 1
    outer loop
      vertex 3.04056 -3.04056 7.5
      vertex 2.52748 -3.47877 7.5
      vertex 6.06763 -4.40839 7.5
    endloop
  endfacet
  facet normal 0 0 1
    outer loop
      vertex 4.40839 -6.06763 7.5
      vertex 0.672668 -4.24706 7.5
      vertex 3.75 -6.49519 7.5
    endloop
  endfacet
  facet normal 0 0 1
    outer loop
      vertex 2.52748 -3.47877 7.5
      vertex 1.95216 -3.83133 7.5
      vertex 5.57359 -5.01848 7.5
    endloop
  endfacet
  facet normal 0 0 1
    outer loop
      vertex 3.75 -6.49519 7.5
      vertex 0 -4.3 7.5
      vertex 3.05052 -6.85159 7.5
    endloop
  endfacet
  facet normal 0 0 1
    outer loop
      vertex 3.05052 -6.85159 7.5
      vertex -0.672668 -4.24706 7.5
      vertex 2.31763 -7.13292 7.5
    endloop
  endfacet
  facet normal 0 0 1
    outer loop
      vertex -0.672668 -4.24706 7.5
      vertex -1.32877 -4.08954 7.5
      vertex 2.31763 -7.13292 7.5
    endloop
  endfacet
  facet normal 0 0 1
    outer loop
      vertex 2.31763 -7.13292 7.5
      vertex -1.95216 -3.83133 7.5
      vertex 1.55934 -7.33611 7.5
    endloop
  endfacet
  facet normal 0 0 1
    outer loop
      vertex -1.95216 -3.83133 7.5
      vertex -2.52748 -3.47877 7.5
      vertex 1.55934 -7.33611 7.5
    endloop
  endfacet
  facet normal 0 0 1
    outer loop
      vertex -3.47877 -2.52748 7.5
      vertex -3.83133 -1.95216 7.5
      vertex -7.45891 0.783963 7.5
    endloop
  endfacet
  facet normal 0 0 1
    outer loop
      vertex -2.52748 -3.47877 7.5
      vertex -3.04056 -3.04056 7.5
      vertex 1.55934 -7.33611 7.5
    endloop
  endfacet
  facet normal 0 0 1
    outer loop
      vertex -3.83133 -1.95216 7.5
      vertex -4.08954 -1.32877 7.5
      vertex -7.45891 0.783963 7.5
    endloop
  endfacet
  facet normal 0 0 1
    outer loop
      vertex -1.32877 -4.08954 7.5
      vertex -1.95216 -3.83133 7.5
      vertex 2.31763 -7.13292 7.5
    endloop
  endfacet
  facet normal 0 0 1
    outer loop
      vertex -4.08954 -1.32877 7.5
      vertex -4.24706 -0.672668 7.5
      vertex -7.45891 0.783963 7.5
    endloop
  endfacet
  facet normal 0 0 1
    outer loop
      vertex 1.95216 -3.83133 7.5
      vertex 1.32877 -4.08954 7.5
      vertex 5.01848 -5.57359 7.5
    endloop
  endfacet
  facet normal 0 0 1
    outer loop
      vertex -4.24706 -0.672668 7.5
      vertex -4.3 0 7.5
      vertex -7.45891 0.783963 7.5
    endloop
  endfacet
endsolid OpenSCAD_Model
