solid OpenSCAD_Model
  facet normal 0 0 -1
    outer loop
      vertex -19.0622 3.5 0
      vertex -13 7 0
      vertex -19.0622 -3.5 0
    endloop
  endfacet
  facet normal 0 0 -1
    outer loop
      vertex -12.6919 1.30815 0
      vertex -13 7 0
      vertex 7.25 7 0
    endloop
  endfacet
  facet normal 0 0 -1
    outer loop
      vertex -5.18754 1.75 0
      vertex 7.25 7 0
      vertex 10 4.25 0
    endloop
  endfacet
  facet normal 0 0 -1
    outer loop
      vertex 10 7 0
      vertex 13 7 0
      vertex 10 4.25 0
    endloop
  endfacet
  facet normal 0 0 -1
    outer loop
      vertex 10 4.25 0
      vertex 13 7 0
      vertex 19.0622 3.5 0
    endloop
  endfacet
  facet normal 0 0 -1
    outer loop
      vertex 15.3081 -1.30815 0
      vertex 19.0622 3.5 0
      vertex 19.0622 -3.5 0
    endloop
  endfacet
  facet normal 0 0 -1
    outer loop
      vertex -19.0622 -3.5 0
      vertex 19.0622 -3.5 0
      vertex 13 -7 0
    endloop
  endfacet
  facet normal 0 0 -1
    outer loop
      vertex -14 -1.85 0
      vertex -19.0622 -3.5 0
      vertex -14.708 -1.70918 0
    endloop
  endfacet
  facet normal 0 0 -1
    outer loop
      vertex -5.18754 1.75 0
      vertex 10 4.25 0
      vertex 5.18754 1.75 0
    endloop
  endfacet
  facet normal 0 0 -1
    outer loop
      vertex -19.0622 -3.5 0
      vertex -15.85 0 0
      vertex -15.7092 -0.707964 0
    endloop
  endfacet
  facet normal 0 0 -1
    outer loop
      vertex -19.0622 -3.5 0
      vertex -15.7092 -0.707964 0
      vertex -15.3081 -1.30815 0
    endloop
  endfacet
  facet normal 0 0 -1
    outer loop
      vertex -19.0622 -3.5 0
      vertex -15.3081 -1.30815 0
      vertex -14.708 -1.70918 0
    endloop
  endfacet
  facet normal 0 0 -1
    outer loop
      vertex -5.18754 -2.15 0
      vertex -13.292 -1.70918 0
      vertex -12.6919 -1.30815 0
    endloop
  endfacet
  facet normal 0 0 -1
    outer loop
      vertex -19.0622 -3.5 0
      vertex -14 -1.85 0
      vertex -13.292 -1.70918 0
    endloop
  endfacet
  facet normal 0 0 -1
    outer loop
      vertex -5.18754 -2.15 0
      vertex -12.6919 -1.30815 0
      vertex -5.18754 1.75 0
    endloop
  endfacet
  facet normal 0 0 -1
    outer loop
      vertex 5.18754 1.75 0
      vertex 13.292 1.70918 0
      vertex 12.6919 1.30815 0
    endloop
  endfacet
  facet normal 0 0 -1
    outer loop
      vertex -12.2908 -0.707964 0
      vertex 7.25 7 0
      vertex -12.6919 -1.30815 0
    endloop
  endfacet
  facet normal 0 0 -1
    outer loop
      vertex -12.15 0 0
      vertex 7.25 7 0
      vertex -12.2908 -0.707964 0
    endloop
  endfacet
  facet normal 0 0 -1
    outer loop
      vertex -12.2908 0.707964 0
      vertex 7.25 7 0
      vertex -12.15 0 0
    endloop
  endfacet
  facet normal 0 0 -1
    outer loop
      vertex -12.6919 1.30815 0
      vertex 7.25 7 0
      vertex -12.2908 0.707964 0
    endloop
  endfacet
  facet normal 0 0 -1
    outer loop
      vertex -13.292 1.70918 0
      vertex -13 7 0
      vertex -12.6919 1.30815 0
    endloop
  endfacet
  facet normal 0 0 -1
    outer loop
      vertex -15.7092 0.707964 0
      vertex -13 7 0
      vertex -15.3081 1.30815 0
    endloop
  endfacet
  facet normal 0 0 -1
    outer loop
      vertex -14 1.85 0
      vertex -13 7 0
      vertex -13.292 1.70918 0
    endloop
  endfacet
  facet normal 0 0 -1
    outer loop
      vertex -14.708 1.70918 0
      vertex -13 7 0
      vertex -14 1.85 0
    endloop
  endfacet
  facet normal 0 0 -1
    outer loop
      vertex -15.3081 1.30815 0
      vertex -13 7 0
      vertex -14.708 1.70918 0
    endloop
  endfacet
  facet normal 0 0 -1
    outer loop
      vertex -19.0622 -3.5 0
      vertex -13 7 0
      vertex -15.7092 0.707964 0
    endloop
  endfacet
  facet normal 0 0 -1
    outer loop
      vertex -19.0622 -3.5 0
      vertex -15.7092 0.707964 0
      vertex -15.85 0 0
    endloop
  endfacet
  facet normal 0 0 -1
    outer loop
      vertex -12.6919 -1.30815 0
      vertex 7.25 7 0
      vertex -5.18754 1.75 0
    endloop
  endfacet
  facet normal 0 0 -1
    outer loop
      vertex -5.18754 -2.15 0
      vertex -19.0622 -3.5 0
      vertex -13.292 -1.70918 0
    endloop
  endfacet
  facet normal 0 0 -1
    outer loop
      vertex 5.18754 -2.15 0
      vertex 19.0622 -3.5 0
      vertex 4.38876 -2.15 0
    endloop
  endfacet
  facet normal 0 0 -1
    outer loop
      vertex -19.0622 -3.5 0
      vertex -5.18754 -2.15 0
      vertex 19.0622 -3.5 0
    endloop
  endfacet
  facet normal 0 0 -1
    outer loop
      vertex -5.18754 -2.15 0
      vertex -4.38876 -2.15 0
      vertex 19.0622 -3.5 0
    endloop
  endfacet
  facet normal 0 0 -1
    outer loop
      vertex -4.38876 -2.15 0
      vertex -3.59459 -2.06803 0
      vertex 19.0622 -3.5 0
    endloop
  endfacet
  facet normal 0 0 -1
    outer loop
      vertex -3.59459 -2.06803 0
      vertex -3.28162 -2.04845 0
      vertex 19.0622 -3.5 0
    endloop
  endfacet
  facet normal 0 0 -1
    outer loop
      vertex -3.28162 -2.04845 0
      vertex -1.76861 -1.95376 0
      vertex 19.0622 -3.5 0
    endloop
  endfacet
  facet normal 0 0 -1
    outer loop
      vertex -1.76861 -1.95376 0
      vertex -1.30478 -1.94403 0
      vertex 19.0622 -3.5 0
    endloop
  endfacet
  facet normal 0 0 -1
    outer loop
      vertex -1.30478 -1.94403 0
      vertex -3.10862e-15 -1.91667 0
      vertex 19.0622 -3.5 0
    endloop
  endfacet
  facet normal 0 0 -1
    outer loop
      vertex -3.10862e-15 -1.91667 0
      vertex 0.486004 -1.92686 0
      vertex 19.0622 -3.5 0
    endloop
  endfacet
  facet normal 0 0 -1
    outer loop
      vertex 0.486004 -1.92686 0
      vertex 1.76861 -1.95376 0
      vertex 19.0622 -3.5 0
    endloop
  endfacet
  facet normal 0 0 -1
    outer loop
      vertex 1.76861 -1.95376 0
      vertex 2.17879 -1.97943 0
      vertex 19.0622 -3.5 0
    endloop
  endfacet
  facet normal 0 0 -1
    outer loop
      vertex 13.292 1.70918 0
      vertex 19.0622 3.5 0
      vertex 14 1.85 0
    endloop
  endfacet
  facet normal 0 0 -1
    outer loop
      vertex 2.17879 -1.97943 0
      vertex 3.59459 -2.06803 0
      vertex 3.83811 -2.09317 0
    endloop
  endfacet
  facet normal 0 0 -1
    outer loop
      vertex 2.17879 -1.97943 0
      vertex 3.83811 -2.09317 0
      vertex 4.38876 -2.15 0
    endloop
  endfacet
  facet normal 0 0 -1
    outer loop
      vertex 2.17879 -1.97943 0
      vertex 4.38876 -2.15 0
      vertex 19.0622 -3.5 0
    endloop
  endfacet
  facet normal 0 0 -1
    outer loop
      vertex 5.18754 1.75 0
      vertex 19.0622 3.5 0
      vertex 13.292 1.70918 0
    endloop
  endfacet
  facet normal 0 0 -1
    outer loop
      vertex 10 4.25 0
      vertex 19.0622 3.5 0
      vertex 5.18754 1.75 0
    endloop
  endfacet
  facet normal 0 0 -1
    outer loop
      vertex 14.708 -1.70918 0
      vertex 19.0622 -3.5 0
      vertex 14 -1.85 0
    endloop
  endfacet
  facet normal 0 0 -1
    outer loop
      vertex 14 1.85 0
      vertex 19.0622 3.5 0
      vertex 14.708 1.70918 0
    endloop
  endfacet
  facet normal 0 0 -1
    outer loop
      vertex 5.18754 -2.15 0
      vertex 12.15 0 0
      vertex 12.2908 -0.707964 0
    endloop
  endfacet
  facet normal 0 0 -1
    outer loop
      vertex 5.18754 -2.15 0
      vertex 12.2908 -0.707964 0
      vertex 12.6919 -1.30815 0
    endloop
  endfacet
  facet normal 0 0 -1
    outer loop
      vertex 5.18754 -2.15 0
      vertex 12.6919 -1.30815 0
      vertex 13.292 -1.70918 0
    endloop
  endfacet
  facet normal 0 0 -1
    outer loop
      vertex 5.18754 -2.15 0
      vertex 13.292 -1.70918 0
      vertex 19.0622 -3.5 0
    endloop
  endfacet
  facet normal 0 0 -1
    outer loop
      vertex 13.292 -1.70918 0
      vertex 14 -1.85 0
      vertex 19.0622 -3.5 0
    endloop
  endfacet
  facet normal 0 0 -1
    outer loop
      vertex 15.3081 -1.30815 0
      vertex 19.0622 -3.5 0
      vertex 14.708 -1.70918 0
    endloop
  endfacet
  facet normal 0 0 -1
    outer loop
      vertex 15.7092 -0.707964 0
      vertex 19.0622 3.5 0
      vertex 15.3081 -1.30815 0
    endloop
  endfacet
  facet normal 0 0 -1
    outer loop
      vertex 14.708 1.70918 0
      vertex 19.0622 3.5 0
      vertex 15.3081 1.30815 0
    endloop
  endfacet
  facet normal 0 0 -1
    outer loop
      vertex 15.85 0 0
      vertex 19.0622 3.5 0
      vertex 15.7092 -0.707964 0
    endloop
  endfacet
  facet normal 0 0 -1
    outer loop
      vertex 15.7092 0.707964 0
      vertex 19.0622 3.5 0
      vertex 15.85 0 0
    endloop
  endfacet
  facet normal 0 0 -1
    outer loop
      vertex 15.3081 1.30815 0
      vertex 19.0622 3.5 0
      vertex 15.7092 0.707964 0
    endloop
  endfacet
  facet normal 0 0 -1
    outer loop
      vertex 12.2908 0.707964 0
      vertex 5.18754 -2.15 0
      vertex 12.6919 1.30815 0
    endloop
  endfacet
  facet normal 0 0 -1
    outer loop
      vertex 5.18754 -2.15 0
      vertex 12.2908 0.707964 0
      vertex 12.15 0 0
    endloop
  endfacet
  facet normal 0 0 -1
    outer loop
      vertex -13 -7 0
      vertex -19.0622 -3.5 0
      vertex 13 -7 0
    endloop
  endfacet
  facet normal 0 0 -1
    outer loop
      vertex 5.18754 1.75 0
      vertex 12.6919 1.30815 0
      vertex 5.18754 -2.15 0
    endloop
  endfacet
  facet normal -0.5 0.866025 0
    outer loop
      vertex -19.0622 3.5 0
      vertex -19.0622 3.5 3
      vertex -13 7 0
    endloop
  endfacet
  facet normal -0.5 0.866025 0
    outer loop
      vertex -13 7 0
      vertex -19.0622 3.5 3
      vertex -13 7 3
    endloop
  endfacet
  facet normal -1 -1.23935e-08 0
    outer loop
      vertex -19.0622 3.5 0
      vertex -19.0622 -3.5 0
      vertex -19.0622 3.5 3
    endloop
  endfacet
  facet normal -1 -1.23935e-08 0
    outer loop
      vertex -19.0622 3.5 3
      vertex -19.0622 -3.5 0
      vertex -19.0622 -3.5 3
    endloop
  endfacet
  facet normal -0.5 -0.866025 0
    outer loop
      vertex -19.0622 -3.5 3
      vertex -19.0622 -3.5 0
      vertex -13 -7 0
    endloop
  endfacet
  facet normal -0.5 -0.866025 0
    outer loop
      vertex -13 -7 3
      vertex -19.0622 -3.5 3
      vertex -13 -7 0
    endloop
  endfacet
  facet normal 0 -1 0
    outer loop
      vertex 10 -7 2.498e-15
      vertex -13 -7 0
      vertex 13 -7 0
    endloop
  endfacet
  facet normal 0 -1 0
    outer loop
      vertex -10 -7 6.93889e-15
      vertex -10 -7 3
      vertex -13 -7 3
    endloop
  endfacet
  facet normal 0 -1 0
    outer loop
      vertex 13 -7 3
      vertex 10 -7 3
      vertex 13 -7 0
    endloop
  endfacet
  facet normal 0 -1 0
    outer loop
      vertex -10 -7 6.93889e-15
      vertex -13 -7 0
      vertex 10 -7 2.498e-15
    endloop
  endfacet
  facet normal 0 -1 0
    outer loop
      vertex -13 -7 3
      vertex -13 -7 0
      vertex -10 -7 6.93889e-15
    endloop
  endfacet
  facet normal 0 -1 0
    outer loop
      vertex 10 -7 3
      vertex 10 -7 2.498e-15
      vertex 13 -7 0
    endloop
  endfacet
  facet normal 0.5 -0.866025 0
    outer loop
      vertex 13 -7 3
      vertex 13 -7 0
      vertex 19.0622 -3.5 0
    endloop
  endfacet
  facet normal 0.5 -0.866025 0
    outer loop
      vertex 19.0622 -3.5 3
      vertex 13 -7 3
      vertex 19.0622 -3.5 0
    endloop
  endfacet
  facet normal 1 1.23935e-08 0
    outer loop
      vertex 19.0622 -3.5 0
      vertex 19.0622 3.5 0
      vertex 19.0622 3.5 3
    endloop
  endfacet
  facet normal 1 1.23935e-08 0
    outer loop
      vertex 19.0622 -3.5 3
      vertex 19.0622 -3.5 0
      vertex 19.0622 3.5 3
    endloop
  endfacet
  facet normal 0.5 0.866025 0
    outer loop
      vertex 13 7 0
      vertex 13 7 3
      vertex 19.0622 3.5 0
    endloop
  endfacet
  facet normal 0.5 0.866025 0
    outer loop
      vertex 19.0622 3.5 0
      vertex 13 7 3
      vertex 19.0622 3.5 3
    endloop
  endfacet
  facet normal 0 1 0
    outer loop
      vertex 10 7 0
      vertex 10 7 3
      vertex 13 7 0
    endloop
  endfacet
  facet normal 0 1 0
    outer loop
      vertex 13 7 0
      vertex 10 7 3
      vertex 13 7 3
    endloop
  endfacet
  facet normal 1 -4.93038e-32 -2.22045e-16
    outer loop
      vertex 10 -14.25 6.05912
      vertex 10 -8.25 2.77556e-15
      vertex 10 -7 2.498e-15
    endloop
  endfacet
  facet normal 1 -4.93038e-32 -2.22045e-16
    outer loop
      vertex 10 -2.15 3
      vertex 10 -14.25 6.05912
      vertex 10 -7 3
    endloop
  endfacet
  facet normal 1 -4.93038e-32 -2.22045e-16
    outer loop
      vertex 10 -7 3
      vertex 10 -14.25 6.05912
      vertex 10 -7 2.498e-15
    endloop
  endfacet
  facet normal 1 -4.93038e-32 -2.22045e-16
    outer loop
      vertex 10 -2.15 3.23217
      vertex 10 -14.25 6.05912
      vertex 10 -2.15 3
    endloop
  endfacet
  facet normal 1 -4.93038e-32 -2.22045e-16
    outer loop
      vertex 10 -2.1194 3.35108
      vertex 10 -14.25 6.05912
      vertex 10 -2.15 3.23217
    endloop
  endfacet
  facet normal 1 -4.93038e-32 -2.22045e-16
    outer loop
      vertex 10 -1.98758 3.92764
      vertex 10 -14.25 6.05912
      vertex 10 -2.1194 3.35108
    endloop
  endfacet
  facet normal 1 -4.93038e-32 -2.22045e-16
    outer loop
      vertex 10 -1.57612 5.72728
      vertex 10 -14.25 6.05912
      vertex 10 -1.98758 3.92764
    endloop
  endfacet
  facet normal 1 -4.93038e-32 -2.22045e-16
    outer loop
      vertex 10 -1.25 7.38849
      vertex 10 -14.25 6.05912
      vertex 10 -1.57612 5.72728
    endloop
  endfacet
  facet normal 1 -4.93038e-32 -2.22045e-16
    outer loop
      vertex 10 14.25 14
      vertex 10 -14.25 6.05912
      vertex 10 -1.25 7.38849
    endloop
  endfacet
  facet normal 1 -4.93038e-32 -2.22045e-16
    outer loop
      vertex 10 14.25 14
      vertex 10 -1.25 7.38849
      vertex 10 1.75 7.38849
    endloop
  endfacet
  facet normal 1 -4.93038e-32 -2.22045e-16
    outer loop
      vertex 10 7 3
      vertex 10 1.75 7.38849
      vertex 10 1.75 3
    endloop
  endfacet
  facet normal 1 -4.93038e-32 -2.22045e-16
    outer loop
      vertex 10 14.25 6.05912
      vertex 10 1.75 7.38849
      vertex 10 7 3
    endloop
  endfacet
  facet normal 1 -4.93038e-32 -2.22045e-16
    outer loop
      vertex 10 8.25 -8.88178e-16
      vertex 10 7 3
      vertex 10 7 0
    endloop
  endfacet
  facet normal 1 -4.93038e-32 -2.22045e-16
    outer loop
      vertex 10 8.25 -8.88178e-16
      vertex 10 7 0
      vertex 10 4.25 0
    endloop
  endfacet
  facet normal 1 -4.93038e-32 -2.22045e-16
    outer loop
      vertex 10 14.25 6.05912
      vertex 10 7 3
      vertex 10 8.25 -8.88178e-16
    endloop
  endfacet
  facet normal 1 -4.93038e-32 -2.22045e-16
    outer loop
      vertex 10 14.25 14
      vertex 10 1.75 7.38849
      vertex 10 14.25 6.05912
    endloop
  endfacet
  facet normal 1 -4.93038e-32 -2.22045e-16
    outer loop
      vertex 10 -14.25 14
      vertex 10 -14.25 6.05912
      vertex 10 14.25 14
    endloop
  endfacet
  facet normal -2.22045e-16 -2.22045e-16 -1
    outer loop
      vertex -10 7 3.83027e-15
      vertex -10 8.25 3.55271e-15
      vertex 7.25 7 0
    endloop
  endfacet
  facet normal -2.22045e-16 -2.22045e-16 -1
    outer loop
      vertex 7.25 7 0
      vertex -10 8.25 3.55271e-15
      vertex -4 14.25 8.88178e-16
    endloop
  endfacet
  facet normal -2.22045e-16 -2.22045e-16 -1
    outer loop
      vertex 7.25 7 0
      vertex -4 14.25 8.88178e-16
      vertex 4 14.25 -8.88178e-16
    endloop
  endfacet
  facet normal -2.22045e-16 -2.22045e-16 -1
    outer loop
      vertex 7.25 7 0
      vertex 4 14.25 -8.88178e-16
      vertex 10 8.25 -8.88178e-16
    endloop
  endfacet
  facet normal -2.22045e-16 -2.22045e-16 -1
    outer loop
      vertex 7.25 7 0
      vertex 10 8.25 -8.88178e-16
      vertex 10 4.25 0
    endloop
  endfacet
  facet normal 0 1 0
    outer loop
      vertex -13 7 0
      vertex -13 7 3
      vertex -10 7 3.83027e-15
    endloop
  endfacet
  facet normal 0 1 0
    outer loop
      vertex -13 7 0
      vertex -10 7 3.83027e-15
      vertex 7.25 7 0
    endloop
  endfacet
  facet normal 0 1 0
    outer loop
      vertex -10 7 3.83027e-15
      vertex -13 7 3
      vertex -10 7 3
    endloop
  endfacet
  facet normal 0.980785 -0.195091 0
    outer loop
      vertex -15.7092 0.707964 0
      vertex -15.7092 0.707964 3
      vertex -15.85 0 3
    endloop
  endfacet
  facet normal 0.980785 -0.195091 0
    outer loop
      vertex -15.85 0 0
      vertex -15.7092 0.707964 0
      vertex -15.85 0 3
    endloop
  endfacet
  facet normal 0.980785 0.195091 0
    outer loop
      vertex -15.85 0 3
      vertex -15.7092 -0.707964 3
      vertex -15.7092 -0.707964 0
    endloop
  endfacet
  facet normal 0.980785 0.195091 0
    outer loop
      vertex -15.85 0 0
      vertex -15.85 0 3
      vertex -15.7092 -0.707964 0
    endloop
  endfacet
  facet normal 0.83147 -0.555569 0
    outer loop
      vertex -15.3081 1.30815 0
      vertex -15.3081 1.30815 3
      vertex -15.7092 0.707964 3
    endloop
  endfacet
  facet normal 0.83147 -0.555569 0
    outer loop
      vertex -15.7092 0.707964 0
      vertex -15.3081 1.30815 0
      vertex -15.7092 0.707964 3
    endloop
  endfacet
  facet normal 0.555569 -0.83147 0
    outer loop
      vertex -14.708 1.70918 0
      vertex -14.708 1.70918 3
      vertex -15.3081 1.30815 3
    endloop
  endfacet
  facet normal 0.555569 -0.83147 0
    outer loop
      vertex -15.3081 1.30815 0
      vertex -14.708 1.70918 0
      vertex -15.3081 1.30815 3
    endloop
  endfacet
  facet normal 0.195091 -0.980785 0
    outer loop
      vertex -14 1.85 0
      vertex -14 1.85 3
      vertex -14.708 1.70918 3
    endloop
  endfacet
  facet normal 0.195091 -0.980785 0
    outer loop
      vertex -14.708 1.70918 0
      vertex -14 1.85 0
      vertex -14.708 1.70918 3
    endloop
  endfacet
  facet normal -0.195091 -0.980785 0
    outer loop
      vertex -13.292 1.70918 0
      vertex -13.292 1.70918 3
      vertex -14 1.85 3
    endloop
  endfacet
  facet normal -0.195091 -0.980785 0
    outer loop
      vertex -14 1.85 0
      vertex -13.292 1.70918 0
      vertex -14 1.85 3
    endloop
  endfacet
  facet normal -0.555569 -0.83147 0
    outer loop
      vertex -12.6919 1.30815 0
      vertex -12.6919 1.30815 3
      vertex -13.292 1.70918 3
    endloop
  endfacet
  facet normal -0.555569 -0.83147 0
    outer loop
      vertex -13.292 1.70918 0
      vertex -12.6919 1.30815 0
      vertex -13.292 1.70918 3
    endloop
  endfacet
  facet normal -0.83147 -0.555569 0
    outer loop
      vertex -12.2908 0.707964 3
      vertex -12.6919 1.30815 3
      vertex -12.2908 0.707964 0
    endloop
  endfacet
  facet normal -0.83147 -0.555569 0
    outer loop
      vertex -12.2908 0.707964 0
      vertex -12.6919 1.30815 3
      vertex -12.6919 1.30815 0
    endloop
  endfacet
  facet normal -0.980785 -0.195091 0
    outer loop
      vertex -12.15 0 3
      vertex -12.2908 0.707964 3
      vertex -12.15 0 0
    endloop
  endfacet
  facet normal -0.980785 -0.195091 0
    outer loop
      vertex -12.15 0 0
      vertex -12.2908 0.707964 3
      vertex -12.2908 0.707964 0
    endloop
  endfacet
  facet normal -0.980785 0.195091 0
    outer loop
      vertex -12.15 0 3
      vertex -12.15 0 0
      vertex -12.2908 -0.707964 3
    endloop
  endfacet
  facet normal -0.980785 0.195091 0
    outer loop
      vertex -12.2908 -0.707964 3
      vertex -12.15 0 0
      vertex -12.2908 -0.707964 0
    endloop
  endfacet
  facet normal -0.83147 0.555569 0
    outer loop
      vertex -12.2908 -0.707964 3
      vertex -12.2908 -0.707964 0
      vertex -12.6919 -1.30815 3
    endloop
  endfacet
  facet normal -0.83147 0.555569 0
    outer loop
      vertex -12.6919 -1.30815 3
      vertex -12.2908 -0.707964 0
      vertex -12.6919 -1.30815 0
    endloop
  endfacet
  facet normal -0.555569 0.83147 0
    outer loop
      vertex -12.6919 -1.30815 3
      vertex -12.6919 -1.30815 0
      vertex -13.292 -1.70918 3
    endloop
  endfacet
  facet normal -0.555569 0.83147 0
    outer loop
      vertex -13.292 -1.70918 3
      vertex -12.6919 -1.30815 0
      vertex -13.292 -1.70918 0
    endloop
  endfacet
  facet normal -0.195091 0.980785 0
    outer loop
      vertex -13.292 -1.70918 3
      vertex -13.292 -1.70918 0
      vertex -14 -1.85 3
    endloop
  endfacet
  facet normal -0.195091 0.980785 0
    outer loop
      vertex -14 -1.85 3
      vertex -13.292 -1.70918 0
      vertex -14 -1.85 0
    endloop
  endfacet
  facet normal 0.195091 0.980785 0
    outer loop
      vertex -14 -1.85 3
      vertex -14 -1.85 0
      vertex -14.708 -1.70918 3
    endloop
  endfacet
  facet normal 0.195091 0.980785 0
    outer loop
      vertex -14.708 -1.70918 3
      vertex -14 -1.85 0
      vertex -14.708 -1.70918 0
    endloop
  endfacet
  facet normal 0.555569 0.83147 0
    outer loop
      vertex -14.708 -1.70918 3
      vertex -14.708 -1.70918 0
      vertex -15.3081 -1.30815 3
    endloop
  endfacet
  facet normal 0.555569 0.83147 0
    outer loop
      vertex -15.3081 -1.30815 3
      vertex -14.708 -1.70918 0
      vertex -15.3081 -1.30815 0
    endloop
  endfacet
  facet normal 0.83147 0.555569 0
    outer loop
      vertex -15.7092 -0.707964 3
      vertex -15.3081 -1.30815 3
      vertex -15.3081 -1.30815 0
    endloop
  endfacet
  facet normal 0.83147 0.555569 0
    outer loop
      vertex -15.7092 -0.707964 0
      vertex -15.7092 -0.707964 3
      vertex -15.3081 -1.30815 0
    endloop
  endfacet
  facet normal 0 -1 2.22045e-16
    outer loop
      vertex -8.81678 1.75 1.86475
      vertex -6.10105 1.75 0.296818
      vertex -5.18754 1.75 0
    endloop
  endfacet
  facet normal 0 -1 2.22045e-16
    outer loop
      vertex 6.10105 1.75 0.296818
      vertex -8.81678 1.75 1.86475
      vertex 5.18754 1.75 0
    endloop
  endfacet
  facet normal 0 -1 2.22045e-16
    outer loop
      vertex 5.18754 1.75 0
      vertex -8.81678 1.75 1.86475
      vertex -5.18754 1.75 0
    endloop
  endfacet
  facet normal 0 -1 2.22045e-16
    outer loop
      vertex 8.81678 1.75 1.86475
      vertex -8.81678 1.75 1.86475
      vertex 6.10105 1.75 0.296818
    endloop
  endfacet
  facet normal 0 -1 2.22045e-16
    outer loop
      vertex -2.66454e-15 1.75 2
      vertex -8.81678 1.75 1.86475
      vertex 8.81678 1.75 1.86475
    endloop
  endfacet
  facet normal 0 -1 2.22045e-16
    outer loop
      vertex -2.66454e-15 1.75 2
      vertex -1.504 1.75 2.09462
      vertex -8.81678 1.75 1.86475
    endloop
  endfacet
  facet normal 0 -1 2.22045e-16
    outer loop
      vertex -1.504 1.75 2.09462
      vertex -2.98428 1.75 2.377
      vertex -8.81678 1.75 1.86475
    endloop
  endfacet
  facet normal 0 -1 2.22045e-16
    outer loop
      vertex 10 1.75 7.38849
      vertex 9.24616 1.75 6.35091
      vertex 10 1.75 3
    endloop
  endfacet
  facet normal 0 -1 2.22045e-16
    outer loop
      vertex 9.24616 1.75 6.35091
      vertex 8.21456 1.75 5.25238
      vertex 10 1.75 3
    endloop
  endfacet
  facet normal 0 -1 2.22045e-16
    outer loop
      vertex 8.21456 1.75 5.25238
      vertex 7.05342 1.75 4.2918
      vertex 10 1.75 3
    endloop
  endfacet
  facet normal 0 -1 2.22045e-16
    outer loop
      vertex 7.05342 1.75 4.2918
      vertex 5.78104 1.75 3.48432
      vertex 10 1.75 3
    endloop
  endfacet
  facet normal 0 -1 2.22045e-16
    outer loop
      vertex -4.4175 1.75 2.84268
      vertex -5.78104 1.75 3.48432
      vertex -8.81678 1.75 1.86475
    endloop
  endfacet
  facet normal 0 -1 2.22045e-16
    outer loop
      vertex 5.78104 1.75 3.48432
      vertex 4.41749 1.75 2.84268
      vertex 10 1.75 3
    endloop
  endfacet
  facet normal 0 -1 2.22045e-16
    outer loop
      vertex 10.0776 1.75 3
      vertex 2.98428 1.75 2.377
      vertex 8.81678 1.75 1.86475
    endloop
  endfacet
  facet normal 0 -1 2.22045e-16
    outer loop
      vertex 2.98428 1.75 2.377
      vertex 1.504 1.75 2.09462
      vertex 8.81678 1.75 1.86475
    endloop
  endfacet
  facet normal 0 -1 2.22045e-16
    outer loop
      vertex 1.504 1.75 2.09462
      vertex -2.66454e-15 1.75 2
      vertex 8.81678 1.75 1.86475
    endloop
  endfacet
  facet normal 0 -1 2.22045e-16
    outer loop
      vertex -7.05342 1.75 4.2918
      vertex -8.81678 1.75 1.86475
      vertex -5.78104 1.75 3.48432
    endloop
  endfacet
  facet normal 0 -1 2.22045e-16
    outer loop
      vertex -8.21457 1.75 5.25238
      vertex -8.81678 1.75 1.86475
      vertex -7.05342 1.75 4.2918
    endloop
  endfacet
  facet normal 0 -1 2.22045e-16
    outer loop
      vertex -9.24616 1.75 6.35091
      vertex -8.81678 1.75 1.86475
      vertex -8.21457 1.75 5.25238
    endloop
  endfacet
  facet normal 0 -1 2.22045e-16
    outer loop
      vertex -10 1.75 7.38849
      vertex -8.81678 1.75 1.86475
      vertex -9.24616 1.75 6.35091
    endloop
  endfacet
  facet normal 0 -1 2.22045e-16
    outer loop
      vertex -10 1.75 3
      vertex -8.81678 1.75 1.86475
      vertex -10 1.75 7.38849
    endloop
  endfacet
  facet normal 0 -1 2.22045e-16
    outer loop
      vertex -10.0776 1.75 3
      vertex -8.81678 1.75 1.86475
      vertex -10 1.75 3
    endloop
  endfacet
  facet normal 0 -1 2.22045e-16
    outer loop
      vertex 4.41749 1.75 2.84268
      vertex 10.0776 1.75 3
      vertex 10 1.75 3
    endloop
  endfacet
  facet normal 0 -1 2.22045e-16
    outer loop
      vertex 4.41749 1.75 2.84268
      vertex 2.98428 1.75 2.377
      vertex 10.0776 1.75 3
    endloop
  endfacet
  facet normal 0 -1 2.22045e-16
    outer loop
      vertex -2.98428 1.75 2.377
      vertex -4.4175 1.75 2.84268
      vertex -8.81678 1.75 1.86475
    endloop
  endfacet
  facet normal 0.309017 2.11177e-16 0.951057
    outer loop
      vertex -5.18754 -2.15 0
      vertex -5.18754 1.75 0
      vertex -6.10105 1.75 0.296818
    endloop
  endfacet
  facet normal 0.309017 2.11177e-16 0.951057
    outer loop
      vertex -6.10105 -2.15 0.296818
      vertex -5.18754 -2.15 0
      vertex -6.10105 1.75 0.296818
    endloop
  endfacet
  facet normal -0.309017 2.11177e-16 0.951057
    outer loop
      vertex 6.10105 -2.15 0.296818
      vertex 6.10105 1.75 0.296818
      vertex 5.18754 1.75 0
    endloop
  endfacet
  facet normal -0.309017 2.11177e-16 0.951057
    outer loop
      vertex 5.18754 -2.15 0
      vertex 6.10105 -2.15 0.296818
      vertex 5.18754 1.75 0
    endloop
  endfacet
  facet normal 0 1 -2.22045e-16
    outer loop
      vertex 8.81678 -2.15 1.86475
      vertex 7.08178 -2.15 1.11829
      vertex 10.0776 -2.15 3
    endloop
  endfacet
  facet normal 0 1 -2.22045e-16
    outer loop
      vertex 5.54779 -2.15 0.39645
      vertex 7.08178 -2.15 1.11829
      vertex 5.41143 -2.15 0.332286
    endloop
  endfacet
  facet normal 0 1 -2.22045e-16
    outer loop
      vertex 8.64044 -2.15 2.10745
      vertex 7.08178 -2.15 1.11829
      vertex 7.20902 -2.15 1.19904
    endloop
  endfacet
  facet normal 0 1 -2.22045e-16
    outer loop
      vertex 10.0776 -2.15 3
      vertex 7.08178 -2.15 1.11829
      vertex 8.64044 -2.15 2.10745
    endloop
  endfacet
  facet normal 0 1 -2.22045e-16
    outer loop
      vertex 10 -2.15 3
      vertex 8.64044 -2.15 2.10745
      vertex 8.75656 -2.15 2.20351
    endloop
  endfacet
  facet normal 0 1 -2.22045e-16
    outer loop
      vertex 10 -2.15 3.23217
      vertex 10 -2.15 3
      vertex 8.75656 -2.15 2.20351
    endloop
  endfacet
  facet normal 0 1 -2.22045e-16
    outer loop
      vertex 10 -2.15 3
      vertex 10.0776 -2.15 3
      vertex 8.64044 -2.15 2.10745
    endloop
  endfacet
  facet normal 0 1 -2.22045e-16
    outer loop
      vertex 5.41143 -2.15 0.332286
      vertex 7.08178 -2.15 1.11829
      vertex 8.81678 -2.15 1.86475
    endloop
  endfacet
  facet normal 0 1 -2.22045e-16
    outer loop
      vertex 5.41143 -2.15 0.332286
      vertex 8.81678 -2.15 1.86475
      vertex 6.10105 -2.15 0.296818
    endloop
  endfacet
  facet normal 0 1 -2.22045e-16
    outer loop
      vertex 5.41143 -2.15 0.332286
      vertex 6.10105 -2.15 0.296818
      vertex 5.18754 -2.15 0
    endloop
  endfacet
  facet normal 0 1 -2.22045e-16
    outer loop
      vertex 5.41143 -2.15 0.332286
      vertex 5.18754 -2.15 0
      vertex 4.38876 -2.15 0
    endloop
  endfacet
  facet normal 0.0978936 0.948496 -0.301286
    outer loop
      vertex 3.83811 -2.09317 0
      vertex 4.41749 -1.25 2.84268
      vertex 4.38876 -2.15 0
    endloop
  endfacet
  facet normal 0.0978936 0.948496 -0.301286
    outer loop
      vertex 4.38876 -2.15 0
      vertex 4.41749 -1.25 2.84268
      vertex 5.41143 -2.15 0.332286
    endloop
  endfacet
  facet normal 0.0978936 0.948496 -0.301286
    outer loop
      vertex 2.98428 -1.25 2.377
      vertex 4.41749 -1.25 2.84268
      vertex 3.59459 -2.06803 0
    endloop
  endfacet
  facet normal 0.0978936 0.948496 -0.301286
    outer loop
      vertex 3.59459 -2.06803 0
      vertex 4.41749 -1.25 2.84268
      vertex 3.83811 -2.09317 0
    endloop
  endfacet
  facet normal 0.0593608 0.948496 -0.311179
    outer loop
      vertex 3.59459 -2.06803 0
      vertex 2.17879 -1.97943 0
      vertex 2.98428 -1.25 2.377
    endloop
  endfacet
  facet normal 0.0593605 0.948496 -0.311179
    outer loop
      vertex 1.504 -1.25 2.09462
      vertex 2.98428 -1.25 2.377
      vertex 1.76861 -1.95376 0
    endloop
  endfacet
  facet normal 0.0593605 0.948496 -0.311179
    outer loop
      vertex 1.76861 -1.95376 0
      vertex 2.98428 -1.25 2.377
      vertex 2.17879 -1.97943 0
    endloop
  endfacet
  facet normal 0.0198913 0.948496 -0.316165
    outer loop
      vertex 1.76861 -1.95376 0
      vertex 0.486004 -1.92686 0
      vertex 1.504 -1.25 2.09462
    endloop
  endfacet
  facet normal 0.0198915 0.948496 -0.316165
    outer loop
      vertex -3.10862e-15 -1.91667 0
      vertex -2.66454e-15 -1.25 2
      vertex 0.486004 -1.92686 0
    endloop
  endfacet
  facet normal 0.0198915 0.948496 -0.316165
    outer loop
      vertex 0.486004 -1.92686 0
      vertex -2.66454e-15 -1.25 2
      vertex 1.504 -1.25 2.09462
    endloop
  endfacet
  facet normal -0.0198913 0.948496 -0.316165
    outer loop
      vertex -3.10862e-15 -1.91667 0
      vertex -1.30478 -1.94403 0
      vertex -2.66454e-15 -1.25 2
    endloop
  endfacet
  facet normal -0.0198915 0.948496 -0.316165
    outer loop
      vertex -1.76861 -1.95376 0
      vertex -1.504 -1.25 2.09462
      vertex -1.30478 -1.94403 0
    endloop
  endfacet
  facet normal -0.0198915 0.948496 -0.316165
    outer loop
      vertex -1.30478 -1.94403 0
      vertex -1.504 -1.25 2.09462
      vertex -2.66454e-15 -1.25 2
    endloop
  endfacet
  facet normal -0.0593607 0.948496 -0.311179
    outer loop
      vertex -1.76861 -1.95376 0
      vertex -3.28162 -2.04845 0
      vertex -1.504 -1.25 2.09462
    endloop
  endfacet
  facet normal -0.0593605 0.948496 -0.311179
    outer loop
      vertex -3.59459 -2.06803 0
      vertex -2.98428 -1.25 2.377
      vertex -3.28162 -2.04845 0
    endloop
  endfacet
  facet normal -0.0593605 0.948496 -0.311179
    outer loop
      vertex -3.28162 -2.04845 0
      vertex -2.98428 -1.25 2.377
      vertex -1.504 -1.25 2.09462
    endloop
  endfacet
  facet normal -0.0978936 0.948496 -0.301286
    outer loop
      vertex -5.26811 -2.15 0.285718
      vertex -2.98428 -1.25 2.377
      vertex -4.38876 -2.15 0
    endloop
  endfacet
  facet normal -0.0978936 0.948496 -0.301286
    outer loop
      vertex -4.38876 -2.15 0
      vertex -2.98428 -1.25 2.377
      vertex -3.59459 -2.06803 0
    endloop
  endfacet
  facet normal 0 1 -2.22045e-16
    outer loop
      vertex -10 -2.15 3.23217
      vertex -9.94673 -2.15 3.1881
      vertex -10 -2.15 3
    endloop
  endfacet
  facet normal 0 1 -2.22045e-16
    outer loop
      vertex -10 -2.15 3
      vertex -9.94673 -2.15 3.1881
      vertex -8.64044 -2.15 2.10745
    endloop
  endfacet
  facet normal 0 1 -2.22045e-16
    outer loop
      vertex -8.64044 -2.15 2.10745
      vertex -6.10105 -2.15 0.296818
      vertex -10 -2.15 3
    endloop
  endfacet
  facet normal 0 1 -2.22045e-16
    outer loop
      vertex -8.51321 -2.15 2.0267
      vertex -6.10105 -2.15 0.296818
      vertex -8.64044 -2.15 2.10745
    endloop
  endfacet
  facet normal 0 1 -2.22045e-16
    outer loop
      vertex -6.94542 -2.15 1.05413
      vertex -5.18754 -2.15 0
      vertex -7.08178 -2.15 1.11829
    endloop
  endfacet
  facet normal 0 1 -2.22045e-16
    outer loop
      vertex -5.41143 -2.15 0.332286
      vertex -5.26811 -2.15 0.285718
      vertex -4.38876 -2.15 0
    endloop
  endfacet
  facet normal 0 1 -2.22045e-16
    outer loop
      vertex -5.41143 -2.15 0.332286
      vertex -4.38876 -2.15 0
      vertex -5.18754 -2.15 0
    endloop
  endfacet
  facet normal 0 1 -2.22045e-16
    outer loop
      vertex -5.41143 -2.15 0.332286
      vertex -5.18754 -2.15 0
      vertex -6.94542 -2.15 1.05413
    endloop
  endfacet
  facet normal 0 1 -2.22045e-16
    outer loop
      vertex -7.08178 -2.15 1.11829
      vertex -5.18754 -2.15 0
      vertex -6.10105 -2.15 0.296818
    endloop
  endfacet
  facet normal 0 1 -2.22045e-16
    outer loop
      vertex -7.08178 -2.15 1.11829
      vertex -6.10105 -2.15 0.296818
      vertex -8.51321 -2.15 2.0267
    endloop
  endfacet
  facet normal 0 1 -2.22045e-16
    outer loop
      vertex -10 -2.15 3
      vertex -6.10105 -2.15 0.296818
      vertex -8.81678 -2.15 1.86475
    endloop
  endfacet
  facet normal 0 1 -2.22045e-16
    outer loop
      vertex -10 -2.15 3
      vertex -8.81678 -2.15 1.86475
      vertex -10.0776 -2.15 3
    endloop
  endfacet
  facet normal 0.980785 -0.195091 0
    outer loop
      vertex 12.2908 0.707964 0
      vertex 12.2908 0.707964 3
      vertex 12.15 0 3
    endloop
  endfacet
  facet normal 0.980785 -0.195091 0
    outer loop
      vertex 12.15 0 0
      vertex 12.2908 0.707964 0
      vertex 12.15 0 3
    endloop
  endfacet
  facet normal 0.980785 0.195091 0
    outer loop
      vertex 12.15 0 3
      vertex 12.2908 -0.707964 3
      vertex 12.2908 -0.707964 0
    endloop
  endfacet
  facet normal 0.980785 0.195091 0
    outer loop
      vertex 12.15 0 0
      vertex 12.15 0 3
      vertex 12.2908 -0.707964 0
    endloop
  endfacet
  facet normal 0.83147 -0.555569 0
    outer loop
      vertex 12.6919 1.30815 0
      vertex 12.6919 1.30815 3
      vertex 12.2908 0.707964 3
    endloop
  endfacet
  facet normal 0.83147 -0.555569 0
    outer loop
      vertex 12.2908 0.707964 0
      vertex 12.6919 1.30815 0
      vertex 12.2908 0.707964 3
    endloop
  endfacet
  facet normal 0.555569 -0.83147 0
    outer loop
      vertex 13.292 1.70918 0
      vertex 13.292 1.70918 3
      vertex 12.6919 1.30815 3
    endloop
  endfacet
  facet normal 0.555569 -0.83147 0
    outer loop
      vertex 12.6919 1.30815 0
      vertex 13.292 1.70918 0
      vertex 12.6919 1.30815 3
    endloop
  endfacet
  facet normal 0.195091 -0.980785 0
    outer loop
      vertex 14 1.85 0
      vertex 14 1.85 3
      vertex 13.292 1.70918 3
    endloop
  endfacet
  facet normal 0.195091 -0.980785 0
    outer loop
      vertex 13.292 1.70918 0
      vertex 14 1.85 0
      vertex 13.292 1.70918 3
    endloop
  endfacet
  facet normal -0.195091 -0.980785 0
    outer loop
      vertex 14.708 1.70918 0
      vertex 14.708 1.70918 3
      vertex 14 1.85 3
    endloop
  endfacet
  facet normal -0.195091 -0.980785 0
    outer loop
      vertex 14 1.85 0
      vertex 14.708 1.70918 0
      vertex 14 1.85 3
    endloop
  endfacet
  facet normal -0.555569 -0.83147 0
    outer loop
      vertex 15.3081 1.30815 0
      vertex 15.3081 1.30815 3
      vertex 14.708 1.70918 3
    endloop
  endfacet
  facet normal -0.555569 -0.83147 0
    outer loop
      vertex 14.708 1.70918 0
      vertex 15.3081 1.30815 0
      vertex 14.708 1.70918 3
    endloop
  endfacet
  facet normal -0.83147 -0.555569 0
    outer loop
      vertex 15.7092 0.707964 3
      vertex 15.3081 1.30815 3
      vertex 15.7092 0.707964 0
    endloop
  endfacet
  facet normal -0.83147 -0.555569 0
    outer loop
      vertex 15.7092 0.707964 0
      vertex 15.3081 1.30815 3
      vertex 15.3081 1.30815 0
    endloop
  endfacet
  facet normal -0.980785 -0.195091 0
    outer loop
      vertex 15.85 0 3
      vertex 15.7092 0.707964 3
      vertex 15.85 0 0
    endloop
  endfacet
  facet normal -0.980785 -0.195091 0
    outer loop
      vertex 15.85 0 0
      vertex 15.7092 0.707964 3
      vertex 15.7092 0.707964 0
    endloop
  endfacet
  facet normal -0.980785 0.195091 0
    outer loop
      vertex 15.85 0 3
      vertex 15.85 0 0
      vertex 15.7092 -0.707964 3
    endloop
  endfacet
  facet normal -0.980785 0.195091 0
    outer loop
      vertex 15.7092 -0.707964 3
      vertex 15.85 0 0
      vertex 15.7092 -0.707964 0
    endloop
  endfacet
  facet normal -0.83147 0.555569 0
    outer loop
      vertex 15.7092 -0.707964 3
      vertex 15.7092 -0.707964 0
      vertex 15.3081 -1.30815 3
    endloop
  endfacet
  facet normal -0.83147 0.555569 0
    outer loop
      vertex 15.3081 -1.30815 3
      vertex 15.7092 -0.707964 0
      vertex 15.3081 -1.30815 0
    endloop
  endfacet
  facet normal -0.555569 0.83147 0
    outer loop
      vertex 15.3081 -1.30815 3
      vertex 15.3081 -1.30815 0
      vertex 14.708 -1.70918 3
    endloop
  endfacet
  facet normal -0.555569 0.83147 0
    outer loop
      vertex 14.708 -1.70918 3
      vertex 15.3081 -1.30815 0
      vertex 14.708 -1.70918 0
    endloop
  endfacet
  facet normal -0.195091 0.980785 0
    outer loop
      vertex 14.708 -1.70918 3
      vertex 14.708 -1.70918 0
      vertex 14 -1.85 3
    endloop
  endfacet
  facet normal -0.195091 0.980785 0
    outer loop
      vertex 14 -1.85 3
      vertex 14.708 -1.70918 0
      vertex 14 -1.85 0
    endloop
  endfacet
  facet normal 0.195091 0.980785 0
    outer loop
      vertex 14 -1.85 3
      vertex 14 -1.85 0
      vertex 13.292 -1.70918 3
    endloop
  endfacet
  facet normal 0.195091 0.980785 0
    outer loop
      vertex 13.292 -1.70918 3
      vertex 14 -1.85 0
      vertex 13.292 -1.70918 0
    endloop
  endfacet
  facet normal 0.555569 0.83147 0
    outer loop
      vertex 13.292 -1.70918 3
      vertex 13.292 -1.70918 0
      vertex 12.6919 -1.30815 3
    endloop
  endfacet
  facet normal 0.555569 0.83147 0
    outer loop
      vertex 12.6919 -1.30815 3
      vertex 13.292 -1.70918 0
      vertex 12.6919 -1.30815 0
    endloop
  endfacet
  facet normal 0.83147 0.555569 0
    outer loop
      vertex 12.2908 -0.707964 3
      vertex 12.6919 -1.30815 3
      vertex 12.6919 -1.30815 0
    endloop
  endfacet
  facet normal 0.83147 0.555569 0
    outer loop
      vertex 12.2908 -0.707964 0
      vertex 12.2908 -0.707964 3
      vertex 12.6919 -1.30815 0
    endloop
  endfacet
  facet normal 0 0 1
    outer loop
      vertex -13 7 3
      vertex -19.0622 3.5 3
      vertex -19.0622 -3.5 3
    endloop
  endfacet
  facet normal 0 0 1
    outer loop
      vertex -12.15 0 3
      vertex -12.2908 -0.707964 3
      vertex -10 -7 3
    endloop
  endfacet
  facet normal 0 0 1
    outer loop
      vertex -15.7092 0.707964 3
      vertex -13 7 3
      vertex -19.0622 -3.5 3
    endloop
  endfacet
  facet normal 0 0 1
    outer loop
      vertex -10.0776 -2.15 3
      vertex -13 7 3
      vertex -10 -7 3
    endloop
  endfacet
  facet normal 0 0 1
    outer loop
      vertex -10 -2.15 3
      vertex -10.0776 -2.15 3
      vertex -10 -7 3
    endloop
  endfacet
  facet normal 0 0 1
    outer loop
      vertex -15.7092 0.707964 3
      vertex -15.3081 1.30815 3
      vertex -13 7 3
    endloop
  endfacet
  facet normal 0 0 1
    outer loop
      vertex -10 1.75 3
      vertex -13 7 3
      vertex -10.0776 1.75 3
    endloop
  endfacet
  facet normal 0 0 1
    outer loop
      vertex -10 7 3
      vertex -13 7 3
      vertex -10 1.75 3
    endloop
  endfacet
  facet normal 0 0 1
    outer loop
      vertex -13 -7 3
      vertex -15.7092 -0.707964 3
      vertex -19.0622 -3.5 3
    endloop
  endfacet
  facet normal 0 0 1
    outer loop
      vertex -15.7092 -0.707964 3
      vertex -15.85 0 3
      vertex -19.0622 -3.5 3
    endloop
  endfacet
  facet normal 0 0 1
    outer loop
      vertex -15.85 0 3
      vertex -15.7092 0.707964 3
      vertex -19.0622 -3.5 3
    endloop
  endfacet
  facet normal 0 0 1
    outer loop
      vertex -15.3081 1.30815 3
      vertex -14.708 1.70918 3
      vertex -13 7 3
    endloop
  endfacet
  facet normal 0 0 1
    outer loop
      vertex -13.292 -1.70918 3
      vertex -14 -1.85 3
      vertex -13 -7 3
    endloop
  endfacet
  facet normal 0 0 1
    outer loop
      vertex -14 1.85 3
      vertex -13 7 3
      vertex -14.708 1.70918 3
    endloop
  endfacet
  facet normal 0 0 1
    outer loop
      vertex -13.292 1.70918 3
      vertex -13 7 3
      vertex -14 1.85 3
    endloop
  endfacet
  facet normal 0 0 1
    outer loop
      vertex -12.2908 0.707964 3
      vertex -13 7 3
      vertex -12.6919 1.30815 3
    endloop
  endfacet
  facet normal 0 0 1
    outer loop
      vertex -10 -7 3
      vertex -13 7 3
      vertex -12.2908 0.707964 3
    endloop
  endfacet
  facet normal 0 0 1
    outer loop
      vertex -10 -7 3
      vertex -12.2908 0.707964 3
      vertex -12.15 0 3
    endloop
  endfacet
  facet normal 0 0 1
    outer loop
      vertex -10 -7 3
      vertex -12.2908 -0.707964 3
      vertex -13 -7 3
    endloop
  endfacet
  facet normal 0 0 1
    outer loop
      vertex -12.2908 -0.707964 3
      vertex -12.6919 -1.30815 3
      vertex -13 -7 3
    endloop
  endfacet
  facet normal 0 0 1
    outer loop
      vertex -14 -1.85 3
      vertex -14.708 -1.70918 3
      vertex -13 -7 3
    endloop
  endfacet
  facet normal 0 0 1
    outer loop
      vertex -13 -7 3
      vertex -15.3081 -1.30815 3
      vertex -15.7092 -0.707964 3
    endloop
  endfacet
  facet normal 0 0 1
    outer loop
      vertex -13 -7 3
      vertex -14.708 -1.70918 3
      vertex -15.3081 -1.30815 3
    endloop
  endfacet
  facet normal 0 0 1
    outer loop
      vertex -10.0776 -2.15 3
      vertex -10.0776 1.75 3
      vertex -13 7 3
    endloop
  endfacet
  facet normal 0 0 1
    outer loop
      vertex -13.292 1.70918 3
      vertex -12.6919 1.30815 3
      vertex -13 7 3
    endloop
  endfacet
  facet normal 0 0 1
    outer loop
      vertex -12.6919 -1.30815 3
      vertex -13.292 -1.70918 3
      vertex -13 -7 3
    endloop
  endfacet
  facet normal -1 4.93038e-32 2.22045e-16
    outer loop
      vertex -10 -8.25 7.21645e-15
      vertex -10 -14.25 6.05912
      vertex -10 -7 6.93889e-15
    endloop
  endfacet
  facet normal -1 4.93038e-32 2.22045e-16
    outer loop
      vertex -10 -7 6.93889e-15
      vertex -10 -14.25 6.05912
      vertex -10 -14.25 14
    endloop
  endfacet
  facet normal -1 4.93038e-32 2.22045e-16
    outer loop
      vertex -10 1.75 7.38849
      vertex -10 -14.25 14
      vertex -10 14.25 14
    endloop
  endfacet
  facet normal -1 4.93038e-32 2.22045e-16
    outer loop
      vertex -10 1.75 3
      vertex -10 14.25 14
      vertex -10 14.25 6.05912
    endloop
  endfacet
  facet normal -1 4.93038e-32 2.22045e-16
    outer loop
      vertex -10 7 3.83027e-15
      vertex -10 14.25 6.05912
      vertex -10 8.25 3.55271e-15
    endloop
  endfacet
  facet normal -1 4.93038e-32 2.22045e-16
    outer loop
      vertex -10 7 3
      vertex -10 14.25 6.05912
      vertex -10 7 3.83027e-15
    endloop
  endfacet
  facet normal -1 4.93038e-32 2.22045e-16
    outer loop
      vertex -10 -7 3
      vertex -10 -2.1194 3.35108
      vertex -10 -2.15 3.23217
    endloop
  endfacet
  facet normal -1 4.93038e-32 2.22045e-16
    outer loop
      vertex -10 1.75 7.38849
      vertex -10 14.25 14
      vertex -10 1.75 3
    endloop
  endfacet
  facet normal -1 4.93038e-32 2.22045e-16
    outer loop
      vertex -10 -1.25 7.38849
      vertex -10 -14.25 14
      vertex -10 1.75 7.38849
    endloop
  endfacet
  facet normal -1 4.93038e-32 2.22045e-16
    outer loop
      vertex -10 -7 3
      vertex -10 -14.25 14
      vertex -10 -1.25 7.38849
    endloop
  endfacet
  facet normal -1 4.93038e-32 2.22045e-16
    outer loop
      vertex -10 -7 3
      vertex -10 -1.4705 6.26529
      vertex -10 -1.57612 5.72728
    endloop
  endfacet
  facet normal -1 4.93038e-32 2.22045e-16
    outer loop
      vertex -10 -7 3
      vertex -10 -1.25 7.38849
      vertex -10 -1.4705 6.26529
    endloop
  endfacet
  facet normal -1 4.93038e-32 2.22045e-16
    outer loop
      vertex -10 -7 3
      vertex -10 -1.57612 5.72728
      vertex -10 -1.78406 4.81779
    endloop
  endfacet
  facet normal -1 4.93038e-32 2.22045e-16
    outer loop
      vertex -10 -7 3
      vertex -10 -1.78406 4.81779
      vertex -10 -2.1194 3.35108
    endloop
  endfacet
  facet normal -1 4.93038e-32 2.22045e-16
    outer loop
      vertex -10 -7 6.93889e-15
      vertex -10 -14.25 14
      vertex -10 -7 3
    endloop
  endfacet
  facet normal -1 4.93038e-32 2.22045e-16
    outer loop
      vertex -10 1.75 3
      vertex -10 14.25 6.05912
      vertex -10 7 3
    endloop
  endfacet
  facet normal -1 4.93038e-32 2.22045e-16
    outer loop
      vertex -10 -7 3
      vertex -10 -2.15 3.23217
      vertex -10 -2.15 3
    endloop
  endfacet
  facet normal -2.22045e-16 -2.22045e-16 -1
    outer loop
      vertex -10 -8.25 7.21645e-15
      vertex -10 -7 6.93889e-15
      vertex -4 -14.25 7.21645e-15
    endloop
  endfacet
  facet normal -2.22045e-16 -2.22045e-16 -1
    outer loop
      vertex -4 -14.25 7.21645e-15
      vertex -10 -7 6.93889e-15
      vertex 10 -7 2.498e-15
    endloop
  endfacet
  facet normal -2.22045e-16 -2.22045e-16 -1
    outer loop
      vertex -4 -14.25 7.21645e-15
      vertex 10 -7 2.498e-15
      vertex 10 -8.25 2.77556e-15
    endloop
  endfacet
  facet normal -2.22045e-16 -2.22045e-16 -1
    outer loop
      vertex -4 -14.25 7.21645e-15
      vertex 10 -8.25 2.77556e-15
      vertex 4 -14.25 5.44009e-15
    endloop
  endfacet
  facet normal 0 0 1
    outer loop
      vertex 10 -2.15 3
      vertex 10 -7 3
      vertex 13 -7 3
    endloop
  endfacet
  facet normal 0 0 1
    outer loop
      vertex 13 -7 3
      vertex 19.0622 -3.5 3
      vertex 10 -2.15 3
    endloop
  endfacet
  facet normal 0 0 1
    outer loop
      vertex 12.6919 -1.30815 3
      vertex 12.2908 -0.707964 3
      vertex 10.0776 -2.15 3
    endloop
  endfacet
  facet normal 0 0 1
    outer loop
      vertex 13 7 3
      vertex 10 7 3
      vertex 10 1.75 3
    endloop
  endfacet
  facet normal 0 0 1
    outer loop
      vertex 13 7 3
      vertex 10 1.75 3
      vertex 10.0776 1.75 3
    endloop
  endfacet
  facet normal 0 0 1
    outer loop
      vertex 19.0622 -3.5 3
      vertex 10.0776 -2.15 3
      vertex 10 -2.15 3
    endloop
  endfacet
  facet normal 0 0 1
    outer loop
      vertex 12.2908 0.707964 3
      vertex 12.6919 1.30815 3
      vertex 13 7 3
    endloop
  endfacet
  facet normal 0 0 1
    outer loop
      vertex 12.2908 0.707964 3
      vertex 13 7 3
      vertex 12.15 0 3
    endloop
  endfacet
  facet normal 0 0 1
    outer loop
      vertex 14 1.85 3
      vertex 14.708 1.70918 3
      vertex 19.0622 3.5 3
    endloop
  endfacet
  facet normal 0 0 1
    outer loop
      vertex 13.292 1.70918 3
      vertex 13 7 3
      vertex 12.6919 1.30815 3
    endloop
  endfacet
  facet normal 0 0 1
    outer loop
      vertex 19.0622 3.5 3
      vertex 13 7 3
      vertex 13.292 1.70918 3
    endloop
  endfacet
  facet normal 0 0 1
    outer loop
      vertex 15.3081 1.30815 3
      vertex 15.7092 0.707964 3
      vertex 19.0622 3.5 3
    endloop
  endfacet
  facet normal 0 0 1
    outer loop
      vertex 19.0622 3.5 3
      vertex 13.292 1.70918 3
      vertex 14 1.85 3
    endloop
  endfacet
  facet normal 0 0 1
    outer loop
      vertex 14 -1.85 3
      vertex 13.292 -1.70918 3
      vertex 10.0776 -2.15 3
    endloop
  endfacet
  facet normal 0 0 1
    outer loop
      vertex 19.0622 3.5 3
      vertex 14.708 1.70918 3
      vertex 15.3081 1.30815 3
    endloop
  endfacet
  facet normal 0 0 1
    outer loop
      vertex 13.292 -1.70918 3
      vertex 12.6919 -1.30815 3
      vertex 10.0776 -2.15 3
    endloop
  endfacet
  facet normal 0 0 1
    outer loop
      vertex 19.0622 -3.5 3
      vertex 19.0622 3.5 3
      vertex 15.7092 0.707964 3
    endloop
  endfacet
  facet normal 0 0 1
    outer loop
      vertex 19.0622 -3.5 3
      vertex 15.7092 0.707964 3
      vertex 15.85 0 3
    endloop
  endfacet
  facet normal 0 0 1
    outer loop
      vertex 19.0622 -3.5 3
      vertex 15.85 0 3
      vertex 15.7092 -0.707964 3
    endloop
  endfacet
  facet normal 0 0 1
    outer loop
      vertex 19.0622 -3.5 3
      vertex 15.7092 -0.707964 3
      vertex 15.3081 -1.30815 3
    endloop
  endfacet
  facet normal 0 0 1
    outer loop
      vertex 19.0622 -3.5 3
      vertex 15.3081 -1.30815 3
      vertex 14.708 -1.70918 3
    endloop
  endfacet
  facet normal 0 0 1
    outer loop
      vertex 19.0622 -3.5 3
      vertex 14 -1.85 3
      vertex 10.0776 -2.15 3
    endloop
  endfacet
  facet normal 0 0 1
    outer loop
      vertex 19.0622 -3.5 3
      vertex 14.708 -1.70918 3
      vertex 14 -1.85 3
    endloop
  endfacet
  facet normal 0 0 1
    outer loop
      vertex 10.0776 1.75 3
      vertex 12.15 0 3
      vertex 13 7 3
    endloop
  endfacet
  facet normal 0 0 1
    outer loop
      vertex 10.0776 1.75 3
      vertex 12.2908 -0.707964 3
      vertex 12.15 0 3
    endloop
  endfacet
  facet normal 0 0 1
    outer loop
      vertex 10.0776 1.75 3
      vertex 10.0776 -2.15 3
      vertex 12.2908 -0.707964 3
    endloop
  endfacet
  facet normal 0.579228 -0.579228 -0.573576
    outer loop
      vertex 10 -8.25 2.77556e-15
      vertex 10 -14.25 6.05912
      vertex 4 -14.25 5.44009e-15
    endloop
  endfacet
  facet normal 0 -1 2.22045e-16
    outer loop
      vertex -10 -14.25 14
      vertex -10 -14.25 6.05912
      vertex -4 -14.25 7.21645e-15
    endloop
  endfacet
  facet normal 0 -1 2.22045e-16
    outer loop
      vertex -6.08706 -14.25 8.96435
      vertex -10 -14.25 14
      vertex -4 -14.25 7.21645e-15
    endloop
  endfacet
  facet normal 0 -1 2.22045e-16
    outer loop
      vertex 10 -14.25 14
      vertex 7.88441 -14.25 14
      vertex 10 -14.25 6.05912
    endloop
  endfacet
  facet normal 0 -1 2.22045e-16
    outer loop
      vertex 7.88441 -14.25 14
      vertex 7.88441 -14.25 13.504
      vertex 10 -14.25 6.05912
    endloop
  endfacet
  facet normal 0 -1 2.22045e-16
    outer loop
      vertex 7.88441 -14.25 13.504
      vertex 7.76007 -14.25 12.5197
      vertex 10 -14.25 6.05912
    endloop
  endfacet
  facet normal 0 -1 2.22045e-16
    outer loop
      vertex 7.76007 -14.25 12.5197
      vertex 7.51335 -14.25 11.5588
      vertex 10 -14.25 6.05912
    endloop
  endfacet
  facet normal 0 -1 2.22045e-16
    outer loop
      vertex 7.51335 -14.25 11.5588
      vertex 7.14813 -14.25 10.6363
      vertex 10 -14.25 6.05912
    endloop
  endfacet
  facet normal 0 -1 2.22045e-16
    outer loop
      vertex 7.14813 -14.25 10.6363
      vertex 6.67019 -14.25 9.76697
      vertex 10 -14.25 6.05912
    endloop
  endfacet
  facet normal 0 -1 2.22045e-16
    outer loop
      vertex 6.67019 -14.25 9.76697
      vertex 6.08705 -14.25 8.96435
      vertex 10 -14.25 6.05912
    endloop
  endfacet
  facet normal 0 -1 2.22045e-16
    outer loop
      vertex 6.08705 -14.25 8.96435
      vertex 5.651 -14.25 8.5
      vertex 10 -14.25 6.05912
    endloop
  endfacet
  facet normal 0 -1 2.22045e-16
    outer loop
      vertex 4 -14.25 5.44009e-15
      vertex -5.651 -14.25 8.5
      vertex -4 -14.25 7.21645e-15
    endloop
  endfacet
  facet normal 0 -1 2.22045e-16
    outer loop
      vertex -5.651 -14.25 8.5
      vertex -6.08706 -14.25 8.96435
      vertex -4 -14.25 7.21645e-15
    endloop
  endfacet
  facet normal 0 -1 2.22045e-16
    outer loop
      vertex -6.67019 -14.25 9.76697
      vertex -10 -14.25 14
      vertex -6.08706 -14.25 8.96435
    endloop
  endfacet
  facet normal 0 -1 2.22045e-16
    outer loop
      vertex -6.67019 -14.25 9.76697
      vertex -7.14813 -14.25 10.6363
      vertex -10 -14.25 14
    endloop
  endfacet
  facet normal 0 -1 2.22045e-16
    outer loop
      vertex -7.76007 -14.25 12.5197
      vertex -7.88441 -14.25 13.504
      vertex -10 -14.25 14
    endloop
  endfacet
  facet normal 0 -1 2.22045e-16
    outer loop
      vertex -7.76007 -14.25 12.5197
      vertex -10 -14.25 14
      vertex -7.51335 -14.25 11.5588
    endloop
  endfacet
  facet normal 0 -1 2.22045e-16
    outer loop
      vertex -7.88441 -14.25 13.504
      vertex -7.88441 -14.25 14
      vertex -10 -14.25 14
    endloop
  endfacet
  facet normal 0 -1 2.22045e-16
    outer loop
      vertex -7.14813 -14.25 10.6363
      vertex -7.51335 -14.25 11.5588
      vertex -10 -14.25 14
    endloop
  endfacet
  facet normal 0 -1 2.22045e-16
    outer loop
      vertex 5.651 -14.25 8.5
      vertex 4 -14.25 5.44009e-15
      vertex 10 -14.25 6.05912
    endloop
  endfacet
  facet normal 0 -1 2.22045e-16
    outer loop
      vertex 5.651 -14.25 8.5
      vertex -5.651 -14.25 8.5
      vertex 4 -14.25 5.44009e-15
    endloop
  endfacet
  facet normal 2.22045e-16 2.22045e-16 1
    outer loop
      vertex 7.88441 14.25 14
      vertex 7.88441 -14.25 14
      vertex 10 -14.25 14
    endloop
  endfacet
  facet normal 2.22045e-16 2.22045e-16 1
    outer loop
      vertex 10 14.25 14
      vertex 7.88441 14.25 14
      vertex 10 -14.25 14
    endloop
  endfacet
  facet normal 0 1 -2.22045e-16
    outer loop
      vertex -10 14.25 6.05912
      vertex -10 14.25 14
      vertex -4 14.25 8.88178e-16
    endloop
  endfacet
  facet normal 0 1 -2.22045e-16
    outer loop
      vertex -7.88441 14.25 13.504
      vertex -10 14.25 14
      vertex -7.88441 14.25 14
    endloop
  endfacet
  facet normal 0 1 -2.22045e-16
    outer loop
      vertex -7.76007 14.25 12.5197
      vertex -10 14.25 14
      vertex -7.88441 14.25 13.504
    endloop
  endfacet
  facet normal 0 1 -2.22045e-16
    outer loop
      vertex -7.51335 14.25 11.5588
      vertex -10 14.25 14
      vertex -7.76007 14.25 12.5197
    endloop
  endfacet
  facet normal 0 1 -2.22045e-16
    outer loop
      vertex -4 14.25 8.88178e-16
      vertex -10 14.25 14
      vertex -7.51335 14.25 11.5588
    endloop
  endfacet
  facet normal 0 1 -2.22045e-16
    outer loop
      vertex -6.67019 14.25 9.76697
      vertex -4 14.25 8.88178e-16
      vertex -7.14813 14.25 10.6363
    endloop
  endfacet
  facet normal 0 1 -2.22045e-16
    outer loop
      vertex -4 14.25 8.88178e-16
      vertex -6.67019 14.25 9.76697
      vertex -6.08706 14.25 8.96435
    endloop
  endfacet
  facet normal 0 1 -2.22045e-16
    outer loop
      vertex -6.08706 14.25 8.96435
      vertex -5.651 14.25 8.5
      vertex -4 14.25 8.88178e-16
    endloop
  endfacet
  facet normal 0 1 -2.22045e-16
    outer loop
      vertex -5.651 14.25 8.5
      vertex 5.651 14.25 8.5
      vertex -4 14.25 8.88178e-16
    endloop
  endfacet
  facet normal 0 1 -2.22045e-16
    outer loop
      vertex 5.651 14.25 8.5
      vertex 10 14.25 6.05912
      vertex -4 14.25 8.88178e-16
    endloop
  endfacet
  facet normal 0 1 -2.22045e-16
    outer loop
      vertex 6.67019 14.25 9.76697
      vertex 10 14.25 14
      vertex 6.08705 14.25 8.96435
    endloop
  endfacet
  facet normal 0 1 -2.22045e-16
    outer loop
      vertex 7.14813 14.25 10.6363
      vertex 10 14.25 14
      vertex 6.67019 14.25 9.76697
    endloop
  endfacet
  facet normal 0 1 -2.22045e-16
    outer loop
      vertex 7.51335 14.25 11.5588
      vertex 10 14.25 14
      vertex 7.14813 14.25 10.6363
    endloop
  endfacet
  facet normal 0 1 -2.22045e-16
    outer loop
      vertex 7.76007 14.25 12.5197
      vertex 10 14.25 14
      vertex 7.51335 14.25 11.5588
    endloop
  endfacet
  facet normal 0 1 -2.22045e-16
    outer loop
      vertex 7.88441 14.25 13.504
      vertex 7.88441 14.25 14
      vertex 10 14.25 14
    endloop
  endfacet
  facet normal 0 1 -2.22045e-16
    outer loop
      vertex 7.88441 14.25 13.504
      vertex 10 14.25 14
      vertex 7.76007 14.25 12.5197
    endloop
  endfacet
  facet normal 0 1 -2.22045e-16
    outer loop
      vertex 6.08705 14.25 8.96435
      vertex 10 14.25 14
      vertex 10 14.25 6.05912
    endloop
  endfacet
  facet normal 0 1 -2.22045e-16
    outer loop
      vertex 6.08705 14.25 8.96435
      vertex 10 14.25 6.05912
      vertex 5.651 14.25 8.5
    endloop
  endfacet
  facet normal 0 1 -2.22045e-16
    outer loop
      vertex -4 14.25 8.88178e-16
      vertex 10 14.25 6.05912
      vertex 4 14.25 -8.88178e-16
    endloop
  endfacet
  facet normal 0 1 -2.22045e-16
    outer loop
      vertex -7.14813 14.25 10.6363
      vertex -4 14.25 8.88178e-16
      vertex -7.51335 14.25 11.5588
    endloop
  endfacet
  facet normal 0.579228 0.579228 -0.573576
    outer loop
      vertex 10 8.25 -8.88178e-16
      vertex 4 14.25 -8.88178e-16
      vertex 10 14.25 6.05912
    endloop
  endfacet
  facet normal 0.809017 -1.30515e-16 -0.587785
    outer loop
      vertex 10 -1.25 7.38849
      vertex 9.24616 -1.25 6.35091
      vertex 9.24616 1.75 6.35091
    endloop
  endfacet
  facet normal 0.809017 -1.30515e-16 -0.587785
    outer loop
      vertex 10 1.75 7.38849
      vertex 10 -1.25 7.38849
      vertex 9.24616 1.75 6.35091
    endloop
  endfacet
  facet normal 0.256289 0.948496 -0.186205
    outer loop
      vertex 10 -1.57612 5.72728
      vertex 9.24616 -1.25 6.35091
      vertex 10 -1.25 7.38849
    endloop
  endfacet
  facet normal 0.23093 0.948496 -0.216858
    outer loop
      vertex 10 -1.98758 3.92764
      vertex 9.24616 -1.25 6.35091
      vertex 10 -1.57612 5.72728
    endloop
  endfacet
  facet normal 0.23093 0.948496 -0.216858
    outer loop
      vertex 8.21456 -1.25 5.25238
      vertex 9.24616 -1.25 6.35091
      vertex 10 -2.1194 3.35108
    endloop
  endfacet
  facet normal 0.23093 0.948496 -0.216858
    outer loop
      vertex 10 -2.1194 3.35108
      vertex 9.24616 -1.25 6.35091
      vertex 10 -1.98758 3.92764
    endloop
  endfacet
  facet normal 0.20193 0.948496 -0.244091
    outer loop
      vertex 8.21456 -1.25 5.25238
      vertex 10 -2.1194 3.35108
      vertex 8.75656 -2.15 2.20351
    endloop
  endfacet
  facet normal 0.20193 0.948496 -0.244091
    outer loop
      vertex 8.75656 -2.15 2.20351
      vertex 10 -2.1194 3.35108
      vertex 10 -2.15 3.23217
    endloop
  endfacet
  facet normal -0.579228 0.579228 -0.573576
    outer loop
      vertex -4 14.25 8.88178e-16
      vertex -10 8.25 3.55271e-15
      vertex -10 14.25 6.05912
    endloop
  endfacet
  facet normal 0.5 1.92296e-16 0.866025
    outer loop
      vertex -6.10105 -2.15 0.296818
      vertex -6.10105 1.75 0.296818
      vertex -8.81678 1.75 1.86475
    endloop
  endfacet
  facet normal 0.5 1.92296e-16 0.866025
    outer loop
      vertex -8.81678 -2.15 1.86475
      vertex -6.10105 -2.15 0.296818
      vertex -8.81678 1.75 1.86475
    endloop
  endfacet
  facet normal 0.669131 1.65011e-16 0.743145
    outer loop
      vertex -10.0776 -2.15 3
      vertex -8.81678 -2.15 1.86475
      vertex -8.81678 1.75 1.86475
    endloop
  endfacet
  facet normal 0.669131 1.65011e-16 0.743145
    outer loop
      vertex -10.0776 1.75 3
      vertex -10.0776 -2.15 3
      vertex -8.81678 1.75 1.86475
    endloop
  endfacet
  facet normal -0.809017 -1.30515e-16 -0.587785
    outer loop
      vertex -10 -1.25 7.38849
      vertex -10 1.75 7.38849
      vertex -9.24616 -1.25 6.35091
    endloop
  endfacet
  facet normal -0.809017 -1.30515e-16 -0.587785
    outer loop
      vertex -9.24616 -1.25 6.35091
      vertex -10 1.75 7.38849
      vertex -9.24616 1.75 6.35091
    endloop
  endfacet
  facet normal -0.728969 -1.52e-16 -0.684547
    outer loop
      vertex -9.24616 -1.25 6.35091
      vertex -9.24616 1.75 6.35091
      vertex -8.21457 -1.25 5.25238
    endloop
  endfacet
  facet normal -0.728969 -1.52e-16 -0.684547
    outer loop
      vertex -8.21457 -1.25 5.25238
      vertex -9.24616 1.75 6.35091
      vertex -8.21457 1.75 5.25238
    endloop
  endfacet
  facet normal -0.637424 -1.71088e-16 -0.770513
    outer loop
      vertex -8.21457 -1.25 5.25238
      vertex -8.21457 1.75 5.25238
      vertex -7.05342 -1.25 4.2918
    endloop
  endfacet
  facet normal -0.637424 -1.71088e-16 -0.770513
    outer loop
      vertex -7.05342 -1.25 4.2918
      vertex -8.21457 1.75 5.25238
      vertex -7.05342 1.75 4.2918
    endloop
  endfacet
  facet normal -0.535827 -1.87478e-16 -0.844328
    outer loop
      vertex -7.05342 -1.25 4.2918
      vertex -7.05342 1.75 4.2918
      vertex -5.78104 -1.25 3.48432
    endloop
  endfacet
  facet normal -0.535827 -1.87478e-16 -0.844328
    outer loop
      vertex -5.78104 -1.25 3.48432
      vertex -7.05342 1.75 4.2918
      vertex -5.78104 1.75 3.48432
    endloop
  endfacet
  facet normal -0.42578 -2.00912e-16 -0.904827
    outer loop
      vertex -5.78104 -1.25 3.48432
      vertex -5.78104 1.75 3.48432
      vertex -4.4175 -1.25 2.84268
    endloop
  endfacet
  facet normal -0.42578 -2.00912e-16 -0.904827
    outer loop
      vertex -4.4175 -1.25 2.84268
      vertex -5.78104 1.75 3.48432
      vertex -4.4175 1.75 2.84268
    endloop
  endfacet
  facet normal -0.309017 -2.11177e-16 -0.951057
    outer loop
      vertex -4.4175 -1.25 2.84268
      vertex -4.4175 1.75 2.84268
      vertex -2.98428 -1.25 2.377
    endloop
  endfacet
  facet normal -0.309017 -2.11177e-16 -0.951057
    outer loop
      vertex -2.98428 -1.25 2.377
      vertex -4.4175 1.75 2.84268
      vertex -2.98428 1.75 2.377
    endloop
  endfacet
  facet normal -0.187381 -2.18112e-16 -0.982287
    outer loop
      vertex -2.98428 -1.25 2.377
      vertex -2.98428 1.75 2.377
      vertex -1.504 -1.25 2.09462
    endloop
  endfacet
  facet normal -0.187381 -2.18112e-16 -0.982287
    outer loop
      vertex -1.504 -1.25 2.09462
      vertex -2.98428 1.75 2.377
      vertex -1.504 1.75 2.09462
    endloop
  endfacet
  facet normal -0.0627908 -2.21606e-16 -0.998027
    outer loop
      vertex -1.504 -1.25 2.09462
      vertex -1.504 1.75 2.09462
      vertex -2.66454e-15 -1.25 2
    endloop
  endfacet
  facet normal -0.0627908 -2.21606e-16 -0.998027
    outer loop
      vertex -2.66454e-15 -1.25 2
      vertex -1.504 1.75 2.09462
      vertex -2.66454e-15 1.75 2
    endloop
  endfacet
  facet normal 0.0627908 -2.21606e-16 -0.998027
    outer loop
      vertex -2.66454e-15 -1.25 2
      vertex -2.66454e-15 1.75 2
      vertex 1.504 -1.25 2.09462
    endloop
  endfacet
  facet normal 0.0627908 -2.21606e-16 -0.998027
    outer loop
      vertex 1.504 -1.25 2.09462
      vertex -2.66454e-15 1.75 2
      vertex 1.504 1.75 2.09462
    endloop
  endfacet
  facet normal 0.187381 -2.18112e-16 -0.982287
    outer loop
      vertex 1.504 -1.25 2.09462
      vertex 1.504 1.75 2.09462
      vertex 2.98428 -1.25 2.377
    endloop
  endfacet
  facet normal 0.187381 -2.18112e-16 -0.982287
    outer loop
      vertex 2.98428 -1.25 2.377
      vertex 1.504 1.75 2.09462
      vertex 2.98428 1.75 2.377
    endloop
  endfacet
  facet normal 0.309017 -2.11177e-16 -0.951057
    outer loop
      vertex 2.98428 -1.25 2.377
      vertex 2.98428 1.75 2.377
      vertex 4.41749 -1.25 2.84268
    endloop
  endfacet
  facet normal 0.309017 -2.11177e-16 -0.951057
    outer loop
      vertex 4.41749 -1.25 2.84268
      vertex 2.98428 1.75 2.377
      vertex 4.41749 1.75 2.84268
    endloop
  endfacet
  facet normal 0.42578 -2.00912e-16 -0.904827
    outer loop
      vertex 4.41749 -1.25 2.84268
      vertex 4.41749 1.75 2.84268
      vertex 5.78104 -1.25 3.48432
    endloop
  endfacet
  facet normal 0.42578 -2.00912e-16 -0.904827
    outer loop
      vertex 5.78104 -1.25 3.48432
      vertex 4.41749 1.75 2.84268
      vertex 5.78104 1.75 3.48432
    endloop
  endfacet
  facet normal 0.535827 -1.87478e-16 -0.844328
    outer loop
      vertex 5.78104 -1.25 3.48432
      vertex 5.78104 1.75 3.48432
      vertex 7.05342 -1.25 4.2918
    endloop
  endfacet
  facet normal 0.535827 -1.87478e-16 -0.844328
    outer loop
      vertex 7.05342 -1.25 4.2918
      vertex 5.78104 1.75 3.48432
      vertex 7.05342 1.75 4.2918
    endloop
  endfacet
  facet normal 0.637424 -1.71088e-16 -0.770513
    outer loop
      vertex 7.05342 -1.25 4.2918
      vertex 7.05342 1.75 4.2918
      vertex 8.21456 -1.25 5.25238
    endloop
  endfacet
  facet normal 0.637424 -1.71088e-16 -0.770513
    outer loop
      vertex 8.21456 -1.25 5.25238
      vertex 7.05342 1.75 4.2918
      vertex 8.21456 1.75 5.25238
    endloop
  endfacet
  facet normal 0.728969 -1.52e-16 -0.684547
    outer loop
      vertex 9.24616 -1.25 6.35091
      vertex 8.21456 -1.25 5.25238
      vertex 8.21456 1.75 5.25238
    endloop
  endfacet
  facet normal 0.728969 -1.52e-16 -0.684547
    outer loop
      vertex 9.24616 1.75 6.35091
      vertex 9.24616 -1.25 6.35091
      vertex 8.21456 1.75 5.25238
    endloop
  endfacet
  facet normal -0.669131 1.65011e-16 0.743145
    outer loop
      vertex 10.0776 -2.15 3
      vertex 10.0776 1.75 3
      vertex 8.81678 1.75 1.86475
    endloop
  endfacet
  facet normal -0.669131 1.65011e-16 0.743145
    outer loop
      vertex 8.81678 -2.15 1.86475
      vertex 10.0776 -2.15 3
      vertex 8.81678 1.75 1.86475
    endloop
  endfacet
  facet normal -0.5 1.92296e-16 0.866025
    outer loop
      vertex 8.81678 -2.15 1.86475
      vertex 8.81678 1.75 1.86475
      vertex 6.10105 1.75 0.296818
    endloop
  endfacet
  facet normal -0.5 1.92296e-16 0.866025
    outer loop
      vertex 6.10105 -2.15 0.296818
      vertex 8.81678 -2.15 1.86475
      vertex 6.10105 1.75 0.296818
    endloop
  endfacet
  facet normal 0.134883 0.948496 -0.28664
    outer loop
      vertex 4.41749 -1.25 2.84268
      vertex 5.78104 -1.25 3.48432
      vertex 5.41143 -2.15 0.332286
    endloop
  endfacet
  facet normal 0.134883 0.948496 -0.28664
    outer loop
      vertex 5.41143 -2.15 0.332286
      vertex 5.78104 -1.25 3.48432
      vertex 5.54779 -2.15 0.39645
    endloop
  endfacet
  facet normal 0.20193 0.948496 -0.244091
    outer loop
      vertex 7.05342 -1.25 4.2918
      vertex 8.21456 -1.25 5.25238
      vertex 8.64044 -2.15 2.10745
    endloop
  endfacet
  facet normal 0.20193 0.948496 -0.244091
    outer loop
      vertex 8.64044 -2.15 2.10745
      vertex 8.21456 -1.25 5.25238
      vertex 8.75656 -2.15 2.20351
    endloop
  endfacet
  facet normal 0.169745 0.948496 -0.267475
    outer loop
      vertex 7.20902 -2.15 1.19904
      vertex 7.05342 -1.25 4.2918
      vertex 8.64044 -2.15 2.10745
    endloop
  endfacet
  facet normal 0.169745 0.948496 -0.267475
    outer loop
      vertex 5.78104 -1.25 3.48432
      vertex 7.05342 -1.25 4.2918
      vertex 7.08178 -2.15 1.11829
    endloop
  endfacet
  facet normal 0.169745 0.948496 -0.267475
    outer loop
      vertex 7.08178 -2.15 1.11829
      vertex 7.05342 -1.25 4.2918
      vertex 7.20902 -2.15 1.19904
    endloop
  endfacet
  facet normal 0.134883 0.948496 -0.28664
    outer loop
      vertex 7.08178 -2.15 1.11829
      vertex 5.54779 -2.15 0.39645
      vertex 5.78104 -1.25 3.48432
    endloop
  endfacet
  facet normal -0.0978936 0.948496 -0.301286
    outer loop
      vertex -5.41143 -2.15 0.332286
      vertex -4.4175 -1.25 2.84268
      vertex -5.26811 -2.15 0.285718
    endloop
  endfacet
  facet normal -0.0978936 0.948496 -0.301286
    outer loop
      vertex -5.26811 -2.15 0.285718
      vertex -4.4175 -1.25 2.84268
      vertex -2.98428 -1.25 2.377
    endloop
  endfacet
  facet normal -0.134883 0.948496 -0.286641
    outer loop
      vertex -5.41143 -2.15 0.332286
      vertex -6.94542 -2.15 1.05413
      vertex -4.4175 -1.25 2.84268
    endloop
  endfacet
  facet normal -0.134883 0.948496 -0.28664
    outer loop
      vertex -7.08178 -2.15 1.11829
      vertex -5.78104 -1.25 3.48432
      vertex -6.94542 -2.15 1.05413
    endloop
  endfacet
  facet normal -0.134883 0.948496 -0.28664
    outer loop
      vertex -6.94542 -2.15 1.05413
      vertex -5.78104 -1.25 3.48432
      vertex -4.4175 -1.25 2.84268
    endloop
  endfacet
  facet normal -0.169745 0.948496 -0.267475
    outer loop
      vertex -7.08178 -2.15 1.11829
      vertex -8.51321 -2.15 2.0267
      vertex -5.78104 -1.25 3.48432
    endloop
  endfacet
  facet normal -0.169745 0.948496 -0.267475
    outer loop
      vertex -8.64044 -2.15 2.10745
      vertex -7.05342 -1.25 4.2918
      vertex -8.51321 -2.15 2.0267
    endloop
  endfacet
  facet normal -0.169745 0.948496 -0.267475
    outer loop
      vertex -8.51321 -2.15 2.0267
      vertex -7.05342 -1.25 4.2918
      vertex -5.78104 -1.25 3.48432
    endloop
  endfacet
  facet normal -0.20193 0.948496 -0.244091
    outer loop
      vertex -8.64044 -2.15 2.10745
      vertex -9.94673 -2.15 3.1881
      vertex -7.05342 -1.25 4.2918
    endloop
  endfacet
  facet normal -0.20193 0.948496 -0.244091
    outer loop
      vertex -10 -2.15 3.23217
      vertex -10 -2.1194 3.35108
      vertex -9.94673 -2.15 3.1881
    endloop
  endfacet
  facet normal -0.20193 0.948496 -0.244091
    outer loop
      vertex -9.94673 -2.15 3.1881
      vertex -10 -2.1194 3.35108
      vertex -8.21457 -1.25 5.25238
    endloop
  endfacet
  facet normal -0.20193 0.948496 -0.244091
    outer loop
      vertex -9.94673 -2.15 3.1881
      vertex -8.21457 -1.25 5.25238
      vertex -7.05342 -1.25 4.2918
    endloop
  endfacet
  facet normal -0.23093 0.948496 -0.216858
    outer loop
      vertex -8.21457 -1.25 5.25238
      vertex -10 -2.1194 3.35108
      vertex -10 -1.78406 4.81779
    endloop
  endfacet
  facet normal -0.23093 0.948496 -0.216858
    outer loop
      vertex -10 -1.78406 4.81779
      vertex -10 -1.57612 5.72728
      vertex -8.21457 -1.25 5.25238
    endloop
  endfacet
  facet normal -0.23093 0.948496 -0.216858
    outer loop
      vertex -8.21457 -1.25 5.25238
      vertex -10 -1.57612 5.72728
      vertex -9.24616 -1.25 6.35091
    endloop
  endfacet
  facet normal -0.256289 0.948496 -0.186205
    outer loop
      vertex -9.24616 -1.25 6.35091
      vertex -10 -1.57612 5.72728
      vertex -10 -1.4705 6.26529
    endloop
  endfacet
  facet normal -0.256289 0.948496 -0.186205
    outer loop
      vertex -9.24616 -1.25 6.35091
      vertex -10 -1.4705 6.26529
      vertex -10 -1.25 7.38849
    endloop
  endfacet
  facet normal 2.22045e-16 2.22045e-16 1
    outer loop
      vertex -10 14.25 14
      vertex -10 -14.25 14
      vertex -7.88441 -14.25 14
    endloop
  endfacet
  facet normal 2.22045e-16 2.22045e-16 1
    outer loop
      vertex -7.88441 14.25 14
      vertex -10 14.25 14
      vertex -7.88441 -14.25 14
    endloop
  endfacet
  facet normal -0.579228 -0.579228 -0.573576
    outer loop
      vertex -4 -14.25 7.21645e-15
      vertex -10 -14.25 6.05912
      vertex -10 -8.25 7.21645e-15
    endloop
  endfacet
  facet normal 1 -4.93038e-32 -2.22045e-16
    outer loop
      vertex -7.88441 14.25 13.504
      vertex -7.88441 14.25 14
      vertex -7.88441 -14.25 14
    endloop
  endfacet
  facet normal 1 -4.93038e-32 -2.22045e-16
    outer loop
      vertex -7.88441 -14.25 13.504
      vertex -7.88441 14.25 13.504
      vertex -7.88441 -14.25 14
    endloop
  endfacet
  facet normal 0.992115 2.78296e-17 0.125333
    outer loop
      vertex -7.76007 -14.25 12.5197
      vertex -7.76007 14.25 12.5197
      vertex -7.88441 14.25 13.504
    endloop
  endfacet
  facet normal 0.992115 2.78296e-17 0.125333
    outer loop
      vertex -7.88441 -14.25 13.504
      vertex -7.76007 -14.25 12.5197
      vertex -7.88441 14.25 13.504
    endloop
  endfacet
  facet normal 0.968583 5.52203e-17 0.24869
    outer loop
      vertex -7.51335 -14.25 11.5588
      vertex -7.51335 14.25 11.5588
      vertex -7.76007 14.25 12.5197
    endloop
  endfacet
  facet normal 0.968583 5.52203e-17 0.24869
    outer loop
      vertex -7.76007 -14.25 12.5197
      vertex -7.51335 -14.25 11.5588
      vertex -7.76007 14.25 12.5197
    endloop
  endfacet
  facet normal 0.929777 8.17399e-17 0.368124
    outer loop
      vertex -7.14813 -14.25 10.6363
      vertex -7.14813 14.25 10.6363
      vertex -7.51335 14.25 11.5588
    endloop
  endfacet
  facet normal 0.929777 8.17399e-17 0.368124
    outer loop
      vertex -7.51335 -14.25 11.5588
      vertex -7.14813 -14.25 10.6363
      vertex -7.51335 14.25 11.5588
    endloop
  endfacet
  facet normal 0.876307 1.06971e-16 0.481753
    outer loop
      vertex -6.67019 -14.25 9.76697
      vertex -6.67019 14.25 9.76697
      vertex -7.14813 14.25 10.6363
    endloop
  endfacet
  facet normal 0.876307 1.06971e-16 0.481753
    outer loop
      vertex -7.14813 -14.25 10.6363
      vertex -6.67019 -14.25 9.76697
      vertex -7.14813 14.25 10.6363
    endloop
  endfacet
  facet normal 0.809017 1.30515e-16 0.587785
    outer loop
      vertex -6.08706 -14.25 8.96435
      vertex -6.08706 14.25 8.96435
      vertex -6.67019 14.25 9.76697
    endloop
  endfacet
  facet normal 0.809017 1.30515e-16 0.587785
    outer loop
      vertex -6.67019 -14.25 9.76697
      vertex -6.08706 -14.25 8.96435
      vertex -6.67019 14.25 9.76697
    endloop
  endfacet
  facet normal 0.728968 1.52e-16 0.684548
    outer loop
      vertex -5.40792 12.75 8.24115
      vertex -5.651 -12.75 8.5
      vertex -5.40792 -12.75 8.24115
    endloop
  endfacet
  facet normal 0.728968 1.52e-16 0.684548
    outer loop
      vertex -5.651 12.75 8.5
      vertex -5.651 -12.75 8.5
      vertex -5.40792 12.75 8.24115
    endloop
  endfacet
  facet normal 0.728968 1.52e-16 0.684548
    outer loop
      vertex -5.651 -14.25 8.5
      vertex -5.651 -12.75 8.5
      vertex -6.08706 14.25 8.96435
    endloop
  endfacet
  facet normal 0.728968 1.52e-16 0.684548
    outer loop
      vertex -6.08706 14.25 8.96435
      vertex -5.651 -12.75 8.5
      vertex -5.651 12.75 8.5
    endloop
  endfacet
  facet normal 0.728968 1.52e-16 0.684548
    outer loop
      vertex -6.08706 14.25 8.96435
      vertex -5.651 12.75 8.5
      vertex -5.651 14.25 8.5
    endloop
  endfacet
  facet normal 0.728968 1.52e-16 0.684548
    outer loop
      vertex -6.08706 -14.25 8.96435
      vertex -5.651 -14.25 8.5
      vertex -6.08706 14.25 8.96435
    endloop
  endfacet
  facet normal 2.22045e-16 2.22045e-16 1
    outer loop
      vertex -5.651 -12.75 8.5
      vertex -5.651 -14.25 8.5
      vertex 5.651 -14.25 8.5
    endloop
  endfacet
  facet normal 2.22045e-16 2.22045e-16 1
    outer loop
      vertex 5.651 -12.75 8.5
      vertex -5.651 -12.75 8.5
      vertex 5.651 -14.25 8.5
    endloop
  endfacet
  facet normal -0.728968 1.52e-16 0.684548
    outer loop
      vertex 5.651 -14.25 8.5
      vertex 6.08705 -14.25 8.96435
      vertex 5.651 -12.75 8.5
    endloop
  endfacet
  facet normal -0.728968 1.52e-16 0.684548
    outer loop
      vertex 5.651 -12.75 8.5
      vertex 6.08705 -14.25 8.96435
      vertex 6.08705 14.25 8.96435
    endloop
  endfacet
  facet normal -0.728968 1.52e-16 0.684548
    outer loop
      vertex 5.651 12.75 8.5
      vertex 6.08705 14.25 8.96435
      vertex 5.651 14.25 8.5
    endloop
  endfacet
  facet normal -0.728968 1.52e-16 0.684548
    outer loop
      vertex 5.651 -12.75 8.5
      vertex 6.08705 14.25 8.96435
      vertex 5.651 12.75 8.5
    endloop
  endfacet
  facet normal -0.728968 1.52e-16 0.684548
    outer loop
      vertex 5.651 12.75 8.5
      vertex 5.40792 12.75 8.24115
      vertex 5.651 -12.75 8.5
    endloop
  endfacet
  facet normal -0.728968 1.52e-16 0.684548
    outer loop
      vertex 5.651 -12.75 8.5
      vertex 5.40792 12.75 8.24115
      vertex 5.40792 -12.75 8.24115
    endloop
  endfacet
  facet normal -0.809017 1.30515e-16 0.587785
    outer loop
      vertex 6.67019 14.25 9.76697
      vertex 6.08705 14.25 8.96435
      vertex 6.67019 -14.25 9.76697
    endloop
  endfacet
  facet normal -0.809017 1.30515e-16 0.587785
    outer loop
      vertex 6.67019 -14.25 9.76697
      vertex 6.08705 14.25 8.96435
      vertex 6.08705 -14.25 8.96435
    endloop
  endfacet
  facet normal -0.876307 1.06971e-16 0.481753
    outer loop
      vertex 7.14813 14.25 10.6363
      vertex 6.67019 14.25 9.76697
      vertex 7.14813 -14.25 10.6363
    endloop
  endfacet
  facet normal -0.876307 1.06971e-16 0.481753
    outer loop
      vertex 7.14813 -14.25 10.6363
      vertex 6.67019 14.25 9.76697
      vertex 6.67019 -14.25 9.76697
    endloop
  endfacet
  facet normal -0.929777 8.17399e-17 0.368124
    outer loop
      vertex 7.51335 14.25 11.5588
      vertex 7.14813 14.25 10.6363
      vertex 7.51335 -14.25 11.5588
    endloop
  endfacet
  facet normal -0.929777 8.17399e-17 0.368124
    outer loop
      vertex 7.51335 -14.25 11.5588
      vertex 7.14813 14.25 10.6363
      vertex 7.14813 -14.25 10.6363
    endloop
  endfacet
  facet normal -0.968583 5.52203e-17 0.24869
    outer loop
      vertex 7.76007 14.25 12.5197
      vertex 7.51335 14.25 11.5588
      vertex 7.76007 -14.25 12.5197
    endloop
  endfacet
  facet normal -0.968583 5.52203e-17 0.24869
    outer loop
      vertex 7.76007 -14.25 12.5197
      vertex 7.51335 14.25 11.5588
      vertex 7.51335 -14.25 11.5588
    endloop
  endfacet
  facet normal -0.992115 2.78296e-17 0.125333
    outer loop
      vertex 7.88441 14.25 13.504
      vertex 7.76007 14.25 12.5197
      vertex 7.88441 -14.25 13.504
    endloop
  endfacet
  facet normal -0.992115 2.78296e-17 0.125333
    outer loop
      vertex 7.88441 -14.25 13.504
      vertex 7.76007 14.25 12.5197
      vertex 7.76007 -14.25 12.5197
    endloop
  endfacet
  facet normal -1 4.93038e-32 2.22045e-16
    outer loop
      vertex 7.88441 14.25 14
      vertex 7.88441 14.25 13.504
      vertex 7.88441 -14.25 14
    endloop
  endfacet
  facet normal -1 4.93038e-32 2.22045e-16
    outer loop
      vertex 7.88441 -14.25 14
      vertex 7.88441 14.25 13.504
      vertex 7.88441 -14.25 13.504
    endloop
  endfacet
  facet normal 2.22045e-16 2.22045e-16 1
    outer loop
      vertex -5.651 14.25 8.5
      vertex -5.651 12.75 8.5
      vertex 5.651 12.75 8.5
    endloop
  endfacet
  facet normal 2.22045e-16 2.22045e-16 1
    outer loop
      vertex 5.651 14.25 8.5
      vertex -5.651 14.25 8.5
      vertex 5.651 12.75 8.5
    endloop
  endfacet
  facet normal 0 -1 2.22045e-16
    outer loop
      vertex 5.651 12.75 8.5
      vertex -5.651 12.75 8.5
      vertex -5.40792 12.75 8.24115
    endloop
  endfacet
  facet normal 0 -1 2.22045e-16
    outer loop
      vertex -3.80585 12.75 7.07718
      vertex 5.651 12.75 8.5
      vertex -4.6435 12.75 7.60877
    endloop
  endfacet
  facet normal 0 -1 2.22045e-16
    outer loop
      vertex -4.6435 12.75 7.60877
      vertex 5.651 12.75 8.5
      vertex -5.40792 12.75 8.24115
    endloop
  endfacet
  facet normal 0 -1 2.22045e-16
    outer loop
      vertex -2.90818 12.75 6.65477
      vertex 5.651 12.75 8.5
      vertex -3.80585 12.75 7.07718
    endloop
  endfacet
  facet normal 0 -1 2.22045e-16
    outer loop
      vertex -1.96465 12.75 6.34819
      vertex 5.651 12.75 8.5
      vertex -2.90818 12.75 6.65477
    endloop
  endfacet
  facet normal 0 -1 2.22045e-16
    outer loop
      vertex -0.990133 12.75 6.16229
      vertex 5.651 12.75 8.5
      vertex -1.96465 12.75 6.34819
    endloop
  endfacet
  facet normal 0 -1 2.22045e-16
    outer loop
      vertex -1.75415e-15 12.75 6.1
      vertex 5.651 12.75 8.5
      vertex -0.990133 12.75 6.16229
    endloop
  endfacet
  facet normal 0 -1 2.22045e-16
    outer loop
      vertex 0.990133 12.75 6.16229
      vertex 5.651 12.75 8.5
      vertex -1.75415e-15 12.75 6.1
    endloop
  endfacet
  facet normal 0 -1 2.22045e-16
    outer loop
      vertex 1.96465 12.75 6.34819
      vertex 5.651 12.75 8.5
      vertex 0.990133 12.75 6.16229
    endloop
  endfacet
  facet normal 0 -1 2.22045e-16
    outer loop
      vertex 2.90818 12.75 6.65477
      vertex 5.651 12.75 8.5
      vertex 1.96465 12.75 6.34819
    endloop
  endfacet
  facet normal 0 -1 2.22045e-16
    outer loop
      vertex 3.80585 12.75 7.07718
      vertex 5.651 12.75 8.5
      vertex 2.90818 12.75 6.65477
    endloop
  endfacet
  facet normal 0 -1 2.22045e-16
    outer loop
      vertex 4.6435 12.75 7.60877
      vertex 5.651 12.75 8.5
      vertex 3.80585 12.75 7.07718
    endloop
  endfacet
  facet normal 0 -1 2.22045e-16
    outer loop
      vertex 5.40792 12.75 8.24115
      vertex 5.651 12.75 8.5
      vertex 4.6435 12.75 7.60877
    endloop
  endfacet
  facet normal 0.637424 1.71088e-16 0.770513
    outer loop
      vertex -4.6435 -12.75 7.60877
      vertex -4.6435 12.75 7.60877
      vertex -5.40792 12.75 8.24115
    endloop
  endfacet
  facet normal 0.637424 1.71088e-16 0.770513
    outer loop
      vertex -5.40792 -12.75 8.24115
      vertex -4.6435 -12.75 7.60877
      vertex -5.40792 12.75 8.24115
    endloop
  endfacet
  facet normal 0 1 -2.22045e-16
    outer loop
      vertex -5.651 -12.75 8.5
      vertex 5.651 -12.75 8.5
      vertex -5.40792 -12.75 8.24115
    endloop
  endfacet
  facet normal 0 1 -2.22045e-16
    outer loop
      vertex -5.40792 -12.75 8.24115
      vertex 5.651 -12.75 8.5
      vertex 5.40792 -12.75 8.24115
    endloop
  endfacet
  facet normal 0 1 -2.22045e-16
    outer loop
      vertex -5.40792 -12.75 8.24115
      vertex 5.40792 -12.75 8.24115
      vertex 4.6435 -12.75 7.60877
    endloop
  endfacet
  facet normal 0 1 -2.22045e-16
    outer loop
      vertex -5.40792 -12.75 8.24115
      vertex 4.6435 -12.75 7.60877
      vertex 3.80585 -12.75 7.07718
    endloop
  endfacet
  facet normal 0 1 -2.22045e-16
    outer loop
      vertex -5.40792 -12.75 8.24115
      vertex 3.80585 -12.75 7.07718
      vertex 2.90818 -12.75 6.65477
    endloop
  endfacet
  facet normal 0 1 -2.22045e-16
    outer loop
      vertex -5.40792 -12.75 8.24115
      vertex 2.90818 -12.75 6.65477
      vertex 1.96465 -12.75 6.34819
    endloop
  endfacet
  facet normal 0 1 -2.22045e-16
    outer loop
      vertex -5.40792 -12.75 8.24115
      vertex 1.96465 -12.75 6.34819
      vertex 0.990133 -12.75 6.16229
    endloop
  endfacet
  facet normal 0 1 -2.22045e-16
    outer loop
      vertex -5.40792 -12.75 8.24115
      vertex 0.990133 -12.75 6.16229
      vertex -1.75415e-15 -12.75 6.1
    endloop
  endfacet
  facet normal 0 1 -2.22045e-16
    outer loop
      vertex -5.40792 -12.75 8.24115
      vertex -1.75415e-15 -12.75 6.1
      vertex -0.990133 -12.75 6.16229
    endloop
  endfacet
  facet normal 0 1 -2.22045e-16
    outer loop
      vertex -5.40792 -12.75 8.24115
      vertex -0.990133 -12.75 6.16229
      vertex -1.96465 -12.75 6.34819
    endloop
  endfacet
  facet normal 0 1 -2.22045e-16
    outer loop
      vertex -5.40792 -12.75 8.24115
      vertex -1.96465 -12.75 6.34819
      vertex -2.90818 -12.75 6.65477
    endloop
  endfacet
  facet normal 0 1 -2.22045e-16
    outer loop
      vertex -5.40792 -12.75 8.24115
      vertex -2.90818 -12.75 6.65477
      vertex -3.80585 -12.75 7.07718
    endloop
  endfacet
  facet normal 0 1 -2.22045e-16
    outer loop
      vertex -5.40792 -12.75 8.24115
      vertex -3.80585 -12.75 7.07718
      vertex -4.6435 -12.75 7.60877
    endloop
  endfacet
  facet normal -0.637424 1.71088e-16 0.770513
    outer loop
      vertex 5.40792 -12.75 8.24115
      vertex 5.40792 12.75 8.24115
      vertex 4.6435 12.75 7.60877
    endloop
  endfacet
  facet normal -0.637424 1.71088e-16 0.770513
    outer loop
      vertex 4.6435 -12.75 7.60877
      vertex 5.40792 -12.75 8.24115
      vertex 4.6435 12.75 7.60877
    endloop
  endfacet
  facet normal -0.535827 1.87478e-16 0.844328
    outer loop
      vertex 4.6435 -12.75 7.60877
      vertex 4.6435 12.75 7.60877
      vertex 3.80585 12.75 7.07718
    endloop
  endfacet
  facet normal -0.535827 1.87478e-16 0.844328
    outer loop
      vertex 3.80585 -12.75 7.07718
      vertex 4.6435 -12.75 7.60877
      vertex 3.80585 12.75 7.07718
    endloop
  endfacet
  facet normal -0.425779 2.00912e-16 0.904827
    outer loop
      vertex 3.80585 -12.75 7.07718
      vertex 3.80585 12.75 7.07718
      vertex 2.90818 12.75 6.65477
    endloop
  endfacet
  facet normal -0.425779 2.00912e-16 0.904827
    outer loop
      vertex 2.90818 -12.75 6.65477
      vertex 3.80585 -12.75 7.07718
      vertex 2.90818 12.75 6.65477
    endloop
  endfacet
  facet normal -0.309017 2.11177e-16 0.951056
    outer loop
      vertex 2.90818 -12.75 6.65477
      vertex 2.90818 12.75 6.65477
      vertex 1.96465 12.75 6.34819
    endloop
  endfacet
  facet normal -0.309017 2.11177e-16 0.951056
    outer loop
      vertex 1.96465 -12.75 6.34819
      vertex 2.90818 -12.75 6.65477
      vertex 1.96465 12.75 6.34819
    endloop
  endfacet
  facet normal -0.187381 2.18112e-16 0.982287
    outer loop
      vertex 1.96465 -12.75 6.34819
      vertex 1.96465 12.75 6.34819
      vertex 0.990133 12.75 6.16229
    endloop
  endfacet
  facet normal -0.187381 2.18112e-16 0.982287
    outer loop
      vertex 0.990133 -12.75 6.16229
      vertex 1.96465 -12.75 6.34819
      vertex 0.990133 12.75 6.16229
    endloop
  endfacet
  facet normal -0.0627906 2.21606e-16 0.998027
    outer loop
      vertex 0.990133 -12.75 6.16229
      vertex 0.990133 12.75 6.16229
      vertex -1.75415e-15 12.75 6.1
    endloop
  endfacet
  facet normal -0.0627906 2.21606e-16 0.998027
    outer loop
      vertex -1.75415e-15 -12.75 6.1
      vertex 0.990133 -12.75 6.16229
      vertex -1.75415e-15 12.75 6.1
    endloop
  endfacet
  facet normal 0.0627906 2.21606e-16 0.998027
    outer loop
      vertex -1.75415e-15 -12.75 6.1
      vertex -1.75415e-15 12.75 6.1
      vertex -0.990133 12.75 6.16229
    endloop
  endfacet
  facet normal 0.0627906 2.21606e-16 0.998027
    outer loop
      vertex -0.990133 -12.75 6.16229
      vertex -1.75415e-15 -12.75 6.1
      vertex -0.990133 12.75 6.16229
    endloop
  endfacet
  facet normal 0.187381 2.18112e-16 0.982287
    outer loop
      vertex -0.990133 -12.75 6.16229
      vertex -0.990133 12.75 6.16229
      vertex -1.96465 12.75 6.34819
    endloop
  endfacet
  facet normal 0.187381 2.18112e-16 0.982287
    outer loop
      vertex -1.96465 -12.75 6.34819
      vertex -0.990133 -12.75 6.16229
      vertex -1.96465 12.75 6.34819
    endloop
  endfacet
  facet normal 0.309017 2.11177e-16 0.951056
    outer loop
      vertex -1.96465 -12.75 6.34819
      vertex -1.96465 12.75 6.34819
      vertex -2.90818 12.75 6.65477
    endloop
  endfacet
  facet normal 0.309017 2.11177e-16 0.951056
    outer loop
      vertex -2.90818 -12.75 6.65477
      vertex -1.96465 -12.75 6.34819
      vertex -2.90818 12.75 6.65477
    endloop
  endfacet
  facet normal 0.425779 2.00912e-16 0.904827
    outer loop
      vertex -2.90818 -12.75 6.65477
      vertex -2.90818 12.75 6.65477
      vertex -3.80585 12.75 7.07718
    endloop
  endfacet
  facet normal 0.425779 2.00912e-16 0.904827
    outer loop
      vertex -3.80585 -12.75 7.07718
      vertex -2.90818 -12.75 6.65477
      vertex -3.80585 12.75 7.07718
    endloop
  endfacet
  facet normal 0.535827 1.87478e-16 0.844328
    outer loop
      vertex -3.80585 -12.75 7.07718
      vertex -3.80585 12.75 7.07718
      vertex -4.6435 12.75 7.60877
    endloop
  endfacet
  facet normal 0.535827 1.87478e-16 0.844328
    outer loop
      vertex -4.6435 -12.75 7.60877
      vertex -3.80585 -12.75 7.07718
      vertex -4.6435 12.75 7.60877
    endloop
  endfacet
endsolid OpenSCAD_Model
