solid OpenSCAD_Model
  facet normal -1 0 0
    outer loop
      vertex 0 0 5.05
      vertex 0 0 12.95
      vertex 0 0.5 5.05
    endloop
  endfacet
  facet normal -1 0 0
    outer loop
      vertex 0 0.5 5.05
      vertex 0 0 12.95
      vertex 0 0.5 12.95
    endloop
  endfacet
  facet normal -1 0 0
    outer loop
      vertex 0 0.5 12.95
      vertex 0 0.5 18
      vertex 0 5.5 18
    endloop
  endfacet
  facet normal -1 0 0
    outer loop
      vertex 0 0.5 12.95
      vertex 0 5.5 18
      vertex 0 0.5 5.05
    endloop
  endfacet
  facet normal -1 0 0
    outer loop
      vertex 0 0.5 5.05
      vertex 0 5.5 18
      vertex 0 5.5 0
    endloop
  endfacet
  facet normal -1 0 0
    outer loop
      vertex 0 0.5 5.05
      vertex 0 5.5 0
      vertex 0 0.5 0
    endloop
  endfacet
  facet normal 0 -1 0
    outer loop
      vertex 6.63404 0 5.81245
      vertex 0 0 5.05
      vertex 42 0 5.05
    endloop
  endfacet
  facet normal 0 -1 0
    outer loop
      vertex 6 0 12.25
      vertex 6.63404 0 12.1876
      vertex 42 0 12.95
    endloop
  endfacet
  facet normal 0 -1 0
    outer loop
      vertex 6 0 5.75
      vertex 5.36596 0 5.81245
      vertex 0 0 5.05
    endloop
  endfacet
  facet normal 0 -1 0
    outer loop
      vertex 0 0 12.95
      vertex 0 0 5.05
      vertex 2.81245 0 8.36596
    endloop
  endfacet
  facet normal 0 -1 0
    outer loop
      vertex 5.36596 0 5.81245
      vertex 4.75628 0 5.99739
      vertex 0 0 5.05
    endloop
  endfacet
  facet normal 0 -1 0
    outer loop
      vertex 0 0 12.95
      vertex 2.81245 0 8.36596
      vertex 2.75 0 9
    endloop
  endfacet
  facet normal 0 -1 0
    outer loop
      vertex 37.8056 0 11.7023
      vertex 38.2981 0 11.2981
      vertex 42 0 12.95
    endloop
  endfacet
  facet normal 0 -1 0
    outer loop
      vertex 0 0 12.95
      vertex 2.75 0 9
      vertex 2.81245 0 9.63404
    endloop
  endfacet
  facet normal 0 -1 0
    outer loop
      vertex 34.7563 0 5.99739
      vertex 9.00261 0 10.2437
      vertex 9.18755 0 9.63404
    endloop
  endfacet
  facet normal 0 -1 0
    outer loop
      vertex 0 0 12.95
      vertex 2.81245 0 9.63404
      vertex 2.99739 0 10.2437
    endloop
  endfacet
  facet normal 0 -1 0
    outer loop
      vertex 9.18755 0 9.63404
      vertex 9.25 0 9
      vertex 34.7563 0 5.99739
    endloop
  endfacet
  facet normal 0 -1 0
    outer loop
      vertex 0 0 12.95
      vertex 2.99739 0 10.2437
      vertex 3.29772 0 10.8056
    endloop
  endfacet
  facet normal 0 -1 0
    outer loop
      vertex 34.1944 0 6.29772
      vertex 33.7019 0 6.7019
      vertex 7.8056 0 11.7023
    endloop
  endfacet
  facet normal 0 -1 0
    outer loop
      vertex 0 0 12.95
      vertex 3.29772 0 10.8056
      vertex 3.7019 0 11.2981
    endloop
  endfacet
  facet normal 0 -1 0
    outer loop
      vertex 0 0 12.95
      vertex 3.7019 0 11.2981
      vertex 4.1944 0 11.7023
    endloop
  endfacet
  facet normal 0 -1 0
    outer loop
      vertex 0 0 12.95
      vertex 4.1944 0 11.7023
      vertex 4.75628 0 12.0026
    endloop
  endfacet
  facet normal 0 -1 0
    outer loop
      vertex 6 0 12.25
      vertex 0 0 12.95
      vertex 5.36596 0 12.1876
    endloop
  endfacet
  facet normal 0 -1 0
    outer loop
      vertex 42 0 12.95
      vertex 0 0 12.95
      vertex 6 0 12.25
    endloop
  endfacet
  facet normal 0 -1 0
    outer loop
      vertex 34.1944 0 6.29772
      vertex 7.8056 0 11.7023
      vertex 8.2981 0 11.2981
    endloop
  endfacet
  facet normal 0 -1 0
    outer loop
      vertex 34.1944 0 6.29772
      vertex 8.2981 0 11.2981
      vertex 8.70228 0 10.8056
    endloop
  endfacet
  facet normal 0 -1 0
    outer loop
      vertex 33.7019 0 6.7019
      vertex 6.63404 0 12.1876
      vertex 7.24372 0 12.0026
    endloop
  endfacet
  facet normal 0 -1 0
    outer loop
      vertex 33.7019 0 6.7019
      vertex 33.2977 0 7.1944
      vertex 6.63404 0 12.1876
    endloop
  endfacet
  facet normal 0 -1 0
    outer loop
      vertex 35.366 0 5.81245
      vertex 34.7563 0 5.99739
      vertex 9.25 0 9
    endloop
  endfacet
  facet normal 0 -1 0
    outer loop
      vertex 36 0 5.75
      vertex 9.18755 0 8.36596
      vertex 42 0 5.05
    endloop
  endfacet
  facet normal 0 -1 0
    outer loop
      vertex 9.00261 0 7.75628
      vertex 8.70228 0 7.1944
      vertex 42 0 5.05
    endloop
  endfacet
  facet normal 0 -1 0
    outer loop
      vertex 8.70228 0 7.1944
      vertex 8.2981 0 6.7019
      vertex 42 0 5.05
    endloop
  endfacet
  facet normal 0 -1 0
    outer loop
      vertex 8.2981 0 6.7019
      vertex 7.8056 0 6.29772
      vertex 42 0 5.05
    endloop
  endfacet
  facet normal 0 -1 0
    outer loop
      vertex 4.75628 0 5.99739
      vertex 4.1944 0 6.29772
      vertex 0 0 5.05
    endloop
  endfacet
  facet normal 0 -1 0
    outer loop
      vertex 7.8056 0 6.29772
      vertex 7.24372 0 5.99739
      vertex 42 0 5.05
    endloop
  endfacet
  facet normal 0 -1 0
    outer loop
      vertex 7.24372 0 5.99739
      vertex 6.63404 0 5.81245
      vertex 42 0 5.05
    endloop
  endfacet
  facet normal 0 -1 0
    outer loop
      vertex 6 0 5.75
      vertex 0 0 5.05
      vertex 6.63404 0 5.81245
    endloop
  endfacet
  facet normal 0 -1 0
    outer loop
      vertex 36.634 0 12.1876
      vertex 37.2437 0 12.0026
      vertex 42 0 12.95
    endloop
  endfacet
  facet normal 0 -1 0
    outer loop
      vertex 4.1944 0 6.29772
      vertex 3.7019 0 6.7019
      vertex 0 0 5.05
    endloop
  endfacet
  facet normal 0 -1 0
    outer loop
      vertex 36 0 12.25
      vertex 36.634 0 12.1876
      vertex 42 0 12.95
    endloop
  endfacet
  facet normal 0 -1 0
    outer loop
      vertex 3.29772 0 7.1944
      vertex 0 0 5.05
      vertex 3.7019 0 6.7019
    endloop
  endfacet
  facet normal 0 -1 0
    outer loop
      vertex 2.99739 0 7.75628
      vertex 0 0 5.05
      vertex 3.29772 0 7.1944
    endloop
  endfacet
  facet normal 0 -1 0
    outer loop
      vertex 2.81245 0 8.36596
      vertex 0 0 5.05
      vertex 2.99739 0 7.75628
    endloop
  endfacet
  facet normal 0 -1 0
    outer loop
      vertex 32.75 0 9
      vertex 6.63404 0 12.1876
      vertex 32.8124 0 8.36596
    endloop
  endfacet
  facet normal 0 -1 0
    outer loop
      vertex 32.8124 0 9.63404
      vertex 6.63404 0 12.1876
      vertex 32.75 0 9
    endloop
  endfacet
  facet normal 0 -1 0
    outer loop
      vertex 38.2981 0 11.2981
      vertex 38.7023 0 10.8056
      vertex 42 0 12.95
    endloop
  endfacet
  facet normal 0 -1 0
    outer loop
      vertex 32.9974 0 10.2437
      vertex 6.63404 0 12.1876
      vertex 32.8124 0 9.63404
    endloop
  endfacet
  facet normal 0 -1 0
    outer loop
      vertex 37.8056 0 6.29772
      vertex 37.2437 0 5.99739
      vertex 42 0 5.05
    endloop
  endfacet
  facet normal 0 -1 0
    outer loop
      vertex 33.2977 0 10.8056
      vertex 6.63404 0 12.1876
      vertex 32.9974 0 10.2437
    endloop
  endfacet
  facet normal 0 -1 0
    outer loop
      vertex 33.7019 0 11.2981
      vertex 6.63404 0 12.1876
      vertex 33.2977 0 10.8056
    endloop
  endfacet
  facet normal 0 -1 0
    outer loop
      vertex 34.1944 0 11.7023
      vertex 6.63404 0 12.1876
      vertex 33.7019 0 11.2981
    endloop
  endfacet
  facet normal 0 -1 0
    outer loop
      vertex 37.2437 0 12.0026
      vertex 37.8056 0 11.7023
      vertex 42 0 12.95
    endloop
  endfacet
  facet normal 0 -1 0
    outer loop
      vertex 34.7563 0 12.0026
      vertex 6.63404 0 12.1876
      vertex 34.1944 0 11.7023
    endloop
  endfacet
  facet normal 0 -1 0
    outer loop
      vertex 35.366 0 12.1876
      vertex 6.63404 0 12.1876
      vertex 34.7563 0 12.0026
    endloop
  endfacet
  facet normal 0 -1 0
    outer loop
      vertex 42 0 12.95
      vertex 6.63404 0 12.1876
      vertex 35.366 0 12.1876
    endloop
  endfacet
  facet normal 0 -1 0
    outer loop
      vertex 42 0 12.95
      vertex 35.366 0 12.1876
      vertex 36 0 12.25
    endloop
  endfacet
  facet normal 0 -1 0
    outer loop
      vertex 38.2981 0 6.7019
      vertex 37.8056 0 6.29772
      vertex 42 0 5.05
    endloop
  endfacet
  facet normal 0 -1 0
    outer loop
      vertex 42 0 12.95
      vertex 38.7023 0 10.8056
      vertex 42 0 5.05
    endloop
  endfacet
  facet normal 0 -1 0
    outer loop
      vertex 38.7023 0 10.8056
      vertex 39.0026 0 10.2437
      vertex 42 0 5.05
    endloop
  endfacet
  facet normal 0 -1 0
    outer loop
      vertex 39.0026 0 10.2437
      vertex 39.1876 0 9.63404
      vertex 42 0 5.05
    endloop
  endfacet
  facet normal 0 -1 0
    outer loop
      vertex 39.1876 0 9.63404
      vertex 39.25 0 9
      vertex 42 0 5.05
    endloop
  endfacet
  facet normal 0 -1 0
    outer loop
      vertex 39.25 0 9
      vertex 39.1876 0 8.36596
      vertex 42 0 5.05
    endloop
  endfacet
  facet normal 0 -1 0
    outer loop
      vertex 39.1876 0 8.36596
      vertex 39.0026 0 7.75628
      vertex 42 0 5.05
    endloop
  endfacet
  facet normal 0 -1 0
    outer loop
      vertex 39.0026 0 7.75628
      vertex 38.7023 0 7.1944
      vertex 42 0 5.05
    endloop
  endfacet
  facet normal 0 -1 0
    outer loop
      vertex 38.7023 0 7.1944
      vertex 38.2981 0 6.7019
      vertex 42 0 5.05
    endloop
  endfacet
  facet normal 0 -1 0
    outer loop
      vertex 8.70228 0 10.8056
      vertex 9.00261 0 10.2437
      vertex 34.1944 0 6.29772
    endloop
  endfacet
  facet normal 0 -1 0
    outer loop
      vertex 34.7563 0 5.99739
      vertex 34.1944 0 6.29772
      vertex 9.00261 0 10.2437
    endloop
  endfacet
  facet normal 0 -1 0
    outer loop
      vertex 9.18755 0 8.36596
      vertex 9.00261 0 7.75628
      vertex 42 0 5.05
    endloop
  endfacet
  facet normal 0 -1 0
    outer loop
      vertex 35.366 0 5.81245
      vertex 9.18755 0 8.36596
      vertex 36 0 5.75
    endloop
  endfacet
  facet normal 0 -1 0
    outer loop
      vertex 9.25 0 9
      vertex 9.18755 0 8.36596
      vertex 35.366 0 5.81245
    endloop
  endfacet
  facet normal 0 -1 0
    outer loop
      vertex 32.9974 0 7.75628
      vertex 6.63404 0 12.1876
      vertex 33.2977 0 7.1944
    endloop
  endfacet
  facet normal 0 -1 0
    outer loop
      vertex 32.8124 0 8.36596
      vertex 6.63404 0 12.1876
      vertex 32.9974 0 7.75628
    endloop
  endfacet
  facet normal 0 -1 0
    outer loop
      vertex 36.634 0 5.81245
      vertex 36 0 5.75
      vertex 42 0 5.05
    endloop
  endfacet
  facet normal 0 -1 0
    outer loop
      vertex 4.75628 0 12.0026
      vertex 5.36596 0 12.1876
      vertex 0 0 12.95
    endloop
  endfacet
  facet normal 0 -1 0
    outer loop
      vertex 7.24372 0 12.0026
      vertex 7.8056 0 11.7023
      vertex 33.7019 0 6.7019
    endloop
  endfacet
  facet normal 0 -1 0
    outer loop
      vertex 37.2437 0 5.99739
      vertex 36.634 0 5.81245
      vertex 42 0 5.05
    endloop
  endfacet
  facet normal 0 0 -1
    outer loop
      vertex 42 0.5 5.05
      vertex 42 0 5.05
      vertex 0 0.5 5.05
    endloop
  endfacet
  facet normal 0 0 -1
    outer loop
      vertex 0 0.5 5.05
      vertex 42 0 5.05
      vertex 0 0 5.05
    endloop
  endfacet
  facet normal -1.22465e-16 -1 0
    outer loop
      vertex 42 0.5 0
      vertex 42 0.5 5.05
      vertex 0 0.5 5.05
    endloop
  endfacet
  facet normal -1.22465e-16 -1 0
    outer loop
      vertex 0 0.5 0
      vertex 42 0.5 0
      vertex 0 0.5 5.05
    endloop
  endfacet
  facet normal 0 0 -1
    outer loop
      vertex 0 0.5 0
      vertex 0 5.5 0
      vertex 42 0.5 0
    endloop
  endfacet
  facet normal 0 0 -1
    outer loop
      vertex 42 0.5 0
      vertex 0 5.5 0
      vertex 1.5 7 0
    endloop
  endfacet
  facet normal 0 0 -1
    outer loop
      vertex 42 0.5 0
      vertex 1.5 7 0
      vertex 13 7 0
    endloop
  endfacet
  facet normal 0 0 -1
    outer loop
      vertex 18.6944 12.4494 0
      vertex 13 7 0
      vertex 13 15.5 0
    endloop
  endfacet
  facet normal 0 0 -1
    outer loop
      vertex 16.85 15.9 0
      vertex 13 15.5 0
      vertex 15 17.5 0
    endloop
  endfacet
  facet normal 0 0 -1
    outer loop
      vertex 17.1659 17.4881 0
      vertex 15 17.5 0
      vertex 17.1722 17.5 0
    endloop
  endfacet
  facet normal 0 0 -1
    outer loop
      vertex 16.9297 16.7096 0
      vertex 15 17.5 0
      vertex 17.1659 17.4881 0
    endloop
  endfacet
  facet normal 0 0 -1
    outer loop
      vertex 29 7 0
      vertex 20.1904 11.8297 0
      vertex 21 11.75 0
    endloop
  endfacet
  facet normal 0 0 -1
    outer loop
      vertex 29 7 0
      vertex 21 11.75 0
      vertex 21.8096 11.8297 0
    endloop
  endfacet
  facet normal 0 0 -1
    outer loop
      vertex 16.9297 15.0904 0
      vertex 13 15.5 0
      vertex 16.85 15.9 0
    endloop
  endfacet
  facet normal 0 0 -1
    outer loop
      vertex 18.6944 12.4494 0
      vertex 13 15.5 0
      vertex 18.0655 12.9655 0
    endloop
  endfacet
  facet normal 0 0 -1
    outer loop
      vertex 17.1659 14.3119 0
      vertex 13 15.5 0
      vertex 16.9297 15.0904 0
    endloop
  endfacet
  facet normal 0 0 -1
    outer loop
      vertex 17.5494 13.5944 0
      vertex 13 15.5 0
      vertex 17.1659 14.3119 0
    endloop
  endfacet
  facet normal 0 0 -1
    outer loop
      vertex 18.0655 12.9655 0
      vertex 13 15.5 0
      vertex 17.5494 13.5944 0
    endloop
  endfacet
  facet normal 0 0 -1
    outer loop
      vertex 19.4119 12.0659 0
      vertex 13 7 0
      vertex 18.6944 12.4494 0
    endloop
  endfacet
  facet normal 0 0 -1
    outer loop
      vertex 29 7 0
      vertex 13 7 0
      vertex 19.4119 12.0659 0
    endloop
  endfacet
  facet normal 0 0 -1
    outer loop
      vertex 29 7 0
      vertex 21.8096 11.8297 0
      vertex 22.5881 12.0659 0
    endloop
  endfacet
  facet normal 0 0 -1
    outer loop
      vertex 29 7 0
      vertex 19.4119 12.0659 0
      vertex 20.1904 11.8297 0
    endloop
  endfacet
  facet normal 0 0 -1
    outer loop
      vertex 42 0.5 0
      vertex 13 7 0
      vertex 29 7 0
    endloop
  endfacet
  facet normal 0 0 -1
    outer loop
      vertex 40.5 7 0
      vertex 42 0.5 0
      vertex 29 7 0
    endloop
  endfacet
  facet normal 0 0 -1
    outer loop
      vertex 42 0.5 0
      vertex 40.5 7 0
      vertex 42 5.5 0
    endloop
  endfacet
  facet normal 0 0 -1
    outer loop
      vertex 16.85 15.9 0
      vertex 15 17.5 0
      vertex 16.9297 16.7096 0
    endloop
  endfacet
  facet normal 0 0 -1
    outer loop
      vertex 29 7 0
      vertex 22.5881 12.0659 0
      vertex 23.3056 12.4494 0
    endloop
  endfacet
  facet normal 0 0 -1
    outer loop
      vertex 29 7 0
      vertex 23.3056 12.4494 0
      vertex 23.9345 12.9655 0
    endloop
  endfacet
  facet normal 0 0 -1
    outer loop
      vertex 29 7 0
      vertex 23.9345 12.9655 0
      vertex 24.4506 13.5944 0
    endloop
  endfacet
  facet normal 0 0 -1
    outer loop
      vertex 29 7 0
      vertex 24.4506 13.5944 0
      vertex 24.8341 14.3119 0
    endloop
  endfacet
  facet normal 0 0 -1
    outer loop
      vertex 29 7 0
      vertex 24.8341 14.3119 0
      vertex 25.0703 15.0904 0
    endloop
  endfacet
  facet normal 0 0 -1
    outer loop
      vertex 29 7 0
      vertex 25.0703 15.0904 0
      vertex 25.15 15.9 0
    endloop
  endfacet
  facet normal 0 0 -1
    outer loop
      vertex 29 7 0
      vertex 25.15 15.9 0
      vertex 25.0703 16.7096 0
    endloop
  endfacet
  facet normal 0 0 -1
    outer loop
      vertex 29 7 0
      vertex 25.0703 16.7096 0
      vertex 24.8341 17.4881 0
    endloop
  endfacet
  facet normal 0 0 -1
    outer loop
      vertex 24.8341 17.4881 0
      vertex 24.8278 17.5 0
      vertex 27 17.5 0
    endloop
  endfacet
  facet normal 0 0 -1
    outer loop
      vertex 29 7 0
      vertex 24.8341 17.4881 0
      vertex 27 17.5 0
    endloop
  endfacet
  facet normal 0 0 -1
    outer loop
      vertex 29 7 0
      vertex 27 17.5 0
      vertex 29 15.5 0
    endloop
  endfacet
  facet normal -0.707107 0.707107 0
    outer loop
      vertex 1.5 7 18
      vertex 1.5 7 0
      vertex 0 5.5 18
    endloop
  endfacet
  facet normal -0.707107 0.707107 0
    outer loop
      vertex 0 5.5 18
      vertex 1.5 7 0
      vertex 0 5.5 0
    endloop
  endfacet
  facet normal 0 0 1
    outer loop
      vertex 0 5.5 18
      vertex 0 0.5 18
      vertex 42 0.5 18
    endloop
  endfacet
  facet normal 0 0 1
    outer loop
      vertex 40.5 7 18
      vertex 0 5.5 18
      vertex 42 5.5 18
    endloop
  endfacet
  facet normal 0 0 1
    outer loop
      vertex 42 5.5 18
      vertex 0 5.5 18
      vertex 42 0.5 18
    endloop
  endfacet
  facet normal 0 0 1
    outer loop
      vertex 29 7 18
      vertex 0 5.5 18
      vertex 40.5 7 18
    endloop
  endfacet
  facet normal 0 0 1
    outer loop
      vertex 13 7 18
      vertex 0 5.5 18
      vertex 29 7 18
    endloop
  endfacet
  facet normal 0 0 1
    outer loop
      vertex 13 7 18
      vertex 1.5 7 18
      vertex 0 5.5 18
    endloop
  endfacet
  facet normal 0 0 1
    outer loop
      vertex 15 17.5 18
      vertex 13 15.5 18
      vertex 27 17.5 18
    endloop
  endfacet
  facet normal 0 0 1
    outer loop
      vertex 29 15.5 18
      vertex 13 7 18
      vertex 29 7 18
    endloop
  endfacet
  facet normal 0 0 1
    outer loop
      vertex 13 15.5 18
      vertex 29 15.5 18
      vertex 27 17.5 18
    endloop
  endfacet
  facet normal 0 0 1
    outer loop
      vertex 13 15.5 18
      vertex 13 7 18
      vertex 29 15.5 18
    endloop
  endfacet
  facet normal -1.22465e-16 -1 0
    outer loop
      vertex 42 0.5 12.95
      vertex 42 0.5 18
      vertex 0 0.5 18
    endloop
  endfacet
  facet normal -1.22465e-16 -1 0
    outer loop
      vertex 0 0.5 12.95
      vertex 42 0.5 12.95
      vertex 0 0.5 18
    endloop
  endfacet
  facet normal 0 0 1
    outer loop
      vertex 42 0 12.95
      vertex 42 0.5 12.95
      vertex 0 0.5 12.95
    endloop
  endfacet
  facet normal 0 0 1
    outer loop
      vertex 0 0 12.95
      vertex 42 0 12.95
      vertex 0 0.5 12.95
    endloop
  endfacet
  facet normal 1 0 0
    outer loop
      vertex 42 0 12.95
      vertex 42 0 5.05
      vertex 42 0.5 5.05
    endloop
  endfacet
  facet normal 1 0 0
    outer loop
      vertex 42 5.5 0
      vertex 42 0 12.95
      vertex 42 0.5 5.05
    endloop
  endfacet
  facet normal 1 0 0
    outer loop
      vertex 42 0.5 0
      vertex 42 5.5 0
      vertex 42 0.5 5.05
    endloop
  endfacet
  facet normal 1 0 0
    outer loop
      vertex 42 5.5 0
      vertex 42 0.5 12.95
      vertex 42 0 12.95
    endloop
  endfacet
  facet normal 1 0 0
    outer loop
      vertex 42 5.5 0
      vertex 42 5.5 18
      vertex 42 0.5 12.95
    endloop
  endfacet
  facet normal 1 0 0
    outer loop
      vertex 42 0.5 18
      vertex 42 0.5 12.95
      vertex 42 5.5 18
    endloop
  endfacet
  facet normal 0.995185 -2.17642e-17 0.0980173
    outer loop
      vertex 2.81245 0 8.36596
      vertex 2.81245 7 8.36596
      vertex 2.75 7 9
    endloop
  endfacet
  facet normal 0.995185 -2.17642e-17 0.0980173
    outer loop
      vertex 2.75 0 9
      vertex 2.81245 0 8.36596
      vertex 2.75 7 9
    endloop
  endfacet
  facet normal 0.95694 -6.44563e-17 0.290285
    outer loop
      vertex 2.99739 0 7.75628
      vertex 2.99739 7 7.75628
      vertex 2.81245 7 8.36596
    endloop
  endfacet
  facet normal 0.95694 -6.44563e-17 0.290285
    outer loop
      vertex 2.81245 0 8.36596
      vertex 2.99739 0 7.75628
      vertex 2.81245 7 8.36596
    endloop
  endfacet
  facet normal 0.881921 -1.04671e-16 0.471397
    outer loop
      vertex 3.29772 0 7.1944
      vertex 3.29772 7 7.1944
      vertex 2.99739 7 7.75628
    endloop
  endfacet
  facet normal 0.881921 -1.04671e-16 0.471397
    outer loop
      vertex 2.99739 0 7.75628
      vertex 3.29772 0 7.1944
      vertex 2.99739 7 7.75628
    endloop
  endfacet
  facet normal 0.773011 -1.40864e-16 0.634393
    outer loop
      vertex 3.7019 0 6.7019
      vertex 3.7019 7 6.7019
      vertex 3.29772 7 7.1944
    endloop
  endfacet
  facet normal 0.773011 -1.40864e-16 0.634393
    outer loop
      vertex 3.29772 0 7.1944
      vertex 3.7019 0 6.7019
      vertex 3.29772 7 7.1944
    endloop
  endfacet
  facet normal 0.634393 -1.71643e-16 0.773011
    outer loop
      vertex 4.1944 0 6.29772
      vertex 4.1944 7 6.29772
      vertex 3.7019 7 6.7019
    endloop
  endfacet
  facet normal 0.634393 -1.71643e-16 0.773011
    outer loop
      vertex 3.7019 0 6.7019
      vertex 4.1944 0 6.29772
      vertex 3.7019 7 6.7019
    endloop
  endfacet
  facet normal 0.471397 -1.95826e-16 0.881921
    outer loop
      vertex 4.75628 0 5.99739
      vertex 4.75628 7 5.99739
      vertex 4.1944 7 6.29772
    endloop
  endfacet
  facet normal 0.471397 -1.95826e-16 0.881921
    outer loop
      vertex 4.1944 0 6.29772
      vertex 4.75628 0 5.99739
      vertex 4.1944 7 6.29772
    endloop
  endfacet
  facet normal 0.290285 -2.12483e-16 0.95694
    outer loop
      vertex 5.36596 0 5.81245
      vertex 5.36596 7 5.81245
      vertex 4.75628 7 5.99739
    endloop
  endfacet
  facet normal 0.290285 -2.12483e-16 0.95694
    outer loop
      vertex 4.75628 0 5.99739
      vertex 5.36596 0 5.81245
      vertex 4.75628 7 5.99739
    endloop
  endfacet
  facet normal 0.0980173 -2.20975e-16 0.995185
    outer loop
      vertex 6 0 5.75
      vertex 6 7 5.75
      vertex 5.36596 7 5.81245
    endloop
  endfacet
  facet normal 0.0980173 -2.20975e-16 0.995185
    outer loop
      vertex 5.36596 0 5.81245
      vertex 6 0 5.75
      vertex 5.36596 7 5.81245
    endloop
  endfacet
  facet normal -0.0980173 -2.20975e-16 0.995185
    outer loop
      vertex 6.63404 0 5.81245
      vertex 6.63404 7 5.81245
      vertex 6 7 5.75
    endloop
  endfacet
  facet normal -0.0980173 -2.20975e-16 0.995185
    outer loop
      vertex 6 0 5.75
      vertex 6.63404 0 5.81245
      vertex 6 7 5.75
    endloop
  endfacet
  facet normal -0.290285 -2.12483e-16 0.95694
    outer loop
      vertex 7.24372 0 5.99739
      vertex 7.24372 7 5.99739
      vertex 6.63404 7 5.81245
    endloop
  endfacet
  facet normal -0.290285 -2.12483e-16 0.95694
    outer loop
      vertex 6.63404 0 5.81245
      vertex 7.24372 0 5.99739
      vertex 6.63404 7 5.81245
    endloop
  endfacet
  facet normal -0.471397 -1.95826e-16 0.881921
    outer loop
      vertex 7.8056 0 6.29772
      vertex 7.8056 7 6.29772
      vertex 7.24372 7 5.99739
    endloop
  endfacet
  facet normal -0.471397 -1.95826e-16 0.881921
    outer loop
      vertex 7.24372 0 5.99739
      vertex 7.8056 0 6.29772
      vertex 7.24372 7 5.99739
    endloop
  endfacet
  facet normal -0.634393 -1.71643e-16 0.773011
    outer loop
      vertex 8.2981 0 6.7019
      vertex 8.2981 7 6.7019
      vertex 7.8056 7 6.29772
    endloop
  endfacet
  facet normal -0.634393 -1.71643e-16 0.773011
    outer loop
      vertex 7.8056 0 6.29772
      vertex 8.2981 0 6.7019
      vertex 7.8056 7 6.29772
    endloop
  endfacet
  facet normal -0.773011 -1.40864e-16 0.634393
    outer loop
      vertex 8.70228 7 7.1944
      vertex 8.2981 7 6.7019
      vertex 8.70228 0 7.1944
    endloop
  endfacet
  facet normal -0.773011 -1.40864e-16 0.634393
    outer loop
      vertex 8.70228 0 7.1944
      vertex 8.2981 7 6.7019
      vertex 8.2981 0 6.7019
    endloop
  endfacet
  facet normal -0.881921 -1.04671e-16 0.471397
    outer loop
      vertex 9.00261 7 7.75628
      vertex 8.70228 7 7.1944
      vertex 9.00261 0 7.75628
    endloop
  endfacet
  facet normal -0.881921 -1.04671e-16 0.471397
    outer loop
      vertex 9.00261 0 7.75628
      vertex 8.70228 7 7.1944
      vertex 8.70228 0 7.1944
    endloop
  endfacet
  facet normal -0.95694 -6.44563e-17 0.290285
    outer loop
      vertex 9.18755 7 8.36596
      vertex 9.00261 7 7.75628
      vertex 9.18755 0 8.36596
    endloop
  endfacet
  facet normal -0.95694 -6.44563e-17 0.290285
    outer loop
      vertex 9.18755 0 8.36596
      vertex 9.00261 7 7.75628
      vertex 9.00261 0 7.75628
    endloop
  endfacet
  facet normal -0.995185 -2.17642e-17 0.0980173
    outer loop
      vertex 9.25 7 9
      vertex 9.18755 7 8.36596
      vertex 9.25 0 9
    endloop
  endfacet
  facet normal -0.995185 -2.17642e-17 0.0980173
    outer loop
      vertex 9.25 0 9
      vertex 9.18755 7 8.36596
      vertex 9.18755 0 8.36596
    endloop
  endfacet
  facet normal -0.995185 2.17642e-17 -0.0980173
    outer loop
      vertex 9.25 7 9
      vertex 9.25 0 9
      vertex 9.18755 7 9.63404
    endloop
  endfacet
  facet normal -0.995185 2.17642e-17 -0.0980173
    outer loop
      vertex 9.18755 7 9.63404
      vertex 9.25 0 9
      vertex 9.18755 0 9.63404
    endloop
  endfacet
  facet normal -0.95694 6.44563e-17 -0.290285
    outer loop
      vertex 9.18755 7 9.63404
      vertex 9.18755 0 9.63404
      vertex 9.00261 7 10.2437
    endloop
  endfacet
  facet normal -0.95694 6.44563e-17 -0.290285
    outer loop
      vertex 9.00261 7 10.2437
      vertex 9.18755 0 9.63404
      vertex 9.00261 0 10.2437
    endloop
  endfacet
  facet normal -0.881921 1.04671e-16 -0.471397
    outer loop
      vertex 9.00261 7 10.2437
      vertex 9.00261 0 10.2437
      vertex 8.70228 7 10.8056
    endloop
  endfacet
  facet normal -0.881921 1.04671e-16 -0.471397
    outer loop
      vertex 8.70228 7 10.8056
      vertex 9.00261 0 10.2437
      vertex 8.70228 0 10.8056
    endloop
  endfacet
  facet normal -0.773011 1.40864e-16 -0.634393
    outer loop
      vertex 8.70228 7 10.8056
      vertex 8.70228 0 10.8056
      vertex 8.2981 7 11.2981
    endloop
  endfacet
  facet normal -0.773011 1.40864e-16 -0.634393
    outer loop
      vertex 8.2981 7 11.2981
      vertex 8.70228 0 10.8056
      vertex 8.2981 0 11.2981
    endloop
  endfacet
  facet normal -0.634393 1.71643e-16 -0.773011
    outer loop
      vertex 8.2981 7 11.2981
      vertex 8.2981 0 11.2981
      vertex 7.8056 7 11.7023
    endloop
  endfacet
  facet normal -0.634393 1.71643e-16 -0.773011
    outer loop
      vertex 7.8056 7 11.7023
      vertex 8.2981 0 11.2981
      vertex 7.8056 0 11.7023
    endloop
  endfacet
  facet normal -0.471397 1.95826e-16 -0.881921
    outer loop
      vertex 7.8056 7 11.7023
      vertex 7.8056 0 11.7023
      vertex 7.24372 7 12.0026
    endloop
  endfacet
  facet normal -0.471397 1.95826e-16 -0.881921
    outer loop
      vertex 7.24372 7 12.0026
      vertex 7.8056 0 11.7023
      vertex 7.24372 0 12.0026
    endloop
  endfacet
  facet normal -0.290285 2.12483e-16 -0.95694
    outer loop
      vertex 7.24372 7 12.0026
      vertex 7.24372 0 12.0026
      vertex 6.63404 7 12.1876
    endloop
  endfacet
  facet normal -0.290285 2.12483e-16 -0.95694
    outer loop
      vertex 6.63404 7 12.1876
      vertex 7.24372 0 12.0026
      vertex 6.63404 0 12.1876
    endloop
  endfacet
  facet normal -0.0980173 2.20975e-16 -0.995185
    outer loop
      vertex 6.63404 7 12.1876
      vertex 6.63404 0 12.1876
      vertex 6 7 12.25
    endloop
  endfacet
  facet normal -0.0980173 2.20975e-16 -0.995185
    outer loop
      vertex 6 7 12.25
      vertex 6.63404 0 12.1876
      vertex 6 0 12.25
    endloop
  endfacet
  facet normal 0.0980173 2.20975e-16 -0.995185
    outer loop
      vertex 6 7 12.25
      vertex 6 0 12.25
      vertex 5.36596 7 12.1876
    endloop
  endfacet
  facet normal 0.0980173 2.20975e-16 -0.995185
    outer loop
      vertex 5.36596 7 12.1876
      vertex 6 0 12.25
      vertex 5.36596 0 12.1876
    endloop
  endfacet
  facet normal 0.290285 2.12483e-16 -0.95694
    outer loop
      vertex 5.36596 7 12.1876
      vertex 5.36596 0 12.1876
      vertex 4.75628 7 12.0026
    endloop
  endfacet
  facet normal 0.290285 2.12483e-16 -0.95694
    outer loop
      vertex 4.75628 7 12.0026
      vertex 5.36596 0 12.1876
      vertex 4.75628 0 12.0026
    endloop
  endfacet
  facet normal 0.471397 1.95826e-16 -0.881921
    outer loop
      vertex 4.75628 7 12.0026
      vertex 4.75628 0 12.0026
      vertex 4.1944 7 11.7023
    endloop
  endfacet
  facet normal 0.471397 1.95826e-16 -0.881921
    outer loop
      vertex 4.1944 7 11.7023
      vertex 4.75628 0 12.0026
      vertex 4.1944 0 11.7023
    endloop
  endfacet
  facet normal 0.634393 1.71643e-16 -0.773011
    outer loop
      vertex 4.1944 7 11.7023
      vertex 4.1944 0 11.7023
      vertex 3.7019 7 11.2981
    endloop
  endfacet
  facet normal 0.634393 1.71643e-16 -0.773011
    outer loop
      vertex 3.7019 7 11.2981
      vertex 4.1944 0 11.7023
      vertex 3.7019 0 11.2981
    endloop
  endfacet
  facet normal 0.773011 1.40864e-16 -0.634393
    outer loop
      vertex 3.29772 7 10.8056
      vertex 3.7019 7 11.2981
      vertex 3.7019 0 11.2981
    endloop
  endfacet
  facet normal 0.773011 1.40864e-16 -0.634393
    outer loop
      vertex 3.29772 0 10.8056
      vertex 3.29772 7 10.8056
      vertex 3.7019 0 11.2981
    endloop
  endfacet
  facet normal 0.881921 1.04671e-16 -0.471397
    outer loop
      vertex 2.99739 7 10.2437
      vertex 3.29772 7 10.8056
      vertex 3.29772 0 10.8056
    endloop
  endfacet
  facet normal 0.881921 1.04671e-16 -0.471397
    outer loop
      vertex 2.99739 0 10.2437
      vertex 2.99739 7 10.2437
      vertex 3.29772 0 10.8056
    endloop
  endfacet
  facet normal 0.95694 6.44563e-17 -0.290285
    outer loop
      vertex 2.81245 7 9.63404
      vertex 2.99739 7 10.2437
      vertex 2.99739 0 10.2437
    endloop
  endfacet
  facet normal 0.95694 6.44563e-17 -0.290285
    outer loop
      vertex 2.81245 0 9.63404
      vertex 2.81245 7 9.63404
      vertex 2.99739 0 10.2437
    endloop
  endfacet
  facet normal 0.995185 2.17642e-17 -0.0980173
    outer loop
      vertex 2.75 7 9
      vertex 2.81245 7 9.63404
      vertex 2.81245 0 9.63404
    endloop
  endfacet
  facet normal 0.995185 2.17642e-17 -0.0980173
    outer loop
      vertex 2.75 0 9
      vertex 2.75 7 9
      vertex 2.81245 0 9.63404
    endloop
  endfacet
  facet normal 0.95694 -6.44563e-17 0.290285
    outer loop
      vertex 32.9974 0 7.75628
      vertex 32.9974 7 7.75628
      vertex 32.8124 7 8.36596
    endloop
  endfacet
  facet normal 0.95694 -6.44563e-17 0.290285
    outer loop
      vertex 32.8124 0 8.36596
      vertex 32.9974 0 7.75628
      vertex 32.8124 7 8.36596
    endloop
  endfacet
  facet normal 0.995185 -2.17642e-17 0.0980173
    outer loop
      vertex 32.8124 0 8.36596
      vertex 32.8124 7 8.36596
      vertex 32.75 7 9
    endloop
  endfacet
  facet normal 0.995185 -2.17642e-17 0.0980173
    outer loop
      vertex 32.75 0 9
      vertex 32.8124 0 8.36596
      vertex 32.75 7 9
    endloop
  endfacet
  facet normal 0.881921 -1.04671e-16 0.471397
    outer loop
      vertex 33.2977 0 7.1944
      vertex 33.2977 7 7.1944
      vertex 32.9974 7 7.75628
    endloop
  endfacet
  facet normal 0.881921 -1.04671e-16 0.471397
    outer loop
      vertex 32.9974 0 7.75628
      vertex 33.2977 0 7.1944
      vertex 32.9974 7 7.75628
    endloop
  endfacet
  facet normal 0.773011 -1.40864e-16 0.634393
    outer loop
      vertex 33.7019 0 6.7019
      vertex 33.7019 7 6.7019
      vertex 33.2977 7 7.1944
    endloop
  endfacet
  facet normal 0.773011 -1.40864e-16 0.634393
    outer loop
      vertex 33.2977 0 7.1944
      vertex 33.7019 0 6.7019
      vertex 33.2977 7 7.1944
    endloop
  endfacet
  facet normal 0.634393 -1.71643e-16 0.773011
    outer loop
      vertex 34.1944 0 6.29772
      vertex 34.1944 7 6.29772
      vertex 33.7019 7 6.7019
    endloop
  endfacet
  facet normal 0.634393 -1.71643e-16 0.773011
    outer loop
      vertex 33.7019 0 6.7019
      vertex 34.1944 0 6.29772
      vertex 33.7019 7 6.7019
    endloop
  endfacet
  facet normal 0.471397 -1.95826e-16 0.881921
    outer loop
      vertex 34.7563 0 5.99739
      vertex 34.7563 7 5.99739
      vertex 34.1944 7 6.29772
    endloop
  endfacet
  facet normal 0.471397 -1.95826e-16 0.881921
    outer loop
      vertex 34.1944 0 6.29772
      vertex 34.7563 0 5.99739
      vertex 34.1944 7 6.29772
    endloop
  endfacet
  facet normal 0.290285 -2.12483e-16 0.95694
    outer loop
      vertex 35.366 0 5.81245
      vertex 35.366 7 5.81245
      vertex 34.7563 7 5.99739
    endloop
  endfacet
  facet normal 0.290285 -2.12483e-16 0.95694
    outer loop
      vertex 34.7563 0 5.99739
      vertex 35.366 0 5.81245
      vertex 34.7563 7 5.99739
    endloop
  endfacet
  facet normal 0.0980173 -2.20975e-16 0.995185
    outer loop
      vertex 36 0 5.75
      vertex 36 7 5.75
      vertex 35.366 7 5.81245
    endloop
  endfacet
  facet normal 0.0980173 -2.20975e-16 0.995185
    outer loop
      vertex 35.366 0 5.81245
      vertex 36 0 5.75
      vertex 35.366 7 5.81245
    endloop
  endfacet
  facet normal -0.0980173 -2.20975e-16 0.995185
    outer loop
      vertex 36.634 0 5.81245
      vertex 36.634 7 5.81245
      vertex 36 7 5.75
    endloop
  endfacet
  facet normal -0.0980173 -2.20975e-16 0.995185
    outer loop
      vertex 36 0 5.75
      vertex 36.634 0 5.81245
      vertex 36 7 5.75
    endloop
  endfacet
  facet normal -0.290285 -2.12483e-16 0.95694
    outer loop
      vertex 37.2437 0 5.99739
      vertex 37.2437 7 5.99739
      vertex 36.634 7 5.81245
    endloop
  endfacet
  facet normal -0.290285 -2.12483e-16 0.95694
    outer loop
      vertex 36.634 0 5.81245
      vertex 37.2437 0 5.99739
      vertex 36.634 7 5.81245
    endloop
  endfacet
  facet normal -0.471397 -1.95826e-16 0.881921
    outer loop
      vertex 37.8056 0 6.29772
      vertex 37.8056 7 6.29772
      vertex 37.2437 7 5.99739
    endloop
  endfacet
  facet normal -0.471397 -1.95826e-16 0.881921
    outer loop
      vertex 37.2437 0 5.99739
      vertex 37.8056 0 6.29772
      vertex 37.2437 7 5.99739
    endloop
  endfacet
  facet normal -0.634393 -1.71643e-16 0.773011
    outer loop
      vertex 38.2981 0 6.7019
      vertex 38.2981 7 6.7019
      vertex 37.8056 7 6.29772
    endloop
  endfacet
  facet normal -0.634393 -1.71643e-16 0.773011
    outer loop
      vertex 37.8056 0 6.29772
      vertex 38.2981 0 6.7019
      vertex 37.8056 7 6.29772
    endloop
  endfacet
  facet normal -0.773011 -1.40864e-16 0.634393
    outer loop
      vertex 38.7023 7 7.1944
      vertex 38.2981 7 6.7019
      vertex 38.7023 0 7.1944
    endloop
  endfacet
  facet normal -0.773011 -1.40864e-16 0.634393
    outer loop
      vertex 38.7023 0 7.1944
      vertex 38.2981 7 6.7019
      vertex 38.2981 0 6.7019
    endloop
  endfacet
  facet normal -0.881921 -1.04671e-16 0.471397
    outer loop
      vertex 39.0026 7 7.75628
      vertex 38.7023 7 7.1944
      vertex 39.0026 0 7.75628
    endloop
  endfacet
  facet normal -0.881921 -1.04671e-16 0.471397
    outer loop
      vertex 39.0026 0 7.75628
      vertex 38.7023 7 7.1944
      vertex 38.7023 0 7.1944
    endloop
  endfacet
  facet normal -0.95694 -6.44563e-17 0.290285
    outer loop
      vertex 39.1876 7 8.36596
      vertex 39.0026 7 7.75628
      vertex 39.1876 0 8.36596
    endloop
  endfacet
  facet normal -0.95694 -6.44563e-17 0.290285
    outer loop
      vertex 39.1876 0 8.36596
      vertex 39.0026 7 7.75628
      vertex 39.0026 0 7.75628
    endloop
  endfacet
  facet normal -0.995185 -2.17642e-17 0.0980173
    outer loop
      vertex 39.25 7 9
      vertex 39.1876 7 8.36596
      vertex 39.25 0 9
    endloop
  endfacet
  facet normal -0.995185 -2.17642e-17 0.0980173
    outer loop
      vertex 39.25 0 9
      vertex 39.1876 7 8.36596
      vertex 39.1876 0 8.36596
    endloop
  endfacet
  facet normal -0.995185 2.17642e-17 -0.0980173
    outer loop
      vertex 39.25 7 9
      vertex 39.25 0 9
      vertex 39.1876 7 9.63404
    endloop
  endfacet
  facet normal -0.995185 2.17642e-17 -0.0980173
    outer loop
      vertex 39.1876 7 9.63404
      vertex 39.25 0 9
      vertex 39.1876 0 9.63404
    endloop
  endfacet
  facet normal -0.95694 6.44563e-17 -0.290285
    outer loop
      vertex 39.1876 7 9.63404
      vertex 39.1876 0 9.63404
      vertex 39.0026 7 10.2437
    endloop
  endfacet
  facet normal -0.95694 6.44563e-17 -0.290285
    outer loop
      vertex 39.0026 7 10.2437
      vertex 39.1876 0 9.63404
      vertex 39.0026 0 10.2437
    endloop
  endfacet
  facet normal -0.881921 1.04671e-16 -0.471397
    outer loop
      vertex 39.0026 7 10.2437
      vertex 39.0026 0 10.2437
      vertex 38.7023 7 10.8056
    endloop
  endfacet
  facet normal -0.881921 1.04671e-16 -0.471397
    outer loop
      vertex 38.7023 7 10.8056
      vertex 39.0026 0 10.2437
      vertex 38.7023 0 10.8056
    endloop
  endfacet
  facet normal -0.773011 1.40864e-16 -0.634393
    outer loop
      vertex 38.7023 7 10.8056
      vertex 38.7023 0 10.8056
      vertex 38.2981 7 11.2981
    endloop
  endfacet
  facet normal -0.773011 1.40864e-16 -0.634393
    outer loop
      vertex 38.2981 7 11.2981
      vertex 38.7023 0 10.8056
      vertex 38.2981 0 11.2981
    endloop
  endfacet
  facet normal -0.634393 1.71643e-16 -0.773011
    outer loop
      vertex 38.2981 7 11.2981
      vertex 38.2981 0 11.2981
      vertex 37.8056 7 11.7023
    endloop
  endfacet
  facet normal -0.634393 1.71643e-16 -0.773011
    outer loop
      vertex 37.8056 7 11.7023
      vertex 38.2981 0 11.2981
      vertex 37.8056 0 11.7023
    endloop
  endfacet
  facet normal -0.471397 1.95826e-16 -0.881921
    outer loop
      vertex 37.8056 7 11.7023
      vertex 37.8056 0 11.7023
      vertex 37.2437 7 12.0026
    endloop
  endfacet
  facet normal -0.471397 1.95826e-16 -0.881921
    outer loop
      vertex 37.2437 7 12.0026
      vertex 37.8056 0 11.7023
      vertex 37.2437 0 12.0026
    endloop
  endfacet
  facet normal -0.290285 2.12483e-16 -0.95694
    outer loop
      vertex 37.2437 7 12.0026
      vertex 37.2437 0 12.0026
      vertex 36.634 7 12.1876
    endloop
  endfacet
  facet normal -0.290285 2.12483e-16 -0.95694
    outer loop
      vertex 36.634 7 12.1876
      vertex 37.2437 0 12.0026
      vertex 36.634 0 12.1876
    endloop
  endfacet
  facet normal -0.0980173 2.20975e-16 -0.995185
    outer loop
      vertex 36.634 7 12.1876
      vertex 36.634 0 12.1876
      vertex 36 7 12.25
    endloop
  endfacet
  facet normal -0.0980173 2.20975e-16 -0.995185
    outer loop
      vertex 36 7 12.25
      vertex 36.634 0 12.1876
      vertex 36 0 12.25
    endloop
  endfacet
  facet normal 0.0980173 2.20975e-16 -0.995185
    outer loop
      vertex 36 7 12.25
      vertex 36 0 12.25
      vertex 35.366 7 12.1876
    endloop
  endfacet
  facet normal 0.0980173 2.20975e-16 -0.995185
    outer loop
      vertex 35.366 7 12.1876
      vertex 36 0 12.25
      vertex 35.366 0 12.1876
    endloop
  endfacet
  facet normal 0.290285 2.12483e-16 -0.95694
    outer loop
      vertex 35.366 7 12.1876
      vertex 35.366 0 12.1876
      vertex 34.7563 7 12.0026
    endloop
  endfacet
  facet normal 0.290285 2.12483e-16 -0.95694
    outer loop
      vertex 34.7563 7 12.0026
      vertex 35.366 0 12.1876
      vertex 34.7563 0 12.0026
    endloop
  endfacet
  facet normal 0.471397 1.95826e-16 -0.881921
    outer loop
      vertex 34.7563 7 12.0026
      vertex 34.7563 0 12.0026
      vertex 34.1944 7 11.7023
    endloop
  endfacet
  facet normal 0.471397 1.95826e-16 -0.881921
    outer loop
      vertex 34.1944 7 11.7023
      vertex 34.7563 0 12.0026
      vertex 34.1944 0 11.7023
    endloop
  endfacet
  facet normal 0.634393 1.71643e-16 -0.773011
    outer loop
      vertex 34.1944 7 11.7023
      vertex 34.1944 0 11.7023
      vertex 33.7019 7 11.2981
    endloop
  endfacet
  facet normal 0.634393 1.71643e-16 -0.773011
    outer loop
      vertex 33.7019 7 11.2981
      vertex 34.1944 0 11.7023
      vertex 33.7019 0 11.2981
    endloop
  endfacet
  facet normal 0.773011 1.40864e-16 -0.634393
    outer loop
      vertex 33.2977 7 10.8056
      vertex 33.7019 7 11.2981
      vertex 33.7019 0 11.2981
    endloop
  endfacet
  facet normal 0.773011 1.40864e-16 -0.634393
    outer loop
      vertex 33.2977 0 10.8056
      vertex 33.2977 7 10.8056
      vertex 33.7019 0 11.2981
    endloop
  endfacet
  facet normal 0.881921 1.04671e-16 -0.471397
    outer loop
      vertex 32.9974 7 10.2437
      vertex 33.2977 7 10.8056
      vertex 33.2977 0 10.8056
    endloop
  endfacet
  facet normal 0.881921 1.04671e-16 -0.471397
    outer loop
      vertex 32.9974 0 10.2437
      vertex 32.9974 7 10.2437
      vertex 33.2977 0 10.8056
    endloop
  endfacet
  facet normal 0.95694 6.44563e-17 -0.290285
    outer loop
      vertex 32.8124 7 9.63404
      vertex 32.9974 7 10.2437
      vertex 32.9974 0 10.2437
    endloop
  endfacet
  facet normal 0.95694 6.44563e-17 -0.290285
    outer loop
      vertex 32.8124 0 9.63404
      vertex 32.8124 7 9.63404
      vertex 32.9974 0 10.2437
    endloop
  endfacet
  facet normal 0.995185 2.17642e-17 -0.0980173
    outer loop
      vertex 32.75 7 9
      vertex 32.8124 7 9.63404
      vertex 32.8124 0 9.63404
    endloop
  endfacet
  facet normal 0.995185 2.17642e-17 -0.0980173
    outer loop
      vertex 32.75 0 9
      vertex 32.75 7 9
      vertex 32.8124 0 9.63404
    endloop
  endfacet
  facet normal 0.707107 0.707107 0
    outer loop
      vertex 42 5.5 18
      vertex 42 5.5 0
      vertex 40.5 7 18
    endloop
  endfacet
  facet normal 0.707107 0.707107 0
    outer loop
      vertex 40.5 7 18
      vertex 42 5.5 0
      vertex 40.5 7 0
    endloop
  endfacet
  facet normal 0 1 0
    outer loop
      vertex 37.8056 7 11.7023
      vertex 29 7 18
      vertex 40.5 7 18
    endloop
  endfacet
  facet normal 0 1 0
    outer loop
      vertex 29 7 0
      vertex 29 7 18
      vertex 32.75 7 9
    endloop
  endfacet
  facet normal 0 1 0
    outer loop
      vertex 29 7 0
      vertex 32.75 7 9
      vertex 32.8124 7 8.36596
    endloop
  endfacet
  facet normal 0 1 0
    outer loop
      vertex 29 7 0
      vertex 32.8124 7 8.36596
      vertex 32.9974 7 7.75628
    endloop
  endfacet
  facet normal 0 1 0
    outer loop
      vertex 29 7 0
      vertex 32.9974 7 7.75628
      vertex 33.2977 7 7.1944
    endloop
  endfacet
  facet normal 0 1 0
    outer loop
      vertex 29 7 0
      vertex 33.2977 7 7.1944
      vertex 33.7019 7 6.7019
    endloop
  endfacet
  facet normal 0 1 0
    outer loop
      vertex 29 7 0
      vertex 33.7019 7 6.7019
      vertex 40.5 7 0
    endloop
  endfacet
  facet normal 0 1 0
    outer loop
      vertex 33.7019 7 6.7019
      vertex 34.1944 7 6.29772
      vertex 40.5 7 0
    endloop
  endfacet
  facet normal 0 1 0
    outer loop
      vertex 35.366 7 5.81245
      vertex 40.5 7 0
      vertex 34.7563 7 5.99739
    endloop
  endfacet
  facet normal 0 1 0
    outer loop
      vertex 36 7 5.75
      vertex 40.5 7 0
      vertex 35.366 7 5.81245
    endloop
  endfacet
  facet normal 0 1 0
    outer loop
      vertex 37.2437 7 5.99739
      vertex 40.5 7 0
      vertex 36.634 7 5.81245
    endloop
  endfacet
  facet normal 0 1 0
    outer loop
      vertex 32.9974 7 10.2437
      vertex 29 7 18
      vertex 33.2977 7 10.8056
    endloop
  endfacet
  facet normal 0 1 0
    outer loop
      vertex 36 7 5.75
      vertex 36.634 7 5.81245
      vertex 40.5 7 0
    endloop
  endfacet
  facet normal 0 1 0
    outer loop
      vertex 39.1876 7 9.63404
      vertex 40.5 7 18
      vertex 39.25 7 9
    endloop
  endfacet
  facet normal 0 1 0
    outer loop
      vertex 40.5 7 0
      vertex 37.2437 7 5.99739
      vertex 37.8056 7 6.29772
    endloop
  endfacet
  facet normal 0 1 0
    outer loop
      vertex 40.5 7 0
      vertex 37.8056 7 6.29772
      vertex 38.2981 7 6.7019
    endloop
  endfacet
  facet normal 0 1 0
    outer loop
      vertex 40.5 7 0
      vertex 38.2981 7 6.7019
      vertex 38.7023 7 7.1944
    endloop
  endfacet
  facet normal 0 1 0
    outer loop
      vertex 40.5 7 0
      vertex 38.7023 7 7.1944
      vertex 39.0026 7 7.75628
    endloop
  endfacet
  facet normal 0 1 0
    outer loop
      vertex 40.5 7 0
      vertex 39.0026 7 7.75628
      vertex 39.1876 7 8.36596
    endloop
  endfacet
  facet normal 0 1 0
    outer loop
      vertex 40.5 7 0
      vertex 39.1876 7 8.36596
      vertex 40.5 7 18
    endloop
  endfacet
  facet normal 0 1 0
    outer loop
      vertex 39.1876 7 8.36596
      vertex 39.25 7 9
      vertex 40.5 7 18
    endloop
  endfacet
  facet normal 0 1 0
    outer loop
      vertex 39.0026 7 10.2437
      vertex 40.5 7 18
      vertex 39.1876 7 9.63404
    endloop
  endfacet
  facet normal 0 1 0
    outer loop
      vertex 38.7023 7 10.8056
      vertex 40.5 7 18
      vertex 39.0026 7 10.2437
    endloop
  endfacet
  facet normal 0 1 0
    outer loop
      vertex 38.2981 7 11.2981
      vertex 40.5 7 18
      vertex 38.7023 7 10.8056
    endloop
  endfacet
  facet normal 0 1 0
    outer loop
      vertex 33.2977 7 10.8056
      vertex 29 7 18
      vertex 33.7019 7 11.2981
    endloop
  endfacet
  facet normal 0 1 0
    outer loop
      vertex 37.2437 7 12.0026
      vertex 29 7 18
      vertex 37.8056 7 11.7023
    endloop
  endfacet
  facet normal 0 1 0
    outer loop
      vertex 38.2981 7 11.2981
      vertex 37.8056 7 11.7023
      vertex 40.5 7 18
    endloop
  endfacet
  facet normal 0 1 0
    outer loop
      vertex 36.634 7 12.1876
      vertex 29 7 18
      vertex 37.2437 7 12.0026
    endloop
  endfacet
  facet normal 0 1 0
    outer loop
      vertex 36 7 12.25
      vertex 29 7 18
      vertex 36.634 7 12.1876
    endloop
  endfacet
  facet normal 0 1 0
    outer loop
      vertex 35.366 7 12.1876
      vertex 29 7 18
      vertex 36 7 12.25
    endloop
  endfacet
  facet normal 0 1 0
    outer loop
      vertex 34.7563 7 12.0026
      vertex 29 7 18
      vertex 35.366 7 12.1876
    endloop
  endfacet
  facet normal 0 1 0
    outer loop
      vertex 34.1944 7 11.7023
      vertex 29 7 18
      vertex 34.7563 7 12.0026
    endloop
  endfacet
  facet normal 0 1 0
    outer loop
      vertex 33.7019 7 11.2981
      vertex 29 7 18
      vertex 34.1944 7 11.7023
    endloop
  endfacet
  facet normal 0 1 0
    outer loop
      vertex 32.8124 7 9.63404
      vertex 29 7 18
      vertex 32.9974 7 10.2437
    endloop
  endfacet
  facet normal 0 1 0
    outer loop
      vertex 32.75 7 9
      vertex 29 7 18
      vertex 32.8124 7 9.63404
    endloop
  endfacet
  facet normal 0 1 0
    outer loop
      vertex 34.7563 7 5.99739
      vertex 40.5 7 0
      vertex 34.1944 7 6.29772
    endloop
  endfacet
  facet normal 1 0 0
    outer loop
      vertex 29 8.3 7
      vertex 29 7 0
      vertex 29 15.5 0
    endloop
  endfacet
  facet normal 1 0 0
    outer loop
      vertex 29 15.5 18
      vertex 29 7 18
      vertex 29 15.5 0
    endloop
  endfacet
  facet normal 1 0 0
    outer loop
      vertex 29 10.4 7
      vertex 29 8.3 7
      vertex 29 15.5 0
    endloop
  endfacet
  facet normal 1 0 0
    outer loop
      vertex 29 7 18
      vertex 29 7 0
      vertex 29 8.3 7
    endloop
  endfacet
  facet normal 1 0 0
    outer loop
      vertex 29 7 18
      vertex 29 8.3 7
      vertex 29 8.3 10.5
    endloop
  endfacet
  facet normal 1 0 0
    outer loop
      vertex 29 7 18
      vertex 29 10.4 10.5
      vertex 29 15.5 0
    endloop
  endfacet
  facet normal 1 0 0
    outer loop
      vertex 29 7 18
      vertex 29 8.3 10.5
      vertex 29 10.4 10.5
    endloop
  endfacet
  facet normal 1 0 0
    outer loop
      vertex 29 10.4 10.5
      vertex 29 10.4 7
      vertex 29 15.5 0
    endloop
  endfacet
  facet normal 0.707107 0.707107 0
    outer loop
      vertex 29 15.5 18
      vertex 29 15.5 0
      vertex 27 17.5 18
    endloop
  endfacet
  facet normal 0.707107 0.707107 0
    outer loop
      vertex 27 17.5 18
      vertex 29 15.5 0
      vertex 27 17.5 0
    endloop
  endfacet
  facet normal 0 1 0
    outer loop
      vertex 15 17.5 0
      vertex 15 17.5 18
      vertex 17.1722 17.5 0
    endloop
  endfacet
  facet normal 0 1 0
    outer loop
      vertex 17.1722 17.5 13.9
      vertex 15 17.5 18
      vertex 27 17.5 18
    endloop
  endfacet
  facet normal 0 1 0
    outer loop
      vertex 24.8278 17.5 0
      vertex 27 17.5 18
      vertex 27 17.5 0
    endloop
  endfacet
  facet normal 0 1 0
    outer loop
      vertex 24.8278 17.5 13.9
      vertex 27 17.5 18
      vertex 24.8278 17.5 0
    endloop
  endfacet
  facet normal 0 1 0
    outer loop
      vertex 17.1722 17.5 0
      vertex 15 17.5 18
      vertex 17.1722 17.5 13.9
    endloop
  endfacet
  facet normal 0 1 0
    outer loop
      vertex 17.1722 17.5 13.9
      vertex 27 17.5 18
      vertex 24.8278 17.5 13.9
    endloop
  endfacet
  facet normal -0.881921 -0.471397 0
    outer loop
      vertex 24.8341 17.4881 13.9
      vertex 24.8278 17.5 13.9
      vertex 24.8341 17.4881 0
    endloop
  endfacet
  facet normal -0.881921 -0.471397 0
    outer loop
      vertex 24.8341 17.4881 0
      vertex 24.8278 17.5 13.9
      vertex 24.8278 17.5 0
    endloop
  endfacet
  facet normal -0.95694 -0.290285 0
    outer loop
      vertex 25.0703 16.7096 13.9
      vertex 24.8341 17.4881 13.9
      vertex 25.0703 16.7096 0
    endloop
  endfacet
  facet normal -0.95694 -0.290285 0
    outer loop
      vertex 25.0703 16.7096 0
      vertex 24.8341 17.4881 13.9
      vertex 24.8341 17.4881 0
    endloop
  endfacet
  facet normal -0.995185 -0.098017 0
    outer loop
      vertex 25.15 15.9 13.9
      vertex 25.0703 16.7096 13.9
      vertex 25.15 15.9 0
    endloop
  endfacet
  facet normal -0.995185 -0.098017 0
    outer loop
      vertex 25.15 15.9 0
      vertex 25.0703 16.7096 13.9
      vertex 25.0703 16.7096 0
    endloop
  endfacet
  facet normal -0.995185 0.098017 0
    outer loop
      vertex 25.15 15.9 13.9
      vertex 25.15 15.9 0
      vertex 25.0703 15.0904 13.9
    endloop
  endfacet
  facet normal -0.995185 0.098017 0
    outer loop
      vertex 25.0703 15.0904 13.9
      vertex 25.15 15.9 0
      vertex 25.0703 15.0904 0
    endloop
  endfacet
  facet normal -0.95694 0.290285 0
    outer loop
      vertex 25.0703 15.0904 13.9
      vertex 25.0703 15.0904 0
      vertex 24.8341 14.3119 13.9
    endloop
  endfacet
  facet normal -0.95694 0.290285 0
    outer loop
      vertex 24.8341 14.3119 13.9
      vertex 25.0703 15.0904 0
      vertex 24.8341 14.3119 0
    endloop
  endfacet
  facet normal -0.881921 0.471397 0
    outer loop
      vertex 24.8341 14.3119 13.9
      vertex 24.8341 14.3119 0
      vertex 24.4506 13.5944 13.9
    endloop
  endfacet
  facet normal -0.881921 0.471397 0
    outer loop
      vertex 24.4506 13.5944 13.9
      vertex 24.8341 14.3119 0
      vertex 24.4506 13.5944 0
    endloop
  endfacet
  facet normal -0.77301 0.634393 0
    outer loop
      vertex 24.4506 13.5944 13.9
      vertex 24.4506 13.5944 0
      vertex 23.9345 12.9655 13.9
    endloop
  endfacet
  facet normal -0.77301 0.634393 0
    outer loop
      vertex 23.9345 12.9655 13.9
      vertex 24.4506 13.5944 0
      vertex 23.9345 12.9655 0
    endloop
  endfacet
  facet normal -0.634393 0.77301 0
    outer loop
      vertex 23.9345 12.9655 13.9
      vertex 23.9345 12.9655 0
      vertex 23.3056 12.4494 13.9
    endloop
  endfacet
  facet normal -0.634393 0.77301 0
    outer loop
      vertex 23.3056 12.4494 13.9
      vertex 23.9345 12.9655 0
      vertex 23.3056 12.4494 0
    endloop
  endfacet
  facet normal -0.471397 0.881921 0
    outer loop
      vertex 23.3056 12.4494 13.9
      vertex 23.3056 12.4494 0
      vertex 22.5881 12.0659 13.9
    endloop
  endfacet
  facet normal -0.471397 0.881921 0
    outer loop
      vertex 22.5881 12.0659 13.9
      vertex 23.3056 12.4494 0
      vertex 22.5881 12.0659 0
    endloop
  endfacet
  facet normal -0.290285 0.95694 0
    outer loop
      vertex 22.5881 12.0659 13.9
      vertex 22.5881 12.0659 0
      vertex 21.8096 11.8297 13.9
    endloop
  endfacet
  facet normal -0.290285 0.95694 0
    outer loop
      vertex 21.8096 11.8297 13.9
      vertex 22.5881 12.0659 0
      vertex 21.8096 11.8297 0
    endloop
  endfacet
  facet normal -0.098017 0.995185 0
    outer loop
      vertex 21.8096 11.8297 13.9
      vertex 21.8096 11.8297 0
      vertex 21 11.75 13.9
    endloop
  endfacet
  facet normal -0.098017 0.995185 0
    outer loop
      vertex 21 11.75 13.9
      vertex 21.8096 11.8297 0
      vertex 21 11.75 0
    endloop
  endfacet
  facet normal 0.098017 0.995185 0
    outer loop
      vertex 21 11.75 13.9
      vertex 21 11.75 0
      vertex 20.1904 11.8297 13.9
    endloop
  endfacet
  facet normal 0.098017 0.995185 0
    outer loop
      vertex 20.1904 11.8297 13.9
      vertex 21 11.75 0
      vertex 20.1904 11.8297 0
    endloop
  endfacet
  facet normal 0.290285 0.95694 0
    outer loop
      vertex 20.1904 11.8297 13.9
      vertex 20.1904 11.8297 0
      vertex 19.4119 12.0659 13.9
    endloop
  endfacet
  facet normal 0.290285 0.95694 0
    outer loop
      vertex 19.4119 12.0659 13.9
      vertex 20.1904 11.8297 0
      vertex 19.4119 12.0659 0
    endloop
  endfacet
  facet normal 0.471397 0.881921 0
    outer loop
      vertex 19.4119 12.0659 13.9
      vertex 19.4119 12.0659 0
      vertex 18.6944 12.4494 13.9
    endloop
  endfacet
  facet normal 0.471397 0.881921 0
    outer loop
      vertex 18.6944 12.4494 13.9
      vertex 19.4119 12.0659 0
      vertex 18.6944 12.4494 0
    endloop
  endfacet
  facet normal 0.634393 0.77301 0
    outer loop
      vertex 18.6944 12.4494 13.9
      vertex 18.6944 12.4494 0
      vertex 18.0655 12.9655 13.9
    endloop
  endfacet
  facet normal 0.634393 0.77301 0
    outer loop
      vertex 18.0655 12.9655 13.9
      vertex 18.6944 12.4494 0
      vertex 18.0655 12.9655 0
    endloop
  endfacet
  facet normal 0.77301 0.634393 0
    outer loop
      vertex 17.5494 13.5944 13.9
      vertex 18.0655 12.9655 13.9
      vertex 18.0655 12.9655 0
    endloop
  endfacet
  facet normal 0.77301 0.634393 0
    outer loop
      vertex 17.5494 13.5944 0
      vertex 17.5494 13.5944 13.9
      vertex 18.0655 12.9655 0
    endloop
  endfacet
  facet normal 0.881921 0.471397 0
    outer loop
      vertex 17.1659 14.3119 13.9
      vertex 17.5494 13.5944 13.9
      vertex 17.5494 13.5944 0
    endloop
  endfacet
  facet normal 0.881921 0.471397 0
    outer loop
      vertex 17.1659 14.3119 0
      vertex 17.1659 14.3119 13.9
      vertex 17.5494 13.5944 0
    endloop
  endfacet
  facet normal 0.95694 0.290285 0
    outer loop
      vertex 16.9297 15.0904 13.9
      vertex 17.1659 14.3119 13.9
      vertex 17.1659 14.3119 0
    endloop
  endfacet
  facet normal 0.95694 0.290285 0
    outer loop
      vertex 16.9297 15.0904 0
      vertex 16.9297 15.0904 13.9
      vertex 17.1659 14.3119 0
    endloop
  endfacet
  facet normal 0.995185 0.098017 0
    outer loop
      vertex 16.85 15.9 13.9
      vertex 16.9297 15.0904 13.9
      vertex 16.9297 15.0904 0
    endloop
  endfacet
  facet normal 0.995185 0.098017 0
    outer loop
      vertex 16.85 15.9 0
      vertex 16.85 15.9 13.9
      vertex 16.9297 15.0904 0
    endloop
  endfacet
  facet normal 0.995185 -0.098017 0
    outer loop
      vertex 16.9297 16.7096 0
      vertex 16.9297 16.7096 13.9
      vertex 16.85 15.9 13.9
    endloop
  endfacet
  facet normal 0.995185 -0.098017 0
    outer loop
      vertex 16.85 15.9 0
      vertex 16.9297 16.7096 0
      vertex 16.85 15.9 13.9
    endloop
  endfacet
  facet normal 0.95694 -0.290285 0
    outer loop
      vertex 17.1659 17.4881 0
      vertex 17.1659 17.4881 13.9
      vertex 16.9297 16.7096 13.9
    endloop
  endfacet
  facet normal 0.95694 -0.290285 0
    outer loop
      vertex 16.9297 16.7096 0
      vertex 17.1659 17.4881 0
      vertex 16.9297 16.7096 13.9
    endloop
  endfacet
  facet normal 0.881921 -0.471397 0
    outer loop
      vertex 17.1722 17.5 0
      vertex 17.1722 17.5 13.9
      vertex 17.1659 17.4881 13.9
    endloop
  endfacet
  facet normal 0.881921 -0.471397 0
    outer loop
      vertex 17.1659 17.4881 0
      vertex 17.1722 17.5 0
      vertex 17.1659 17.4881 13.9
    endloop
  endfacet
  facet normal -0.707107 0.707107 0
    outer loop
      vertex 15 17.5 18
      vertex 15 17.5 0
      vertex 13 15.5 18
    endloop
  endfacet
  facet normal -0.707107 0.707107 0
    outer loop
      vertex 13 15.5 18
      vertex 15 17.5 0
      vertex 13 15.5 0
    endloop
  endfacet
  facet normal -1 0 0
    outer loop
      vertex 13 10.4 10.5
      vertex 13 7 18
      vertex 13 15.5 0
    endloop
  endfacet
  facet normal -1 0 0
    outer loop
      vertex 13 15.5 0
      vertex 13 7 18
      vertex 13 15.5 18
    endloop
  endfacet
  facet normal -1 0 0
    outer loop
      vertex 13 7 0
      vertex 13 7 18
      vertex 13 8.3 10.5
    endloop
  endfacet
  facet normal -1 0 0
    outer loop
      vertex 13 7 0
      vertex 13 8.3 10.5
      vertex 13 8.3 7
    endloop
  endfacet
  facet normal -1 0 0
    outer loop
      vertex 13 7 0
      vertex 13 8.3 7
      vertex 13 15.5 0
    endloop
  endfacet
  facet normal -1 0 0
    outer loop
      vertex 13 8.3 7
      vertex 13 10.4 7
      vertex 13 15.5 0
    endloop
  endfacet
  facet normal -1 0 0
    outer loop
      vertex 13 8.3 10.5
      vertex 13 7 18
      vertex 13 10.4 10.5
    endloop
  endfacet
  facet normal -1 0 0
    outer loop
      vertex 13 10.4 10.5
      vertex 13 15.5 0
      vertex 13 10.4 7
    endloop
  endfacet
  facet normal 0 1 0
    outer loop
      vertex 8.2981 7 11.2981
      vertex 1.5 7 18
      vertex 13 7 18
    endloop
  endfacet
  facet normal 0 1 0
    outer loop
      vertex 1.5 7 0
      vertex 1.5 7 18
      vertex 2.75 7 9
    endloop
  endfacet
  facet normal 0 1 0
    outer loop
      vertex 1.5 7 0
      vertex 2.75 7 9
      vertex 2.81245 7 8.36596
    endloop
  endfacet
  facet normal 0 1 0
    outer loop
      vertex 1.5 7 0
      vertex 2.81245 7 8.36596
      vertex 2.99739 7 7.75628
    endloop
  endfacet
  facet normal 0 1 0
    outer loop
      vertex 1.5 7 0
      vertex 2.99739 7 7.75628
      vertex 3.29772 7 7.1944
    endloop
  endfacet
  facet normal 0 1 0
    outer loop
      vertex 1.5 7 0
      vertex 3.29772 7 7.1944
      vertex 3.7019 7 6.7019
    endloop
  endfacet
  facet normal 0 1 0
    outer loop
      vertex 1.5 7 0
      vertex 3.7019 7 6.7019
      vertex 4.1944 7 6.29772
    endloop
  endfacet
  facet normal 0 1 0
    outer loop
      vertex 1.5 7 0
      vertex 4.1944 7 6.29772
      vertex 13 7 0
    endloop
  endfacet
  facet normal 0 1 0
    outer loop
      vertex 5.36596 7 5.81245
      vertex 13 7 0
      vertex 4.75628 7 5.99739
    endloop
  endfacet
  facet normal 0 1 0
    outer loop
      vertex 6 7 5.75
      vertex 13 7 0
      vertex 5.36596 7 5.81245
    endloop
  endfacet
  facet normal 0 1 0
    outer loop
      vertex 6.63404 7 5.81245
      vertex 13 7 0
      vertex 6 7 5.75
    endloop
  endfacet
  facet normal 0 1 0
    outer loop
      vertex 8.70228 7 7.1944
      vertex 13 7 0
      vertex 8.2981 7 6.7019
    endloop
  endfacet
  facet normal 0 1 0
    outer loop
      vertex 3.7019 7 11.2981
      vertex 1.5 7 18
      vertex 4.1944 7 11.7023
    endloop
  endfacet
  facet normal 0 1 0
    outer loop
      vertex 6.63404 7 5.81245
      vertex 7.24372 7 5.99739
      vertex 13 7 0
    endloop
  endfacet
  facet normal 0 1 0
    outer loop
      vertex 7.24372 7 5.99739
      vertex 7.8056 7 6.29772
      vertex 13 7 0
    endloop
  endfacet
  facet normal 0 1 0
    outer loop
      vertex 4.1944 7 11.7023
      vertex 1.5 7 18
      vertex 4.75628 7 12.0026
    endloop
  endfacet
  facet normal 0 1 0
    outer loop
      vertex 7.8056 7 6.29772
      vertex 8.2981 7 6.7019
      vertex 13 7 0
    endloop
  endfacet
  facet normal 0 1 0
    outer loop
      vertex 4.75628 7 12.0026
      vertex 1.5 7 18
      vertex 5.36596 7 12.1876
    endloop
  endfacet
  facet normal 0 1 0
    outer loop
      vertex 13 7 0
      vertex 8.70228 7 7.1944
      vertex 9.00261 7 7.75628
    endloop
  endfacet
  facet normal 0 1 0
    outer loop
      vertex 13 7 0
      vertex 9.00261 7 7.75628
      vertex 13 7 18
    endloop
  endfacet
  facet normal 0 1 0
    outer loop
      vertex 9.00261 7 7.75628
      vertex 9.18755 7 8.36596
      vertex 13 7 18
    endloop
  endfacet
  facet normal 0 1 0
    outer loop
      vertex 5.36596 7 12.1876
      vertex 1.5 7 18
      vertex 6 7 12.25
    endloop
  endfacet
  facet normal 0 1 0
    outer loop
      vertex 7.24372 7 12.0026
      vertex 1.5 7 18
      vertex 7.8056 7 11.7023
    endloop
  endfacet
  facet normal 0 1 0
    outer loop
      vertex 6 7 12.25
      vertex 1.5 7 18
      vertex 6.63404 7 12.1876
    endloop
  endfacet
  facet normal 0 1 0
    outer loop
      vertex 9.25 7 9
      vertex 9.18755 7 9.63404
      vertex 13 7 18
    endloop
  endfacet
  facet normal 0 1 0
    outer loop
      vertex 6.63404 7 12.1876
      vertex 1.5 7 18
      vertex 7.24372 7 12.0026
    endloop
  endfacet
  facet normal 0 1 0
    outer loop
      vertex 9.18755 7 9.63404
      vertex 9.00261 7 10.2437
      vertex 13 7 18
    endloop
  endfacet
  facet normal 0 1 0
    outer loop
      vertex 9.00261 7 10.2437
      vertex 8.70228 7 10.8056
      vertex 13 7 18
    endloop
  endfacet
  facet normal 0 1 0
    outer loop
      vertex 7.8056 7 11.7023
      vertex 1.5 7 18
      vertex 8.2981 7 11.2981
    endloop
  endfacet
  facet normal 0 1 0
    outer loop
      vertex 8.70228 7 10.8056
      vertex 8.2981 7 11.2981
      vertex 13 7 18
    endloop
  endfacet
  facet normal 0 1 0
    outer loop
      vertex 9.25 7 9
      vertex 13 7 18
      vertex 9.18755 7 8.36596
    endloop
  endfacet
  facet normal 0 1 0
    outer loop
      vertex 3.29772 7 10.8056
      vertex 1.5 7 18
      vertex 3.7019 7 11.2981
    endloop
  endfacet
  facet normal 0 1 0
    outer loop
      vertex 2.99739 7 10.2437
      vertex 1.5 7 18
      vertex 3.29772 7 10.8056
    endloop
  endfacet
  facet normal 0 1 0
    outer loop
      vertex 2.81245 7 9.63404
      vertex 1.5 7 18
      vertex 2.99739 7 10.2437
    endloop
  endfacet
  facet normal 0 1 0
    outer loop
      vertex 2.75 7 9
      vertex 1.5 7 18
      vertex 2.81245 7 9.63404
    endloop
  endfacet
  facet normal 0 1 0
    outer loop
      vertex 4.75628 7 5.99739
      vertex 13 7 0
      vertex 4.1944 7 6.29772
    endloop
  endfacet
  facet normal 0 1 0
    outer loop
      vertex 29 8.3 10.5
      vertex 29 8.3 7
      vertex 13 8.3 10.5
    endloop
  endfacet
  facet normal 0 1 0
    outer loop
      vertex 13 8.3 10.5
      vertex 29 8.3 7
      vertex 13 8.3 7
    endloop
  endfacet
  facet normal 0 0 1
    outer loop
      vertex 29 8.3 7
      vertex 29 10.4 7
      vertex 13 10.4 7
    endloop
  endfacet
  facet normal 0 0 1
    outer loop
      vertex 13 8.3 7
      vertex 29 8.3 7
      vertex 13 10.4 7
    endloop
  endfacet
  facet normal 0 -1 0
    outer loop
      vertex 29 10.4 7
      vertex 29 10.4 10.5
      vertex 13 10.4 10.5
    endloop
  endfacet
  facet normal 0 -1 0
    outer loop
      vertex 13 10.4 7
      vertex 29 10.4 7
      vertex 13 10.4 10.5
    endloop
  endfacet
  facet normal 0 0 -1
    outer loop
      vertex 29 10.4 10.5
      vertex 29 8.3 10.5
      vertex 13 10.4 10.5
    endloop
  endfacet
  facet normal 0 0 -1
    outer loop
      vertex 13 10.4 10.5
      vertex 29 8.3 10.5
      vertex 13 8.3 10.5
    endloop
  endfacet
  facet normal 0 0 -1
    outer loop
      vertex 17.1659 17.4881 13.9
      vertex 17.1722 17.5 13.9
      vertex 16.9297 16.7096 13.9
    endloop
  endfacet
  facet normal 0 0 -1
    outer loop
      vertex 16.9297 16.7096 13.9
      vertex 17.1722 17.5 13.9
      vertex 24.8278 17.5 13.9
    endloop
  endfacet
  facet normal 0 0 -1
    outer loop
      vertex 16.9297 16.7096 13.9
      vertex 24.8278 17.5 13.9
      vertex 24.8341 17.4881 13.9
    endloop
  endfacet
  facet normal 0 0 -1
    outer loop
      vertex 16.9297 16.7096 13.9
      vertex 24.8341 17.4881 13.9
      vertex 25.0703 16.7096 13.9
    endloop
  endfacet
  facet normal 0 0 -1
    outer loop
      vertex 16.9297 16.7096 13.9
      vertex 25.0703 16.7096 13.9
      vertex 25.15 15.9 13.9
    endloop
  endfacet
  facet normal 0 0 -1
    outer loop
      vertex 16.9297 16.7096 13.9
      vertex 25.15 15.9 13.9
      vertex 25.0703 15.0904 13.9
    endloop
  endfacet
  facet normal 0 0 -1
    outer loop
      vertex 16.9297 16.7096 13.9
      vertex 25.0703 15.0904 13.9
      vertex 24.8341 14.3119 13.9
    endloop
  endfacet
  facet normal 0 0 -1
    outer loop
      vertex 16.9297 16.7096 13.9
      vertex 24.8341 14.3119 13.9
      vertex 24.4506 13.5944 13.9
    endloop
  endfacet
  facet normal 0 0 -1
    outer loop
      vertex 16.9297 16.7096 13.9
      vertex 24.4506 13.5944 13.9
      vertex 23.9345 12.9655 13.9
    endloop
  endfacet
  facet normal 0 0 -1
    outer loop
      vertex 16.9297 16.7096 13.9
      vertex 23.9345 12.9655 13.9
      vertex 23.3056 12.4494 13.9
    endloop
  endfacet
  facet normal 0 0 -1
    outer loop
      vertex 16.9297 16.7096 13.9
      vertex 23.3056 12.4494 13.9
      vertex 22.5881 12.0659 13.9
    endloop
  endfacet
  facet normal 0 0 -1
    outer loop
      vertex 16.9297 16.7096 13.9
      vertex 22.5881 12.0659 13.9
      vertex 21.8096 11.8297 13.9
    endloop
  endfacet
  facet normal 0 0 -1
    outer loop
      vertex 16.9297 16.7096 13.9
      vertex 21.8096 11.8297 13.9
      vertex 21 11.75 13.9
    endloop
  endfacet
  facet normal 0 0 -1
    outer loop
      vertex 16.9297 16.7096 13.9
      vertex 21 11.75 13.9
      vertex 20.1904 11.8297 13.9
    endloop
  endfacet
  facet normal 0 0 -1
    outer loop
      vertex 16.9297 16.7096 13.9
      vertex 20.1904 11.8297 13.9
      vertex 19.4119 12.0659 13.9
    endloop
  endfacet
  facet normal 0 0 -1
    outer loop
      vertex 16.9297 16.7096 13.9
      vertex 19.4119 12.0659 13.9
      vertex 18.6944 12.4494 13.9
    endloop
  endfacet
  facet normal 0 0 -1
    outer loop
      vertex 16.9297 16.7096 13.9
      vertex 18.6944 12.4494 13.9
      vertex 18.0655 12.9655 13.9
    endloop
  endfacet
  facet normal 0 0 -1
    outer loop
      vertex 16.9297 16.7096 13.9
      vertex 18.0655 12.9655 13.9
      vertex 17.5494 13.5944 13.9
    endloop
  endfacet
  facet normal 0 0 -1
    outer loop
      vertex 16.9297 16.7096 13.9
      vertex 17.5494 13.5944 13.9
      vertex 17.1659 14.3119 13.9
    endloop
  endfacet
  facet normal 0 0 -1
    outer loop
      vertex 16.9297 16.7096 13.9
      vertex 17.1659 14.3119 13.9
      vertex 16.9297 15.0904 13.9
    endloop
  endfacet
  facet normal 0 0 -1
    outer loop
      vertex 16.9297 16.7096 13.9
      vertex 16.9297 15.0904 13.9
      vertex 16.85 15.9 13.9
    endloop
  endfacet
endsolid OpenSCAD_Model
